<svg width="1136" height="1226" viewBox="0 0 1136 1226" fill="none" xmlns="http://www.w3.org/2000/svg">
<path fill-rule="evenodd" clip-rule="evenodd" d="M452.943 498.689C452.833 498.604 452.722 498.579 452.603 498.639C450.333 499.729 449.863 501.909 449.083 504.179C447.943 507.499 446.623 510.739 445.403 514.029C442.972 520.629 440.653 527.219 437.943 533.709C435.163 540.389 432.283 546.949 428.983 553.399C427.393 556.519 425.683 559.579 423.943 562.619C422.743 564.729 421.623 567.629 420.043 569.609C419.923 568.979 419.753 568.379 419.553 567.819C419.762 567.919 419.963 568.029 420.153 568.149C420.553 568.399 421.033 567.899 420.793 567.509C419.933 566.089 418.813 565.129 417.533 564.479C413.993 560.549 335.964 579.304 314.633 600.369C276 638.52 249.923 685.689 232.773 735.869C223.303 763.559 214.583 791.519 205.573 819.359C196.053 848.799 186.113 878.109 176.573 907.529C174.483 913.999 179.043 919.879 184.803 922.009C195.533 925.969 206.343 929.699 217.243 933.149C211.953 953.459 208.253 974.199 205.593 994.999C200.103 1037.89 199.413 1081.65 190.762 1124.09C188.776 1133.83 186.263 1143.43 183.608 1153.01L182.993 1155.22C181.413 1160.84 179.972 1166.51 178.033 1172.01C176.363 1176.74 174.203 1181.51 173.033 1186.39C171.663 1192.13 173.683 1198.4 179.053 1201.35C183.363 1203.72 189.533 1202.74 192.133 1198.29C192.663 1197.38 192.983 1196.39 193.113 1195.39C193.503 1194.56 193.863 1193.71 194.183 1192.84C194.308 1192.5 194.418 1192.16 194.523 1191.81L194.833 1190.77C195.593 1188.29 196.293 1185.79 196.993 1183.29C198.133 1179.28 199.281 1175.28 200.549 1171.3L201.193 1169.32C204.333 1159.76 207.143 1150.12 209.593 1140.36C218.361 1105.36 220.221 1069.13 222.628 1033.26L222.753 1031.41C224.933 999.269 226.233 967.199 223.563 935.129L223.928 935.247V935.247L224.293 935.359C227.762 936.419 231.243 937.459 234.733 938.469C234.843 938.509 234.943 938.549 235.053 938.579C237.287 939.27 239.583 939.927 241.918 940.538L243.323 940.899L244.313 941.169L245.356 941.465C248.663 942.424 252.034 943.527 255.463 943.419C261.143 944.329 266.923 944.879 272.603 944.899C270.853 973.509 268.833 1002.1 266.423 1030.66C264.003 1059.37 260.793 1087.97 257.463 1116.57C255.823 1130.7 254.063 1144.8 252.123 1158.88C251.143 1166.02 250.123 1173.12 248.823 1180.2C247.483 1187.44 245.113 1195.18 246.543 1202.5C246.573 1202.49 246.603 1202.48 246.633 1202.48C247.113 1204.6 248.393 1206.5 250.623 1207.81C254.713 1210.2 260.433 1208.8 262.783 1204.62C262.983 1204.27 263.173 1203.91 263.353 1203.54C265.762 1204.57 268.403 1204.97 271.643 1205L315.583 1205.44V1205.44C335.553 1205.64 355.523 1205.85 375.503 1206.14C438.232 1207.06 500.961 1208.13 563.69 1208.89L587.213 1209.16C622.493 1209.53 657.793 1210.26 693.073 1210.25C710.722 1210.25 728.353 1210.19 746.003 1209.76C754.553 1209.55 763.083 1209.22 771.623 1208.87L773.131 1208.8C779.949 1208.46 787.187 1207.83 793.853 1209.36C795.693 1212.94 800.393 1213.68 802.853 1210.02C808.475 1201.64 810.009 1189.96 811.048 1179.72L811.413 1176.04C812.563 1164.57 813.573 1153.1 814.323 1141.61C816.983 1100.9 817.953 1060.15 816.733 1019.36C816.113 998.569 814.203 977.899 811.943 957.229C811.233 950.779 810.493 944.339 809.693 937.909L809.68 935.622C809.678 934.891 809.683 934.194 809.703 933.539L809.903 927.334C810.068 922.163 810.222 916.988 810.286 911.814L810.313 908.709L810.343 902.929C815.283 902.459 820.553 900.819 824.813 900.029C831.722 898.739 838.613 897.349 845.483 895.879C859.243 892.919 872.853 889.419 886.373 885.549L889.249 884.723C901.724 881.128 914.371 877.295 926.173 871.919C930.793 869.809 935.403 867.429 939.453 864.309C939.693 867.589 940.063 870.859 940.283 874.109C940.722 880.539 941.243 886.949 941.673 893.379L942.085 899.496C942.76 909.69 943.368 919.874 943.643 930.099C944.863 974.699 945.073 1019.49 942.713 1064.06C941.543 1086.37 939.873 1108.68 937.463 1130.9C936.283 1141.83 935.033 1152.79 933.493 1163.68C931.903 1174.87 929.033 1185.99 928.153 1197.26C927.313 1208.13 943.933 1209.71 946.663 1199.77C949.932 1187.85 950.765 1174.99 952.488 1162.74L952.683 1161.38C954.593 1148.36 956.123 1135.29 957.443 1122.2C962.001 1077.05 963.183 1031.67 960.793 986.349C959.657 964.643 956.963 943.022 953.702 921.546L953.323 919.069C951.839 909.451 950.449 899.833 948.768 890.257L948.123 886.669C946.613 878.439 945.453 869.489 943.003 861.259L943.732 860.587C945.093 859.319 946.569 857.851 947.643 856.269C951.343 855.769 954.493 853.109 954.103 848.279C952.833 832.409 947.033 816.269 941.863 801.289C936.673 786.229 930.653 771.449 923.833 757.049C899.843 706.439 865.293 660.489 823.043 623.679C800.633 604.149 776.073 586.829 748.933 574.499C735.553 568.409 721.713 563.699 707.213 561.159C700.033 559.899 692.783 558.919 685.483 558.709C679.561 555.212 672.529 556.683 666.795 560.517L666.483 560.729H666.472L665.003 561.019V561.019C664.643 561.089 664.653 561.659 665.003 561.739C665.023 561.739 665.053 561.749 665.073 561.759C664.133 562.499 663.243 563.289 662.413 564.139C659.673 566.939 659.683 570.319 661.093 573.049C652.703 580.829 647.403 590.819 641.853 600.889C635.903 611.669 628.113 620.989 618.633 628.849C583.883 657.669 532.773 670.419 489.233 656.809C457.213 646.809 429.863 619.739 422.303 587.149C424.093 587.789 426.033 587.889 427.873 587.229C436.514 584.148 439.808 574.705 443.113 566.809L443.273 566.429C446.503 558.779 449.213 551.009 451.353 542.989C453.512 534.889 454.783 526.339 455.313 517.979C455.518 514.673 455.428 511.368 455.257 508.062L455.105 505.329C454.988 502.852 455.025 500.322 452.943 498.689ZM593.533 476.399C593.413 476.099 592.943 475.939 592.763 476.299C585.114 492.079 590.133 513.699 597.364 528.749C604.933 544.489 616.333 556.429 629.843 566.759C631.703 568.179 633.614 569.579 635.553 570.949C646.824 578.909 656.864 557.449 643.853 553.349C630.293 546.459 619.273 534.179 611.614 521.279C607.473 514.309 603.803 507.049 600.993 499.429C598.193 491.829 596.513 483.919 593.533 476.399Z" fill="black"/>
<path fill-rule="evenodd" clip-rule="evenodd" d="M718.011 0.872524C709.392 -1.82748 703.89 2.05952 699.965 8.08152C699.1 7.91252 698.263 7.92352 697.331 8.14852C697.101 8.20452 696.543 8.41552 696.121 8.58152C695.794 8.71852 695.5 8.88452 695.217 9.06052L695.048 8.97152V8.97152C694.401 8.26452 693.722 7.61952 692.988 7.09952C691.34 5.93152 689.641 5.59152 688.03 5.83152L687.283 5.55652V5.55652C680.903 3.32852 673.985 4.36252 669.66 9.87052C668.822 10.9345 668.146 12.1195 667.568 13.3695C666.271 13.7955 665.053 14.4115 664.005 15.1695C663.268 14.8225 662.49 14.5305 661.656 14.3155C656.949 13.1055 652.004 14.2475 648.168 17.1395C646.3 18.5465 644.926 20.3085 643.884 22.3205C642.698 22.5995 641.525 23.1015 640.426 23.7755C639.482 23.3045 638.523 22.8625 637.54 22.5595C633.947 21.4535 630.092 21.0465 626.352 21.3255C618.293 21.9245 610.498 31.1493 615.885 39.0709L616.052 39.3105C616.735 40.2655 617.33 41.2525 617.881 42.2555C615.952 43.0965 614.094 44.2215 612.378 45.6315C603.982 52.5268 603.227 63.1565 604.797 73.1841L604.864 73.6015H604.844C600.383 74.0259 596.532 78.6946 599.167 83.0859L599.295 83.2915C602.863 88.8145 605.92 94.9155 609.328 100.728C618.759 104.135 627.853 108.331 636.416 113.415C641.75 118.097 646.828 123.047 651.295 128.554C653.526 131.304 655.574 134.215 657.457 137.233C655.952 137.958 654.089 137.921 652.517 136.461C638.527 123.47 621.626 114.353 603.63 108.243C602.334 107.802 601.484 106.972 601.007 105.99C593.018 103.709 584.888 101.94 576.677 100.688C574.414 98.5265 572.043 96.4605 569.79 94.3085C566.913 91.5625 563.309 91.6025 560.617 93.3275C559.28 92.7167 557.912 92.1774 556.524 91.6928L555.663 91.3985C555.303 91.2805 554.96 91.1435 554.607 91.0355C544.972 88.0841 536.162 89.1799 526.685 91.6049L525.471 91.9215C521.054 93.096 518.274 92.9083 513.995 91.8273L513.514 91.7035C508.968 90.5155 504.107 89.6355 499.46 90.8865C494.599 92.1959 491.374 95.1076 488.063 98.6257L487.731 98.9795C486.186 100.636 485.293 100.817 483.27 100.776L481.104 100.712C472.927 100.487 464.92 100.833 458.795 107.171C456.532 109.514 454.102 112.831 452.644 115.859L452.433 116.311C452.365 116.458 452.305 116.581 452.249 116.691C451.371 116.549 450.004 115.992 449.353 115.865C440.442 114.133 433.007 116.802 427.284 123.839C426.033 125.379 424.142 128.403 422.831 130.065C422.372 130.455 421.939 130.873 421.529 131.312C419.381 132.687 416.336 132.6 413.927 133.082C407.362 134.392 400.345 136.894 397.007 143.155C395.612 145.768 395.096 148.627 394.507 151.483C392.3 152.936 390.571 155.03 389.227 157.297C387.595 160.049 386.9 163.42 385.02 166.019C383.655 167.907 381.569 168.915 379.584 170.069L378.826 170.515C372.944 174.025 368.339 177.92 366.402 184.797L366.234 185.408C365.92 186.462 364.817 189.468 365.778 189.017C364.951 189.474 363.546 189.635 362.791 189.885C358.711 191.238 355.163 193.424 352.99 197.263C351.336 200.184 351.036 203.23 350.562 206.451L350.361 207.752C350.309 208.066 350.248 208.432 350.184 208.786L350.12 209.135L350.108 209.143C349.369 209.463 348.643 209.81 347.93 210.184C344.548 212.179 342.236 215.642 342.236 219.651C342.236 221.597 342.842 223.113 343.726 224.466C343.011 225.55 342.458 226.705 342.04 227.992C341.22 230.505 341.163 233.253 341.438 235.853C341.77 238.973 342.569 241.814 343.51 244.794C343.872 245.944 344.019 247.551 344.565 248.649C343.558 249.936 342.957 251.509 343.144 253.061C343.41 255.281 344.421 257.876 346.428 259.121C347.409 263.971 349.52 268.927 351.599 272.892C351.838 273.352 352.128 273.762 352.447 274.102C352.158 289.932 353.315 305.873 353.395 321.682C353.485 338.892 353.126 356.113 352.527 373.302C351.519 401.792 347.917 431.252 356.309 459.033C363.174 481.772 376.926 501.292 395.366 516.092C414.247 531.232 437.007 539.993 461.177 541.363C473.471 542.052 485.975 540.652 497.87 537.462L499.141 537.116C510.649 533.948 523.979 529.108 532.447 520.632C536.917 516.152 532.397 506.663 525.841 509.272C519.344 511.863 513.516 515.692 507.07 518.392C501.312 520.802 495.304 522.652 489.218 524.012C477.014 526.762 464.071 527.363 451.667 525.652C406.882 519.512 371.986 482.243 365.1 438.052C363.195 425.814 363.23 413.375 363.359 401.009L363.501 387.459C363.61 376.124 363.65 364.783 363.234 353.453C362.705 338.873 361.678 324.302 360.301 309.783L359.583 302.228C358.732 293.387 357.773 284.48 356.119 275.762C357.474 275.833 368.158 257.517 374.087 247.282C376.252 245.562 378.079 243.425 378.784 240.66C378.931 240.083 379.007 239.501 379.053 238.918C380.34 236.891 381.698 234.916 383.131 233L383.444 232.859C383.685 232.749 383.872 232.658 383.982 232.596C387.109 230.819 389.72 228.127 391.508 225.007C392.11 223.955 392.604 222.857 393.005 221.734C395.555 219.227 398.222 216.835 401.024 214.592C401.3 214.372 401.584 214.166 401.862 213.949C405.429 212.615 408.561 210.605 410.844 207.71C411.798 207.118 412.759 206.538 413.728 205.97C416.635 205.943 419.573 205.264 422.431 204.087C427.66 201.935 431.836 197.682 437.089 195.711C442.644 193.628 448.497 198.362 454.4 197.508C455.906 197.29 457.4 196.831 458.789 196.165C462.113 199.693 465.641 203.019 469.53 205.93C475.175 210.156 480.947 212.087 487.49 213.996C490.732 217.079 494.362 220.068 498.74 220.507C508.871 228.623 519.708 235.469 531.109 241.825C532.944 242.847 534.767 243.308 536.497 243.32C540.074 245.57 543.977 247.301 548.102 248.499C549.394 248.874 550.726 248.953 552.036 248.792L555.615 251.713V251.713C558.105 253.745 560.762 254.716 563.303 254.779C564.85 255.966 566.453 257.089 568.102 258.169C569.87 259.328 572.162 259.808 574.465 259.668C577.982 263.116 582.544 263.478 586.364 261.89C586.889 262.198 587.428 262.49 588.035 262.777C588.859 263.168 589.72 263.498 590.597 263.765C594.58 268.067 600.411 270.323 606.254 269.733C610.616 272.411 615.695 273.804 620.659 273.491C621.417 277.303 622.043 281.129 622.573 284.968L622.627 287.78C622.633 288.235 622.634 288.591 622.628 288.825L622.625 288.918C622.139 301.247 621.874 313.582 621.394 325.913L621.35 326.886C620.803 337.659 618.158 357.3 633.96 356.873C639.849 356.713 645.691 352.368 650.276 348.795L650.922 348.291C651.273 348.017 651.634 347.736 651.996 347.45C655.423 347.004 658.802 346.169 662.262 346.042C666.533 345.892 671.024 346.332 675.185 347.302C682.529 349.012 689.634 352.363 694.424 358.432C694.843 358.962 695.232 359.522 695.602 360.082C695.941 361.232 696.52 362.292 697.288 363.212C701.819 373.422 699.203 386.913 694.195 396.252C688.227 407.376 678.784 415.067 666.909 418.941L666.314 419.132C658.201 421.672 655.097 426.592 650.687 433.432C646.555 439.852 641.815 445.832 636.726 451.512C626.877 462.502 613.055 471.573 607.328 485.482C606.171 488.283 609.484 490.922 612.048 490.203C622.097 487.373 629.142 480.203 636.447 473.073C641.502 468.135 646.364 462.999 650.925 457.604C651.882 458.047 652.935 458.345 654.032 458.479C658.871 459.071 663.863 458.825 668.1 456.211C670.053 456.389 672.087 455.71 673.598 454.323C674.984 453.047 676.18 451.667 677.19 450.198C678.724 450.333 680.231 450.374 681.669 450.135C682.363 450.07 683.034 449.887 683.65 449.587C684.794 449.134 685.878 448.436 686.874 447.365C688.892 445.195 689.665 442.129 689.293 439.215C689.692 439.131 690.088 439.028 690.48 438.895C693.166 437.984 695.233 436.175 696.555 433.713C698.919 432.384 701.047 430.582 702.659 428.668C704.622 426.339 706.103 423.714 706.973 420.815C707.872 420.396 708.745 419.911 709.581 419.343C715.573 415.28 719.004 407.652 716.651 400.599L716.571 400.377C716.452 400.059 716.235 399.518 715.971 398.908C716.009 398.411 716.048 397.914 716.075 397.416L716.158 395.914V395.914L717.359 395.403V395.403C723.346 393.017 727.393 389.796 728.113 383.045C728.263 381.649 727.722 380.225 726.869 379.035L726.873 378.661V378.661C727.262 378.459 727.632 378.252 727.958 378.044C731.222 375.955 733.228 372.211 733.004 368.339C732.797 364.809 730.846 361.995 728.653 359.393L728.026 358.664C727.974 358.605 727.916 358.539 727.854 358.468L729.304 358.01C730.245 357.71 731.106 357.412 731.726 357.064C734.125 355.717 736.159 353.896 737.413 351.582C737.596 351.295 737.782 351.013 737.949 350.707C739.569 347.746 739.78 343.952 738.736 340.773C738.612 340.398 738.452 340.045 738.288 339.694C742.699 338.136 746.095 334.916 746.504 328.982C746.665 326.648 746.155 324.323 745.046 322.332C745.292 320.991 745.343 319.601 745.184 318.226C746.736 316.757 747.941 314.987 748.48 312.828C749.499 308.749 747.634 304.868 744.862 301.309C745.887 298.495 745.94 295.32 744.769 292.487C745.22 291.073 745.476 289.578 745.49 288.043C745.521 284.644 744.476 281.805 742.789 279.39C745.161 276.484 746.288 272.622 744.887 269.003C743.89 266.431 742.75 264.078 741.437 261.898C742.126 260.24 742.528 258.383 742.528 256.304C742.528 252.564 741.128 249.601 738.988 247.176C739.917 242.747 738.028 237.353 733.911 235.403C732.359 234.667 730.281 233.899 727.992 233.301C727.133 230.611 726.236 227.932 725.289 225.272C723.797 221.085 722.192 216.956 720.492 212.875C721.471 213.734 722.498 214.535 723.56 215.261C726.918 219.539 731.369 223.245 735.11 225.462C742.527 229.858 751.009 227.25 754.67 219.895C758.111 222.469 762.24 223.993 766.646 223.472C771.641 222.881 776.208 219.639 777.456 214.582C777.636 213.85 777.745 213.059 777.756 212.263C780.621 214.307 783.619 216.188 786.907 217.265C791.095 218.637 795.37 215.346 795.923 211.246C796.141 209.621 795.838 208.185 795.192 206.972L795.601 206.81C795.669 206.782 795.737 206.752 795.804 206.721C798 205.69 799.706 203.8 800.516 201.62C805.272 203.464 810.716 201.303 812.225 196.062C814.021 189.832 814.13 183.522 812.724 177.453C817.763 173.783 821.047 167.613 821.605 161.163C822.013 156.533 820.911 152.259 818.968 148.307C823.734 146.521 825.372 140.261 823.107 135.751C826.116 134.025 828.078 130.366 828.122 126.804C829.466 124.764 829.896 122.137 828.781 119.193C827.311 115.314 824.318 112.069 820.89 109.524C822.385 106.916 823.495 104.072 824.185 101.133C827.025 100.3 829.317 97.9975 829.784 94.5405C830.369 90.2065 827.522 86.5325 823.69 85.5625C823.265 84.2425 822.746 82.9515 822.104 81.7115C824 77.2115 823.721 71.5215 821.276 66.6015C819.111 62.2515 815.588 59.5915 811.347 57.7515C812.425 54.0515 810.998 50.3615 807.405 47.6115C803.02 44.2505 798.21 41.6815 793.155 39.8665C793.605 33.8435 791.092 27.6755 785.153 25.5755C783.566 25.0145 781.913 24.8075 780.234 24.8145C779.014 22.1575 776.98 19.9975 774.324 18.0855C770.306 15.1935 762.797 16.9603 760.568 21.4955L760.46 21.7285C760.346 21.9855 760.223 22.2205 760.106 22.4695C759.657 20.2675 758.608 18.1875 756.92 16.4825C752.702 12.2195 748.248 12.1395 743.962 13.9625C743.176 12.0085 742.224 10.1505 741.067 8.45152C736.864 2.28752 729.922 1.50252 724.839 4.84052C722.801 3.04552 720.527 1.66152 718.011 0.872524ZM687.967 371.542C679.506 368.222 669.238 369.203 660.875 372.392L660.263 372.63C652.876 375.557 640.877 382.066 639.431 390.392C638.682 394.703 642.773 398.432 646.925 396.163C650.537 394.192 652.563 390.222 655.437 387.342C658.28 384.493 661.464 382.203 664.936 380.192C672.181 376.002 679.795 374.372 687.967 373.163C688.885 373.033 688.636 371.802 687.967 371.542Z" fill="black"/>
<path fill-rule="evenodd" clip-rule="evenodd" d="M525.8 417.799C514.878 411.222 474.055 416.043 441.987 417.799C416.521 419.193 398.333 416.43 392.511 420.348C379.359 429.2 385.747 472.006 408.411 477.86C431.074 483.714 515.087 491.89 529.572 477.86C544.058 463.83 545.395 429.598 525.8 417.799Z" fill="white"/>
<path fill-rule="evenodd" clip-rule="evenodd" d="M511.653 406.477C494.511 404.396 477.895 409.644 461.137 412.29C452.289 413.685 443.43 414.728 434.476 415.115C432.675 415.194 430.873 415.24 429.071 415.277C428.903 413.69 428.015 412.234 426.092 411.361C422.148 409.573 418.992 408.767 414.662 408.94C410.699 409.096 406.721 409.504 402.819 410.218C395.732 411.517 388.613 414.466 383.429 419.588C371.432 431.441 373.258 450.48 382.528 463.391C401.681 490.068 436.636 491.306 466.574 490.958L469.336 490.922C496.596 490.533 535.596 494.597 547.98 463.583C552.534 452.178 551.902 438.959 546.326 428.021C539.675 414.974 525.675 408.178 511.653 406.477ZM426.505 450.895L426.749 450.905C439.317 451.389 451.883 451.73 464.458 451.952C464.082 455.181 463.698 458.412 463.258 461.634C462.914 464.17 462.545 466.703 462.161 469.233C461.998 470.304 461.401 471.967 461.57 473.028L461.631 473.447V473.447C460.985 473.739 460.4 474.21 459.964 474.892C459.812 475.128 459.702 475.367 459.592 475.604C449.829 475.68 439.323 475.491 429.37 473.716L429.351 473.5V473.5C429.17 472.229 428.641 471.373 427.939 470.786C427.239 466.732 427.303 462.411 427.033 458.389C426.864 455.89 426.681 453.393 426.505 450.895ZM474.062 452.124C483.121 452.278 492.184 452.396 501.24 452.286L505.352 452.222V452.222C504.484 456.88 503.539 461.523 502.753 466.212C501.934 471.099 506.236 474.206 509.959 474.08C509.541 474.149 509.124 474.22 508.706 474.278C497.074 475.923 484.996 475.487 473.191 475.474C473.826 471.767 473.569 467.585 473.664 464.491L473.682 464.012C473.863 460.047 473.989 456.085 474.062 452.124ZM535.594 451.269C535.279 453.691 534.668 456.061 533.753 458.268C529.886 467.593 521.021 471.944 511.641 473.776C513.269 473.214 514.561 471.864 514.887 469.552C515.701 463.801 515.993 457.955 516.015 452.117C522.552 452.056 529.133 451.916 535.594 451.269ZM392.415 449.278C397.069 450.376 402.477 449.873 407.044 450.08C411.321 450.274 415.601 450.444 419.879 450.617C419.677 453.537 419.481 456.457 419.267 459.375C418.992 463.148 418.966 467.134 418.243 470.891C409.634 467.952 401.92 463.24 396.132 455.706C394.69 453.828 393.399 451.625 392.415 449.278ZM513.62 421.775C521.367 423.61 528.7 427.485 532.64 434.574C534.979 438.781 536.008 443.767 535.81 448.68C529.262 447.918 522.602 447.629 515.973 447.39C515.951 446.196 515.923 445.004 515.887 443.814L515.785 440.764C515.604 434.948 515.513 427.644 513.62 421.775ZM473.52 422.485L476.931 422.102C486.404 421.022 495.871 419.889 505.345 420.539C506.716 420.633 508.108 420.783 509.503 420.987C507.828 427.029 507.969 434.126 507.27 440.107C506.999 442.42 506.658 444.713 506.28 446.998L504.636 446.921V446.921C494.471 446.37 484.296 446.032 474.123 445.628C474.124 443.718 474.113 441.807 474.083 439.895L474.045 437.983C473.929 433.099 474.245 427.598 473.52 422.485ZM425.951 421.709C435.872 423.311 446.126 423.651 455.872 423.663C459.765 423.668 463.656 423.429 467.544 423.084C467.291 425.155 467.159 427.249 466.968 429.291C466.585 433.417 466.146 437.536 465.669 441.652L465.243 445.253V445.253C452.739 444.686 440.236 444.074 427.735 443.439L425.971 443.344V443.344L425.476 436.423C425.14 431.808 424.769 427.194 424.247 422.6L424.639 422.459V422.459C425.1 422.269 425.537 422.008 425.951 421.709ZM421.642 423.427C421.095 429.953 420.793 436.505 420.391 443.041L412.15 442.601C410.776 442.526 409.403 442.45 408.029 442.371C402.689 442.063 395.827 440.446 390.547 441.954C390.144 437.155 391.516 432.479 395.848 429.254C403.452 423.591 413.135 425.607 421.642 423.427ZM449.799 365.094C437.527 358.066 406.736 350.883 404.786 372.968C403.889 383.131 411.445 391.551 420.268 395.309L420.599 395.448C428.874 398.85 443.541 402.692 450.702 395.315C456.662 389.175 448.757 378.166 441.351 383.196C437.545 385.78 429.534 383.876 425.287 382.646L425.021 382.569C420.438 381.222 414.328 376.911 416.223 371.268C417.9 366.276 425.036 365.364 429.505 365.202C436.176 364.963 442.668 366.512 449.278 367.016C450.325 367.096 450.648 365.58 449.799 365.094ZM398.964 329.581C382.308 328.801 371.947 346.987 375.777 361.888C376.439 364.459 379.315 366.983 382.091 366.694L382.791 366.63C383.146 366.595 383.503 366.551 383.831 366.46C386.467 365.73 388.83 362.988 388.638 360.146L388.587 359.318C388.198 352.279 388.961 344.169 397.327 342.464C404.422 341.018 408.383 347.847 408.467 354.133C408.483 355.249 409.737 356.028 410.724 355.428C415.853 352.307 416.741 346.098 414.782 340.751C412.299 333.976 406.085 329.914 398.964 329.581ZM522.567 333.481C510.446 329.437 497.369 335.898 491.5 346.614C489.441 347.21 487.385 348.797 487.671 351.227C488.084 354.723 488.706 356.927 491.13 359.578C494.921 363.726 502.022 361.605 503.598 356.5L503.665 356.269C505.455 349.67 512.719 345.316 519.336 347.626C527.066 350.324 526.842 358.488 532.264 363.244C532.901 363.803 533.665 363.892 534.429 363.523C540.188 360.74 539.153 352.364 537.1 347.57C534.407 341.279 529.173 335.684 522.567 333.481ZM539.075 296.674C529.253 286.652 503.641 276.954 496.922 295.461C495.642 298.986 498.367 303.739 502.037 304.47C508.047 305.666 513.379 303.057 519.349 303.525C524.182 303.906 529.223 305.521 533.087 308.515C543.789 316.807 546.143 330.832 553.6 341.386C553.963 341.9 554.668 341.684 554.735 341.078C556.433 325.713 549.833 307.65 539.075 296.674ZM410.979 286.808C404.461 284.506 397.08 284.703 390.528 286.745C383.928 288.803 377.869 292.711 373.201 297.817C371.083 300.135 369.123 302.693 367.551 305.416C366.716 306.859 365.838 309.84 364.889 311.615C359.755 314.58 357.56 321.335 362.157 326.14L362.364 326.351L362.979 326.961C365.45 329.407 369.176 330.467 372.549 329.49C380.097 327.306 381.014 321.361 383.627 315.051C385.353 310.883 388.31 307.195 391.895 304.486C400.368 298.086 414.261 296.047 424.462 299.063C425.005 299.224 425.643 298.532 425.256 298.03C423.323 295.526 422.209 293.471 419.621 291.451C416.994 289.401 414.127 287.92 410.979 286.808Z" fill="black"/>
<path fill-rule="evenodd" clip-rule="evenodd" d="M344.689 370.458C356.83 383.003 377.098 386.603 393.251 379.875C434.727 362.546 414.426 308.496 382.439 293.981C378.443 292.985 373.106 290.622 368.239 290.086C367.799 289.87 366.841 290.495 365.68 289.904C330.409 293.842 322.377 348.594 344.689 370.458M478.467 373.669C492.084 391.73 517.4 397.302 538.084 388.906C578.946 372.814 564.453 324.885 536.496 306.095C477.439 283.904 453.052 340.368 478.467 373.669M567.047 333.651C567.085 333.633 567.123 333.624 567.162 333.606C566.946 333.511 566.73 333.416 566.515 333.319C566.585 333.502 566.661 333.683 566.729 333.866C566.835 333.793 566.928 333.708 567.047 333.651M316.577 314.128C319.911 314.135 324.727 314.683 327.487 316.996C334.293 294.043 359.415 272.8 381.263 288.29C398.468 293.823 411.235 306.094 418.491 322.408C431.574 314.626 452.146 317.949 463.491 328.24C470.921 303.689 489.207 295.092 510.972 293.823C534.728 289.932 558.406 313.003 565.794 331.511C571.937 330.812 581.116 328.857 586.895 332.648C624.402 322.812 689.977 317.389 697.602 322.854C703.036 324.939 706.018 337.765 698.428 338.457C691.814 337.518 699.2 329.059 692.533 328.136C657.01 325.934 622.525 333.088 587.378 336.09C584.24 340.311 574.101 341.723 568.692 340.027C577.211 371.423 558.821 392.783 531.266 399.181C488.599 408.982 451.478 370.814 462.635 331.114C449.71 324.684 434.843 324.96 420.763 328.347C444.291 414.937 304.834 411.052 326.615 319.963C312.12 327.173 308.972 315.583 316.577 314.128" fill="black"/>
</svg>
