<svg width="395" height="536" viewBox="0 0 395 536" fill="none" xmlns="http://www.w3.org/2000/svg">
<path d="M224.464 243.173L224.099 243.175C223.02 243.186 221.971 243.242 220.97 243.286L223.078 250.472L223.124 251.227C224.493 276.003 212.365 287.863 186.741 286.808C161.116 285.753 148.37 277.645 148.503 262.484L148.511 262.022L148.511 252.587L148.108 252.665C146.163 253.029 144.288 253.266 143.152 253.764C133.886 257.821 106.457 265.516 100.801 275.205C98.5354 279.086 84.6111 327.251 77.2123 351.823C76.942 352.721 76.6602 353.597 76.3681 354.452L76.368 359.308L76.4485 359.603C79.0416 369.305 75.589 377.238 66.0906 383.401C59.358 387.769 52.4437 390.605 45.3475 391.908C45.0428 392.379 44.8797 392.84 44.8797 393.304C44.8797 395.672 55.8682 451.364 72.9645 453.856C76.662 454.395 95.8373 451.751 102.133 446.628L102.04 447.181L101.954 447.713C100.572 456.316 100.914 460.787 102.98 461.126C128.889 465.375 202.472 466.688 323.728 465.065C324.45 400.683 321.187 357.805 313.942 336.433C295.411 281.77 274.979 263.1 267.831 261.501C261.57 260.101 239.858 251.456 233.789 249.162C229.827 247.664 228.978 243.173 224.464 243.173Z" fill="#888888"/>
<path fill-rule="evenodd" clip-rule="evenodd" d="M212.345 227.719C211.752 226.543 210.178 226.695 209.139 227.229C206.023 229.508 209.283 233.925 210.145 236.706C212.362 242.1 216.214 247.372 221.53 249.893C221.09 255.256 220.59 260.606 220.406 265.985C213.609 274.42 202.148 277.498 191.975 279.866C175.997 284.286 157.964 275.229 152.571 259.429C158.708 255.941 160.695 246.806 158.863 240.433C158.704 239.986 158.01 239.788 157.764 240.288C156.083 243.746 156.307 247.965 154.396 251.381C136.057 253.137 112.388 260.06 100.373 274.897C95.0487 282.32 92.9395 291.974 90.317 300.577C84.7216 318.313 80.2633 336.408 74.7757 354.163L74.1286 350.803C72.3559 341.549 70.7449 332.17 71.9422 322.759L71.9637 322.309C72.3548 314.821 74.6975 300.906 68.8923 295.85C63.6414 291.836 56.0346 288.61 49.4453 290.461C37.7192 285.241 27.5982 276.45 15.1095 273.027C11.2659 272.235 5.73641 273.172 6.64493 278.389C9.1627 287.512 19.7066 291.053 26.9144 295.757C22.2941 297.01 16.6616 302.63 20.2714 307.532C20.3026 307.619 20.3303 307.685 20.3581 307.737C17.4306 309.035 17.0206 312.297 17.739 315.094C17.8119 315.833 18.0061 315.198 17.5722 315.868C14.269 318.984 15.7291 327.671 20.705 327.965C20.3792 332.081 23.0223 336.079 26.3698 338.324C29.9779 340.743 35.1948 340.847 38.182 344.158C45.1952 356.529 47.6144 371.133 48.379 385.3C43.7559 387.031 39.608 392.207 43.8083 396.599C43.8912 396.609 43.9741 396.618 44.058 396.625C46.4929 403.126 47.433 410.055 48.7207 416.843C50.7018 428.427 55.8646 439.063 62.4574 448.712C70.0815 461.485 90.5827 459.46 100.911 451.217C100.87 453.38 100.513 455.53 101.206 457.619C102.228 459.875 104.719 458.9 104.966 456.679C110.426 459.751 111.712 449.612 105.643 451.22C106.109 443.89 106.38 436.55 106.6 429.208C113.471 431.433 113.767 420.029 106.739 422.309L106.747 419.156C106.799 394.982 106.532 370.724 103.343 346.74C103.048 344.945 102.548 343.21 102.257 341.427C102.226 341.242 101.938 341.295 101.937 341.471C101.443 375.05 103.637 408.701 101.348 442.291C99.4424 442.872 98.6827 445.06 97.2719 446.334C94.1398 449.227 89.8744 450.635 85.7033 451.126C74.0233 452.764 68.9804 449.196 63.7791 439.04C66.125 440.608 69.2951 437.838 67.8652 435.356L67.8204 435.281C66.3354 432.651 62.1417 434.227 62.6728 437.173C57.4434 428.795 54.7064 419.349 52.685 409.764L52.4115 408.619C51.429 404.55 50.1537 399.887 47.7941 396.205C62.1841 392.537 76.2604 381.358 78.5121 366.022C82.1656 377.505 87.1151 388.73 91.8326 399.898C93.2895 403.781 93.8966 407.956 95.9849 411.558C96.4706 412.391 97.7021 412.176 97.9768 411.298C99.8549 402.897 94.1637 394.907 91.2089 387.345C88.7959 383.072 81.8697 363.556 77.5755 363.508C82.4008 342.351 88.8368 321.351 94.9661 300.457C100.893 272.244 112.971 266.803 138.557 257.92C133.942 281.448 112.872 304.222 124.084 328.899L124.356 329.539C125.503 332.26 126.456 335.001 125.655 337.987C124.878 340.885 123.109 343.401 121.693 346.007C113.781 360.729 119.227 377.921 122.287 393.252C126.151 411.231 129.969 429.226 133.963 447.178C134.751 450.759 135.261 454.448 136.45 457.918C137.064 459.709 140.127 459.539 139.929 457.45C139.552 453.396 138.414 449.444 137.581 445.463C132.607 419.693 125.877 394.226 121.597 368.342C118.845 349.182 129.681 346.238 129.277 333.858C127.804 327.526 123.905 321.876 124.129 315.128C123.262 294.474 138.301 277.435 140.158 257.347L143.436 256.177C145.074 255.591 146.711 254.999 148.342 254.394C139.755 314.474 142.363 375.866 146.655 436.243C147.532 439.029 146.698 467.513 150.375 465.785C150.56 466.873 151.138 467.942 152.394 467.937C163.796 468.041 175.202 468.222 186.605 468.358C192.089 467.852 199.628 469.947 204.293 466.781C209.679 465.243 210.299 441.628 211.739 436.426L212.3 432.644C221.453 370.834 229.643 307.75 223.064 245.328C232.217 245.68 234.107 255.562 234.785 262.757C236.483 278.639 246.74 292.315 247.232 308.379C247.273 312.276 246.538 316.051 244.981 319.629C240.849 328.396 233.704 338.531 239.044 348.322C245.36 355.945 244.813 357.951 242.496 367.37C235.975 398.51 225.147 428.447 214.845 458.471C217.084 470.14 230.546 426.818 231.813 423.552C237.772 426.549 241.027 416.601 234.192 415.893C238.582 401.192 242.622 386.381 245.986 371.407L246.075 370.985C247.561 364.066 250.484 355.965 245.549 349.828C232.822 336.953 253.956 322.563 251.29 306.966C253.592 308.674 257.077 306.877 257.025 304.01C257.129 300.781 252.793 299.127 250.707 301.59C248.562 288.936 241.1 277.89 238.841 265.273L238.739 264.68C237.974 260.221 237.758 255.53 235.569 251.465C238.549 253.402 241.723 254.967 244.987 256.348C239.151 261.225 250.453 265.676 249.518 258.142C281.525 267.406 288.76 280.325 300.512 309.992C298.316 307.859 294.556 310.62 295.87 313.341C296.918 316.207 301.491 315.369 301.49 312.314L302.025 313.592C309.152 330.638 315.638 348.098 318.897 366.34C312.503 365.437 314.131 375.659 319.924 372.777C322.249 389.001 322.286 405.455 322.002 421.809C316.609 418.98 316.446 428.594 321.95 425.852C321.748 439.255 321.454 452.657 321.232 466.06C321.187 468.912 325.585 468.898 325.655 466.06C326.168 445.466 327.105 424.836 326.66 404.236C327.078 368.483 316.804 334.023 301.495 301.995C287.95 265.118 269.24 260.924 234.816 250.202C231.639 245.483 224.85 241.02 219.311 243.983C216.212 238.979 214.638 233.051 212.345 227.719ZM271.324 356.245C271.195 355.79 270.547 355.904 270.526 356.352C270.238 362.137 270.495 367.96 270.89 373.77C271.13 377.317 271.424 380.859 271.674 384.382C272.337 393.676 272.871 402.98 273.277 412.29C273.134 412.231 272.989 412.179 272.836 412.138C272.135 411.947 271.434 411.947 270.734 412.138C270.109 412.312 269.563 412.618 269.092 413.058L268.992 413.155C268.607 413.512 268.333 413.935 268.174 414.425C267.946 414.86 267.831 415.326 267.832 415.823L267.834 415.948C267.837 416.663 268.014 417.326 268.375 417.944C268.725 418.537 269.197 419.009 269.79 419.363C270.408 419.72 271.071 419.897 271.785 419.901C271.861 419.908 271.938 419.915 272.014 419.918C272.545 419.939 273.041 419.828 273.499 419.589L273.568 419.568C273.741 424.291 273.884 429.017 273.988 433.744C274.081 437.863 274.206 441.982 274.29 446.101L274.328 448.162L274.404 452.716C274.428 454.589 274.416 456.382 275.053 458.148L275.129 458.352C275.587 459.532 275.944 461.173 277.169 461.829C278.147 462.353 279.465 462.159 280.027 461.138C280.499 460.285 280.09 459.056 279.392 458.48C279.406 458.442 279.427 458.407 279.444 458.369C279.552 458.057 279.715 457.762 279.812 457.446C280.118 456.447 280.034 455.381 280.038 454.343C280.038 452.511 279.976 450.679 279.927 448.85C279.819 444.956 279.694 441.066 279.542 437.176C279.026 424.126 278.055 411.076 276.943 398.062L276.566 393.67C276.063 387.829 275.543 381.982 274.806 376.171C274.772 375.894 274.737 375.616 274.699 375.338C275.094 375.141 275.462 374.867 275.754 374.561C276.922 373.333 277.631 371.498 278.296 369.917L278.449 369.557C279.17 367.87 279.836 366.163 280.18 364.351L280.213 364.185C280.369 363.413 280.679 362.046 279.861 361.672C279.434 361.478 279.164 361.617 279.025 362.044C279.007 362.099 279.022 362.162 279.052 362.21C278.716 362.727 278.189 363.21 277.856 363.689L276.716 365.319L276.152 366.138C275.438 367.19 274.675 368.197 273.887 369.189C273.267 364.83 272.507 360.489 271.324 356.245ZM224.583 453.376C223.157 452.258 220.836 452.865 220.836 454.927C220.836 456.998 223.161 457.596 224.583 456.478L224.654 456.425L224.722 456.37C225.496 455.765 225.522 454.189 224.78 453.532L224.722 453.483C224.677 453.445 224.631 453.41 224.583 453.376ZM286.57 449.35C285.925 449.35 285.324 449.513 284.766 449.839C284.523 450.023 284.284 450.21 284.041 450.398C283.597 450.842 283.292 451.37 283.122 451.977L282.993 452.928C282.976 453.42 283.077 453.878 283.302 454.306C283.448 454.75 283.694 455.135 284.041 455.458C284.367 455.808 284.749 456.055 285.192 456.197C285.584 456.403 286.001 456.508 286.447 456.508L286.57 456.506C287.218 456.506 287.819 456.343 288.377 456.016C288.62 455.833 288.859 455.645 289.102 455.458C289.543 455.014 289.851 454.486 290.021 453.878C290.063 453.563 290.104 453.243 290.15 452.928C290.167 452.435 290.063 451.977 289.841 451.55C289.695 451.106 289.449 450.721 289.102 450.398C288.776 450.048 288.394 449.801 287.95 449.659C287.559 449.452 287.139 449.347 286.692 449.347L286.57 449.35ZM124.306 442.749L123.396 442.871C122.526 443.069 121.825 443.711 121.357 444.443C121.107 444.835 120.972 445.258 120.951 445.713C120.85 446.164 120.871 446.619 121.014 447.073C121.118 447.517 121.322 447.906 121.624 448.236C121.728 448.399 121.85 448.548 121.988 448.68C122.273 449.156 122.703 449.468 123.147 449.787C123.521 450.027 123.928 450.155 124.365 450.176C124.653 450.252 124.944 450.252 125.235 450.176C125.669 450.155 126.075 450.027 126.45 449.787C126.671 449.617 126.893 449.444 127.112 449.274C127.306 449.048 127.487 448.816 127.657 448.573C127.771 448.305 127.882 448.041 127.993 447.778C128.198 447.143 128.097 446.581 127.986 445.946C127.969 445.838 127.941 445.741 127.903 445.636L127.828 445.435C127.628 444.908 127.521 444.729 127.168 444.269L127.033 444.089C126.965 443.999 126.896 443.911 126.817 443.832C126.595 443.603 126.279 443.412 126.03 443.214C125.496 442.906 124.92 442.753 124.306 442.749ZM241.966 440.528C241.463 440.532 240.991 440.657 240.554 440.91L239.985 441.351C239.638 441.701 239.399 442.11 239.264 442.587C239.232 442.836 239.197 443.086 239.163 443.332C239.149 443.718 239.229 444.078 239.406 444.415C239.516 444.762 239.711 445.06 239.985 445.317C240.238 445.588 240.54 445.782 240.887 445.897C241.19 446.055 241.515 446.138 241.862 446.139L241.966 446.136C242.472 446.136 242.944 446.008 243.381 445.754L243.95 445.317C244.297 444.967 244.536 444.554 244.672 444.078C244.703 443.829 244.738 443.582 244.772 443.332C244.786 442.947 244.706 442.587 244.529 442.253C244.415 441.906 244.224 441.604 243.95 441.351C243.697 441.077 243.395 440.882 243.048 440.771C242.745 440.612 242.426 440.531 242.082 440.527L241.966 440.528ZM264.975 439.38C264.251 439.373 263.515 439.577 262.922 439.997C262.346 440.407 261.909 440.848 261.628 441.51C261.552 441.691 261.476 441.868 261.409 442.048C261.111 442.843 261.055 443.641 261.468 444.419C261.867 445.172 262.728 445.501 263.498 445.727C264.15 445.921 264.889 445.952 265.537 445.72C265.86 445.605 266.176 445.484 266.467 445.307C267.012 444.97 267.307 444.571 267.671 444.078C267.955 443.593 268.097 443.065 268.097 442.503C268.097 441.937 267.955 441.413 267.671 440.924C267.113 439.97 266.079 439.387 264.975 439.38ZM301.747 440.049C300.83 440.049 300.026 440.473 299.474 441.187C298.916 441.913 298.711 442.815 298.957 443.714C299.218 444.665 300.005 445.498 300.98 445.737C301.701 445.914 302.291 445.907 303.009 445.786C303.616 445.682 304.081 445.321 304.546 444.946C305.077 444.512 305.24 443.721 305.153 443.083C305.07 442.444 304.775 442.028 304.327 441.649L304.324 441.639L304.49 441.767C304.428 441.712 304.366 441.653 304.303 441.594C304.282 441.559 304.265 441.521 304.248 441.483C303.991 441.045 303.644 440.702 303.21 440.445C302.756 440.181 302.27 440.049 301.747 440.049ZM88.2008 429.538C87.6978 429.403 87.1913 429.403 86.6883 429.538C86.3168 429.625 85.9945 429.795 85.7201 430.048C85.4422 430.229 85.2152 430.461 85.0436 430.748L84.9885 430.846C84.5927 431.52 84.5306 432.29 84.7006 433.039C84.9118 433.966 85.7652 434.809 86.6883 435.028L86.7193 435.033L86.7504 435.042C87.125 435.16 87.5035 435.177 87.8778 435.09C88.2563 435.073 88.6066 434.962 88.9289 434.754C89.3382 434.49 89.6817 434.15 89.9453 433.741C90.1538 433.414 90.2645 433.064 90.2822 432.685C90.3477 432.436 90.3477 432.186 90.2822 431.936C90.2645 431.557 90.1538 431.207 89.9453 430.881L89.5016 430.308L89.4562 430.27C89.1024 429.916 88.683 429.673 88.2008 429.538ZM123.126 411.173C118.578 411.173 118.585 418.232 123.126 418.232C127.674 418.232 127.667 411.173 123.126 411.173ZM289.63 410.281C289.151 410.173 288.672 410.194 288.197 410.344C287.909 410.465 287.624 410.586 287.34 410.704L286.611 411.267C286.476 411.381 286.41 411.506 286.285 411.669L286.129 411.873C285.903 412.176 285.898 412.24 285.65 412.884C285.484 413.502 285.484 414.119 285.65 414.737C285.731 415.035 285.852 415.317 286.008 415.577C286.15 415.827 286.321 416.046 286.513 416.248L286.611 416.347C286.937 416.698 287.322 416.944 287.766 417.09C288.047 417.253 288.349 417.333 288.672 417.333C289.151 417.44 289.63 417.42 290.105 417.27C290.392 417.149 290.677 417.027 290.962 416.909L291.69 416.347L292.252 415.618L292.431 415.191L292.613 414.761L292.741 413.807C292.758 413.311 292.658 412.853 292.433 412.422C292.346 412.12 292.193 411.853 291.971 411.631C291.811 411.36 291.597 411.145 291.326 410.986C291.104 410.763 290.837 410.611 290.535 410.524C290.254 410.361 289.952 410.281 289.63 410.281ZM64.6953 405.239C64.3168 405.225 63.963 405.304 63.6369 405.478C63.5224 405.516 63.4111 405.565 63.3039 405.621C62.8841 405.867 62.5511 406.2 62.3048 406.617C62.1036 406.936 61.9926 407.279 61.9753 407.65C61.8999 407.985 61.9068 408.322 61.9976 408.657L62.0273 408.758C62.1036 409.032 62.2181 409.285 62.3704 409.517C62.385 409.545 62.402 409.573 62.4228 409.597C62.6552 409.965 62.9639 410.267 63.3455 410.493C63.7687 410.735 64.2231 410.86 64.7157 410.864C65.6974 410.864 66.5439 410.333 67.0607 409.517C67.1336 409.403 67.1752 409.257 67.2269 409.139C67.2723 409.028 67.3452 408.886 67.3837 408.758C67.5152 408.265 67.5152 407.772 67.3837 407.279C67.297 406.918 67.1336 406.603 66.8873 406.335C66.6899 406.034 66.4297 405.794 66.1068 405.621C65.7065 405.387 65.2764 405.262 64.82 405.242L64.6953 405.239ZM256.709 401.786C256.229 401.654 255.751 401.644 255.274 401.756L255.155 401.786C254.773 401.876 254.444 402.05 254.159 402.306C253.844 402.515 253.59 402.789 253.407 403.128C253.143 403.583 253.011 404.076 253.008 404.603C253.011 405.131 253.143 405.624 253.407 406.078C253.667 406.519 254.017 406.866 254.457 407.127L254.839 407.311C255.158 407.512 255.498 407.619 255.866 407.636C256.112 407.703 256.359 407.703 256.601 407.636C256.851 407.636 257.084 407.574 257.298 407.449C257.534 407.383 257.736 407.265 257.909 407.092C258.211 406.897 258.447 406.641 258.62 406.318L258.901 405.655L258.998 404.919L258.901 404.187L258.748 403.826C258.61 403.33 258.36 402.9 257.996 402.535C257.632 402.174 257.202 401.924 256.709 401.786ZM84.6761 395.931C84.1699 395.772 83.6666 395.751 83.1636 395.862C82.824 395.862 82.5048 395.949 82.2096 396.122C81.887 396.212 81.6099 396.372 81.3736 396.608C80.9612 396.875 80.6382 397.229 80.3989 397.67L80.0176 398.576C79.7887 399.162 79.8719 400.026 80.0103 400.616C80.1248 401.102 80.3468 401.526 80.6764 401.886C80.8429 402.167 81.0649 402.39 81.3462 402.556C81.6674 402.849 82.0378 403.057 82.458 403.18L82.5739 403.212L82.6155 403.222C82.6228 403.226 82.6294 403.226 82.6363 403.226C82.6398 403.23 82.6471 403.23 82.6505 403.23C82.8167 403.271 82.9867 403.295 83.1636 403.302C83.6666 403.413 84.1699 403.393 84.6761 403.233C84.9744 403.108 85.2762 402.979 85.578 402.851C85.8347 402.657 86.0883 402.459 86.3446 402.261C86.5424 402.005 86.7401 401.747 86.9378 401.494C87.2157 401.061 87.3645 400.589 87.3853 400.085C87.4759 399.749 87.4759 399.416 87.3853 399.079C87.3853 398.735 87.2986 398.42 87.129 398.124C86.976 397.653 86.7158 397.247 86.3446 396.903C86.0883 396.705 85.8347 396.507 85.578 396.313C85.2762 396.184 84.9744 396.056 84.6761 395.931ZM305.926 383.508C305.403 383.365 304.879 383.365 304.355 383.508L303.651 383.803C303.304 383.99 303.03 384.243 302.822 384.566C302.558 384.85 302.382 385.187 302.291 385.572C302.086 386.1 302.111 386.936 302.274 387.474C302.457 388.085 302.742 388.571 303.183 389.029C303.914 389.785 305.039 390.004 306.034 389.775C306.308 389.712 306.569 389.591 306.804 389.442C307.557 388.977 308.063 388.165 308.06 387.266C308.06 387.169 308.053 387.072 308.039 386.975C308.088 386.777 308.105 386.572 308.098 386.356L307.994 385.572L307.987 385.552C307.848 385.055 307.598 384.625 307.235 384.261C306.898 383.927 306.506 383.686 306.057 383.542L305.944 383.508H305.926ZM44.1622 305.582C45.1099 297.809 48.6728 289.447 59.5401 294.012L60.3473 294.314C63.0362 295.332 66.1697 296.67 67.8063 299.023C68.9337 300.643 68.5524 303.784 68.7082 305.675C69.4169 311.825 69.0367 317.965 68.2985 324.089C67.3456 338.442 70.3622 353.313 76.368 366.357C70.3573 376.086 62.3132 385.161 51.3398 389.216C50.8756 378.154 48.7107 367.296 46.4066 356.502L46.3159 356.031C45.3945 351.164 44.9333 346.168 41.7377 342.12C35.2376 335.061 26.2974 339.056 22.0198 327.715C22.9182 327.261 22.4222 325.706 21.3395 326.005C17.5878 326.671 16.9783 319.713 19.5461 318.037C22.2217 316.404 19.528 313.394 20.6669 311.221C21.3017 310.284 22.6719 310.253 23.2932 309.173C24.9396 305.2 16.7001 302.654 26.3896 298.175C28.3728 297.469 30.5895 297.907 32.5897 297.899C35.5321 298.173 37.8705 300.247 40.5614 300.9C37.6315 308.489 45.0242 315.797 51.6967 309.736C55.3277 313.169 59.3881 320.995 50.562 317.346C46.2421 314.462 42.5231 310.734 37.5083 308.958L37.4024 308.925C35.5408 308.315 27.3948 304.355 27.7987 307.782C30.85 310.728 35.8824 310.693 39.4163 313.085C44.3155 315.351 47.4483 320.843 53.3133 320.767C54.6655 328.981 45.3489 323.983 41.8796 321.718L40.9177 321.196C36.0241 318.552 31.0568 316.101 25.35 316.069C23.7751 316.058 23.782 318.488 25.35 318.509C32.7874 318.555 38.8408 323.206 45.071 326.663C45.6843 331.458 38.6663 329.359 36.0032 328.652C33.211 328.259 28.7267 325.238 26.2828 326.834C25.3271 329.29 29.5332 329.108 30.9975 329.853C24.3121 333.065 30.1694 335.088 31.9618 330.151L32.4868 330.33C36.9635 331.835 47.8188 334.933 46.5276 327.347C48.166 328.073 50.1638 328.507 51.9743 328.104C56.4891 334.784 63.691 332.199 53.2231 327.646C55.582 326.548 56.3698 322.31 54.1039 320.733C62.3437 320.23 56.2262 311.581 52.8158 308.699C53.1378 308.374 53.4496 308.042 53.7403 307.705C55.7069 308.642 57.774 309.212 59.9844 309.413C62.1002 309.603 62.5716 306.001 60.4836 305.707C58.2461 305.391 56.1852 304.794 54.2152 303.669C51.2291 302.379 50.2099 307.922 47.2214 308.118C45.5914 308.441 44.4886 307.011 44.1622 305.582ZM113.534 377.101C112.813 377.101 112.171 377.404 111.647 377.882C111.124 378.361 110.898 379.08 110.867 379.766C110.853 380.134 110.929 380.478 111.096 380.797C111.203 381.127 111.387 381.411 111.647 381.655C112.133 382.137 112.851 382.435 113.534 382.435C114.256 382.435 114.898 382.133 115.422 381.655C115.945 381.172 116.171 380.457 116.202 379.766C116.216 379.402 116.139 379.059 115.973 378.739C115.876 378.443 115.718 378.18 115.497 377.955L115.422 377.882C114.936 377.396 114.218 377.101 113.534 377.101ZM91.6708 360.643L91.5552 360.645C90.9447 360.649 90.3789 360.801 89.8519 361.106C89.623 361.283 89.394 361.457 89.1682 361.634C88.7488 362.057 88.4609 362.554 88.301 363.127C88.1379 363.723 88.1379 364.324 88.301 364.92C88.3565 365.264 88.4848 365.597 88.686 365.885C88.9847 366.381 89.3798 366.781 89.8797 367.075C90.3966 367.378 90.9551 367.527 91.5552 367.53C92.155 367.527 92.7138 367.378 93.2307 367.075C93.7302 366.781 94.1257 366.381 94.4206 365.885C94.6252 365.597 94.7536 365.264 94.8091 364.92C94.9721 364.324 94.9721 363.723 94.8091 363.127C94.6609 362.594 94.4021 362.129 94.0298 361.726L93.9418 361.634C93.6366 361.305 93.2758 361.072 92.8561 360.936C92.4872 360.743 92.0921 360.645 91.6708 360.643ZM258.527 360.829C258.27 360.759 258.017 360.759 257.76 360.829C257.378 360.846 257.021 360.961 256.692 361.169C256.497 361.322 256.303 361.471 256.109 361.62L255.939 361.824C255.577 362.265 255.568 362.34 255.29 363.012C255.176 363.387 255.158 363.762 255.241 364.136C255.241 364.39 255.307 364.626 255.433 364.844C255.502 365.084 255.62 365.292 255.797 365.465C255.922 365.677 256.088 365.847 256.3 365.972C256.57 366.219 256.889 366.389 257.257 366.475L258.003 366.576C258.1 366.562 258.201 366.548 258.298 366.538C258.415 366.534 258.528 366.521 258.64 366.499L258.752 366.475L258.855 366.448C258.991 366.408 259.123 366.355 259.252 366.288C259.494 366.219 259.706 366.097 259.887 365.917C260.199 365.715 260.448 365.444 260.629 365.108L260.677 364.997C260.743 364.879 260.799 364.758 260.841 364.626C260.958 364.417 261.017 364.195 261.021 363.956C261.09 363.637 261.085 363.322 261.003 363.006L260.972 362.901L260.705 362.265C260.566 362.051 260.421 361.832 260.234 361.655C260.121 361.555 259.846 361.34 259.69 361.232L259.595 361.169C259.265 360.961 258.908 360.846 258.527 360.829ZM295.863 354.683C294.458 356.089 295.079 358.67 297.046 359.17L297.271 359.226C299.172 359.708 300.886 357.99 300.404 356.089L300.348 355.866C299.849 353.899 297.268 353.278 295.863 354.683ZM62.2494 339.816C62.2633 339.622 62.0135 339.553 61.8886 339.667C60.2166 341.166 59.1516 342.964 57.1223 344.126C55.0822 345.293 52.9804 345.199 50.8539 345.952C50.1323 346.208 50.1289 347.174 50.8539 347.427C54.8779 348.832 61.9441 344.067 62.2494 339.816ZM251.325 339.511C250.877 339.372 250.426 339.351 249.979 339.452C249.674 339.452 249.39 339.528 249.129 339.681C248.841 339.761 248.595 339.907 248.384 340.114C248.13 340.264 247.929 340.469 247.776 340.722C247.478 341.048 247.277 341.43 247.173 341.867L247.055 342.766L247.173 343.665C247.287 343.932 247.402 344.203 247.513 344.47L247.823 344.89C248.074 345.225 248.114 345.229 248.723 345.681C249.112 345.927 249.531 346.063 249.979 346.08C250.278 346.164 250.576 346.164 250.877 346.08C251.179 346.08 251.464 346.004 251.727 345.851C252.012 345.771 252.261 345.626 252.473 345.417C252.841 345.178 253.129 344.862 253.341 344.47C253.455 344.203 253.569 343.932 253.68 343.665L253.802 342.766L253.68 341.867L253.674 341.839C253.514 341.277 253.229 340.788 252.82 340.375L252.147 339.854C251.884 339.684 251.61 339.598 251.325 339.511ZM89.3903 340.184C88.4298 339.92 87.3749 340.198 86.671 340.903C85.9665 341.607 85.6889 342.658 85.9526 343.62C86.2128 344.557 86.9655 345.316 87.9056 345.57C88.1866 345.646 88.4711 345.688 88.759 345.674C89.2415 345.671 89.6921 345.549 90.1119 345.306L90.6531 344.886C90.917 344.644 91.1006 344.356 91.2084 344.022C91.3784 343.703 91.4547 343.36 91.4409 342.988L91.444 342.922C91.4547 342.79 91.4374 342.658 91.3954 342.53C91.3954 342.394 91.3746 342.263 91.3399 342.134C91.0867 341.198 90.3235 340.441 89.3903 340.184ZM296.543 330.787C296.234 330.776 295.946 330.838 295.679 330.981C295.398 331.071 295.159 331.224 294.958 331.446C294.736 331.647 294.583 331.89 294.493 332.168C294.351 332.435 294.288 332.723 294.299 333.032C294.299 333.438 294.403 333.816 294.604 334.163C294.722 334.316 294.84 334.468 294.958 334.618C295.235 334.899 295.565 335.09 295.946 335.197L296.168 335.274C296.494 335.392 296.814 335.398 297.154 335.354C297.511 335.305 297.841 335.208 298.132 334.986C298.417 334.819 298.642 334.593 298.808 334.309L298.999 333.858C299.041 333.705 299.058 333.476 299.068 333.316C299.068 333.292 299.068 333.272 299.072 333.247C299.072 333.112 299.03 332.782 298.996 332.647C298.919 332.362 298.763 332.091 298.586 331.862C298.434 331.623 298.225 331.435 297.969 331.297L297.946 331.279L297.92 331.262C297.841 331.206 297.757 331.151 297.674 331.091C297.327 330.891 296.949 330.787 296.543 330.787ZM117.409 328.322C116.854 328.322 116.337 328.465 115.858 328.742C115.841 328.749 115.824 328.756 115.81 328.764C115.352 329.034 114.988 329.399 114.717 329.856C114.44 330.332 114.301 330.846 114.301 331.394C114.301 331.945 114.44 332.456 114.717 332.931C114.988 333.389 115.352 333.754 115.81 334.025C115.824 334.035 115.841 334.041 115.858 334.049C116.337 334.326 116.854 334.465 117.409 334.468C117.961 334.465 118.478 334.326 118.957 334.049C119.893 333.5 120.479 332.476 120.479 331.394C120.479 330.311 119.893 329.287 118.957 328.742C118.478 328.465 117.961 328.322 117.409 328.322ZM261.469 324.31L261.375 324.308C261.007 324.293 260.664 324.37 260.348 324.54C260.018 324.647 259.731 324.832 259.487 325.092L258.981 325.515L258.834 325.634C258.81 325.654 258.786 325.675 258.763 325.696C258.422 326.039 258.19 326.442 258.058 326.907C258.017 327.174 257.982 327.438 257.954 327.705C257.878 328.399 258.287 329.111 258.738 329.603C258.981 329.864 259.269 330.047 259.602 330.158C259.921 330.325 260.268 330.401 260.636 330.387C261.389 330.322 262.103 330.162 262.644 329.579C262.707 329.509 262.766 329.436 262.828 329.364L263.262 328.864C263.591 328.531 263.82 328.139 263.945 327.687C263.98 327.448 264.011 327.212 264.042 326.976C264.074 326.265 263.727 325.598 263.262 325.092C262.832 324.623 262.104 324.336 261.469 324.31ZM278.979 317.002C275.372 317.002 275.379 322.6 278.979 322.6C282.584 322.6 282.577 317.002 278.979 317.002ZM97.594 309.154L97.4803 309.156C96.8833 309.159 96.3251 309.309 95.8079 309.611L95.1353 310.128C94.7256 310.544 94.4415 311.03 94.2816 311.592C94.2438 311.887 94.2052 312.182 94.1636 312.474C94.1463 312.932 94.2438 313.359 94.4515 313.754C94.5834 314.164 94.8123 314.521 95.1353 314.823C95.4367 315.146 95.7909 315.375 96.2034 315.507C96.5988 315.715 97.0255 315.812 97.4803 315.795C98.0801 315.791 98.6389 315.642 99.1558 315.34C99.3809 315.167 99.603 314.993 99.8284 314.823C100.206 314.439 100.478 313.995 100.64 313.487L100.678 313.359L100.8 312.474C100.817 312.019 100.72 311.592 100.512 311.197C100.38 310.784 100.151 310.43 99.8284 310.128C99.5266 309.805 99.1693 309.576 98.76 309.444C98.3978 309.253 98.0088 309.155 97.594 309.154ZM113.843 298.676C113.521 298.665 113.222 298.731 112.941 298.877C112.653 298.97 112.404 299.133 112.192 299.359C111.744 299.717 111.471 300.431 111.471 301.011C111.471 301.59 111.744 302.306 112.192 302.663C112.483 302.951 112.827 303.152 113.222 303.263L113.843 303.347C114.447 303.375 115.061 303.059 115.491 302.663C115.578 302.583 115.661 302.504 115.748 302.427C116.139 302.066 116.309 301.528 116.334 301.011C116.344 300.737 116.285 300.48 116.161 300.241C116.08 299.991 115.942 299.779 115.748 299.595C115.661 299.519 115.578 299.439 115.491 299.359C115.022 298.925 114.475 298.707 113.843 298.676ZM10.8913 280.009C8.61189 277.231 9.93911 275.254 13.3647 275.941C19.2654 276.74 24.8189 280.47 30.0157 283.146C35.6878 286.143 41.5333 288.615 47.3192 291.431C44.9319 292.897 43.1565 295.192 41.8001 297.812C39.0926 295.755 35.6316 294.771 32.2532 294.643C26.1239 288.771 15.9734 287.426 10.8913 280.009ZM280.193 289.23C279.575 289.233 278.996 289.378 278.454 289.668L278.338 289.733L277.596 290.309C277.235 290.642 276.982 291.037 276.832 291.492C276.603 291.929 276.499 292.405 276.517 292.911C276.499 293.418 276.603 293.89 276.832 294.327C276.982 294.785 277.235 295.177 277.596 295.511C277.8 295.778 278.064 295.986 278.38 296.139C278.675 296.26 278.966 296.385 279.261 296.51C279.59 296.614 279.972 296.628 280.329 296.645C280.978 296.642 281.581 296.479 282.144 296.153L282.872 295.591C283.222 295.264 283.472 294.879 283.618 294.431C283.824 294.037 283.929 293.616 283.929 293.167L283.926 293.043C283.926 293.016 283.926 292.984 283.923 292.953C283.881 292.627 283.836 292.301 283.791 291.975C283.677 291.495 283.458 291.076 283.132 290.722C283.049 290.555 282.938 290.42 282.795 290.309C282.338 289.851 281.797 289.538 281.172 289.361C280.846 289.32 280.52 289.274 280.193 289.23ZM119.13 280.036C118.662 280.036 118.228 280.154 117.825 280.387C117.649 280.523 117.475 280.658 117.302 280.793C116.979 281.116 116.757 281.497 116.636 281.935L116.542 282.622C116.532 282.979 116.605 283.309 116.768 283.618C116.871 283.937 117.049 284.215 117.302 284.451C117.534 284.704 117.811 284.881 118.134 284.985C118.44 285.148 118.773 285.221 119.13 285.208C119.595 285.208 120.032 285.089 120.434 284.853C120.608 284.721 120.785 284.586 120.958 284.451C121.251 284.155 121.462 283.809 121.588 283.417L121.621 283.309L121.714 282.622C121.728 282.264 121.655 281.935 121.492 281.626C121.388 281.304 121.208 281.026 120.958 280.793C120.722 280.539 120.444 280.363 120.125 280.259C119.848 280.112 119.55 280.038 119.236 280.035L119.13 280.036ZM259.917 276.276L259.796 276.278C259.106 276.282 258.464 276.455 257.868 276.802C257.611 277 257.354 277.198 257.097 277.399C256.622 277.874 256.296 278.437 256.112 279.086L255.977 280.099C255.956 280.626 256.067 281.116 256.307 281.57C256.459 282.046 256.723 282.455 257.097 282.802C257.441 283.174 257.85 283.437 258.325 283.59C258.78 283.829 259.269 283.941 259.796 283.92C260.487 283.92 261.128 283.746 261.725 283.399C261.981 283.201 262.238 283 262.498 282.802C262.97 282.323 263.297 281.761 263.48 281.116L263.616 280.099C263.636 279.575 263.525 279.082 263.286 278.627C263.133 278.156 262.87 277.743 262.498 277.399C262.151 277.025 261.742 276.76 261.267 276.608C260.848 276.387 260.399 276.278 259.917 276.276ZM131.469 266.735C131.153 266.651 130.838 266.651 130.522 266.735C130.05 266.755 129.609 266.898 129.2 267.158L128.482 267.714C128.472 267.724 128.461 267.734 128.451 267.748C128.017 268.185 127.716 268.703 127.549 269.296L127.424 270.23C127.407 270.712 127.507 271.163 127.726 271.579C127.856 271.98 128.071 272.328 128.368 272.629L128.482 272.742C128.805 273.089 129.183 273.335 129.624 273.477C129.901 273.641 130.203 273.721 130.522 273.721C130.994 273.828 131.469 273.807 131.941 273.658C132.222 273.536 132.506 273.418 132.79 273.301L132.881 273.248C133.953 272.662 134.615 271.434 134.615 270.23C134.615 269.025 133.953 267.793 132.881 267.207C132.849 267.193 132.822 267.175 132.79 267.158C132.381 266.898 131.941 266.755 131.469 266.735Z" fill="#111111"/>
<path fill-rule="evenodd" clip-rule="evenodd" d="M206.504 78.0939C185.273 68.4395 161.194 64.7783 138.035 67.1798C126.605 68.3632 115.325 70.9022 104.59 75.0266L103.649 75.3911C100.999 76.4136 98.1426 77.4285 96.1288 79.5098C93.785 81.9286 93.1276 85.5864 94.803 88.5743C96.1046 90.896 98.4447 92.5614 100.941 93.4501C100.061 94.1719 99.227 94.977 98.4447 95.8759C97.1258 97.382 97.0254 99.5298 98.4447 101.015C101.179 103.878 104.728 105.95 108.549 106.943C108.12 109.021 108.352 111.322 109.273 113.394C111.915 119.341 119.358 120.05 125.086 119.697L125.259 119.686L125.577 123.34C125.747 125.287 126.91 126.796 128.883 127.095C128.952 127.105 129.022 127.112 129.091 127.119C125.968 138.439 124.082 150.11 122.34 161.711C121.431 167.767 120.616 173.837 119.837 179.912L119.578 181.936C118.747 188.485 117.709 195.099 117.349 201.696C117.027 207.683 118.166 213.398 121.845 218.229C125.148 222.56 129.651 225.805 134.494 228.213C145.436 233.658 156.953 237.711 169.055 239.592L169.862 239.717C174.534 240.432 179.347 241.034 183.968 239.738C188.028 238.6 192.286 235.664 191.369 230.948C191.061 229.355 188.839 229.285 188.077 230.517L187.901 230.8C186.988 232.252 185.987 233.602 184.393 234.352C182.528 235.233 180.364 235.48 178.326 235.504C172.631 235.57 166.701 234.147 161.218 232.721C150.979 230.056 140.462 225.711 132.075 219.128C128.506 216.331 125.639 212.833 124.629 208.332C123.379 202.783 124.528 196.716 125.096 191.14C126.264 179.632 127.655 168.146 129.122 156.673L129.416 154.379C130.651 144.787 131.95 135.191 132.566 125.544C132.822 125.193 132.995 124.794 133.065 124.357L133.161 123.729V123.729C133.245 123.191 133.258 122.698 133.2 122.243C133.196 120.501 133.148 118.77 133.047 117.027C133.03 116.715 133.016 116.403 133.006 116.094C134.813 116.493 136.634 116.816 138.461 117.09C151.311 119.03 164.361 119.516 177.315 118.551C183.778 118.068 190.192 117.239 196.586 116.202C199.84 115.674 203.083 115.091 206.316 114.439C208.653 113.97 210.941 113.335 213.24 112.738C215.611 116.198 216.892 120.456 216.642 124.638C216.362 129.41 213.191 133.737 214.081 138.613C214.916 143.176 218.815 144.591 222.666 145.721L224.303 146.195C225.563 146.564 226.477 146.92 226.705 148.437C227.097 151.044 226.615 153.976 226.515 156.596C226.394 159.695 226.235 162.794 226.162 165.893C226.124 167.496 226.062 169.107 226.065 170.71C226.069 171.848 226.238 172.625 226.678 173.361C226.339 173.788 226.034 174.25 225.764 174.739C225.677 174.899 225.892 175.068 226.02 174.937C226.363 174.579 226.727 174.257 227.11 173.968C227.304 174.208 227.529 174.451 227.793 174.711L227.813 174.683V174.683C228.637 175.506 229.946 175.586 230.967 174.711L231.235 174.478C231.983 173.821 232.497 173.274 232.705 172.188C232.715 172.133 232.726 172.077 232.732 172.022C234.633 171.956 236.564 172.406 238.274 173.354C240.985 174.857 242.892 176.998 244.02 179.642C243.571 180.17 243.044 180.642 242.432 181.038C242.345 181.097 242.421 181.225 242.515 181.18C243.141 180.885 243.702 180.52 244.204 180.094C244.609 181.135 244.893 182.252 245.066 183.435C245.675 187.614 244.588 192.719 240.822 195.099C239.192 196.13 237.329 196.689 235.398 196.696C234.456 196.699 233.643 196.539 232.729 196.314C232.109 196.161 231.493 195.939 230.846 195.939C230.292 195.939 229.779 196.078 229.305 196.356L229.437 196.367C229.756 196.397 229.695 196.411 229.25 196.411C227.865 196.47 227.073 197.879 227.709 199.104L227.793 199.293C227.81 199.332 227.825 199.363 227.837 199.388L227.887 199.713C227.892 199.744 227.898 199.776 227.903 199.808L227.922 199.874C227.926 199.885 227.93 199.895 227.934 199.906L225.858 203.08C223.312 206.964 220.709 210.833 217.747 214.38C215.67 216.869 213.468 219.308 211.142 221.567C209.051 223.598 206.545 224.576 204.177 226.172C202.913 227.019 202.543 228.793 203.692 229.934C207.064 233.29 211.838 230.625 214.604 227.897C217.221 225.312 219.481 222.202 221.43 219.09C224.888 213.554 227.64 207.669 228.845 201.28C229.347 201.741 229.987 202.029 230.634 202.255C231.933 202.706 233.362 202.894 234.733 202.942C237.36 203.029 239.991 202.39 242.356 201.259C251.975 196.661 253.388 182.891 247.506 174.77C248.3 172.465 248.742 169.963 249.224 167.83L249.443 166.876C251.875 156.225 253.508 145.01 249.196 134.573C248.642 133.227 248.019 131.915 247.281 130.659C246.69 129.649 245.672 128.573 245.391 127.425C244.768 124.902 248.614 122.25 249.736 120.248C251.055 117.899 251.242 115.126 249.445 112.977C249.217 112.707 248.968 112.457 248.697 112.238C250.4 109.143 250.48 105.249 248.237 102.195C246.762 100.183 244.512 98.7736 242.054 98.3467C240.552 98.0865 238.745 98.1836 237.094 98.6486C228.052 90.2331 217.736 83.2023 206.504 78.0939ZM241.224 183.394C238.811 181.26 236.145 180.142 232.857 180.423C229.551 180.708 225.57 182.079 223.628 184.921C222.094 187.166 225.22 190.459 227.47 188.773C229.52 187.236 230.887 185.5 233.431 184.674C235.716 183.935 238.544 183.46 240.936 183.883C241.2 183.928 241.462 183.602 241.224 183.394Z" fill="#111111"/>
<path fill-rule="evenodd" clip-rule="evenodd" d="M166.111 199.133C164.17 195.94 160.034 203.763 159.595 205.108C159.205 206.299 158.948 207.52 158.818 208.755C157.313 209.092 155.751 209.093 154.21 208.797C151.918 208.357 150.518 207.125 148.527 206.067C147.151 205.336 145.418 206.193 144.703 207.406C143.861 208.833 144.397 210.314 145.504 211.378C147.602 213.396 151.731 213.859 154.47 213.324C156.039 213.017 157.478 212.428 158.748 211.572C158.756 211.732 158.762 211.892 158.774 212.051L158.799 212.328C159.009 214.565 159.624 217.379 161.361 218.835C164.211 221.223 167.727 216.63 164.959 214.244L164.873 214.173C163.152 212.782 162.776 209.049 162.869 206.994C162.93 205.652 163.174 204.293 163.598 203.015L163.685 202.761C163.812 202.4 165.202 198.975 165.704 199.411L165.728 199.436C165.935 199.683 166.27 199.395 166.111 199.133ZM150.617 181.114C147.998 182.707 144.006 186.421 146.824 190.37C150.141 193.852 154.917 189.86 157.271 188.054C159.453 186.655 161.905 190.254 159.88 191.888C142.874 204.483 135.972 181.53 149.292 179.241C150.759 178.989 151.303 180.621 150.617 181.114ZM178.589 166.39C176.029 165.936 173.407 166.573 171.288 168.071L171.128 168.187C169.087 169.68 166.803 172.302 167.974 174.876C168.444 175.909 169.852 176.071 170.745 175.603C172.232 174.823 172.502 172.903 173.829 171.841C174.917 170.97 176.382 170.442 177.784 170.57C181.076 170.869 183.101 174.117 184.124 176.917C184.255 177.275 184.78 177.414 184.986 177.03C187.397 172.521 183.129 167.196 178.589 166.39ZM137.583 164.689C132.678 164.284 126.938 169.371 128.229 174.549C128.849 177.034 132.533 176.963 133.188 174.549C133.548 173.221 133.512 172.046 134.468 170.943C135.257 170.032 136.378 169.503 137.583 169.585C138.91 169.674 140.135 170.338 141.066 171.271C141.907 172.114 142.409 173.347 143.28 174.093C143.494 174.276 143.781 174.288 143.993 174.093C145.491 172.71 144.592 169.833 143.642 168.39C142.282 166.325 140.068 164.894 137.583 164.689ZM187.928 157.206C184.782 154.42 179.066 151.729 174.823 153.101C172.384 153.889 171.321 157.82 174.044 159.066C177.197 160.509 180.832 159.922 184.041 161.418C185.389 162.046 186.656 162.832 187.595 163.983C188.334 164.891 189.086 166.086 190.155 166.609C190.436 166.747 190.817 166.75 191.042 166.495C193.385 163.843 189.974 159.018 187.928 157.206ZM142.99 152.962C141.045 152.416 138.888 152.427 136.913 152.77C134.939 153.113 132.934 153.932 131.322 155.126L131.135 155.266C129.375 156.592 127.275 158.523 127.387 160.873C127.481 162.835 129.545 164.163 131.327 163.134C132.779 162.295 133.463 160.615 134.692 159.496C135.707 158.573 136.899 157.845 138.171 157.335C139.583 156.768 140.998 156.502 142.514 156.477C143.682 156.458 144.856 156.841 146.001 156.963C145.907 157.157 146.812 157.067 147.331 156.895C147.716 156.731 147.718 156.245 147.584 155.929C146.924 154.367 144.519 153.391 142.99 152.962Z" fill="#111111"/>
<path fill-rule="evenodd" clip-rule="evenodd" d="M139.94 206.625C138.989 207.6 138.077 208.644 137.217 209.724C136.977 211.438 136.922 213.173 137.14 214.964C137.46 217.56 138.167 220.097 139.125 222.533C139.69 222.453 140.249 222.293 140.793 222.043C142.521 221.249 143.485 219.649 144.654 218.236C146.982 215.429 151.228 213.77 154.197 216.682C155.488 217.948 156.313 219.701 157.465 221.093C158.731 222.623 160.153 224.077 161.638 225.396C161.822 225.562 162.013 225.743 162.211 225.92C163.036 224.976 163.848 224.025 164.642 223.06C167.005 220.187 169.044 217.004 170.116 213.416C170.456 212.278 170.668 211.091 170.751 209.894C169.7 208.589 168.5 207.402 167.136 206.42C163.026 203.453 158.291 202.971 153.365 202.714C148.269 202.45 143.679 202.797 139.94 206.625M127.507 220.392C127.705 218.406 128.01 216.342 128.461 214.28C130.109 206.632 133.678 199.007 140.835 195.513C144.22 193.857 148.068 193.274 151.717 194.073C158.121 191.675 165.232 194.121 170.272 198.508C176.218 203.682 178.962 211.802 179.885 219.409C180.527 224.702 180.768 231.772 179.267 235.612C177.766 239.452 168.227 249.721 154.61 249.792C135.215 249.894 130.501 236.81 129.928 235.664C127.538 230.903 126.983 225.646 127.507 220.392" fill="#111111"/>
</svg>
