<svg width="395" height="532" viewBox="0 0 395 532" fill="none" xmlns="http://www.w3.org/2000/svg">
<path d="M224.464 239.173L224.099 239.175C223.02 239.186 221.971 239.242 220.97 239.286L223.078 246.472L223.124 247.227C224.493 272.003 212.365 283.863 186.741 282.808C161.116 281.753 148.37 273.645 148.503 258.484L148.511 258.022L148.511 248.587L148.108 248.665C146.163 249.029 144.288 249.266 143.152 249.764C133.886 253.821 106.457 261.516 100.801 271.205C98.5354 275.086 84.6111 323.251 77.2123 347.823C76.942 348.721 76.6602 349.597 76.3681 350.452L76.368 355.308L76.4485 355.603C79.0416 365.305 75.589 373.238 66.0906 379.401C59.358 383.769 52.4437 386.605 45.3475 387.908C45.0428 388.379 44.8797 388.84 44.8797 389.304C44.8797 391.672 55.8682 447.364 72.9645 449.856C76.662 450.395 95.8373 447.751 102.133 442.628L102.04 443.181L101.954 443.713C100.572 452.316 100.914 456.787 102.98 457.126C128.889 461.375 202.472 462.688 323.728 461.065C324.45 396.683 321.187 353.805 313.942 332.433C295.411 277.77 274.979 259.1 267.831 257.501C261.57 256.101 239.858 247.456 233.789 245.162C229.827 243.664 228.978 239.173 224.464 239.173Z" fill="#79FFE1"/>
<path fill-rule="evenodd" clip-rule="evenodd" d="M212.345 223.718C211.752 222.543 210.178 222.695 209.139 223.228C206.023 225.507 209.283 229.925 210.145 232.706C212.362 238.1 216.214 243.372 221.53 245.893C221.09 251.255 220.59 256.606 220.406 261.985C213.609 270.42 202.148 273.498 191.975 275.866C175.997 280.286 157.964 271.229 152.571 255.429C158.708 251.94 160.695 242.806 158.863 236.433C158.704 235.985 158.01 235.788 157.764 236.287C156.083 239.745 156.307 243.964 154.396 247.381C136.057 249.137 112.388 256.06 100.373 270.897C95.0487 278.32 92.9395 287.974 90.317 296.577C84.7216 314.313 80.2633 332.408 74.7757 350.162L74.1286 346.803C72.3559 337.549 70.7449 328.17 71.9422 318.759L71.9637 318.309C72.3548 310.821 74.6975 296.905 68.8923 291.85C63.6414 287.836 56.0346 284.61 49.4453 286.46C37.7192 281.24 27.5982 272.45 15.1095 269.026C11.2659 268.235 5.73641 269.172 6.64493 274.388C9.1627 283.511 19.7066 287.052 26.9144 291.757C22.2941 293.009 16.6616 298.63 20.2714 303.532C20.3026 303.618 20.3303 303.684 20.3581 303.736C17.4306 305.034 17.0206 308.296 17.739 311.093C17.8119 311.833 18.0061 311.198 17.5722 311.867C14.269 314.984 15.7291 323.671 20.705 323.965C20.3792 328.081 23.0223 332.078 26.3698 334.324C29.9779 336.743 35.1948 336.847 38.182 340.157C45.1952 352.528 47.6144 367.133 48.379 381.299C43.7559 383.03 39.608 388.207 43.8083 392.599C43.8912 392.608 43.9741 392.618 44.058 392.625C46.4929 399.125 47.433 406.055 48.7207 412.843C50.7018 424.427 55.8646 435.062 62.4574 444.712C70.0815 457.485 90.5827 455.46 100.911 447.217C100.87 449.379 100.513 451.529 101.206 453.619C102.228 455.874 104.719 454.9 104.966 452.679C110.426 455.751 111.712 445.612 105.643 447.22C106.109 439.89 106.38 432.55 106.6 425.208C113.471 427.433 113.767 416.029 106.739 418.309L106.747 415.156C106.799 390.981 106.532 366.724 103.343 342.739C103.048 340.945 102.548 339.21 102.257 337.426C102.226 337.242 101.938 337.294 101.937 337.471C101.443 371.05 103.637 404.7 101.348 438.291C99.4424 438.872 98.6827 441.059 97.2719 442.334C94.1398 445.227 89.8744 446.635 85.7033 447.126C74.0233 448.764 68.9804 445.196 63.7791 435.039C66.125 436.608 69.2951 433.838 67.8652 431.356L67.8204 431.281C66.3354 428.651 62.1417 430.227 62.6728 433.172C57.4434 424.795 54.7064 415.348 52.685 405.764L52.4115 404.619C51.429 400.55 50.1537 395.887 47.7941 392.205C62.1841 388.536 76.2604 377.358 78.5121 362.022C82.1656 373.505 87.1151 384.729 91.8326 395.898C93.2895 399.781 93.8966 403.955 95.9849 407.558C96.4706 408.391 97.7021 408.176 97.9768 407.297C99.8549 398.897 94.1637 390.907 91.2089 383.345C88.7959 379.071 81.8697 359.555 77.5755 359.508C82.4008 338.35 88.8368 317.351 94.9661 296.456C100.893 268.243 112.971 262.803 138.557 253.92C133.942 277.447 112.872 300.221 124.084 324.898L124.356 325.538C125.503 328.259 126.456 331.001 125.655 333.987C124.878 336.885 123.109 339.401 121.693 342.007C113.781 356.729 119.227 373.921 122.287 389.252C126.151 407.231 129.969 425.226 133.963 443.177C134.751 446.758 135.261 450.448 136.45 453.918C137.064 455.709 140.127 455.539 139.929 453.449C139.552 449.396 138.414 445.443 137.581 441.463C132.607 415.692 125.877 390.225 121.597 364.342C118.845 345.182 129.681 342.238 129.277 329.857C127.804 323.526 123.905 317.876 124.129 311.128C123.262 290.474 138.301 273.435 140.158 253.347L143.436 252.177C145.074 251.59 146.711 250.999 148.342 250.393C139.755 310.473 142.363 371.866 146.655 432.242C147.532 435.028 146.698 463.512 150.375 461.785C150.56 462.873 151.138 463.942 152.394 463.936C163.796 464.041 175.202 464.221 186.605 464.357C192.089 463.852 199.628 465.946 204.293 462.781C209.679 461.243 210.299 437.628 211.739 432.426L212.3 428.644C221.453 366.834 229.643 303.749 223.064 241.328C232.217 241.679 234.107 251.562 234.785 258.757C236.483 274.638 246.74 288.315 247.232 304.378C247.273 308.276 246.538 312.051 244.981 315.629C240.849 324.396 233.704 334.531 239.044 344.322C245.36 351.944 244.813 353.951 242.496 363.37C235.975 394.51 225.147 424.447 214.845 454.47C217.084 466.14 230.546 422.818 231.813 419.551C237.772 422.549 241.027 412.601 234.192 411.892C238.582 397.191 242.622 382.38 245.986 367.406L246.075 366.984C247.561 360.066 250.484 351.964 245.549 345.828C232.822 332.953 253.956 318.563 251.29 302.966C253.592 304.673 257.077 302.877 257.025 300.009C257.129 296.78 252.793 295.127 250.707 297.59C248.562 284.936 241.1 273.889 238.841 261.273L238.739 260.68C237.974 256.221 237.758 251.529 235.569 247.465C238.549 249.402 241.723 250.967 244.987 252.348C239.151 257.225 250.453 261.676 249.518 254.142C281.525 263.406 288.76 276.324 300.512 305.992C298.316 303.859 294.556 306.62 295.87 309.341C296.918 312.207 301.491 311.369 301.49 308.314L302.025 309.591C309.152 326.637 315.638 344.097 318.897 362.34C312.503 361.437 314.131 371.659 319.924 368.777C322.249 385.001 322.286 401.454 322.002 417.809C316.609 414.98 316.446 424.593 321.95 421.852C321.748 435.255 321.454 448.657 321.232 462.059C321.187 464.912 325.585 464.898 325.655 462.059C326.168 441.466 327.105 420.835 326.66 400.236C327.078 364.483 316.804 330.022 301.495 297.995C287.95 261.117 269.24 256.924 234.816 246.202C231.639 241.483 224.85 237.02 219.311 239.983C216.212 234.979 214.638 229.05 212.345 223.718ZM271.324 352.245C271.195 351.79 270.547 351.904 270.526 352.352C270.238 358.137 270.495 363.96 270.89 369.77C271.13 373.316 271.424 376.859 271.674 380.382C272.337 389.675 272.871 398.979 273.277 408.29C273.134 408.231 272.989 408.179 272.836 408.138C272.135 407.946 271.434 407.946 270.734 408.138C270.109 408.312 269.563 408.617 269.092 409.058L268.992 409.154C268.607 409.511 268.333 409.935 268.174 410.424C267.946 410.86 267.831 411.325 267.832 411.823L267.834 411.948C267.837 412.662 268.014 413.325 268.375 413.943C268.725 414.537 269.197 415.009 269.79 415.362C270.408 415.72 271.071 415.897 271.785 415.9C271.861 415.908 271.938 415.914 272.014 415.918C272.545 415.939 273.041 415.828 273.499 415.588L273.568 415.567C273.741 420.291 273.884 425.017 273.988 429.744C274.081 433.863 274.206 437.982 274.29 442.101L274.328 444.162L274.404 448.716C274.428 450.589 274.416 452.382 275.053 454.148L275.129 454.352C275.587 455.531 275.944 457.173 277.169 457.829C278.147 458.353 279.465 458.159 280.027 457.138C280.499 456.285 280.09 455.056 279.392 454.48C279.406 454.442 279.427 454.407 279.444 454.369C279.552 454.056 279.715 453.762 279.812 453.446C280.118 452.447 280.034 451.381 280.038 450.343C280.038 448.511 279.976 446.679 279.927 444.85C279.819 440.956 279.694 437.066 279.542 433.176C279.026 420.126 278.055 407.076 276.943 394.062L276.566 389.67C276.063 383.829 275.543 377.982 274.806 372.171C274.772 371.894 274.737 371.616 274.699 371.338C275.094 371.14 275.462 370.866 275.754 370.561C276.922 369.333 277.631 367.498 278.296 365.917L278.449 365.557C279.17 363.87 279.836 362.163 280.18 360.351L280.213 360.185C280.369 359.413 280.679 358.046 279.861 357.672C279.434 357.478 279.164 357.617 279.025 358.043C279.007 358.099 279.022 358.161 279.052 358.21C278.716 358.727 278.189 359.209 277.856 359.688L276.716 361.319L276.152 362.138C275.438 363.19 274.675 364.196 273.887 365.189C273.267 360.83 272.507 356.489 271.324 352.245ZM224.583 449.375C223.157 448.258 220.836 448.865 220.836 450.927C220.836 452.998 223.161 453.595 224.583 452.477L224.654 452.425L224.722 452.37C225.496 451.765 225.522 450.189 224.78 449.532L224.722 449.483C224.677 449.444 224.631 449.41 224.583 449.375ZM286.57 445.349C285.925 445.349 285.324 445.513 284.766 445.839C284.523 446.023 284.284 446.21 284.041 446.398C283.597 446.842 283.292 447.37 283.122 447.977L282.993 448.927C282.976 449.42 283.077 449.878 283.302 450.305C283.448 450.749 283.694 451.134 284.041 451.458C284.367 451.808 284.749 452.054 285.192 452.196C285.584 452.403 286.001 452.508 286.447 452.508L286.57 452.506C287.218 452.506 287.819 452.343 288.377 452.016C288.62 451.832 288.859 451.645 289.102 451.458C289.543 451.013 289.851 450.486 290.021 449.878C290.063 449.562 290.104 449.243 290.15 448.927C290.167 448.435 290.063 447.977 289.841 447.55C289.695 447.105 289.449 446.721 289.102 446.398C288.776 446.047 288.394 445.801 287.95 445.658C287.559 445.452 287.139 445.347 286.692 445.347L286.57 445.349ZM124.306 438.749L123.396 438.871C122.526 439.068 121.825 439.71 121.357 440.443C121.107 440.835 120.972 441.258 120.951 441.713C120.85 442.164 120.871 442.619 121.014 443.073C121.118 443.517 121.322 443.906 121.624 444.236C121.728 444.399 121.85 444.548 121.988 444.68C122.273 445.155 122.703 445.467 123.147 445.787C123.521 446.026 123.928 446.155 124.365 446.176C124.653 446.252 124.944 446.252 125.235 446.176C125.669 446.155 126.075 446.026 126.45 445.787C126.671 445.617 126.893 445.443 127.112 445.273C127.306 445.048 127.487 444.815 127.657 444.572C127.771 444.305 127.882 444.041 127.993 443.777C128.198 443.142 128.097 442.58 127.986 441.945C127.969 441.838 127.941 441.741 127.903 441.636L127.828 441.435C127.628 440.907 127.521 440.728 127.168 440.269L127.033 440.089C126.965 439.999 126.896 439.911 126.817 439.832C126.595 439.603 126.279 439.412 126.03 439.214C125.496 438.905 124.92 438.753 124.306 438.749ZM241.966 436.528C241.463 436.532 240.991 436.657 240.554 436.91L239.985 437.351C239.638 437.701 239.399 438.11 239.264 438.586C239.232 438.836 239.197 439.086 239.163 439.332C239.149 439.717 239.229 440.078 239.406 440.415C239.516 440.762 239.711 441.06 239.985 441.317C240.238 441.588 240.54 441.782 240.887 441.897C241.19 442.054 241.515 442.138 241.862 442.138L241.966 442.136C242.472 442.136 242.944 442.008 243.381 441.754L243.95 441.317C244.297 440.967 244.536 440.554 244.672 440.078C244.703 439.828 244.738 439.582 244.772 439.332C244.786 438.947 244.706 438.586 244.529 438.253C244.415 437.906 244.224 437.604 243.95 437.351C243.697 437.076 243.395 436.882 243.048 436.771C242.745 436.612 242.426 436.531 242.082 436.527L241.966 436.528ZM264.975 435.379C264.251 435.372 263.515 435.577 262.922 435.997C262.346 436.406 261.909 436.847 261.628 437.51C261.552 437.691 261.476 437.868 261.409 438.048C261.111 438.843 261.055 439.641 261.468 440.418C261.867 441.171 262.728 441.501 263.498 441.726C264.15 441.921 264.889 441.952 265.537 441.72C265.86 441.605 266.176 441.484 266.467 441.307C267.012 440.97 267.307 440.571 267.671 440.078C267.955 439.592 268.097 439.065 268.097 438.503C268.097 437.937 267.955 437.413 267.671 436.924C267.113 435.969 266.079 435.386 264.975 435.379ZM301.747 436.049C300.83 436.049 300.026 436.473 299.474 437.187C298.916 437.913 298.711 438.815 298.957 439.714C299.218 440.665 300.005 441.498 300.98 441.737C301.701 441.914 302.291 441.907 303.009 441.785C303.616 441.682 304.081 441.32 304.546 440.946C305.077 440.512 305.24 439.721 305.153 439.082C305.07 438.444 304.775 438.027 304.327 437.649L304.324 437.639L304.49 437.767C304.428 437.712 304.366 437.653 304.303 437.594C304.282 437.559 304.265 437.521 304.248 437.482C303.991 437.045 303.644 436.702 303.21 436.445C302.756 436.181 302.27 436.049 301.747 436.049ZM88.2008 425.538C87.6978 425.402 87.1913 425.402 86.6883 425.538C86.3168 425.624 85.9945 425.795 85.7201 426.048C85.4422 426.229 85.2152 426.46 85.0436 426.748L84.9885 426.846C84.5927 427.519 84.5306 428.289 84.7006 429.039C84.9118 429.966 85.7652 430.809 86.6883 431.027L86.7193 431.033L86.7504 431.042C87.125 431.16 87.5035 431.177 87.8778 431.09C88.2563 431.073 88.6066 430.962 88.9289 430.754C89.3382 430.49 89.6817 430.15 89.9453 429.74C90.1538 429.414 90.2645 429.064 90.2822 428.685C90.3477 428.435 90.3477 428.186 90.2822 427.936C90.2645 427.557 90.1538 427.207 89.9453 426.881L89.5016 426.308L89.4562 426.27C89.1024 425.916 88.683 425.673 88.2008 425.538ZM123.126 407.173C118.578 407.173 118.585 414.231 123.126 414.231C127.674 414.231 127.667 407.173 123.126 407.173ZM289.63 406.281C289.151 406.173 288.672 406.194 288.197 406.343C287.909 406.465 287.624 406.586 287.34 406.704L286.611 407.267C286.476 407.381 286.41 407.506 286.285 407.669L286.129 407.873C285.903 408.175 285.898 408.239 285.65 408.884C285.484 409.501 285.484 410.119 285.65 410.737C285.731 411.035 285.852 411.316 286.008 411.577C286.15 411.826 286.321 412.046 286.513 412.247L286.611 412.347C286.937 412.697 287.322 412.944 287.766 413.09C288.047 413.253 288.349 413.333 288.672 413.333C289.151 413.44 289.63 413.419 290.105 413.27C290.392 413.149 290.677 413.027 290.962 412.909L291.69 412.347L292.252 411.618L292.431 411.191L292.613 410.761L292.741 409.807C292.758 409.31 292.658 408.852 292.433 408.422C292.346 408.12 292.193 407.853 291.971 407.63C291.811 407.36 291.597 407.145 291.326 406.985C291.104 406.763 290.837 406.611 290.535 406.524C290.254 406.361 289.952 406.281 289.63 406.281ZM64.6953 401.238C64.3168 401.225 63.963 401.304 63.6369 401.478C63.5224 401.516 63.4111 401.564 63.3039 401.62C62.8841 401.866 62.5511 402.2 62.3048 402.616C62.1036 402.936 61.9926 403.279 61.9753 403.65C61.8999 403.985 61.9068 404.322 61.9976 404.657L62.0273 404.758C62.1036 405.032 62.2181 405.285 62.3704 405.517C62.385 405.545 62.402 405.573 62.4228 405.597C62.6552 405.965 62.9639 406.267 63.3455 406.493C63.7687 406.735 64.2231 406.86 64.7157 406.864C65.6974 406.864 66.5439 406.333 67.0607 405.517C67.1336 405.403 67.1752 405.257 67.2269 405.139C67.2723 405.028 67.3452 404.886 67.3837 404.758C67.5152 404.265 67.5152 403.772 67.3837 403.279C67.297 402.918 67.1336 402.602 66.8873 402.335C66.6899 402.033 66.4297 401.794 66.1068 401.62C65.7065 401.387 65.2764 401.262 64.82 401.241L64.6953 401.238ZM256.709 397.786C256.229 397.654 255.751 397.644 255.274 397.755L255.155 397.786C254.773 397.876 254.444 398.049 254.159 398.306C253.844 398.514 253.59 398.788 253.407 399.128C253.143 399.583 253.011 400.076 253.008 400.603C253.011 401.131 253.143 401.624 253.407 402.078C253.667 402.519 254.017 402.866 254.457 403.126L254.839 403.31C255.158 403.512 255.498 403.619 255.866 403.636C256.112 403.702 256.359 403.702 256.601 403.636C256.851 403.636 257.084 403.574 257.298 403.449C257.534 403.383 257.736 403.265 257.909 403.091C258.211 402.897 258.447 402.641 258.62 402.318L258.901 401.655L258.998 400.919L258.901 400.187L258.748 399.826C258.61 399.33 258.36 398.9 257.996 398.535C257.632 398.174 257.202 397.924 256.709 397.786ZM84.6761 391.931C84.1699 391.772 83.6666 391.75 83.1636 391.862C82.824 391.862 82.5048 391.949 82.2096 392.122C81.887 392.212 81.6099 392.372 81.3736 392.608C80.9612 392.875 80.6382 393.229 80.3989 393.669L80.0176 394.576C79.7887 395.162 79.8719 396.026 80.0103 396.616C80.1248 397.102 80.3468 397.525 80.6764 397.886C80.8429 398.167 81.0649 398.389 81.3462 398.556C81.6674 398.848 82.0378 399.056 82.458 399.18L82.5739 399.212L82.6155 399.222C82.6228 399.225 82.6294 399.225 82.6363 399.225C82.6398 399.229 82.6471 399.229 82.6505 399.229C82.8167 399.271 82.9867 399.295 83.1636 399.302C83.6666 399.413 84.1699 399.392 84.6761 399.233C84.9744 399.107 85.2762 398.979 85.578 398.851C85.8347 398.657 86.0883 398.459 86.3446 398.261C86.5424 398.004 86.7401 397.747 86.9378 397.494C87.2157 397.06 87.3645 396.588 87.3853 396.085C87.4759 395.749 87.4759 395.415 87.3853 395.078C87.3853 394.735 87.2986 394.419 87.129 394.124C86.976 393.652 86.7158 393.246 86.3446 392.903C86.0883 392.705 85.8347 392.507 85.578 392.313C85.2762 392.184 84.9744 392.056 84.6761 391.931ZM305.926 379.507C305.403 379.365 304.879 379.365 304.355 379.507L303.651 379.802C303.304 379.99 303.03 380.243 302.822 380.566C302.558 380.85 302.382 381.187 302.291 381.572C302.086 382.1 302.111 382.936 302.274 383.474C302.457 384.085 302.742 384.571 303.183 385.029C303.914 385.785 305.039 386.004 306.034 385.775C306.308 385.712 306.569 385.591 306.804 385.442C307.557 384.977 308.063 384.164 308.06 383.266C308.06 383.169 308.053 383.071 308.039 382.975C308.088 382.776 308.105 382.572 308.098 382.356L307.994 381.572L307.987 381.551C307.848 381.055 307.598 380.625 307.235 380.26C306.898 379.927 306.506 379.686 306.057 379.541L305.944 379.507H305.926ZM44.1622 301.582C45.1099 293.809 48.6728 285.447 59.5401 290.011L60.3473 290.314C63.0362 291.332 66.1697 292.67 67.8063 295.022C68.9337 296.643 68.5524 299.784 68.7082 301.675C69.4169 307.824 69.0367 313.965 68.2985 320.089C67.3456 334.441 70.3622 349.312 76.368 362.357C70.3573 372.086 62.3132 381.161 51.3398 385.216C50.8756 374.154 48.7107 363.295 46.4066 352.501L46.3159 352.031C45.3945 347.163 44.9333 342.168 41.7377 338.12C35.2376 331.06 26.2974 335.056 22.0198 323.715C22.9182 323.26 22.4222 321.706 21.3395 322.005C17.5878 322.67 16.9783 315.713 19.5461 314.036C22.2217 312.404 19.528 309.393 20.6669 307.22C21.3017 306.284 22.6719 306.252 23.2932 305.173C24.9396 301.2 16.7001 298.653 26.3896 294.174C28.3728 293.469 30.5895 293.906 32.5897 293.898C35.5321 294.173 37.8705 296.247 40.5614 296.9C37.6315 304.489 45.0242 311.797 51.6967 305.735C55.3277 309.169 59.3881 316.994 50.562 313.346C46.2421 310.462 42.5231 306.734 37.5083 304.958L37.4024 304.925C35.5408 304.314 27.3948 300.355 27.7987 303.782C30.85 306.728 35.8824 306.693 39.4163 309.085C44.3155 311.351 47.4483 316.843 53.3133 316.767C54.6655 324.98 45.3489 319.983 41.8796 317.718L40.9177 317.196C36.0241 314.551 31.0568 312.101 25.35 312.069C23.7751 312.058 23.782 314.487 25.35 314.508C32.7874 314.555 38.8408 319.205 45.071 322.663C45.6843 327.457 38.6663 325.359 36.0032 324.651C33.211 324.259 28.7267 321.238 26.2828 322.834C25.3271 325.29 29.5332 325.107 30.9975 325.853C24.3121 329.065 30.1694 331.088 31.9618 326.151L32.4868 326.33C36.9635 327.835 47.8188 330.933 46.5276 323.347C48.166 324.072 50.1638 324.506 51.9743 324.104C56.4891 330.784 63.691 328.199 53.2231 323.646C55.582 322.548 56.3698 318.31 54.1039 316.733C62.3437 316.23 56.2262 307.581 52.8158 304.699C53.1378 304.374 53.4496 304.041 53.7403 303.705C55.7069 304.642 57.774 305.211 59.9844 305.413C62.1002 305.603 62.5716 302.001 60.4836 301.706C58.2461 301.39 56.1852 300.794 54.2152 299.669C51.2291 298.379 50.2099 303.922 47.2214 304.118C45.5914 304.441 44.4886 303.011 44.1622 301.582ZM113.534 373.101C112.813 373.101 112.171 373.403 111.647 373.882C111.124 374.361 110.898 375.079 110.867 375.766C110.853 376.134 110.929 376.478 111.096 376.797C111.203 377.127 111.387 377.411 111.647 377.654C112.133 378.136 112.851 378.435 113.534 378.435C114.256 378.435 114.898 378.133 115.422 377.654C115.945 377.172 116.171 376.457 116.202 375.766C116.216 375.402 116.139 375.058 115.973 374.739C115.876 374.442 115.718 374.179 115.497 373.955L115.422 373.882C114.936 373.396 114.218 373.101 113.534 373.101ZM91.6708 356.643L91.5552 356.645C90.9447 356.648 90.3789 356.801 89.8519 357.106C89.623 357.283 89.394 357.457 89.1682 357.634C88.7488 358.057 88.4609 358.553 88.301 359.126C88.1379 359.723 88.1379 360.324 88.301 360.92C88.3565 361.264 88.4848 361.597 88.686 361.885C88.9847 362.381 89.3798 362.781 89.8797 363.075C90.3966 363.377 90.9551 363.526 91.5552 363.53C92.155 363.526 92.7138 363.377 93.2307 363.075C93.7302 362.781 94.1257 362.381 94.4206 361.885C94.6252 361.597 94.7536 361.264 94.8091 360.92C94.9721 360.324 94.9721 359.723 94.8091 359.126C94.6609 358.594 94.4021 358.128 94.0298 357.726L93.9418 357.634C93.6366 357.304 93.2758 357.072 92.8561 356.936C92.4872 356.742 92.0921 356.644 91.6708 356.643ZM258.527 356.829C258.27 356.759 258.017 356.759 257.76 356.829C257.378 356.846 257.021 356.96 256.692 357.169C256.497 357.321 256.303 357.471 256.109 357.62L255.939 357.823C255.577 358.265 255.568 358.34 255.29 359.012C255.176 359.386 255.158 359.761 255.241 360.136C255.241 360.389 255.307 360.625 255.433 360.844C255.502 361.083 255.62 361.292 255.797 361.465C255.922 361.677 256.088 361.847 256.3 361.972C256.57 362.218 256.889 362.388 257.257 362.475L258.003 362.575C258.1 362.562 258.201 362.548 258.298 362.538C258.415 362.534 258.528 362.521 258.64 362.499L258.752 362.475L258.855 362.447C258.991 362.408 259.123 362.355 259.252 362.288C259.494 362.218 259.706 362.097 259.887 361.916C260.199 361.715 260.448 361.444 260.629 361.108L260.677 360.997C260.743 360.878 260.799 360.757 260.841 360.625C260.958 360.417 261.017 360.195 261.021 359.956C261.09 359.637 261.085 359.321 261.003 359.006L260.972 358.9L260.705 358.265C260.566 358.05 260.421 357.831 260.234 357.654C260.121 357.555 259.846 357.34 259.69 357.232L259.595 357.169C259.265 356.96 258.908 356.846 258.527 356.829ZM295.863 350.683C294.458 352.089 295.079 354.67 297.046 355.17L297.271 355.225C299.172 355.708 300.886 353.99 300.404 352.089L300.348 351.866C299.849 349.899 297.268 349.277 295.863 350.683ZM62.2494 335.816C62.2633 335.622 62.0135 335.552 61.8886 335.667C60.2166 337.166 59.1516 338.964 57.1223 340.126C55.0822 341.292 52.9804 341.198 50.8539 341.951C50.1323 342.208 50.1289 343.173 50.8539 343.426C54.8779 344.832 61.9441 340.067 62.2494 335.816ZM251.325 335.511C250.877 335.372 250.426 335.351 249.979 335.452C249.674 335.452 249.39 335.528 249.129 335.68C248.841 335.761 248.595 335.906 248.384 336.114C248.13 336.264 247.929 336.468 247.776 336.721C247.478 337.048 247.277 337.43 247.173 337.867L247.055 338.766L247.173 339.665C247.287 339.932 247.402 340.203 247.513 340.47L247.823 340.89C248.074 341.225 248.114 341.229 248.723 341.681C249.112 341.927 249.531 342.063 249.979 342.08C250.278 342.163 250.576 342.163 250.877 342.08C251.179 342.08 251.464 342.004 251.727 341.851C252.012 341.771 252.261 341.625 252.473 341.417C252.841 341.178 253.129 340.862 253.341 340.47C253.455 340.203 253.569 339.932 253.68 339.665L253.802 338.766L253.68 337.867L253.674 337.839C253.514 337.277 253.229 336.788 252.82 336.374L252.147 335.854C251.884 335.684 251.61 335.597 251.325 335.511ZM89.3903 336.184C88.4298 335.92 87.3749 336.197 86.671 336.902C85.9665 337.607 85.6889 338.658 85.9526 339.62C86.2128 340.557 86.9655 341.316 87.9056 341.57C88.1866 341.646 88.4711 341.688 88.759 341.674C89.2415 341.671 89.6921 341.549 90.1119 341.306L90.6531 340.886C90.917 340.643 91.1006 340.355 91.2084 340.022C91.3784 339.703 91.4547 339.359 91.4409 338.988L91.444 338.922C91.4547 338.79 91.4374 338.658 91.3954 338.53C91.3954 338.394 91.3746 338.262 91.3399 338.134C91.0867 337.197 90.3235 336.44 89.3903 336.184ZM296.543 326.787C296.234 326.776 295.946 326.838 295.679 326.98C295.398 327.071 295.159 327.223 294.958 327.446C294.736 327.647 294.583 327.89 294.493 328.167C294.351 328.435 294.288 328.723 294.299 329.031C294.299 329.437 294.403 329.816 294.604 330.163C294.722 330.316 294.84 330.468 294.958 330.617C295.235 330.899 295.565 331.089 295.946 331.197L296.168 331.273C296.494 331.391 296.814 331.398 297.154 331.353C297.511 331.305 297.841 331.207 298.132 330.985C298.417 330.819 298.642 330.593 298.808 330.309L298.999 329.857C299.041 329.705 299.058 329.476 299.068 329.316C299.068 329.292 299.068 329.271 299.072 329.247C299.072 329.111 299.03 328.782 298.996 328.646C298.919 328.362 298.763 328.091 298.586 327.862C298.434 327.623 298.225 327.435 297.969 327.296L297.946 327.279L297.92 327.262C297.841 327.206 297.757 327.151 297.674 327.091C297.327 326.89 296.949 326.787 296.543 326.787ZM117.409 324.322C116.854 324.322 116.337 324.465 115.858 324.742C115.841 324.749 115.824 324.756 115.81 324.763C115.352 325.034 114.988 325.398 114.717 325.856C114.44 326.332 114.301 326.846 114.301 327.394C114.301 327.945 114.44 328.455 114.717 328.931C114.988 329.389 115.352 329.753 115.81 330.024C115.824 330.034 115.841 330.041 115.858 330.048C116.337 330.326 116.854 330.465 117.409 330.468C117.961 330.465 118.478 330.326 118.957 330.048C119.893 329.5 120.479 328.476 120.479 327.394C120.479 326.31 119.893 325.287 118.957 324.742C118.478 324.465 117.961 324.322 117.409 324.322ZM261.469 320.309L261.375 320.307C261.007 320.293 260.664 320.37 260.348 320.54C260.018 320.647 259.731 320.831 259.487 321.092L258.981 321.515L258.834 321.634C258.81 321.654 258.786 321.675 258.763 321.696C258.422 322.039 258.19 322.441 258.058 322.906C258.017 323.174 257.982 323.437 257.954 323.704C257.878 324.399 258.287 325.11 258.738 325.603C258.981 325.863 259.269 326.047 259.602 326.158C259.921 326.325 260.268 326.401 260.636 326.387C261.389 326.321 262.103 326.161 262.644 325.578C262.707 325.509 262.766 325.436 262.828 325.363L263.262 324.864C263.591 324.531 263.82 324.138 263.945 323.687C263.98 323.448 264.011 323.212 264.042 322.976C264.074 322.264 263.727 321.598 263.262 321.092C262.832 320.622 262.104 320.336 261.469 320.309ZM278.979 313.002C275.372 313.002 275.379 318.6 278.979 318.6C282.584 318.6 282.577 313.002 278.979 313.002ZM97.594 305.154L97.4803 305.156C96.8833 305.159 96.3251 305.308 95.8079 305.61L95.1353 306.127C94.7256 306.544 94.4415 307.03 94.2816 307.592C94.2438 307.887 94.2052 308.182 94.1636 308.473C94.1463 308.931 94.2438 309.358 94.4515 309.754C94.5834 310.163 94.8123 310.521 95.1353 310.823C95.4367 311.146 95.7909 311.375 96.2034 311.506C96.5988 311.715 97.0255 311.812 97.4803 311.795C98.0801 311.791 98.6389 311.642 99.1558 311.34C99.3809 311.166 99.603 310.993 99.8284 310.823C100.206 310.438 100.478 309.995 100.64 309.487L100.678 309.358L100.8 308.473C100.817 308.019 100.72 307.592 100.512 307.196C100.38 306.783 100.151 306.429 99.8284 306.127C99.5266 305.804 99.1693 305.575 98.76 305.444C98.3978 305.253 98.0088 305.155 97.594 305.154ZM113.843 294.675C113.521 294.665 113.222 294.731 112.941 294.877C112.653 294.97 112.404 295.133 112.192 295.359C111.744 295.717 111.471 296.431 111.471 297.011C111.471 297.59 111.744 298.305 112.192 298.663C112.483 298.951 112.827 299.152 113.222 299.263L113.843 299.347C114.447 299.374 115.061 299.059 115.491 298.663C115.578 298.583 115.661 298.503 115.748 298.427C116.139 298.066 116.309 297.528 116.334 297.011C116.344 296.737 116.285 296.48 116.161 296.241C116.08 295.991 115.942 295.779 115.748 295.595C115.661 295.518 115.578 295.439 115.491 295.359C115.022 294.925 114.475 294.707 113.843 294.675ZM10.8913 276.009C8.61189 273.231 9.93911 271.254 13.3647 271.941C19.2654 272.74 24.8189 276.47 30.0157 279.145C35.6878 282.142 41.5333 284.614 47.3192 287.43C44.9319 288.896 43.1565 291.192 41.8001 293.811C39.0926 291.754 35.6316 290.771 32.2532 290.643C26.1239 284.77 15.9734 283.426 10.8913 276.009ZM280.193 285.229C279.575 285.232 278.996 285.378 278.454 285.668L278.338 285.732L277.596 286.308C277.235 286.642 276.982 287.037 276.832 287.492C276.603 287.929 276.499 288.404 276.517 288.911C276.499 289.418 276.603 289.89 276.832 290.327C276.982 290.785 277.235 291.177 277.596 291.51C277.8 291.778 278.064 291.986 278.38 292.139C278.675 292.26 278.966 292.385 279.261 292.51C279.59 292.614 279.972 292.628 280.329 292.645C280.978 292.642 281.581 292.479 282.144 292.152L282.872 291.591C283.222 291.264 283.472 290.879 283.618 290.431C283.824 290.037 283.929 289.616 283.929 289.166L283.926 289.043C283.926 289.016 283.926 288.984 283.923 288.953C283.881 288.627 283.836 288.3 283.791 287.974C283.677 287.495 283.458 287.075 283.132 286.721C283.049 286.555 282.938 286.419 282.795 286.308C282.338 285.85 281.797 285.538 281.172 285.361C280.846 285.319 280.52 285.274 280.193 285.229ZM119.13 276.036C118.662 276.036 118.228 276.154 117.825 276.387C117.649 276.522 117.475 276.657 117.302 276.793C116.979 277.116 116.757 277.497 116.636 277.935L116.542 278.621C116.532 278.979 116.605 279.309 116.768 279.618C116.871 279.937 117.049 280.215 117.302 280.45C117.534 280.703 117.811 280.881 118.134 280.985C118.44 281.148 118.773 281.221 119.13 281.207C119.595 281.207 120.032 281.089 120.434 280.853C120.608 280.721 120.785 280.586 120.958 280.45C121.251 280.155 121.462 279.809 121.588 279.417L121.621 279.309L121.714 278.621C121.728 278.264 121.655 277.935 121.492 277.626C121.388 277.303 121.208 277.025 120.958 276.793C120.722 276.539 120.444 276.362 120.125 276.258C119.848 276.112 119.55 276.038 119.236 276.035L119.13 276.036ZM259.917 272.276L259.796 272.278C259.106 272.281 258.464 272.455 257.868 272.802C257.611 273 257.354 273.198 257.097 273.399C256.622 273.874 256.296 274.436 256.112 275.085L255.977 276.099C255.956 276.626 256.067 277.115 256.307 277.57C256.459 278.046 256.723 278.455 257.097 278.802C257.441 279.174 257.85 279.437 258.325 279.59C258.78 279.829 259.269 279.941 259.796 279.919C260.487 279.919 261.128 279.746 261.725 279.399C261.981 279.201 262.238 279 262.498 278.802C262.97 278.323 263.297 277.761 263.48 277.115L263.616 276.099C263.636 275.575 263.525 275.082 263.286 274.627C263.133 274.156 262.87 273.742 262.498 273.399C262.151 273.024 261.742 272.76 261.267 272.607C260.848 272.386 260.399 272.278 259.917 272.276ZM131.469 262.735C131.153 262.651 130.838 262.651 130.522 262.735C130.05 262.755 129.609 262.897 129.2 263.158L128.482 263.713C128.472 263.723 128.461 263.734 128.451 263.748C128.017 264.185 127.716 264.702 127.549 265.296L127.424 266.229C127.407 266.712 127.507 267.162 127.726 267.579C127.856 267.98 128.071 268.328 128.368 268.629L128.482 268.741C128.805 269.088 129.183 269.335 129.624 269.477C129.901 269.641 130.203 269.72 130.522 269.72C130.994 269.828 131.469 269.807 131.941 269.658C132.222 269.536 132.506 269.418 132.79 269.301L132.881 269.248C133.953 268.662 134.615 267.434 134.615 266.229C134.615 265.025 133.953 263.793 132.881 263.206C132.849 263.193 132.822 263.175 132.79 263.158C132.381 262.897 131.941 262.755 131.469 262.735Z" fill="#111111"/>
<path fill-rule="evenodd" clip-rule="evenodd" d="M206.504 74.0939C185.273 64.4395 161.194 60.7783 138.035 63.1798C126.605 64.3632 115.325 66.9022 104.59 71.0266L103.649 71.3911C100.999 72.4136 98.1426 73.4285 96.1288 75.5098C93.785 77.9286 93.1276 81.5864 94.803 84.5743C96.1046 86.896 98.4447 88.5614 100.941 89.4501C100.061 90.1719 99.227 90.977 98.4447 91.8759C97.1258 93.382 97.0254 95.5298 98.4447 97.0154C101.179 99.8784 104.728 101.95 108.549 102.943C108.12 105.021 108.352 107.322 109.273 109.394C111.915 115.341 119.358 116.05 125.086 115.697L125.259 115.686L125.577 119.34C125.747 121.287 126.91 122.796 128.883 123.095C128.952 123.105 129.022 123.112 129.091 123.119C125.968 134.439 124.082 146.11 122.34 157.711C121.431 163.767 120.616 169.837 119.837 175.912L119.578 177.936C118.747 184.485 117.709 191.099 117.349 197.696C117.027 203.683 118.166 209.398 121.845 214.229C125.148 218.56 129.651 221.805 134.494 224.213C145.436 229.658 156.953 233.711 169.055 235.592L169.862 235.717C174.534 236.432 179.347 237.034 183.968 235.738C188.028 234.6 192.286 231.664 191.369 226.948C191.061 225.355 188.839 225.285 188.077 226.517L187.901 226.8C186.988 228.252 185.987 229.602 184.393 230.352C182.528 231.233 180.364 231.48 178.326 231.504C172.631 231.57 166.701 230.147 161.218 228.721C150.979 226.056 140.462 221.711 132.075 215.128C128.506 212.331 125.639 208.833 124.629 204.332C123.379 198.783 124.528 192.716 125.096 187.14C126.264 175.632 127.655 164.146 129.122 152.673L129.416 150.379C130.651 140.787 131.95 131.191 132.566 121.544C132.822 121.193 132.995 120.794 133.065 120.357L133.161 119.729V119.729C133.245 119.191 133.258 118.698 133.2 118.243C133.196 116.501 133.148 114.77 133.047 113.027C133.03 112.715 133.016 112.403 133.006 112.094C134.813 112.493 136.634 112.816 138.461 113.09C151.311 115.03 164.361 115.516 177.315 114.551C183.778 114.068 190.192 113.239 196.586 112.202C199.84 111.674 203.083 111.091 206.316 110.439C208.653 109.97 210.941 109.335 213.24 108.738C215.611 112.198 216.892 116.456 216.642 120.638C216.362 125.41 213.191 129.737 214.081 134.613C214.916 139.176 218.815 140.591 222.666 141.721L224.303 142.195C225.563 142.564 226.477 142.92 226.705 144.437C227.097 147.044 226.615 149.976 226.515 152.596C226.394 155.695 226.235 158.794 226.162 161.893C226.124 163.496 226.062 165.107 226.065 166.71C226.069 167.848 226.238 168.625 226.678 169.361C226.339 169.788 226.034 170.25 225.764 170.739C225.677 170.899 225.892 171.068 226.02 170.937C226.363 170.579 226.727 170.257 227.11 169.968C227.304 170.208 227.529 170.451 227.793 170.711L227.813 170.683V170.683C228.637 171.506 229.946 171.586 230.967 170.711L231.235 170.478C231.983 169.821 232.497 169.274 232.705 168.188C232.715 168.133 232.726 168.077 232.732 168.022C234.633 167.956 236.564 168.406 238.274 169.354C240.985 170.857 242.892 172.998 244.02 175.642C243.571 176.17 243.044 176.642 242.432 177.038C242.345 177.097 242.421 177.225 242.515 177.18C243.141 176.885 243.702 176.52 244.204 176.094C244.609 177.135 244.893 178.252 245.066 179.435C245.675 183.614 244.588 188.719 240.822 191.099C239.192 192.13 237.329 192.689 235.398 192.696C234.456 192.699 233.643 192.539 232.729 192.314C232.109 192.161 231.493 191.939 230.846 191.939C230.292 191.939 229.779 192.078 229.305 192.356L229.437 192.367C229.756 192.397 229.695 192.411 229.25 192.411C227.865 192.47 227.073 193.879 227.709 195.104L227.793 195.293C227.81 195.332 227.825 195.363 227.837 195.388L227.887 195.713C227.892 195.744 227.898 195.776 227.903 195.808L227.922 195.874C227.926 195.885 227.93 195.895 227.934 195.906L225.858 199.08C223.312 202.964 220.709 206.833 217.747 210.38C215.67 212.869 213.468 215.308 211.142 217.567C209.051 219.598 206.545 220.576 204.177 222.172C202.913 223.019 202.543 224.793 203.692 225.934C207.064 229.29 211.838 226.625 214.604 223.897C217.221 221.312 219.481 218.202 221.43 215.09C224.888 209.554 227.64 203.669 228.845 197.28C229.347 197.741 229.987 198.029 230.634 198.255C231.933 198.706 233.362 198.894 234.733 198.942C237.36 199.029 239.991 198.39 242.356 197.259C251.975 192.661 253.388 178.891 247.506 170.77C248.3 168.465 248.742 165.963 249.224 163.83L249.443 162.876C251.875 152.225 253.508 141.01 249.196 130.573C248.642 129.227 248.019 127.915 247.281 126.659C246.69 125.649 245.672 124.573 245.391 123.425C244.768 120.902 248.614 118.25 249.736 116.248C251.055 113.899 251.242 111.126 249.445 108.977C249.217 108.707 248.968 108.457 248.697 108.238C250.4 105.143 250.48 101.249 248.237 98.1953C246.762 96.1825 244.512 94.7736 242.054 94.3467C240.552 94.0865 238.745 94.1836 237.094 94.6486C228.052 86.2331 217.736 79.2023 206.504 74.0939ZM241.224 179.394C238.811 177.26 236.145 176.142 232.857 176.423C229.551 176.708 225.57 178.079 223.628 180.921C222.094 183.166 225.22 186.459 227.47 184.773C229.52 183.236 230.887 181.5 233.431 180.674C235.716 179.935 238.544 179.46 240.936 179.883C241.2 179.928 241.462 179.602 241.224 179.394Z" fill="#111111"/>
<path fill-rule="evenodd" clip-rule="evenodd" d="M166.111 195.134C164.17 191.94 160.034 199.763 159.595 201.108C159.205 202.3 158.948 203.52 158.818 204.755C157.313 205.092 155.751 205.093 154.21 204.797C151.918 204.358 150.518 203.125 148.527 202.067C147.151 201.336 145.418 202.194 144.703 203.406C143.861 204.833 144.397 206.315 145.504 207.379C147.602 209.396 151.731 209.86 154.47 209.324C156.039 209.017 157.478 208.428 158.748 207.573C158.756 207.732 158.762 207.892 158.774 208.051L158.799 208.328C159.009 210.566 159.624 213.379 161.361 214.835C164.211 217.224 167.727 212.63 164.959 210.245L164.873 210.173C163.152 208.782 162.776 205.05 162.869 202.994C162.93 201.652 163.174 200.293 163.598 199.015L163.685 198.761C163.812 198.4 165.202 194.976 165.704 195.412L165.728 195.436C165.935 195.684 166.27 195.395 166.111 195.134ZM150.617 177.114C147.998 178.707 144.006 182.421 146.824 186.37C150.141 189.852 154.917 185.86 157.271 184.054C159.453 182.655 161.905 186.254 159.88 187.888C142.874 200.483 135.972 177.53 149.292 175.241C150.759 174.989 151.303 176.621 150.617 177.114ZM178.589 162.39C176.029 161.936 173.407 162.573 171.288 164.071L171.128 164.187C169.087 165.68 166.803 168.302 167.974 170.876C168.444 171.91 169.852 172.072 170.745 171.603C172.232 170.823 172.502 168.904 173.829 167.841C174.917 166.971 176.382 166.442 177.784 166.57C181.076 166.869 183.101 170.117 184.124 172.917C184.255 173.275 184.78 173.414 184.986 173.03C187.397 168.521 183.129 163.196 178.589 162.39ZM137.583 160.689C132.678 160.285 126.938 165.371 128.229 170.549C128.849 173.034 132.533 172.963 133.188 170.549C133.548 169.221 133.512 168.046 134.468 166.943C135.257 166.033 136.378 165.504 137.583 165.585C138.91 165.674 140.135 166.338 141.066 167.271C141.907 168.114 142.409 169.347 143.28 170.093C143.494 170.276 143.781 170.288 143.993 170.093C145.491 168.711 144.592 165.833 143.642 164.39C142.282 162.325 140.068 160.894 137.583 160.689ZM187.928 153.206C184.782 150.42 179.066 147.73 174.823 149.101C172.384 149.889 171.321 153.82 174.044 155.067C177.197 156.51 180.832 155.922 184.041 157.418C185.389 158.047 186.656 158.832 187.595 159.984C188.334 160.892 189.086 162.086 190.155 162.609C190.436 162.747 190.817 162.751 191.042 162.495C193.385 159.843 189.974 155.018 187.928 153.206ZM142.99 148.962C141.045 148.417 138.888 148.428 136.913 148.771C134.939 149.113 132.934 149.932 131.322 151.126L131.135 151.266C129.375 152.593 127.275 154.523 127.387 156.873C127.481 158.836 129.545 160.163 131.327 159.134C132.779 158.296 133.463 156.615 134.692 155.496C135.707 154.573 136.899 153.845 138.171 153.335C139.583 152.768 140.998 152.503 142.514 152.477C143.682 152.458 144.856 152.841 146.001 152.963C145.907 153.157 146.812 153.067 147.331 152.895C147.716 152.731 147.718 152.245 147.584 151.93C146.924 150.367 144.519 149.391 142.99 148.962Z" fill="#111111"/>
<path fill-rule="evenodd" clip-rule="evenodd" d="M139.94 202.625C138.989 203.6 138.077 204.644 137.217 205.724C136.977 207.438 136.922 209.173 137.14 210.964C137.46 213.559 138.167 216.096 139.125 218.532C139.69 218.453 140.249 218.293 140.793 218.043C142.521 217.248 143.485 215.649 144.654 214.236C146.982 211.429 151.228 209.77 154.197 212.681C155.488 213.948 156.313 215.701 157.465 217.092C158.731 218.623 160.153 220.077 161.638 221.395C161.822 221.562 162.013 221.743 162.211 221.919C163.036 220.976 163.848 220.025 164.642 219.06C167.005 216.187 169.044 213.004 170.116 209.416C170.456 208.278 170.668 207.091 170.751 205.894C169.7 204.589 168.5 203.402 167.136 202.42C163.026 199.453 158.291 198.97 153.365 198.713C148.269 198.45 143.679 198.797 139.94 202.625M127.507 216.391C127.705 214.406 128.01 212.341 128.461 210.28C130.109 202.631 133.678 195.007 140.835 191.513C144.22 189.857 148.068 189.274 151.717 190.072C158.121 187.674 165.232 190.121 170.272 194.507C176.218 199.682 178.962 207.802 179.885 215.409C180.527 220.701 180.768 227.772 179.267 231.612C177.766 235.452 168.227 245.72 154.61 245.792C135.215 245.894 130.501 232.809 129.928 231.664C127.538 226.903 126.983 221.645 127.507 216.391" fill="#111111"/>
</svg>
