<svg width="395" height="532" viewBox="0 0 395 532" fill="none" xmlns="http://www.w3.org/2000/svg">
<path fill-rule="evenodd" clip-rule="evenodd" d="M157.125 223.728C157.086 223.698 157.048 223.689 157.007 223.71C156.219 224.088 156.056 224.845 155.786 225.633C155.39 226.785 154.932 227.909 154.509 229.051C153.666 231.341 152.861 233.628 151.921 235.881C150.957 238.199 149.958 240.475 148.813 242.714C148.261 243.796 147.668 244.858 147.065 245.913C146.648 246.646 146.26 247.652 145.712 248.339C145.67 248.12 145.611 247.912 145.542 247.718C145.614 247.753 145.684 247.791 145.75 247.832C145.889 247.919 146.055 247.746 145.972 247.61C145.674 247.117 145.285 246.784 144.841 246.559C143.613 245.195 116.545 251.704 109.145 259.014C95.7437 272.253 86.6977 288.623 80.7484 306.037C77.4633 315.646 74.4384 325.349 71.3128 335.01C68.0104 345.227 64.5622 355.398 61.2528 365.608C60.5278 367.853 62.1097 369.894 64.1078 370.633C67.83 372.007 71.58 373.302 75.3611 374.499C73.526 381.547 72.2425 388.745 71.3198 395.963C69.4153 410.847 69.176 426.033 66.175 440.761C65.4859 444.142 64.6142 447.474 63.6932 450.798L63.4799 451.564C62.9318 453.515 62.4319 455.482 61.7593 457.391C61.18 459.033 60.4307 460.688 60.0248 462.381C59.5496 464.373 60.2503 466.549 62.1132 467.573C63.6083 468.395 65.7486 468.055 66.6505 466.511C66.8344 466.195 66.9454 465.852 66.9905 465.505C67.1258 465.217 67.2507 464.922 67.3617 464.62C67.4051 464.504 67.4432 464.383 67.4796 464.262L67.5872 463.901C67.8508 463.041 68.0936 462.173 68.3365 461.306C68.7319 459.914 69.1299 458.527 69.5698 457.147L69.7934 456.458C70.8827 453.14 71.8575 449.795 72.7074 446.408C75.7489 434.263 76.3941 421.688 77.2291 409.242L77.2725 408.598C78.0287 397.445 78.4797 386.315 77.5535 375.186L77.6801 375.227V375.227L77.8067 375.266C79.0101 375.634 80.2177 375.995 81.4283 376.345C81.4665 376.359 81.5012 376.373 81.5393 376.383C82.3141 376.623 83.1105 376.851 83.9205 377.063L84.4082 377.189L84.7516 377.282L85.1131 377.385C86.2603 377.718 87.43 378.101 88.6195 378.063C90.5899 378.379 92.5949 378.57 94.5653 378.577C93.9582 388.505 93.2575 398.427 92.4215 408.338C91.582 418.301 90.4684 428.227 89.3133 438.152C88.7444 443.055 88.1338 447.948 87.4608 452.835C87.1209 455.312 86.7671 457.776 86.3161 460.233C85.8512 462.746 85.0291 465.432 85.5252 467.972C85.5356 467.969 85.546 467.965 85.5564 467.965C85.7229 468.701 86.1669 469.36 86.9405 469.815C88.3593 470.644 90.3436 470.158 91.1588 468.708C91.2281 468.586 91.2941 468.461 91.3565 468.333C92.1922 468.69 93.1083 468.829 94.2323 468.84L109.475 468.992V468.992C116.402 469.062 123.33 469.135 130.261 469.235C152.021 469.556 173.782 469.926 195.542 470.19L203.702 470.283C215.941 470.412 228.186 470.665 240.425 470.662C246.547 470.662 252.663 470.641 258.786 470.492C261.752 470.419 264.711 470.304 267.673 470.183L268.196 470.159C270.562 470.042 273.072 469.823 275.385 470.353C276.023 471.595 277.654 471.852 278.507 470.582C280.457 467.676 280.989 463.621 281.35 460.069L281.476 458.79C281.875 454.809 282.226 450.829 282.486 446.841C283.409 432.714 283.745 418.572 283.322 404.417C283.107 397.202 282.444 390.029 281.66 382.856C281.414 380.617 281.157 378.382 280.88 376.151L280.875 375.358C280.875 375.104 280.876 374.862 280.883 374.634L280.952 372.481C281.01 370.687 281.063 368.891 281.085 367.095L281.095 366.018L281.105 364.012C282.819 363.849 284.647 363.28 286.125 363.005C288.522 362.558 290.912 362.075 293.295 361.565C298.068 360.538 302.79 359.323 307.48 357.98L308.477 357.694C312.805 356.446 317.192 355.116 321.286 353.25C322.889 352.518 324.488 351.692 325.893 350.609C325.976 351.748 326.105 352.882 326.181 354.01C326.333 356.242 326.514 358.466 326.663 360.698L326.806 362.821C327.04 366.358 327.251 369.892 327.347 373.441C327.77 388.918 327.843 404.462 327.024 419.929C326.618 427.671 326.039 435.414 325.203 443.125C324.793 446.918 324.36 450.721 323.826 454.5C323.274 458.384 322.278 462.243 321.973 466.154C321.682 469.926 327.447 470.474 328.394 467.025C329.528 462.889 329.817 458.427 330.415 454.174L330.482 453.702C331.145 449.184 331.676 444.648 332.134 440.105C333.715 424.437 334.125 408.689 333.296 392.961C332.902 385.429 331.967 377.925 330.836 370.473L330.704 369.613C330.19 366.275 329.707 362.937 329.124 359.614L328.901 358.369C328.377 355.513 327.974 352.407 327.125 349.551L327.377 349.318C327.849 348.878 328.361 348.368 328.734 347.819C330.018 347.646 331.11 346.723 330.975 345.046C330.534 339.539 328.522 333.938 326.729 328.739C324.929 323.513 322.84 318.384 320.475 313.387C312.152 295.823 300.167 279.877 285.511 267.103C277.737 260.326 269.217 254.315 259.802 250.036C255.161 247.923 250.36 246.288 245.33 245.407C242.839 244.969 240.324 244.629 237.792 244.556C235.737 243.343 233.298 243.854 231.309 245.184L231.201 245.257H231.197L230.687 245.358V245.358C230.562 245.382 230.566 245.58 230.687 245.608C230.694 245.608 230.705 245.611 230.712 245.615C230.386 245.872 230.077 246.146 229.789 246.441C228.838 247.412 228.842 248.585 229.331 249.533C226.421 252.233 224.582 255.7 222.657 259.194C220.593 262.935 217.89 266.17 214.602 268.897C202.547 278.899 184.817 283.323 169.713 278.6C158.606 275.13 149.118 265.736 146.496 254.426C147.117 254.648 147.79 254.683 148.428 254.454C151.425 253.385 152.568 250.108 153.715 247.368L153.77 247.235C154.891 244.581 155.831 241.884 156.573 239.101C157.322 236.29 157.763 233.323 157.947 230.422C158.018 229.275 157.986 228.128 157.927 226.98L157.874 226.032C157.834 225.173 157.847 224.294 157.125 223.728ZM205.895 215.992C205.853 215.888 205.69 215.833 205.627 215.957C202.974 221.434 204.715 228.936 207.223 234.159C209.849 239.622 213.804 243.765 218.49 247.35C219.136 247.843 219.798 248.329 220.471 248.804C224.381 251.566 227.864 244.119 223.35 242.696C218.646 240.305 214.824 236.044 212.167 231.567C210.73 229.148 209.457 226.629 208.482 223.984C207.511 221.347 206.928 218.602 205.895 215.992Z" fill="#111111"/>
<path fill-rule="evenodd" clip-rule="evenodd" d="M103.737 236.315C107.687 217.728 110.221 198.901 112.488 180.05C113.585 170.92 114.461 161.766 115.476 152.628C116.424 144.115 117.528 135.575 119.744 127.288C121.803 119.587 124.815 111.963 129.253 105.314C133.414 99.0809 138.644 93.7401 144.65 89.2807C156.517 80.4696 171.693 75.7812 186.453 77.3359C188.682 77.5718 190.891 77.9501 193.075 78.4568C192.38 78.252 191.676 78.0608 190.967 77.8946C190.739 77.8394 190.84 77.5309 191.064 77.5514C251.115 83.0209 265.24 187.716 266.524 208.826C266.625 210.468 266.704 212.106 266.763 213.747C267.213 217.409 267.549 221.08 267.708 224.762C267.888 229.01 267.801 233.285 267.411 237.519C267.009 241.86 266.552 246.309 264.745 250.3C263.637 252.757 211.99 249.391 211.457 246.49C210.377 240.632 209.823 234.587 210.162 228.628C210.321 225.772 210.615 222.937 211.225 220.14C211.391 219.376 211.567 217.943 212.014 216.808C207.303 207.834 202.121 199.116 196.786 190.5C185.684 172.558 173.881 154.95 164.808 135.842C160.259 126.267 155.776 116.1 153.63 105.609L153.284 105.678C153.325 105.803 153.298 105.959 153.173 106.046C143.311 112.879 136.719 123.234 132.448 134.322C127.474 147.232 125.061 161.172 125.407 175.005C125.957 196.986 134.269 224.151 157.784 231.099C163.149 232.685 168.944 233.132 174.441 231.973C177.034 231.425 179.575 230.581 181.915 229.332C184.511 227.948 186.644 225.987 189.077 224.374C191.303 222.899 193.93 225.775 192.65 227.958C189.821 232.782 183.736 235.732 178.509 237.182C172.932 238.733 167.05 238.807 161.37 237.821C160.937 237.748 160.508 237.665 160.082 237.574C159.985 239.004 159.373 240.427 158.376 241.583C157.929 242.104 157.379 242.554 156.763 242.933C156.683 244.328 155.786 245.73 154.329 246.035C146.544 247.659 114.212 243.401 106.437 241.079C104.35 240.455 103.294 238.404 103.737 236.315" fill="#111111"/>
<path fill-rule="evenodd" clip-rule="evenodd" d="M148.287 198.272C147.097 196.171 143.545 196.513 143.002 198.963C141.901 203.93 147.822 208.518 152.319 208.632C156.788 208.746 161.803 204.94 161.156 200.134C160.996 198.945 159.408 199.089 158.867 199.835L158.657 200.121C157.187 202.096 155.248 204.141 152.52 203.659C151.389 203.46 150.363 202.753 149.679 201.844C148.855 200.746 148.946 199.435 148.287 198.272ZM176.704 161.931C176.098 161.764 175.487 161.828 174.951 162.057C173.752 162.276 172.752 163.276 172.4 164.417C172.372 164.516 172.341 164.613 172.307 164.71L172.253 164.854L172.397 164.488C172.331 164.848 172.038 165.227 171.932 165.588C171.802 166.033 171.771 166.538 171.815 167.027C171.434 167.031 171.053 167.044 170.673 167.077L170.305 167.11C168.251 167.301 165.995 167.651 164.777 169.427C164.093 170.425 164.735 172.222 165.992 172.415C167.926 172.711 169.593 171.64 171.521 171.425C173.343 171.222 175.251 171.338 177.05 171.668C180.764 172.347 184.177 173.853 187.796 174.798L188.289 174.923V174.923L188.288 174.921C188.909 175.071 189.613 174.208 188.999 173.703C186.099 171.32 182.387 169.389 178.73 168.213C179.262 167.365 179.427 166.248 179.063 165.338C179.007 165.15 178.937 164.966 178.863 164.783L178.709 164.407V164.407C178.694 164.23 178.66 164.055 178.611 163.883L178.603 163.83V163.83L178.598 163.833V163.833C178.326 162.948 177.615 162.182 176.704 161.931ZM139.709 162.068C138.916 161.274 137.802 161.391 136.974 162.016L136.864 162.102V162.102C136.084 162.449 135.439 163.206 135.015 163.908C134.575 164.637 134.282 165.38 134.271 166.183C132.351 166.189 130.512 166.765 129.103 168.316C128.648 168.816 128.337 169.588 128.587 170.266L128.736 170.67V170.67C129.21 171.951 131.337 172.689 132.061 171.182L132.094 171.109C132.862 169.319 135.812 169.507 137.38 169.69C138.472 169.818 139.552 170.09 140.607 170.394C140.979 170.501 141.347 170.618 141.715 170.737L142.083 170.856C142.28 170.919 143.302 171.475 142.666 171.344C142.495 171.308 142.366 171.557 142.541 171.641C143.299 172.004 144.108 171.281 144.057 170.467C143.97 169.052 141.724 168.277 140.644 167.789L140.579 167.759C140.165 167.568 139.731 167.384 139.283 167.214C139.535 166.839 139.743 166.423 139.916 165.976C140.08 165.554 140.189 165.143 140.25 164.695C140.308 164.475 140.308 164.256 140.25 164.036L140.24 163.974V163.974C140.271 163.829 140.286 163.679 140.283 163.528L140.29 163.469H140.283C140.262 162.941 140.052 162.411 139.709 162.068ZM152.381 177.131C149.334 178.072 144.308 180.638 145.895 184.598C148.112 188.235 153.992 185.562 156.841 184.387C159.401 183.539 160.733 187.128 158.258 188.209C137.806 196.304 137.881 174.941 151.639 175.255C153.154 175.289 153.202 176.818 152.381 177.131ZM179.44 149.275L178.921 149.124C176.22 148.341 173.463 146.99 171.066 149.098C170.124 149.926 169.93 151.647 170.604 152.68C172.139 155.033 174.415 154.673 176.893 154.874C178.78 155.027 180.639 155.581 182.401 156.274C183.84 156.841 185.176 157.639 186.436 158.528C187.675 159.403 188.521 160.771 189.791 161.558C190.257 161.847 190.794 161.55 190.962 161.082C191.554 159.421 190.553 157.353 189.706 155.938C188.672 154.212 187.101 152.8 185.412 151.732C183.562 150.562 181.517 149.887 179.44 149.275V149.275ZM140.089 147.489C135.525 147.487 131.132 150.027 128.579 153.75C127.711 155.015 128.347 156.889 129.593 157.618C130.99 158.435 132.484 157.847 133.404 156.675L133.459 156.604C134.923 154.653 136.81 153.117 139.048 152.117C140.14 151.629 141.347 151.233 142.528 151.032L142.909 150.966C143.444 150.877 144.065 150.791 144.548 150.875C144.807 150.909 145.045 150.995 145.265 151.125C145.159 151.356 145.432 151.633 145.683 151.495C146.817 150.872 146.678 149.76 145.741 148.896C144.416 147.673 141.801 147.489 140.089 147.489Z" fill="#111111"/>
</svg>
