<svg width="395" height="532" viewBox="0 0 395 532" fill="none" xmlns="http://www.w3.org/2000/svg">
<path fill-rule="evenodd" clip-rule="evenodd" d="M157.124 223.728C157.086 223.698 157.048 223.689 157.006 223.71C156.219 224.088 156.056 224.845 155.785 225.633C155.39 226.785 154.932 227.909 154.509 229.051C153.665 231.341 152.861 233.628 151.921 235.881C150.956 238.199 149.957 240.475 148.813 242.714C148.261 243.796 147.668 244.858 147.064 245.913C146.648 246.646 146.26 247.652 145.711 248.339C145.67 248.12 145.611 247.912 145.541 247.718C145.614 247.753 145.684 247.791 145.75 247.832C145.888 247.919 146.055 247.746 145.972 247.61C145.673 247.117 145.285 246.784 144.841 246.559C143.613 245.195 116.545 251.704 109.145 259.014C95.7434 272.253 86.6974 288.623 80.7482 306.037C77.4631 315.646 74.4381 325.349 71.3126 335.01C68.0101 345.227 64.562 355.398 61.2526 365.608C60.5276 367.853 62.1094 369.894 64.1076 370.633C67.8298 372.007 71.5797 373.302 75.3609 374.499C73.5258 381.547 72.2423 388.745 71.3195 395.963C69.4151 410.847 69.1757 426.033 66.1747 440.761C65.4857 444.142 64.6139 447.474 63.693 450.798L63.4797 451.564C62.9316 453.515 62.4317 455.482 61.7591 457.391C61.1798 459.033 60.4305 460.688 60.0246 462.381C59.5493 464.373 60.2501 466.549 62.1129 467.573C63.608 468.395 65.7484 468.055 66.6503 466.511C66.8342 466.195 66.9452 465.852 66.9903 465.505C67.1256 465.217 67.2504 464.922 67.3615 464.62C67.4048 464.504 67.443 464.383 67.4794 464.262L67.5869 463.901C67.8506 463.041 68.0934 462.173 68.3362 461.306C68.7317 459.914 69.1297 458.527 69.5696 457.147L69.7932 456.458C70.8824 453.14 71.8572 449.795 72.7071 446.408C75.7486 434.263 76.3939 421.688 77.2289 409.242L77.2723 408.598C78.0285 397.445 78.4795 386.315 77.5532 375.186L77.6799 375.227V375.227L77.8065 375.266C79.0099 375.634 80.2174 375.995 81.4281 376.345C81.4662 376.359 81.5009 376.373 81.5391 376.383C82.3138 376.623 83.1102 376.851 83.9203 377.063L84.4079 377.189L84.7513 377.282L85.1129 377.385C86.2601 377.718 87.4297 378.101 88.6192 378.063C90.5896 378.379 92.5947 378.57 94.565 378.577C93.958 388.505 93.2573 398.427 92.4212 408.338C91.5817 418.301 90.4682 428.227 89.313 438.152C88.7441 443.055 88.1336 447.948 87.4606 452.835C87.1206 455.312 86.7668 457.776 86.3158 460.233C85.851 462.746 85.0289 465.432 85.5249 467.972C85.5353 467.969 85.5457 467.965 85.5561 467.965C85.7227 468.701 86.1667 469.36 86.9403 469.815C88.3591 470.644 90.3433 470.158 91.1585 468.708C91.2279 468.586 91.2938 468.461 91.3563 468.333C92.1919 468.69 93.1081 468.829 94.232 468.84L109.475 468.992V468.992C116.402 469.062 123.33 469.135 130.261 469.235C152.021 469.556 173.781 469.926 195.542 470.19L203.702 470.283C215.941 470.412 228.186 470.665 240.424 470.662C246.547 470.662 252.663 470.641 258.786 470.492C261.752 470.419 264.711 470.304 267.673 470.183L268.196 470.159C270.561 470.042 273.072 469.823 275.385 470.353C276.023 471.595 277.653 471.852 278.507 470.582C280.457 467.676 280.989 463.621 281.349 460.069L281.476 458.79C281.875 454.809 282.225 450.829 282.486 446.841C283.408 432.714 283.745 418.572 283.322 404.417C283.107 397.202 282.444 390.029 281.66 382.856C281.414 380.617 281.157 378.382 280.88 376.151L280.875 375.358C280.874 375.104 280.876 374.862 280.883 374.634L280.952 372.481C281.01 370.687 281.063 368.891 281.085 367.095L281.095 366.018L281.105 364.012C282.819 363.849 284.647 363.28 286.125 363.005C288.521 362.558 290.912 362.075 293.295 361.565C298.068 360.538 302.789 359.323 307.48 357.98L308.477 357.694C312.805 356.446 317.192 355.116 321.286 353.25C322.889 352.518 324.488 351.692 325.893 350.609C325.976 351.748 326.104 352.882 326.181 354.01C326.333 356.242 326.514 358.466 326.663 360.698L326.806 362.821C327.04 366.358 327.251 369.892 327.346 373.441C327.769 388.918 327.842 404.462 327.024 419.929C326.618 427.671 326.038 435.414 325.202 443.125C324.793 446.918 324.359 450.721 323.825 454.5C323.274 458.384 322.278 462.243 321.973 466.154C321.681 469.926 327.447 470.474 328.394 467.025C329.528 462.889 329.817 458.427 330.414 454.174L330.482 453.702C331.145 449.184 331.676 444.648 332.133 440.105C333.714 424.437 334.125 408.689 333.296 392.961C332.901 385.429 331.967 377.925 330.836 370.473L330.704 369.613C330.189 366.275 329.707 362.937 329.124 359.614L328.9 358.369C328.377 355.513 327.974 352.407 327.124 349.551L327.377 349.318C327.849 348.878 328.361 348.368 328.734 347.819C330.017 347.646 331.11 346.723 330.975 345.046C330.534 339.539 328.522 333.938 326.729 328.739C324.928 323.513 322.84 318.384 320.474 313.387C312.152 295.823 300.167 279.877 285.511 267.103C277.737 260.326 269.217 254.315 259.802 250.036C255.161 247.923 250.36 246.288 245.33 245.407C242.839 244.969 240.324 244.629 237.792 244.556C235.737 243.343 233.298 243.854 231.309 245.184L231.201 245.257H231.197L230.687 245.358V245.358C230.562 245.382 230.566 245.58 230.687 245.608C230.694 245.608 230.704 245.611 230.711 245.615C230.385 245.872 230.077 246.146 229.789 246.441C228.838 247.412 228.842 248.585 229.331 249.533C226.42 252.233 224.582 255.7 222.656 259.194C220.592 262.935 217.89 266.17 214.602 268.897C202.547 278.899 184.817 283.323 169.713 278.6C158.606 275.13 149.118 265.736 146.495 254.426C147.116 254.648 147.789 254.683 148.428 254.454C151.425 253.385 152.568 250.108 153.714 247.368L153.77 247.235C154.89 244.581 155.83 241.884 156.573 239.101C157.322 236.29 157.763 233.323 157.946 230.422C158.017 229.275 157.986 228.128 157.927 226.98L157.874 226.032C157.834 225.173 157.846 224.294 157.124 223.728ZM205.894 215.992C205.853 215.888 205.69 215.833 205.627 215.957C202.974 221.434 204.715 228.936 207.223 234.159C209.849 239.622 213.804 243.765 218.49 247.35C219.135 247.843 219.798 248.329 220.471 248.804C224.381 251.566 227.864 244.119 223.35 242.696C218.646 240.305 214.823 236.044 212.166 231.567C210.73 229.148 209.457 226.629 208.482 223.984C207.511 221.347 206.928 218.602 205.894 215.992Z" fill="#111111"/>
<path fill-rule="evenodd" clip-rule="evenodd" d="M103.737 236.314C107.687 217.727 110.221 198.901 112.488 180.05C113.585 170.92 114.461 161.765 115.476 152.628C116.424 144.115 117.528 135.575 119.744 127.287C121.803 119.587 124.815 111.962 129.253 105.314C133.414 99.0806 138.644 93.7398 144.65 89.2805C156.517 80.4693 171.693 75.7809 186.453 77.3356C188.682 77.5716 190.891 77.9499 193.075 78.4565C192.38 78.2518 191.676 78.0606 190.967 77.8943C190.739 77.8392 190.84 77.5306 191.064 77.5511C251.115 83.0207 265.24 187.716 266.524 208.826C266.625 210.468 266.704 212.105 266.763 213.747C267.213 217.408 267.549 221.08 267.708 224.762C267.888 229.009 267.801 233.285 267.411 237.519C267.009 241.86 266.552 246.309 264.745 250.3C263.637 252.757 211.99 249.391 211.457 246.489C210.377 240.632 209.823 234.587 210.162 228.628C210.321 225.772 210.615 222.936 211.225 220.139C211.391 219.376 211.567 217.943 212.014 216.808C207.303 207.834 202.121 199.116 196.786 190.499C185.684 172.558 173.881 154.949 164.808 135.841C160.259 126.267 155.776 116.099 153.63 105.608L153.284 105.678C153.325 105.803 153.298 105.959 153.173 106.046C143.311 112.879 136.719 123.234 132.448 134.322C127.474 147.231 125.061 161.172 125.407 175.004C125.957 196.985 134.269 224.151 157.784 231.099C163.149 232.684 168.944 233.132 174.441 231.973C177.034 231.425 179.575 230.581 181.915 229.332C184.511 227.948 186.644 225.987 189.077 224.373C191.303 222.899 193.93 225.775 192.65 227.958C189.821 232.782 183.736 235.731 178.509 237.182C172.932 238.733 167.05 238.806 161.37 237.821C160.937 237.748 160.508 237.664 160.082 237.574C159.985 239.004 159.373 240.427 158.376 241.583C157.929 242.103 157.379 242.554 156.763 242.932C156.683 244.328 155.786 245.729 154.329 246.035C146.544 247.659 114.212 243.401 106.437 241.079C104.35 240.455 103.294 238.404 103.737 236.314" fill="#111111"/>
<path fill-rule="evenodd" clip-rule="evenodd" d="M148.286 198.272C147.096 196.171 143.545 196.513 143.002 198.963C141.9 203.931 147.822 208.518 152.319 208.632C156.788 208.746 161.802 204.941 161.155 200.134C160.995 198.945 159.408 199.09 158.867 199.835L158.657 200.121C157.187 202.096 155.247 204.141 152.52 203.659C151.389 203.46 150.362 202.754 149.679 201.844C148.855 200.746 148.945 199.436 148.286 198.272ZM176.704 161.931C176.098 161.764 175.487 161.829 174.95 162.057C173.752 162.277 172.751 163.276 172.399 164.417C172.372 164.516 172.341 164.613 172.306 164.71L172.253 164.854L172.397 164.488C172.33 164.848 172.037 165.227 171.932 165.589C171.802 166.033 171.77 166.538 171.814 167.027C171.433 167.031 171.052 167.044 170.672 167.077L170.305 167.11C168.25 167.301 165.994 167.651 164.776 169.428C164.092 170.426 164.734 172.223 165.991 172.415C167.926 172.711 169.592 171.64 171.52 171.425C173.343 171.222 175.25 171.339 177.049 171.668C180.763 172.347 184.176 173.853 187.796 174.798L188.289 174.923V174.923L188.288 174.921C188.908 175.071 189.612 174.208 188.999 173.704C186.099 171.321 182.386 169.389 178.729 168.213C179.262 167.365 179.427 166.249 179.063 165.338C179.006 165.15 178.936 164.966 178.862 164.784L178.708 164.407V164.407C178.693 164.23 178.659 164.055 178.61 163.883L178.602 163.831V163.831L178.598 163.834V163.834C178.325 162.948 177.614 162.182 176.704 161.931ZM139.709 162.068C138.916 161.274 137.801 161.392 136.974 162.016L136.864 162.102V162.102C136.084 162.449 135.438 163.207 135.014 163.909C134.574 164.638 134.282 165.38 134.27 166.183C132.351 166.189 130.512 166.765 129.102 168.316C128.647 168.816 128.336 169.588 128.587 170.267L128.736 170.67V170.67C129.209 171.952 131.337 172.689 132.06 171.182L132.093 171.109C132.862 169.32 135.812 169.507 137.379 169.69C138.472 169.818 139.551 170.09 140.606 170.394C140.978 170.502 141.347 170.618 141.715 170.737L142.083 170.856C142.279 170.92 143.302 171.475 142.665 171.344C142.494 171.308 142.366 171.558 142.54 171.641C143.299 172.004 144.108 171.282 144.057 170.467C143.969 169.052 141.724 168.277 140.644 167.789L140.579 167.76C140.165 167.568 139.731 167.384 139.283 167.214C139.535 166.839 139.743 166.423 139.916 165.976C140.08 165.554 140.189 165.144 140.249 164.695C140.308 164.476 140.308 164.256 140.249 164.037L140.24 163.974V163.974C140.271 163.829 140.285 163.679 140.283 163.528L140.289 163.469H140.283C140.262 162.941 140.052 162.411 139.709 162.068ZM152.38 177.131C149.334 178.073 144.307 180.638 145.895 184.598C148.112 188.235 153.991 185.562 156.84 184.387C159.4 183.539 160.733 187.128 158.258 188.209C137.805 196.304 137.88 174.941 151.639 175.255C153.154 175.289 153.201 176.818 152.38 177.131ZM179.44 149.276L178.92 149.124C176.22 148.341 173.463 146.99 171.065 149.098C170.124 149.926 169.93 151.647 170.603 152.68C172.138 155.033 174.414 154.674 176.893 154.874C178.78 155.027 180.639 155.581 182.4 156.274C183.84 156.841 185.175 157.639 186.436 158.529C187.674 159.404 188.52 160.771 189.791 161.559C190.256 161.847 190.794 161.55 190.961 161.082C191.554 159.422 190.552 157.353 189.705 155.938C188.671 154.212 187.1 152.8 185.411 151.732C183.562 150.562 181.517 149.887 179.44 149.276V149.276ZM140.089 147.489C135.524 147.487 131.132 150.027 128.579 153.751C127.711 155.016 128.347 156.89 129.592 157.618C130.989 158.436 132.483 157.847 133.404 156.675L133.458 156.604C134.923 154.654 136.81 153.117 139.047 152.117C140.139 151.629 141.346 151.233 142.527 151.032L142.909 150.967C143.444 150.877 144.064 150.791 144.548 150.875C144.807 150.909 145.045 150.995 145.264 151.125C145.159 151.356 145.431 151.633 145.683 151.495C146.817 150.872 146.678 149.76 145.741 148.896C144.415 147.673 141.801 147.489 140.089 147.489Z" fill="#111111"/>
</svg>
