<svg width="406" height="532" viewBox="0 0 406 532" fill="none" xmlns="http://www.w3.org/2000/svg">
<path fill-rule="evenodd" clip-rule="evenodd" d="M197.01 402.21L193.195 404.639L161.974 414.703L142.895 417.132L127.284 414.703V441.424L124.162 466.411C125.55 468.956 138.732 468.956 163.708 466.411C179.63 464.788 237.821 464.001 251.069 463.655L251.82 463.634C267.389 463.185 282.768 463.185 297.957 463.634V454.265L254.595 432.749L215.743 410.886L197.01 402.21ZM219.132 223.118L216.265 225.26L222.525 235.549L192.029 260.227V279.938L182.374 289.073L176.855 279.938L169.079 269.592L163.552 252.822L165.434 241.774L161.65 241.417C161.632 242.173 161.635 242.934 161.659 243.702C160.97 243.219 151.208 245.936 153.65 250.1C152.542 251.064 151.867 252.556 151.733 254.004C143.65 253.597 127.877 263.291 120.994 268.071C116.96 271.278 114.777 275.902 113.155 280.679L112.773 281.845L112.379 283.041L111.981 284.236C109.786 290.807 107.416 297.319 104.205 303.483C104.136 303.49 104.066 303.501 103.997 303.511C101.869 301.642 99.2366 303.439 96.8875 303.644C96.2071 302.997 95.0967 302.832 94.4992 303.714L94.4574 303.778L123.725 309.546L143.034 377.302L159.849 363.648L168.874 364.991L192.709 373.591L220.431 380.794L283.715 398.248H291.774L338.669 386.919L342.896 385.524C341.5 368.776 336.144 352.389 329.552 336.992C327.685 331.591 327.556 325.545 325.787 320.02C312.703 261.209 285.823 263.705 238.551 242.785C243.839 237.875 230.938 223.771 229.763 225.26L229.689 225.253L229.529 225.245L229.322 225.237C227.478 225.184 221.12 225.224 220.434 225.302C220.037 224.529 219.602 223.801 219.132 223.118Z" fill="#111111"/>
<path fill-rule="evenodd" clip-rule="evenodd" d="M3.93921 296.504L4.811 301.364C5.01819 301.432 5.229 301.49 5.44253 301.537C5.71652 304.434 6.03877 307.335 6.40186 310.238L11.8068 340.374C12.7391 345.706 13.6241 351.048 14.5026 356.393L15.6667 362.134L16.3877 365.702C17.9441 373.43 19.456 381.132 20.7828 388.791C20.5826 389.079 20.4272 389.392 20.3141 389.72L20.4162 390.152L20.4872 390.44L20.5599 390.724C21.6067 394.75 23.4283 398.654 27.721 399.839C30.9591 400.732 34.5119 400.813 37.8555 401.165L38.2261 401.206L96.7332 407.788C103.803 408.583 110.869 409.402 117.934 410.23L124.059 410.949C132.597 411.938 141.183 412.716 149.594 414.506C149.903 414.572 150.159 414.695 150.368 414.858C148.674 408.444 147.053 402.038 145.584 395.559C143.93 388.267 142.36 380.96 140.591 373.694C137.027 359.057 133.031 344.515 128.658 330.098C127.74 327.072 126.801 324.052 125.841 321.04L125.168 318.934L124.65 317.256C123.848 314.697 122.855 312.067 120.504 310.655C117.752 309.003 113.999 308.729 110.877 308.158L108.763 307.761C105.601 307.171 102.435 306.603 99.2642 306.057C84.0854 303.446 68.8206 301.351 53.4996 299.777C37.5569 298.139 21.5587 297.075 5.54103 296.555L3.93921 296.504ZM149.156 396.985L149.007 396.998L151.192 414.474C151.541 414.23 151.985 414.08 152.527 414.081C159.695 414.102 166.567 411.81 173.213 409.291L174.226 408.905L177.047 407.82C179.916 406.72 182.8 405.645 185.737 404.753L186.925 404.395L187.528 404.217C189.752 403.567 192.092 402.977 194.405 402.83L194.721 402.812L194.047 402.459C193.949 402.407 193.862 402.349 193.785 402.287C192.512 402.381 191.236 402.355 189.893 402.113C187.367 401.658 184.91 400.779 182.655 399.555L181.648 399.009L181.235 398.79L180.963 398.649L180.692 398.512C178.755 397.546 176.902 396.941 174.456 397.455C171.68 398.04 169.247 399.537 166.744 400.802L166.299 401.023L166.001 401.168L165.696 401.311L165.388 401.452C162.003 402.975 156.617 404.62 155.319 400.016C154.797 398.166 155.206 396.434 156.11 394.916C154.425 394.77 151.413 396.758 149.156 396.985ZM64.9027 339.403L64.8619 339.613C64.3833 342.19 65.5835 344.656 67.3998 346.453C68.8897 347.928 71.5265 348.747 72.2734 350.868C72.6987 352.074 72.2463 353.218 71.3728 354.016L71.574 354.116L71.7707 354.216L71.9627 354.318L72.1499 354.42L72.3322 354.523C75.2996 356.229 77.7161 359.002 75.0399 362.352C72.0039 366.152 65.6602 366.275 61.1906 365.978L60.8896 365.957C56.5557 365.632 51.4219 364.176 49.0719 360.172C47.9941 358.336 48.1127 356.115 49.6152 354.543C50.5216 353.595 52.1385 352.621 53.6211 352.506C53.5562 351.67 53.6558 350.863 53.9496 350.182C54.5851 348.709 56.2762 347.718 57.9074 347.682C57.7753 344.556 60.2786 341.469 62.1218 338.97L62.31 338.713L62.4926 338.461C63.3383 337.284 65.1479 337.944 64.9027 339.403ZM62.4295 342.731L60.7502 349.024L60.779 349.076C61.3706 350.199 59.8199 351.475 58.9002 350.531L58.8076 350.431C57.716 349.303 56.0404 350.819 56.0196 352.019C55.9897 353.709 57.0893 355.016 58.3995 355.879L58.4912 355.938L58.7327 356.088C59.8079 356.799 58.9939 358.286 57.812 358.105C56.3495 357.881 55.1509 356.72 54.412 355.271C53.6225 355.498 52.7241 355.47 51.8925 355.936C49.7973 357.108 51.0023 359.159 52.3667 360.398L52.4221 360.448L52.5333 360.545C55.0365 362.68 58.4448 363.422 61.6574 363.581L61.8426 363.59C65.0878 363.729 69.3157 363.775 72.0971 361.866C73.8281 360.678 74.3294 358.992 72.8645 357.396C72.0361 356.494 71.1997 355.585 70.3387 354.705C69.05 355.32 67.899 355.071 66.5812 354.489C66.4122 354.414 66.5059 354.155 66.6713 354.155C67.3984 354.154 70.0664 352.804 70.1962 351.941C70.316 351.143 68.8402 350.47 68.1225 350.084L68.0184 350.027L67.9281 349.974C67.1775 349.519 66.4708 348.99 65.8249 348.395C64.1856 346.885 62.9949 344.992 62.4749 342.92L62.4295 342.731Z" fill="white"/>
<path fill-rule="evenodd" clip-rule="evenodd" d="M219.534 222.164C218.062 218.464 213.086 219.902 213.641 223.79C213.973 226.118 215.248 228.578 216.393 230.619C217.326 232.28 218.389 233.901 219.831 235.146C217.264 237.542 214.6 239.851 211.867 242.042C208.886 244.434 205.751 246.638 202.511 248.664C199.67 250.441 196.7 252.015 194.021 254.042C191.531 255.927 189.262 258.194 188.108 261.153C186.878 264.304 187.412 267.559 188.318 270.708L188.422 271.064C189.347 274.184 190.949 277.944 188.728 280.884C187.598 282.38 185.954 283.44 184.535 284.636C183.274 285.699 182.09 286.856 181.004 288.098C178.636 290.805 176.711 293.852 175.495 297.247L175.387 297.555C174.345 300.56 173.584 304.241 174.991 307.192C175.395 308.038 176.697 307.763 176.924 306.939C177.435 305.074 177.408 303.12 177.837 301.228C178.283 299.26 179.025 297.392 179.995 295.625C181.871 292.207 184.412 289.287 187.413 286.818L188.312 286.087C190.653 284.164 192.805 282.125 193.28 278.943C193.789 275.539 192.425 272.297 191.549 269.075C190.938 266.83 190.738 264.677 191.399 262.648C192.205 263.965 193.305 265.215 194.176 266.33C195.909 268.552 197.659 270.759 199.404 272.971C201.193 275.24 202.939 277.543 204.601 279.907C205.344 280.965 206.08 282.028 206.812 283.093C207.364 283.893 208.132 284.693 208.733 285.509C208.587 285.945 208.598 286.449 208.863 286.806C212.049 291.113 216.582 282.127 217.764 279.856C220.172 275.233 221.964 270.321 224.379 265.699C226.882 260.907 229.732 256.243 232.908 251.868C234.83 249.222 236.983 246.736 238.741 244.006C242.882 247.763 248.331 250.281 253.336 252.564C258.835 255.073 264.548 257.122 270.187 259.298L271.852 259.945C281.567 263.738 291.519 267.905 299.594 274.642C309.082 282.559 314.696 293.593 318.875 305.019C323.686 318.174 327.666 331.683 331.376 345.183C333.274 352.091 335.076 359.03 336.769 365.991C338.262 372.124 339.499 378.318 341.226 384.387C337.722 384.263 333.727 385.62 330.735 386.012C317.103 387.797 303.653 390.643 290.783 395.57C289.193 396.178 288.733 397.767 289.079 399.054C288.162 398.795 287.246 398.533 286.329 398.276C287.334 396.736 286.854 393.983 286.775 392.276L286.77 392.159C286.689 389.885 286.443 387.608 286.283 385.339C285.978 381.011 285.582 376.716 285.055 372.414L284.92 371.338C284.323 366.657 283.881 361.949 283.229 357.276L283.152 356.741C283.465 355.546 283.829 354.365 284.211 353.189C285.228 350.057 286.665 347.109 287.924 344.076C288.072 343.719 287.564 343.514 287.326 343.728C285.194 345.646 283.5 348.081 282.14 350.626C282.116 350.506 282.096 350.386 282.071 350.266L281.916 349.501C281.533 347.637 281.067 345.676 279.924 344.164C279.802 344.003 279.561 343.969 279.446 344.164C278.352 346.016 278.23 348.361 278.062 350.469C277.871 352.853 277.847 355.267 277.881 357.658C277.946 362.33 278.276 367.015 278.538 371.68C278.795 376.263 279.3 380.789 279.951 385.328L280.075 386.179C280.394 388.339 280.654 390.526 281.074 392.672L281.193 393.256C281.417 394.32 281.555 395.82 282.002 397.066C270.506 393.859 258.993 390.724 247.458 387.645C239.121 385.419 230.776 383.227 222.434 381.02C221.993 380.226 221.445 379.485 220.761 378.823C218.507 376.639 215.521 375.665 212.781 377.346C212.558 377.483 212.54 377.832 212.781 377.964C213.306 378.251 213.832 378.545 214.348 378.852L209.339 377.495C205.595 376.48 201.806 375.211 197.974 374.504C190.916 371.019 183.324 368.497 175.889 366.004L175.013 365.708C171.206 364.409 167.268 362.956 163.335 362.236C160.455 361.709 157.075 362.345 155.917 365.296C154.451 366.263 153.072 367.398 151.741 368.515C150.778 369.323 149.856 370.181 148.918 371.017L148.745 371.168C147.978 371.834 147.371 372.28 147.182 373.339C147.085 373.887 147.433 374.626 148.108 374.554C150.172 374.333 151.851 371.939 153.251 370.51C154.332 369.405 155.423 368.262 156.41 367.048C156.985 367.361 157.774 367.305 158.141 366.611C160.04 363.013 165.244 365.506 168.123 366.359L172.248 367.581C174.31 368.192 176.371 368.807 178.429 369.432C184.085 371.15 189.713 373.073 195.42 374.651C194.909 375.213 194.98 376.211 195.95 376.591C200.417 378.345 205.318 379.252 209.959 380.455C212.889 381.215 215.818 381.98 218.745 382.749C219.247 383.563 219.608 384.483 219.76 385.554C220.319 389.493 219.242 394.038 218.192 397.848L218.034 398.416C217.171 401.479 215.902 405.234 213.26 407.168C212.615 407.64 211.794 407.968 210.967 408.042C205.795 405.38 200.625 402.717 195.451 400.06C194.492 399.567 193.607 400.234 193.391 401.026C191.567 400.727 189.747 400.255 188.089 399.692C185.304 398.746 183.128 396.941 180.517 395.693C175.464 393.278 170.304 396.244 165.78 398.499L164.737 399.012C162.709 399.996 158.488 401.888 157.514 399.195C156.573 396.589 159.55 393.805 161.472 392.632C163.764 391.234 166.432 390.486 169.022 389.862C170.501 389.506 171.998 389.216 173.504 389.004C175.212 388.763 176.976 388.8 178.621 388.245C179.438 387.97 179.563 386.672 178.621 386.457C176.089 385.881 173.067 386.51 170.425 387.152L169.045 387.493C166.383 388.146 163.695 388.966 161.271 390.27C159.508 391.218 157.647 392.658 156.432 394.421C155.376 393.44 154.062 393.473 152.694 393.837L151.951 394.043C150.724 394.383 149.73 394.617 148.537 394.382C148.377 393.513 148.215 392.644 148.042 391.775C146.342 383.233 144.476 374.724 142.418 366.26C138.868 351.662 134.76 337.223 130.129 322.932L129.664 321.504C128.596 318.235 127.736 314.674 126.014 311.671C124.386 308.832 121.776 307.196 118.676 306.33C115.158 305.347 111.461 304.833 107.872 304.169C107.072 304.021 106.269 303.88 105.467 303.735C106.145 302.512 106.65 301.123 107.105 300.058L107.185 299.873C108.163 297.642 109.042 295.371 109.891 293.088L110.525 291.371C112.057 287.238 113.639 283.172 115.793 279.306C118.06 275.238 121.068 271.912 124.818 269.159C132.463 263.545 141.677 260.682 149.092 254.682C149.396 254.437 149.006 254.016 148.698 254.172C143.691 256.689 138.286 258.4 133.079 260.449L132.051 260.854C127.935 262.486 123.755 264.263 120.193 266.906C116.221 269.853 113.092 273.513 110.741 277.865C108.424 282.155 106.941 286.957 105.307 291.539L104.869 292.76C104.21 294.591 103.529 296.416 102.748 298.198C102.129 299.613 100.972 301.227 100.447 302.843C99.0089 302.594 97.5714 302.343 96.1321 302.103C64.9576 296.896 33.4348 293.837 1.84192 292.942C0.605933 292.907 -0.0333899 294.087 0.148731 295.165C3.1806 313.1 5.87494 331.096 8.83119 349.045C10.1216 356.878 11.4378 364.706 12.7848 372.53C13.4671 376.494 14.256 380.442 14.9022 384.412C15.424 387.618 15.8028 390.849 16.6985 393.98C17.5019 396.788 18.7347 399.496 20.7596 401.638C22.9422 403.947 25.9887 405.065 29.0552 405.593C36.8399 406.933 44.8248 407.481 52.6726 408.374L94.4552 413.129C93.8447 418.681 93.799 424.147 94.0792 429.763L94.2388 432.829C94.3694 435.296 94.5254 437.766 94.8795 440.206C95.3235 443.268 96.7236 445.861 98.7859 448.148C100.68 450.248 102.98 452.04 105.218 453.757C107.541 455.54 109.941 457.261 112.672 458.364L113.027 458.505C115.423 459.44 119.917 460.89 123.192 460.36C122.764 462.506 121.936 464.813 122.67 466.936C123.011 467.922 124.299 468.413 125.089 467.575C126.653 465.912 126.775 463.716 127.146 461.547C127.531 459.29 127.863 457.025 128.159 454.754C128.73 450.364 129.174 445.933 129.31 441.506C129.449 436.959 129.395 432.406 129.15 427.864C129.024 425.532 128.868 423.201 128.572 420.883C128.446 419.895 128.317 418.906 128.17 417.92C128.116 417.56 128.056 417.203 127.992 416.846L131.742 417.269C137.493 417.911 143.246 418.491 149.037 418.581C149.723 418.592 150.25 418.279 150.595 417.824C150.963 418.423 151.602 418.851 152.518 418.848C160.606 418.817 168.137 416.172 175.492 413.054C179.2 411.482 182.85 409.78 186.563 408.222C190.029 406.767 193.734 405.729 197.116 404.09L206.004 408.754C206.069 408.983 206.153 409.2 206.242 409.382C206.82 410.563 207.961 411.204 209.126 411.687C210.245 412.151 211.403 412.296 212.531 412.178C219.272 415.712 226.014 419.242 232.76 422.764L239.508 426.283C252.952 433.286 266.343 440.403 279.872 447.241L280.868 447.743C285.541 450.087 290.559 452.463 295.745 454.236C295.837 455.549 295.779 456.826 295.669 458.216L295.642 458.519C295.488 460.162 295.156 462.22 296.473 463.389C297.158 463.997 298.382 463.999 298.848 463.082C299.694 461.42 298.935 458.799 298.667 456.992C298.572 456.35 298.456 455.69 298.285 455.049C304.23 456.82 310.355 457.678 316.405 456.684C322.295 455.717 326.857 452.004 330.535 447.464C334.416 442.672 337.174 437.088 338.654 431.102C340.338 424.291 340.448 417.256 340.409 410.279C340.367 402.85 340.092 395.383 339.189 388.004C340.178 387.771 341.276 387.57 342.276 387.639C342.772 388.432 343.732 388.766 344.601 388.663C346.489 390.746 341.7 392.875 340.169 393.408C339.638 393.593 339.695 394.457 340.308 394.431L340.694 394.412C343.059 394.287 345.502 393.883 346.892 391.684C348.007 389.922 347.672 387.834 346.344 386.397C345.466 378.099 343.369 370.018 341.417 361.923C339.501 353.978 337.371 346.084 335.113 338.229L334.101 334.714C330.546 322.398 326.83 309.983 321.926 298.157C319.477 292.252 316.656 286.455 312.832 281.306C309.268 276.507 305.06 272.399 300.223 268.892C291.205 262.352 280.624 258.4 270.227 254.635L269.762 254.467C264.374 252.517 259 250.544 253.674 248.432C248.963 246.564 244.45 244.195 239.762 242.299C239.914 242.022 240.061 241.743 240.203 241.46L240.29 241.533C240.304 241.545 240.32 241.556 240.335 241.567C240.807 241.894 241.501 241.733 241.89 241.366C242.987 240.331 242.615 239.181 241.883 238.107L241.788 237.97C240.892 236.715 240.093 235.388 239.266 234.087L238.749 233.274C237.361 231.101 235.903 228.914 234.053 227.118C233.196 226.285 232.258 225.663 231.264 225.199C231.349 225.019 230.604 224.652 230.393 224.837C227.244 223.684 223.621 223.925 220.188 224.243M96.477 413.359L100.855 413.857C105.671 414.405 110.489 414.935 115.308 415.46L125.775 416.598C125.801 417.195 125.874 417.778 125.887 418.229C125.955 420.553 126.006 422.878 126.055 425.203C126.151 429.863 126.045 434.528 125.739 439.178C125.441 443.685 125.05 448.192 124.442 452.668L124.317 453.563L124.245 454.034C123.749 454.082 123.261 454.318 122.855 454.803C121.97 455.86 118.764 454.832 117.512 454.386C115.454 453.654 113.515 452.415 111.726 451.174C109.979 449.961 108.406 448.547 106.894 447.058L105.657 445.834C104.427 444.611 103.195 443.308 102.441 441.77C101.419 439.683 101.287 437.122 100.987 434.85C100.618 432.055 100.178 429.26 99.7138 426.479M223.564 384.02L224.018 384.139C240.513 388.524 256.984 393.038 273.53 397.229C281.718 399.304 289.945 401.227 298.143 403.262L299.471 403.594C305.938 405.229 312.483 407.197 317.436 411.89C317.619 412.063 317.884 411.798 317.712 411.614C312.374 405.93 304.783 403.523 297.494 401.437C296.147 401.052 294.798 400.675 293.45 400.292C303.363 396.757 313.432 393.681 323.734 391.487C326.387 390.922 329.07 390.508 331.721 389.941C333.569 389.545 335.375 388.973 337.204 388.498L338.642 388.136L338.662 392.685C338.685 399.128 338.674 405.565 338.345 412.007L338.283 413.2C337.9 420.369 337.302 427.687 334.759 434.446C332.692 439.939 329.398 445.113 325.091 449.114C322.911 451.139 320.568 452.714 317.671 453.492C314.982 454.215 312.164 454.299 309.399 454.107C296.138 453.181 284.333 445.974 272.813 440.007C253.971 430.248 235.127 420.493 216.265 410.771C216.775 410.422 217.255 410.02 217.692 409.569C220.221 406.956 221.555 403.379 222.431 399.914C223.364 396.227 223.922 392.274 223.987 388.467M199.565 414.539C199.398 414.449 199.205 414.561 199.198 414.749C199.139 416.19 199.936 417.612 200.53 418.91L200.593 419.049C201.316 420.657 202.107 422.243 202.925 423.805C204.561 426.925 206.261 430.012 208.035 433.055C211.602 439.177 215.567 445.041 220.253 450.372C221.311 451.576 223.052 450.032 222.372 448.735C219.098 442.485 215.28 436.584 211.351 430.734C209.383 427.805 207.417 424.873 205.431 421.958C204.602 420.741 203.763 419.529 202.901 418.335L202.38 417.621M3.93094 296.521C20.4838 297.021 37.0172 298.101 53.4913 299.794C68.8123 301.368 84.0772 303.463 99.2559 306.074C102.426 306.62 105.593 307.188 108.755 307.778L110.652 308.135C113.815 308.734 117.679 308.982 120.495 310.672C123.464 312.454 124.267 316.179 125.255 319.25C126.416 322.862 127.548 326.484 128.65 330.115C133.023 344.532 137.018 359.073 140.582 373.711C142.352 380.977 143.921 388.283 145.575 395.576C147.045 402.055 148.666 408.461 150.36 414.875C150.151 414.712 149.895 414.589 149.586 414.523C141.175 412.733 132.588 411.954 124.051 410.965L123.225 410.869C114.393 409.83 105.562 408.799 96.725 407.805L38.2178 401.223C34.7672 400.835 31.0707 400.782 27.7128 399.856C22.0036 398.28 20.6654 391.895 19.7076 386.81L19.6786 386.656C16.7907 371.292 14.4918 355.794 11.7985 340.391M148.998 397.014C151.27 396.865 154.379 394.783 156.102 394.933C155.197 396.451 154.789 398.183 155.311 400.033C156.762 405.18 163.324 402.517 166.485 400.945C169.076 399.655 171.579 398.076 174.448 397.472C177.699 396.789 179.901 398.082 182.647 399.572C184.902 400.796 187.359 401.675 189.885 402.13C191.228 402.372 192.504 402.398 193.777 402.304C193.854 402.366 193.94 402.424 194.039 402.476L194.712 402.829C191.666 402.969 188.564 403.909 185.729 404.77C182.791 405.662 179.908 406.737 177.039 407.837L174.217 408.922C167.257 411.588 160.051 414.12 152.518 414.098C151.977 414.097 151.533 414.247 151.184 414.491M161.707 380.886C159.463 380.612 157.392 380.906 155.599 382.368C153.436 384.13 151.983 387.053 148.874 387.244C147.968 387.3 147.757 388.575 148.658 388.842C150.973 389.527 152.846 388.275 154.423 386.649L155.483 385.541C157.041 383.927 158.478 382.679 161.122 382.775C163.953 382.879 166.789 383.533 169.602 383.866C172.789 384.243 175.975 384.564 179.171 384.842C179.32 384.854 179.345 384.621 179.206 384.586L175.626 383.695M163.873 371.709L163.503 371.672C160.245 371.355 157.264 371.343 154.354 373.097L153.796 373.434C151.172 375.03 148.316 376.909 146.675 379.492C146.407 379.915 146.851 380.413 147.3 380.305C150.453 379.548 152.759 377.233 155.411 375.501C158.387 373.557 161.462 373.877 164.855 374.179C168.141 374.472 171.425 374.874 174.679 375.422C177.736 375.936 180.803 376.748 183.891 377.007L183.89 377.001C184.243 377 184.444 376.47 184.085 376.29C180.951 374.725 177.321 373.984 173.912 373.269M64.8814 339.489C65.1964 337.982 63.3432 337.283 62.4843 338.478L62.3017 338.73C60.446 341.273 57.7624 344.465 57.899 347.699C56.2679 347.735 54.5768 348.726 53.9413 350.199C53.6475 350.88 53.5479 351.687 53.6128 352.523C52.1301 352.638 50.5133 353.612 49.6068 354.56C48.1044 356.132 47.9858 358.353 49.0636 360.189C51.4136 364.192 56.5474 365.649 60.8812 365.974L61.0357 365.985C65.512 366.294 71.9622 366.211 75.0316 362.369C77.9923 358.663 74.7201 355.662 71.3645 354.033C72.238 353.235 72.6904 352.091 72.2651 350.885C71.5182 348.764 68.8814 347.944 67.3915 346.47C65.5752 344.673 64.375 342.207 64.8536 339.629M62.4212 342.748C62.9149 344.894 64.1276 346.857 65.8166 348.412C66.4626 349.007 67.1692 349.536 67.9199 349.991L68.0101 350.044C68.6763 350.418 70.3139 351.119 70.1879 351.958C70.0581 352.821 67.3902 354.171 66.6631 354.172C66.4976 354.172 66.4039 354.43 66.5729 354.505C67.8907 355.088 69.0417 355.337 70.3305 354.722C71.1915 355.601 72.0278 356.511 72.8562 357.413C74.3211 359.009 73.8199 360.694 72.0889 361.883C69.3075 363.792 65.0795 363.746 61.8343 363.607C58.5679 363.467 55.0764 362.738 52.525 360.562L52.4139 360.465C51.0272 359.231 49.7607 357.141 51.8843 355.953C52.7158 355.487 53.6142 355.515 54.4038 355.288C55.1427 356.737 56.3412 357.898 57.8037 358.122C58.9857 358.302 59.7997 356.816 58.7245 356.105L58.4829 355.955C57.1328 355.093 55.9808 353.765 56.0113 352.036C56.0321 350.836 57.7077 349.32 58.7993 350.448L58.8492 350.502C59.7627 351.532 61.3715 350.234 60.7708 349.092L60.7419 349.041M275.457 283.065C275.461 282.807 275.098 282.711 274.972 282.934C272.852 286.666 271.743 291.24 270.614 295.351C269.431 299.658 268.476 304.008 267.618 308.391C265.88 317.265 264.954 326.088 264.892 335.132C264.883 336.423 266.986 336.767 267.192 335.444C268.557 326.646 269.866 317.839 271.242 309.044C271.934 304.621 272.74 300.214 273.511 295.803M254.467 289.565C254.623 289.05 253.874 288.878 253.683 289.349C249.428 299.798 247.987 311.639 250.719 322.663C251.137 324.349 253.605 323.618 253.29 321.953M199.582 280.281C199.603 279.895 199.103 279.835 198.915 280.1C196.899 282.942 196.062 286.748 192.525 288.216C190.759 288.949 188.772 288.822 187.211 290.06C186.168 290.889 185.368 292.196 186.151 293.451C186.404 293.856 187.111 294.059 187.454 293.619C187.954 292.977 188.218 292.209 188.898 291.728C189.857 291.049 191.149 291.007 192.248 290.688C193.67 290.276 194.923 289.555 195.949 288.483M165.899 232.882C165.691 232.776 165.491 232.843 165.359 233.023C165.169 233.279 165.192 233.529 165.425 233.704C165.114 234.339 164.747 235.929 164.695 236.16C164.483 237.099 164.257 238.032 164.021 238.964C163.544 240.844 163.126 242.738 162.649 244.619C162.144 246.612 161.541 248.584 160.87 250.528C160.827 250.654 160.78 250.782 160.73 250.913L160.653 251.11L160.635 251.08C160.498 250.864 160.215 251.015 160.248 251.242C160.279 251.45 160.321 251.656 160.357 251.864L160.286 252.05C159.848 253.231 159.547 254.475 160.352 255.517C160.653 255.907 160.985 256.137 161.397 256.206C162.059 258.389 162.89 260.531 163.779 262.588L164.039 263.189C165.347 266.191 166.742 269.153 168.824 271.709C171.098 274.499 174.225 276.404 176.206 279.462C177.127 280.884 177.768 282.379 178.288 283.985L178.484 284.595C178.854 285.731 179.28 286.832 180.345 287.498C180.685 287.711 181.194 287.643 181.468 287.353C183.653 285.042 181.366 280.725 180.049 278.487C178.218 275.375 175.568 273.384 172.914 271.036C170.054 268.505 168.23 265.12 166.465 261.784C165.384 259.741 164.341 257.653 163.242 255.601C164.39 254.586 164.757 252.57 165.146 251.169L165.182 251.044C165.825 248.8 166.335 246.497 166.658 244.185C166.968 241.962 167.098 239.771 167.016 237.535L166.992 236.965M161.631 243.463C161.885 243.116 161.465 242.722 161.117 242.794C159.002 243.232 156.933 244.513 155.035 245.549L154.832 245.659C153.316 246.476 151.791 247.478 150.996 249.066C150.13 250.792 150.201 252.781 150.319 254.657L150.331 254.832C150.475 257.082 150.499 259.42 150.974 261.629C151.218 262.76 152.242 263.078 153.117 262.811C154.158 266.101 157.084 268.524 159.221 271.12C161.945 274.429 161.432 278.897 161.148 282.883C161.032 284.497 163.039 284.955 164.072 284.094L166.454 282.116C166.85 281.785 167.246 281.454 167.641 281.122C167.98 280.837 168.315 280.55 168.648 280.26L169.144 279.821C169.364 279.624 170.336 278.538 170.62 278.493C171.308 278.384 172.943 280.198 173.503 280.767L173.574 280.838C174.627 281.871 175.578 282.983 176.465 284.161C176.628 284.378 176.947 284.198 176.83 283.948C176.036 282.246 175.112 280.619 174.016 279.096L173.794 278.793C173.065 277.809 172.086 276.073 170.798 275.782C169.226 275.428 167.656 277.005 166.512 277.881L166.439 277.936C165.895 278.344 165.357 278.76 164.82 279.178C164.876 276.211 164.501 273.213 162.97 270.655C161.89 268.852 160.272 267.516 158.888 265.966C157.346 264.24 156.541 262.119 155.146 260.322C154.967 260.091 154.719 259.966 154.451 259.927C154.397 258.482 154.184 257.023 154.02 255.593L153.972 255.166C153.806 253.613 153.413 251.716 154.174 250.261C154.891 248.888 156.539 247.918 157.759 246.986L158.755 246.213M230.287 227.042C230.924 227.411 231.519 227.869 232.059 228.442C233.759 230.246 234.975 232.492 236.158 234.652C236.795 235.815 237.409 236.991 238.051 238.152C238.33 238.656 238.617 239.156 238.908 239.655C239.042 239.884 239.441 240.341 239.639 240.622C239.419 240.93 239.192 241.234 238.96 241.534C238.872 241.648 232.773 248.294 230.647 250.895C227.392 254.88 224.482 259.088 221.994 263.592C219.558 268.004 217.704 272.674 215.447 277.17C214.318 279.422 213.057 281.657 211.449 283.605C211.387 283.681 211.321 283.753 211.258 283.828C210.644 282.169 209.072 280.394 208.299 279.374L208.227 279.278C206.476 276.916 204.626 274.625 202.736 272.373C201.01 270.317 199.24 268.305 197.427 266.327L196.745 265.586C195.482 264.221 193.878 262.179 192.029 261.204C192.227 260.851 192.456 260.501 192.72 260.156C194.452 257.891 196.901 256.248 199.317 254.765L200.885 253.811C206.791 250.21 212.606 246.442 217.735 241.763C220.448 239.288 223.123 236.694 225.404 233.807L226.21 232.786M220.431 225.26C223.197 225.492 226.184 225.437 228.74 226.338C226.468 228.487 224.308 230.808 222.089 232.993C221.891 231.515 221.488 230.055 221.146 228.614" fill="#111111"/>
<path fill-rule="evenodd" clip-rule="evenodd" d="M236.361 164.995C225.588 120.957 205.922 99.4711 177.362 100.537C134.523 102.137 134.974 145.91 137.662 141.919C139.418 139.311 151.712 130.202 174.543 114.591L175.954 113.627L236.361 164.995Z" fill="#79FFE1"/>
<path fill-rule="evenodd" clip-rule="evenodd" d="M164.865 225.774C174.433 231.129 185.389 231.337 195.681 227.968C201.853 225.952 207.513 222.835 212.809 219.108C217.417 215.863 221.529 212.264 225.603 208.443C228.958 201.027 231.945 193.625 233.344 185.557C234.597 178.314 234.763 170.794 233.309 163.565C222.557 154.699 211.871 145.759 201.199 136.792C195.764 132.225 190.315 127.683 184.801 123.212C182.001 120.943 179.227 118.639 176.438 116.359C175.977 115.984 175.52 115.609 175.06 115.234C169.3 119.461 163.124 123.084 157.405 127.38C154.411 129.633 151.5 132.031 148.727 134.553C147.273 135.876 145.854 137.24 144.469 138.638C143.202 139.915 141.98 141.747 140.184 142.23C139.938 142.296 139.706 142.31 139.488 142.278C137.086 163.364 135.379 186.133 145.671 205.282C150.16 213.635 156.526 221.103 164.865 225.774ZM227.109 233.524C228.426 232.314 226.463 230.355 225.151 231.56C216.91 239.128 206.137 243.139 195.255 244.996C193.499 245.296 194.248 247.97 195.991 247.673C207.353 245.734 218.519 241.412 227.109 233.524ZM236.997 245.135C238.57 244.288 237.17 241.893 235.6 242.737C229.18 246.189 222.138 247.983 214.995 249.194C213.238 249.492 213.988 252.166 215.731 251.871C223.116 250.619 230.363 248.701 236.997 245.135ZM210.867 128.175C205.54 123.383 199.814 118.822 193.766 114.974C187.646 111.08 180.962 108.752 173.738 108.696C174.243 109.102 174.724 109.553 175.212 109.973C176.576 111.143 177.937 112.319 179.297 113.492C182.018 115.842 184.746 118.187 187.432 120.575C192.721 125.281 198.028 129.962 203.307 134.678C213.453 143.743 223.381 153.005 233.094 162.535C233.042 162.302 232.987 162.07 232.932 161.837C229.716 148.372 220.968 137.264 210.867 128.175ZM169.106 109.283C169.071 109.179 169.047 109.078 169.033 108.981C155.169 110.792 143.59 121.019 139.762 134.484C140.094 134.949 140.277 135.501 140.208 136.087C140.174 136.382 140.139 136.681 140.104 136.976C140.579 136.504 141.067 136.063 141.482 135.643C142.863 134.241 144.279 132.877 145.733 131.548C148.706 128.831 151.794 126.291 155.048 123.92C160.708 119.798 166.835 116.008 173.582 114.03C173.139 113.666 172.695 113.301 172.249 112.94C170.916 111.854 169.68 110.959 169.106 109.283ZM144.251 94.8843C152.763 85.5595 164.55 78.7299 176.964 76.3562C188.817 74.0866 201.088 75.5824 212.286 79.9931C235.718 89.2242 254.207 109.522 262.865 133.044C267.912 146.748 269.566 161.771 268.05 176.277C266.541 190.717 262.203 205.629 254.311 217.914C253.587 219.039 252.795 220.118 251.964 221.162C252.334 225.403 253.747 229.56 255.969 233.177C256.088 233.37 256.214 233.56 256.339 233.751C258.615 235.459 260.975 237.063 263.28 238.718C265.277 240.152 267.253 241.623 269.131 243.211C270.904 244.71 272.962 246.38 274.163 248.404C275.146 250.062 275.548 252.316 274.205 253.897C272.588 255.802 269.847 255.13 267.655 255.13C267.468 255.13 267.281 255.134 267.093 255.136C266.435 255.551 265.757 255.926 265.101 256.275C258.465 259.801 251.805 263.288 245.137 266.759C231.858 273.675 218.635 280.869 205.083 287.237C198.803 290.19 192.081 292.772 185.047 292.762C178.449 292.751 172.485 290.124 167.334 286.13C161.463 281.58 156.554 275.802 151.791 270.139C149.887 267.872 148.021 265.579 146.19 263.254C142.673 262.077 139.183 261.734 136.047 264.003C133.531 265.825 130.214 263.347 130.156 260.613C130.135 259.642 130.176 258.683 130.28 257.739C130.91 251.909 133.756 246.634 136.961 241.742C138.712 239.066 140.557 236.438 142.413 233.836C142.849 233.222 143.279 232.607 143.694 231.982C136.241 220.982 130.329 208.784 126.694 196.037C122.875 182.624 121.577 168.715 122.429 154.817C123.738 133.516 129.567 110.973 144.251 94.8843Z" fill="#111111"/>
<path fill-rule="evenodd" clip-rule="evenodd" d="M170.096 210.623C172.428 209.671 174.508 208.084 176.03 206.056C176.558 205.351 176.696 204.607 176.585 203.926C176.46 203.16 176.007 202.466 175.39 202.001C174.77 201.534 173.995 201.304 173.246 201.421C172.595 201.523 171.948 201.879 171.435 202.619L171.328 202.767C170.423 203.991 169.245 204.995 167.902 205.642C166.608 206.266 165.16 206.557 163.662 206.388C160.81 206.066 158.843 204.522 156.753 202.426C156.494 202.162 156.235 201.889 155.975 201.611C155.81 201.36 155.582 201.198 155.328 201.114C155.047 201.02 154.729 201.025 154.437 201.127C154.156 201.225 153.904 201.411 153.736 201.658C153.576 201.894 153.485 202.185 153.514 202.519C153.705 204.691 154.841 206.63 156.453 208.152C158.244 209.842 160.618 211.012 162.853 211.422C165.315 211.874 167.824 211.55 170.096 210.623V210.623ZM161.691 177.114C159.072 178.707 155.08 182.421 157.898 186.37C161.215 189.852 165.991 185.86 168.345 184.054C170.527 182.655 172.979 186.254 170.954 187.888C153.948 200.483 147.047 177.53 160.366 175.241C161.833 174.989 162.378 176.621 161.691 177.114ZM192.166 162.462C191.877 158.868 186.405 158.052 185.861 161.608C185.374 164.794 185.948 167.72 187.382 170.589C188.753 173.329 192.197 172.05 192.458 169.555C192.807 166.211 192.346 164.698 192.166 162.462ZM150.517 160.871C149.754 159.871 148.653 159.189 147.333 159.575C143.21 160.78 144.425 166.635 145.873 169.485C146.66 171.033 149.203 171.426 150.352 170.063C152.226 167.841 153.123 163.402 150.741 161.213C150.677 161.1 150.605 160.986 150.517 160.871ZM187.44 146.736L186.789 146.622C184.774 146.273 182.269 145.938 180.844 147.559C180.088 148.418 179.828 150.015 180.844 150.837C182.631 152.285 184.607 151.724 186.749 151.846C188.514 151.948 190.21 152.24 191.91 152.726C195.64 153.792 198.679 155.739 201.865 157.877C202.283 158.157 202.709 157.623 202.51 157.231C200.671 153.628 197.107 150.668 193.538 148.864C191.633 147.901 189.548 147.102 187.44 146.736ZM154.275 145.122L153.777 145.224C148.352 146.358 141.304 148.624 138.736 153.954C138.638 154.708 138.741 154.869 138.825 154.975L138.853 155.01C138.923 155.1 138.978 155.224 139.304 155.327C139.395 155.305 139.487 155.283 139.579 155.258C140.757 154.95 141.688 154.524 142.59 154.083L143.568 153.601C144.703 153.045 145.847 152.508 147.06 152.112C149.649 151.268 152.311 150.673 155.015 150.355C155.601 150.286 156.165 150.088 156.611 149.749C157.033 149.427 157.356 148.982 157.503 148.389C157.694 147.623 157.639 147.042 157.228 146.351C156.919 145.831 156.476 145.471 155.969 145.265C155.451 145.054 154.861 145.004 154.275 145.122Z" fill="#111111"/>
</svg>
