<svg width="395" height="532" viewBox="0 0 395 532" fill="none" xmlns="http://www.w3.org/2000/svg">
<path fill-rule="evenodd" clip-rule="evenodd" d="M207.442 239.092C207.442 246.39 182.108 273.512 173.365 271.722C167.536 270.53 158.73 262.75 146.945 248.385V239.092L149.491 228.975C135.074 229.483 123.764 240.916 120.979 253.143C98.582 263.266 78.9284 325.68 75.859 357.23L75.771 358.177C74.3654 373.562 72.6944 388.911 71.3939 404.308C69.3063 420.802 70.5541 437.97 65.2462 453.706L65.2148 453.973C64.661 458.479 62.2027 469.752 68.7728 470.07C88.1955 469.266 107.64 469.421 127.064 470.097C195.987 471.879 265.622 482.784 334.178 471.408C336.65 471.404 340.332 466.61 337.999 466.031C336.718 465.823 335.588 442.591 333.263 433.27L332.822 431.797C330.849 425.17 329.048 418.559 327.845 411.731C324.187 390.579 324.678 368.855 320.311 347.812C313.574 319.467 299.011 300.654 282.351 277.464C283.058 276.799 299.011 255.34 272.313 239.299C259.22 232.572 252.944 239.392 254.963 233.089C256.229 227.887 252.343 223.8 248.038 221.589C241.858 217.917 211.005 219.151 207.528 218.672C205.913 218.326 204.293 217.606 202.666 216.723L202.948 217.663C205.944 227.709 207.442 234.851 207.442 239.092Z" fill="#79FFE1"/>
<path fill-rule="evenodd" clip-rule="evenodd" d="M172.678 279.511C172.646 279.197 172.223 279.197 172.19 279.511L171.706 284.185C171.118 289.894 170.551 295.591 170.14 301.327C169.627 308.479 169.285 315.629 169.119 322.797C168.544 347.761 168.429 372.739 168.381 397.71C165.005 397.476 161.629 397.25 158.251 397.032C155.96 396.884 153.668 396.742 151.376 396.603L145.531 396.248V396.248L143.125 396.1C141.5 396 139.652 395.59 138.516 397.031C138.06 397.608 137.832 398.357 138.256 399.042C139.235 400.621 140.738 400.566 142.438 400.635C144.042 400.7 145.646 400.763 147.25 400.825C150.688 400.958 154.125 401.084 157.563 401.181C161.172 401.282 164.778 401.364 168.385 401.426C168.422 411.968 168.858 422.496 169.329 433.026L169.543 437.765C170.119 450.579 170.74 463.405 171.622 476.202C171.694 477.25 173.176 477.248 173.247 476.202C174.24 461.79 174.895 447.348 175.545 432.916C176.016 422.453 176.29 411.987 176.42 401.519C176.897 401.522 177.374 401.529 177.85 401.531C191.389 401.59 204.924 401.649 218.462 401.522C218.439 401.548 218.417 401.575 218.402 401.611C217.423 403.924 217.329 406.877 217.353 409.36C217.381 412.207 217.764 415.021 218.42 417.79C220.769 427.711 226.827 436.597 233.728 443.943L233.953 444.182C235.581 445.903 237.448 447.631 238.448 449.823C239.468 452.061 239.823 454.678 240.327 457.082L240.385 457.359L242.355 466.46C242.981 469.351 243.158 473.567 245.446 475.653C247.58 477.599 250.407 476.582 251.411 474.077C252.196 472.121 251.415 469.973 250.95 468.019L247.311 452.715C246.713 450.219 246.059 447.707 244.769 445.465C243.447 443.169 241.509 441.504 239.531 439.801C235.786 436.575 232.349 432.883 229.441 428.885C226.535 424.889 224.051 420.484 222.309 415.851C221.437 413.532 220.723 411.123 220.23 408.695C219.761 406.39 219.765 404.003 219.264 401.723C219.23 401.566 219.097 401.458 218.944 401.41C218.981 401.308 218.925 401.171 218.783 401.162L207.711 400.45C197.869 399.815 188.027 399.163 178.194 398.419L176.457 398.294V398.294C176.592 384.327 176.477 370.358 176.225 356.387C175.994 343.575 175.989 330.759 175.608 317.949C175.419 311.591 175.01 305.248 174.556 298.903C174.091 292.414 173.347 285.98 172.678 279.511ZM276.64 353.798C276.758 353.087 275.864 352.646 275.451 353.297C270.736 360.731 268.463 368.806 267.505 377.506C266.659 385.184 266.908 392.973 267.33 400.671C267.779 408.882 268.304 417.09 268.834 425.296L269.649 437.881V437.881L271.694 469.429C271.84 471.686 272.352 473.738 274.295 474.787C274.54 474.992 274.797 475.177 275.096 475.336C276.145 475.898 277.537 475.614 278.143 474.537L277.9 474.697C277.688 474.83 277.926 474.644 278.614 474.138L279.198 473.383V473.383C279.622 472.745 279.893 472.118 280.002 471.359C280.171 470.181 279.952 468.889 279.875 467.705L278.535 447.018V447.018C277.492 430.935 276.275 414.857 275.357 398.766C274.93 391.267 274.631 383.76 274.833 376.248C275.035 368.777 275.416 361.179 276.64 353.798ZM235.854 215.313L235.593 215.269C226.228 213.713 216.045 214.004 207.487 218.52C207.416 218.557 207.449 218.675 207.528 218.672L210.283 218.562C219.003 218.22 227.697 218.018 236.272 220.067L237.149 220.279C240.237 221.033 243.462 221.955 245.942 223.995C248.313 225.945 249.494 228.954 250.629 231.724L250.78 232.089C251.932 234.824 253.39 237.419 255.914 239.129C259.183 241.344 263.115 241.073 266.864 241.374C273.465 241.904 278.862 246.69 281.547 252.546C283.173 256.092 283.866 260.068 284.003 263.945C284.074 265.92 284.084 267.971 283.821 269.932C283.737 270.559 282.962 272.844 282.567 272.789C281.689 272.667 280.886 273.125 280.613 273.827C278.444 271.731 276.213 269.695 273.909 267.733C268.169 262.842 261.985 258.41 255.473 254.601C250.503 251.693 245.261 248.813 239.832 246.635C240.263 246.626 240.687 246.711 241.097 246.925C241.277 247.019 241.456 246.793 241.314 246.644C239.604 244.844 237.556 244.588 235.491 245.068C235.05 244.928 234.61 244.792 234.167 244.664C233.947 244.599 233.837 244.903 234.017 245.02L234.524 245.345V245.345C232.271 246.099 230.06 247.583 228.309 248.754C223.28 252.116 218.853 256.227 214.366 260.26L213.55 260.992C209.6 264.52 205.549 267.948 201.062 270.779C198.712 272.26 196.245 273.631 193.657 274.65C191.437 275.525 187.823 276.076 186.783 278.423C185.859 279.546 186.245 280.979 187.327 281.735C189.153 283.744 192.804 282.446 194.979 281.609C197.601 280.6 200.142 279.387 202.564 277.964C207.268 275.202 211.605 271.768 215.645 268.114C219.864 264.298 223.844 260.244 227.948 256.309C229.726 254.603 231.463 252.858 233.244 251.155L234.138 250.308C235.047 249.455 236.342 248.126 237.726 247.322C240.335 248.878 242.983 250.37 245.568 251.967C249.176 254.196 252.678 256.585 256.126 259.053C262.763 263.804 269.053 269.126 274.893 274.829C285.602 285.29 294.726 297.234 302.697 309.882L303.302 310.846C307.831 318.086 312.115 325.558 315.152 333.558C318.493 342.36 320.118 351.616 321.001 360.96C321.878 370.237 322.173 379.561 323.152 388.829C324.157 398.335 326.135 407.63 328.386 416.908L328.923 419.108C330.959 427.418 333.061 435.727 334.108 444.233C334.667 448.776 335.003 453.382 334.927 457.962C334.851 462.569 334.127 467.073 333.543 471.632C333.32 473.378 335.037 474.835 336.575 475.067C338.342 475.332 339.861 474.204 340.411 472.561C342.123 467.44 342.435 461.779 342.381 456.404C342.327 450.947 341.631 445.525 340.651 440.162C338.724 429.613 335.751 419.283 333.264 408.86C331.072 399.673 329.601 390.471 328.808 381.059C327.984 371.295 327.491 361.499 325.99 351.805C324.507 342.235 321.718 333.094 317.512 324.368C313.683 316.423 308.909 308.945 303.904 301.697C297.826 292.895 291.15 284.519 283.688 276.888C284.359 276.859 285.047 276.642 285.679 276.248C287.613 275.041 288.513 272.681 288.79 270.526C289.438 265.485 289.281 260.222 287.985 255.293C285.895 247.342 280.469 240.277 272.604 237.411C270.58 236.673 268.429 236.404 266.283 236.35C264.248 236.3 262.024 236.565 260.06 235.92C256.934 234.892 255.594 231.208 254.42 228.416L254.366 228.288C252.861 224.73 251.054 221.68 247.794 219.458C244.316 217.088 239.958 216.009 235.854 215.313V215.313ZM146.876 229.385C144.062 228.408 140.544 229.294 137.792 230.147C134.726 231.098 131.893 232.849 129.464 234.929C126.902 237.122 124.784 239.831 123.288 242.856L123.145 243.148C121.778 245.954 120.222 249.807 120.911 252.89C120.93 252.977 120.953 253.062 120.979 253.143C115.395 255.893 110.239 259.337 105.749 263.702C100.52 268.784 96.0934 274.567 92.3469 280.815C77.4672 305.631 74.8483 335.434 73.0909 363.734L72.6526 370.909C71.6985 386.404 70.5816 401.862 67.6808 417.142L67.4692 418.246C64.3684 434.245 59.9297 450.366 60.3794 466.778C60.5143 471.696 67.779 471.663 67.9896 466.778C68.7826 448.395 73.0709 430.646 75.9748 412.55C81.0842 380.713 78.5241 347.891 85.7639 316.372C88.6049 304.003 93.006 292.006 99.2907 280.965C102.395 275.51 105.947 270.24 110.108 265.535C113.687 261.486 117.408 257.589 121.591 254.186C122.928 255.525 125.599 254.843 126.297 252.89C126.776 251.548 126.636 249.979 126.944 248.573C127.229 247.269 127.623 245.975 128.148 244.747C129.193 242.298 130.728 239.947 132.499 237.966C134.413 235.824 136.613 234.044 139.074 232.575C141.552 231.096 144.263 230.654 146.876 229.573C146.964 229.536 146.973 229.418 146.876 229.385ZM135.943 399.533C135.939 399.404 135.787 399.343 135.693 399.429C134.707 400.337 134.11 401.641 133.384 402.758C132.547 404.046 131.668 405.308 130.745 406.537C128.898 408.999 126.841 411.32 124.768 413.594C122.84 415.709 120.785 417.735 118.653 419.644C116.344 421.714 113.756 423.559 111.657 425.851C107.279 430.631 106.571 437.193 105.647 443.354L105.546 444.02C104.983 447.676 104.478 451.342 104.023 455.014C103.802 456.8 103.581 458.587 103.401 460.377L103.346 460.945C103.185 462.697 103.141 464.476 104.148 466.007C105.225 467.645 107.673 468.22 109.129 466.649C111.631 463.95 111.162 459.156 111.487 455.684C111.756 452.813 112.061 449.945 112.402 447.082L112.576 445.651C112.978 442.394 113.305 439.071 114.05 435.871C114.707 433.052 115.958 430.925 118.011 428.883C120.079 426.826 122.228 424.906 124.137 422.691C126.162 420.341 127.988 417.822 129.634 415.193C131.042 412.944 132.17 410.497 133.204 408.053L133.375 407.646C134.374 405.262 136.021 402.159 135.943 399.533ZM99.8272 297.143C99.8053 296.81 99.3141 296.805 99.3069 297.143C99.2448 300.002 99.1851 302.862 99.1258 305.722C98.6484 328.765 98.9426 351.864 96.6316 374.828C95.5416 385.656 93.5345 396.324 91.212 406.948C90.0236 412.384 88.7768 417.808 87.5922 423.245C86.4377 428.544 85.1996 433.868 84.2838 439.216C83.3839 444.473 82.578 449.769 82.2162 455.093L82.1716 455.788C82.0158 458.367 81.2724 462.16 82.6919 464.446C84.2301 466.922 87.1749 466.966 88.823 464.602C90.3705 462.383 89.9858 458.435 90.2591 455.788C90.537 453.09 90.8308 450.391 91.1645 447.7C91.8156 442.45 92.6735 437.212 93.5657 431.998C95.4241 421.14 98.1194 410.419 100.109 399.579C102.148 388.471 103.597 377.283 103.658 365.973C103.719 354.567 102.512 343.184 101.903 331.803C101.284 320.244 100.581 308.693 99.8272 297.143ZM208.642 225.469C208.023 223.386 205.841 222.083 203.711 222.668C201.76 223.205 200.149 225.574 200.912 227.601C201.744 229.813 203.199 231.699 204.426 233.71C205.559 235.567 207.211 237.03 208.366 238.855L207.094 240.226C206.457 240.911 205.819 241.591 205.174 242.259L202.956 244.558C201.228 246.344 199.49 248.121 197.702 249.846C192.446 254.917 187.107 259.823 181.22 264.166C179.88 265.155 178.53 266.137 177.141 267.058L176.624 267.401C175.671 268.025 174.609 268.638 173.458 268.532C170.662 268.275 168.136 265.305 166.215 263.456L166.114 263.36C161.353 258.828 156.944 253.873 153.09 248.546C152.234 247.362 151.406 246.158 150.599 244.94C152.462 242.762 152.017 238.512 152.12 235.871C152.192 234.014 152.198 232.156 152.208 230.298L152.213 229.923C152.236 228.72 152.29 227.567 151.51 226.577C151.464 226.52 151.37 226.522 151.312 226.552C150.244 227.112 149.914 228.05 149.458 229.102L149.411 229.211C148.856 230.474 148.324 231.749 147.786 233.019C147.223 234.349 146.707 235.698 146.184 237.044C145.941 237.67 145.708 238.298 145.481 238.93C145.343 239.334 145.199 239.735 145.052 240.136L145.017 240.167C144.823 240.332 144.658 240.506 144.517 240.686C143.92 240.984 143.446 241.528 143.224 242.327C142.74 244.066 143.742 245.484 144.635 246.864C148.263 252.472 152.4 257.816 156.998 262.664C159.282 265.072 161.684 267.372 164.185 269.554L164.622 269.933C166.869 271.865 169.308 273.694 172.309 274.146C175.82 274.675 178.678 272.928 181.366 270.915L181.634 270.713C184.183 268.783 186.68 266.786 189.099 264.696C194.031 260.436 198.724 255.862 202.888 250.844C206.939 245.962 210.944 240.504 213.441 234.631C213.593 234.273 213.193 233.898 212.879 234.197C211.659 235.359 210.486 236.583 209.326 237.824C209.294 235.998 209.631 234.157 209.443 232.319C209.215 230.086 209.281 227.619 208.642 225.469Z" fill="black"/>
<path fill-rule="evenodd" clip-rule="evenodd" d="M127.663 137.186C127.794 136.433 126.758 135.871 126.358 136.634C123.448 142.18 122.283 148.603 121.252 154.729C120.211 160.919 119.523 167.135 119.485 173.419C119.456 178.253 119.894 183.143 120.716 187.98L120.616 188.324V188.324C120.432 188.957 120.245 189.589 120.057 190.22L119.773 191.167C119.224 192.984 118.704 194.811 118.14 196.624C116.963 200.408 115.723 204.203 114.205 207.866C112.723 211.439 110.922 214.886 108.78 218.107C106.716 221.212 103.44 223.838 101.986 227.286C101.479 228.488 102.228 230.077 103.628 229.885C103.719 229.995 103.858 230.075 104.046 230.092C105.133 230.187 106.152 230.096 107.237 229.994C107.842 229.937 107.841 229.107 107.237 229.05C106.776 229.007 106.327 228.969 105.879 228.943C108.981 227.1 111.193 223.503 112.963 220.558C115.236 216.773 116.954 212.639 118.353 208.458C119.791 204.165 120.809 199.783 121.627 195.333C121.721 194.821 121.81 194.308 121.896 193.795C122.93 198.2 124.261 202.524 125.838 206.68L126.059 207.259C129.696 216.71 134.621 226.251 142.813 232.498C143.185 232.781 143.565 233.05 143.947 233.313L143.481 233.581C143.018 233.847 142.561 234.101 142.114 234.31C140.458 235.085 138.662 235.675 136.884 236.093C133.213 236.958 129.357 236.71 125.611 236.83C124.383 236.87 123.684 238.716 124.94 239.316C129.077 241.291 133.545 240.872 137.815 239.482C139.928 238.794 141.911 237.831 143.746 236.574C144.504 236.054 145.385 235.413 146.128 234.672C154.321 239.267 164.504 239.781 173.622 238.138C178.361 237.283 182.953 235.724 186.993 233.055C190.879 230.489 193.649 227.24 195.627 223.031C195.802 222.658 195.314 222.193 195.015 222.558C188.803 230.122 178.113 233.278 168.708 233.878C163.69 234.199 158.557 233.932 153.732 232.427C149.156 230.999 145.229 228.381 141.95 224.899C135.304 217.841 131.322 208.24 128.462 199.103C125.35 189.163 123.869 178.705 123.563 168.302C123.408 163.032 123.603 157.717 124.429 152.505C125.248 147.336 126.768 142.333 127.663 137.186ZM220.799 92.4084C220.359 92.1842 220.049 92.7676 220.422 93.0546C228.168 99.01 235.105 106.561 240.72 114.554C251.075 129.295 257.716 146.353 260.774 164.078C262.579 174.545 263.051 185.171 262.87 195.778C262.799 199.992 262.559 204.193 262.292 208.395L261.99 213.052C261.85 215.223 261.734 217.374 261.824 219.555L261.849 220.059C261.992 222.596 261.743 225.154 262.378 227.629C262.704 228.899 264.489 229.099 265.136 227.991C265.263 227.774 265.381 227.55 265.496 227.324C267.012 229.802 268.974 232.017 271.152 233.996C270.111 233.774 269.06 233.632 267.981 233.761C266.271 233.967 264.737 234.629 263.651 235.79C262.573 235.303 261.465 234.967 260.191 234.96C259.253 234.956 258.549 236.068 259.084 236.894C260.153 238.543 261.643 239.468 263.337 240.381C264.537 241.029 265.97 240.475 266.413 239.195L266.439 239.117C266.937 237.497 269.59 237.759 270.842 238.009L271.211 238.085C273.541 238.571 275.816 239.193 278.19 238.551C279.721 238.137 280.121 235.827 278.645 235.06C273.982 232.637 270.068 229.384 266.045 226.117C266.933 223.934 267.437 221.494 268.019 219.274C268.838 216.15 269.077 212.788 269.372 209.578C269.934 203.475 270.149 197.306 270.088 191.18C269.884 170.487 266.354 149.73 257.337 130.992C253.387 122.784 248.197 115.188 242.062 108.465C235.964 101.782 228.842 96.5041 220.799 92.4084ZM228.018 193.747C228.257 193.414 227.79 192.974 227.463 193.19C220.373 197.859 215.453 204.948 212.278 212.735C209.136 220.445 207.206 229.889 210.305 237.929C210.799 239.21 213.161 239.685 213.403 237.929C214.484 230.088 214.651 222.235 217.027 214.611C219.383 207.054 223.413 200.134 228.018 193.747ZM233.515 219.204C233.476 219.065 233.251 219.089 233.26 219.238C233.438 222.004 233.558 224.802 233.905 227.552C234.074 228.889 234.297 230.216 234.486 231.55C234.681 232.917 234.652 234.298 235.445 235.465C236.496 237.013 239.288 236.578 239.194 234.447C239.129 232.978 238.456 232.035 237.825 230.745C237.42 229.918 237.067 229.063 236.727 228.204L236.221 226.916C235.217 224.361 234.256 221.85 233.515 219.204ZM246.211 211.879C246.168 211.661 245.818 211.714 245.828 211.93C246.017 215.844 246.458 219.714 247.147 223.571C247.462 225.328 247.828 227.076 248.216 228.82L248.384 229.566C248.798 231.402 249.066 233.56 249.995 235.2C250.923 236.839 253.128 235.649 252.842 233.997C252.508 232.068 251.328 230.128 250.641 228.275C250.008 226.565 249.454 224.825 248.936 223.076C247.847 219.395 246.954 215.645 246.211 211.879ZM222.569 222.744L222.486 222.659C222.164 222.308 221.683 222.542 221.529 222.913C220.898 224.434 221.214 226.226 221.259 227.84L221.267 228.192C221.3 229.827 221.277 231.359 222.017 232.868C222.915 234.701 225.281 233.563 225.464 231.932C225.664 230.153 224.824 228.411 224.282 226.745C223.938 225.686 223.687 224.584 223.163 223.623C223.611 223.7 224.058 223.855 224.468 223.967C224.651 224.017 224.721 223.747 224.545 223.685C223.868 223.444 223.104 223.264 222.569 222.744V222.744ZM128.184 228.14C128.401 227.897 128.131 227.574 127.85 227.705C124.478 229.284 121.325 230.311 117.605 230.647C115.993 230.793 115.983 233.332 117.605 233.184C121.487 232.834 125.556 231.089 128.184 228.14ZM246.806 174.803C243.838 168.109 234.447 162.171 228.15 168.396C228.032 168.512 228.152 168.766 228.323 168.695C232.24 167.068 237.035 169.137 239.746 172.098C241.897 174.446 243.189 177.461 243.446 180.638C243.702 183.819 242.944 187.139 240.837 189.599C239.731 190.889 238.239 192.111 236.482 192.266C234.709 192.423 233.231 191.171 231.554 190.83C230.29 190.574 229.336 191.369 229.212 192.618C228.939 195.375 231.677 197.225 234.05 197.674C236.602 198.157 239.207 197.63 241.407 196.243C248.511 191.764 250.043 182.104 246.806 174.803ZM180.154 109.192C178.863 107.956 176.667 109.185 177.144 110.95C178.156 114.704 180.309 117.878 182.694 120.89C184.989 123.788 187.448 126.573 190.083 129.165C192.7 131.74 195.544 134.123 198.533 136.251L199.434 136.891C201.552 138.388 203.796 139.902 206.167 140.98C206.74 145.925 207.86 150.804 209.555 155.476C211.187 159.974 213.264 164.321 215.781 168.39L216.142 168.972C218.455 172.688 221.235 176.84 225.16 178.877C225.277 178.938 225.395 178.976 225.512 178.998C224.634 179.584 223.892 180.323 223.451 181.383C222.968 182.544 223.978 183.64 224.946 184.023C226.994 184.834 228.991 183.461 230.832 181.997C230.909 182.173 230.983 182.35 231.046 182.529C231.457 183.698 231.579 184.893 232.64 185.669C233.144 186.038 233.766 185.708 234.083 185.29C235.124 183.92 234.046 182.052 233.131 180.932C233.005 180.777 232.874 180.63 232.739 180.489C233.126 180.204 233.503 179.951 233.869 179.757C236.018 178.616 239.204 178.414 240.442 180.94C240.537 181.134 240.835 181.034 240.835 180.833C240.832 177.73 237.661 176.045 234.91 175.816C232.9 175.649 230.955 176.356 229.146 177.178L228.808 177.334C228.135 177.647 227.441 177.943 226.777 178.274C226.885 177.988 226.884 177.652 226.714 177.319C224.633 173.245 221.06 169.932 218.483 166.16C215.927 162.416 213.733 158.411 211.982 154.228C210.283 150.168 208.951 145.981 208.02 141.71C208.326 141.773 208.672 141.499 208.65 141.178C208.598 140.402 208.219 139.702 207.554 139.404C206.821 135.387 206.446 131.302 206.468 127.183C206.47 126.864 206.008 126.875 205.981 127.183C205.657 130.845 205.631 134.542 205.904 138.218C204.172 136.621 202.346 135.103 200.679 133.463C198.17 130.996 195.743 128.464 193.402 125.837C191.014 123.157 188.756 120.379 186.691 117.439L185.611 115.898C183.95 113.534 182.244 111.196 180.154 109.192ZM183.411 82.809C169.164 81.9175 153.949 83.6728 141.152 90.3771C134.124 94.0588 128.691 99.6234 124.81 106.548C122.492 110.684 120.734 115.263 120.068 119.971C119.384 124.808 120.187 129.121 123.268 132.966C124.492 134.493 126.553 132.788 126.251 131.225C124.407 121.667 127.399 112.222 132.704 104.309C140.403 92.8258 153.849 87.7247 166.94 85.4492C173.371 84.3318 179.895 83.8647 186.42 84.092C191.395 84.2655 196.498 84.7302 201.219 86.4081C201.418 86.4789 201.497 86.168 201.305 86.0947C195.674 83.9386 189.388 83.1831 183.411 82.809ZM162.282 104.423C161.548 103.957 160.651 104.435 160.399 105.192C159.51 107.857 161.373 111.379 162.619 113.687C164.03 116.297 165.843 118.738 167.716 121.031C171.463 125.617 176.387 129.443 181.79 131.848C182.121 131.996 182.507 131.595 182.203 131.312C178.022 127.409 174.231 123.224 170.95 118.53C169.337 116.223 167.993 113.79 166.708 111.29C165.559 109.053 164.478 105.819 162.282 104.423ZM138.321 107.564C137.852 105.923 135.183 106.202 135.293 107.975C135.579 112.553 137.733 117.149 140.075 121.029C142.485 125.024 145.538 128.585 149.037 131.66C149.21 131.811 149.446 131.578 149.29 131.407C146.27 128.093 143.832 124.319 142.026 120.212C140.222 116.11 139.541 111.83 138.321 107.564ZM151.589 106.822C151.079 105.396 148.635 105.502 148.785 107.203C149.197 111.88 151.935 116.782 154.471 120.645C157.162 124.744 160.597 128.355 164.436 131.388C164.58 131.501 164.783 131.313 164.643 131.181C161.194 127.924 158.398 124.161 156.184 119.965C155.055 117.824 154.107 115.594 153.358 113.291C152.666 111.16 152.341 108.923 151.589 106.822Z" fill="black"/>
<path fill-rule="evenodd" clip-rule="evenodd" d="M147.822 207.149C150.176 208.075 152.958 208.294 155.388 207.505C157.712 206.75 159.822 205.071 161.098 202.959C162.236 201.079 162.71 198.846 162.038 196.621C162.006 196.515 161.902 196.447 161.801 196.42C161.252 196.921 160.912 197.418 160.572 197.913C160 198.747 159.427 199.573 158.64 200.287C157.494 201.324 155.951 202.167 154.42 202.445C152.92 202.718 151.385 202.477 150.043 201.759C149.226 201.323 148.566 200.739 147.912 200.153C147.2 199.515 146.5 198.867 145.519 198.507C144.734 198.218 143.908 198.462 143.274 198.945C142.593 199.464 142.103 200.277 142.13 201.127C142.172 202.443 142.748 203.542 143.584 204.448C144.714 205.673 146.312 206.556 147.822 207.149ZM150.617 174.337C147.998 175.93 144.006 179.645 146.824 183.594C150.141 187.075 154.917 183.083 157.271 181.278C159.453 179.878 161.905 183.477 159.88 185.111C142.874 197.707 135.972 174.754 149.292 172.464C150.759 172.212 151.303 173.845 150.617 174.337ZM178.17 152.267C174.6 152.096 171.453 153.7 168.051 154.429C164.907 155.102 161.809 154.698 158.751 153.841C153.788 152.449 151.737 160.049 156.632 161.531C160.196 162.609 163.95 162.684 167.608 162.128C170.857 161.634 173.581 160.051 176.679 159.13C179.338 158.34 182.466 158.668 185.274 159.04L186.364 159.187C187.984 159.405 189.612 159.624 191.216 159.941C192.608 160.216 193.997 160.72 195.418 160.778C195.579 160.785 195.716 160.575 195.614 160.436C193.964 158.169 190.784 156.381 188.254 155.188L188.082 155.108C184.96 153.652 181.647 152.432 178.17 152.267ZM179.478 168.978L179.478 168.9C179.473 166.687 178.185 161.634 175.001 161.634C173.011 161.634 171.803 165.073 171.594 168.618L171.587 168.762C171.495 170.966 172.099 175.783 175.001 175.783C177.933 175.783 179.448 171.221 179.478 168.978V168.978ZM132.593 168.978L132.593 168.9C132.597 166.687 133.886 161.634 137.07 161.634C139.01 161.634 140.207 164.903 140.459 168.352L140.477 168.618C140.602 170.747 140.037 175.783 137.07 175.783C134.138 175.783 132.623 171.221 132.593 168.978V168.978ZM132.642 149.571L132.414 149.576C128.693 149.705 124.865 151.911 123.871 155.615C123.82 155.808 124.057 155.937 124.197 155.805C127.257 152.939 131.373 155.678 134.437 157.113L135.562 157.633C139.512 159.472 144.005 161.633 148.391 160.263C150.474 159.612 151.797 157.471 151.203 155.308C150.674 153.384 148.353 151.767 146.342 152.462L146.25 152.495C144.616 153.12 142.608 152.487 140.92 151.862L139.534 151.341C137.305 150.495 135.066 149.548 132.642 149.571V149.571Z" fill="black"/>
<path fill-rule="evenodd" clip-rule="evenodd" d="M119.571 179.228C123.783 183.581 130.814 184.83 136.417 182.496C150.805 176.482 143.763 157.725 132.667 152.688C131.28 152.342 129.429 151.522 127.741 151.336C127.588 151.261 127.256 151.478 126.853 151.273C114.618 152.639 111.831 171.64 119.571 179.228M165.978 180.342C170.702 186.61 179.484 188.543 186.659 185.63C200.834 180.045 195.807 163.412 186.108 156.892C165.622 149.191 157.162 168.785 165.978 180.342M196.706 166.454C196.72 166.448 196.733 166.445 196.746 166.439C196.671 166.406 196.596 166.373 196.522 166.339C196.546 166.403 196.573 166.466 196.596 166.529C196.633 166.504 196.665 166.474 196.706 166.454M109.819 159.679C110.976 159.682 112.647 159.872 113.604 160.675C115.965 152.709 124.68 145.337 132.259 150.713C138.227 152.633 142.656 156.891 145.173 162.553C149.711 159.852 156.848 161.005 160.783 164.577C163.361 156.057 169.704 153.073 177.254 152.633C185.495 151.283 193.709 159.289 196.272 165.712C198.403 165.469 201.587 164.791 203.592 166.106C216.603 162.693 239.35 160.811 241.995 162.708C243.881 163.431 244.915 167.882 242.282 168.122C239.988 167.796 242.55 164.861 240.237 164.541C227.914 163.776 215.952 166.259 203.759 167.301C202.671 168.766 199.153 169.256 197.277 168.667C200.232 179.563 193.853 186.975 184.294 189.195C169.493 192.597 156.616 179.351 160.486 165.574C156.003 163.343 150.845 163.438 145.961 164.614C154.123 194.663 105.746 193.315 113.302 161.704C108.273 164.206 107.181 160.184 109.819 159.679" fill="#111111"/>
</svg>
