<svg width="406" height="548" viewBox="0 0 406 548" fill="none" xmlns="http://www.w3.org/2000/svg">
<path fill-rule="evenodd" clip-rule="evenodd" d="M197.01 418.21L193.195 420.639L161.974 430.703L142.895 433.132L127.284 430.703V457.425L124.162 482.411C125.55 484.956 138.732 484.956 163.708 482.411C179.63 480.789 237.821 480.002 251.069 479.655L251.82 479.635C267.389 479.185 282.768 479.185 297.957 479.635V470.265L254.595 448.749L215.743 426.886L197.01 418.21ZM219.132 239.118L216.265 241.26L222.525 251.549L192.029 276.227V295.938L182.374 305.074L176.855 295.938L169.079 285.593L163.552 268.823L165.434 257.774L161.65 257.418C161.632 258.173 161.635 258.935 161.659 259.702C160.97 259.219 151.208 261.936 153.65 266.1C152.542 267.064 151.867 268.557 151.733 270.005C143.65 269.597 127.877 279.291 120.994 284.071C116.96 287.278 114.777 291.903 113.155 296.68L112.773 297.845L112.379 299.041L111.981 300.236C109.786 306.808 107.416 313.319 104.205 319.483C104.136 319.49 104.066 319.501 103.997 319.511C101.869 317.643 99.2366 319.439 96.8875 319.645C96.2071 318.997 95.0967 318.832 94.4992 319.714L94.4574 319.779L123.725 325.547L143.034 393.303L159.849 379.648L168.874 380.991L192.709 389.591L220.431 396.794L283.715 414.248H291.774L338.669 402.919L342.896 401.524C341.5 384.776 336.144 368.389 329.552 352.992C327.685 347.591 327.556 341.545 325.787 336.02C312.703 277.209 285.823 279.705 238.551 258.786C243.839 253.876 230.938 239.771 229.763 241.26L229.689 241.253L229.529 241.245L229.322 241.238C227.478 241.184 221.12 241.225 220.434 241.302C220.037 240.529 219.602 239.802 219.132 239.118Z" fill="#111111"/>
<path fill-rule="evenodd" clip-rule="evenodd" d="M3.93921 312.504L4.811 317.364C5.01819 317.432 5.229 317.49 5.44253 317.537C5.71652 320.434 6.03877 323.335 6.40186 326.238L11.8068 356.374C12.7391 361.705 13.6241 367.048 14.5026 372.393L15.6667 378.134L16.3877 381.702C17.9441 389.429 19.456 397.131 20.7828 404.79C20.5826 405.079 20.4272 405.392 20.3141 405.72L20.4162 406.152L20.4872 406.44L20.5599 406.724C21.6067 410.75 23.4283 414.654 27.721 415.838C30.9591 416.732 34.5119 416.813 37.8555 417.165L38.2261 417.205L96.7332 423.788C103.803 424.583 110.869 425.402 117.934 426.23L124.059 426.948C132.597 427.937 141.183 428.716 149.594 430.506C149.903 430.572 150.159 430.695 150.368 430.858C148.674 424.443 147.053 418.038 145.584 411.559C143.93 404.266 142.36 396.96 140.591 389.694C137.027 375.056 133.031 360.515 128.658 346.098C127.74 343.072 126.801 340.052 125.841 337.039L125.168 334.933L124.65 333.255C123.848 330.696 122.855 328.067 120.504 326.655C117.752 325.003 113.999 324.729 110.877 324.158L108.763 323.761C105.601 323.17 102.435 322.603 99.2642 322.057C84.0854 319.445 68.8206 317.35 53.4996 315.777C37.5569 314.139 21.5587 313.075 5.54103 312.554L3.93921 312.504ZM149.156 412.985L149.007 412.997L151.192 430.474C151.541 430.23 151.985 430.08 152.527 430.081C159.695 430.102 166.567 427.81 173.213 425.29L174.226 424.905L177.047 423.819C179.916 422.72 182.8 421.645 185.737 420.753L186.925 420.395L187.528 420.216C189.752 419.567 192.092 418.976 194.405 418.829L194.721 418.812L194.047 418.459C193.949 418.407 193.862 418.349 193.785 418.286C192.512 418.381 191.236 418.355 189.893 418.113C187.367 417.658 184.91 416.779 182.655 415.555L181.648 415.009L181.235 414.79L180.963 414.649L180.692 414.511C178.755 413.545 176.902 412.941 174.456 413.455C171.68 414.04 169.247 415.537 166.744 416.802L166.299 417.023L166.001 417.167L165.696 417.311L165.388 417.451C162.003 418.975 156.617 420.62 155.319 416.016C154.797 414.166 155.206 412.434 156.11 410.915C154.425 410.769 151.413 412.758 149.156 412.985ZM64.9027 355.403L64.8619 355.612C64.3833 358.19 65.5835 360.656 67.3998 362.453C68.8897 363.927 71.5265 364.747 72.2734 366.867C72.6987 368.074 72.2463 369.218 71.3728 370.016L71.574 370.115L71.7707 370.216L71.9627 370.318L72.1499 370.42L72.3322 370.523C75.2996 372.228 77.7161 375.002 75.0399 378.352C72.0039 382.152 65.6602 382.275 61.1906 381.978L60.8896 381.957C56.5557 381.632 51.4219 380.175 49.0719 376.172C47.9941 374.336 48.1127 372.115 49.6152 370.543C50.5216 369.595 52.1385 368.621 53.6211 368.506C53.5562 367.67 53.6558 366.863 53.9496 366.182C54.5851 364.709 56.2762 363.718 57.9074 363.682C57.7753 360.555 60.2786 357.469 62.1218 354.97L62.31 354.713L62.4926 354.461C63.3383 353.284 65.1479 353.943 64.9027 355.403ZM62.4295 358.731L60.7502 365.024L60.779 365.075C61.3706 366.199 59.8199 367.475 58.9002 366.531L58.8076 366.431C57.716 365.303 56.0404 366.819 56.0196 368.019C55.9897 369.709 57.0893 371.015 58.3995 371.879L58.4912 371.938L58.7327 372.088C59.8079 372.799 58.9939 374.285 57.812 374.104C56.3495 373.881 55.1509 372.72 54.412 371.271C53.6225 371.497 52.7241 371.47 51.8925 371.935C49.7973 373.108 51.0023 375.159 52.3667 376.398L52.4221 376.448L52.5333 376.545C55.0365 378.68 58.4448 379.422 61.6574 379.581L61.8426 379.59C65.0878 379.728 69.3157 379.775 72.0971 377.866C73.8281 376.677 74.3294 374.992 72.8645 373.396C72.0361 372.494 71.1997 371.584 70.3387 370.705C69.05 371.32 67.899 371.071 66.5812 370.488C66.4122 370.413 66.5059 370.155 66.6713 370.155C67.3984 370.154 70.0664 368.804 70.1962 367.941C70.316 367.143 68.8402 366.469 68.1225 366.084L68.0184 366.027L67.9281 365.974C67.1775 365.519 66.4708 364.99 65.8249 364.395C64.1856 362.885 62.9949 360.992 62.4749 358.919L62.4295 358.731Z" fill="white"/>
<path fill-rule="evenodd" clip-rule="evenodd" d="M219.534 238.164C218.062 234.464 213.086 235.902 213.641 239.79C213.973 242.118 215.248 244.578 216.393 246.619C217.325 248.28 218.389 249.901 219.831 251.146C217.264 253.542 214.599 255.851 211.867 258.043C208.886 260.434 205.751 262.638 202.511 264.664C199.669 266.441 196.7 268.015 194.021 270.043C191.531 271.927 189.262 274.194 188.108 277.153C186.878 280.305 187.412 283.559 188.318 286.708L188.422 287.064C189.347 290.184 190.949 293.945 188.728 296.884C187.597 298.38 185.954 299.44 184.535 300.636C183.273 301.7 182.089 302.856 181.004 304.098C178.636 306.806 176.71 309.852 175.495 313.247L175.386 313.555C174.345 316.56 173.584 320.242 174.991 323.192C175.395 324.038 176.697 323.763 176.923 322.939C177.435 321.074 177.408 319.12 177.837 317.228C178.283 315.26 179.025 313.393 179.995 311.625C181.871 308.207 184.411 305.287 187.413 302.818L188.311 302.087C190.653 300.165 192.805 298.125 193.28 294.944C193.788 291.54 192.425 288.297 191.548 285.075C190.938 282.83 190.738 280.678 191.398 278.648C192.205 279.965 193.305 281.215 194.176 282.33C195.909 284.552 197.659 286.76 199.404 288.972C201.193 291.24 202.938 293.544 204.6 295.907C205.344 296.965 206.079 298.028 206.812 299.093C207.363 299.893 208.132 300.693 208.733 301.509C208.587 301.946 208.598 302.449 208.863 302.806C212.049 307.113 216.582 298.127 217.764 295.857C220.172 291.233 221.963 286.321 224.379 281.699C226.882 276.907 229.732 272.243 232.908 267.868C234.83 265.222 236.983 262.737 238.741 260.007C242.882 263.763 248.331 266.281 253.336 268.564C258.835 271.073 264.548 273.122 270.186 275.298L271.852 275.945C281.567 279.738 291.519 283.905 299.593 290.642C309.082 298.559 314.696 309.593 318.875 321.02C323.685 334.174 327.665 347.683 331.375 361.184C333.274 368.091 335.075 375.03 336.769 381.991C338.261 388.124 339.498 394.318 341.226 400.388C337.722 400.264 333.726 401.621 330.735 402.012C317.102 403.798 303.653 406.643 290.782 411.57C289.192 412.179 288.732 413.767 289.079 415.055C288.162 414.796 287.246 414.533 286.329 414.276C287.333 412.736 286.854 409.983 286.775 408.277L286.77 408.159C286.689 405.885 286.442 403.609 286.282 401.339C285.978 397.012 285.581 392.716 285.054 388.414L284.92 387.338C284.322 382.657 283.881 377.949 283.229 373.276L283.152 372.742C283.465 371.546 283.828 370.365 284.21 369.189C285.228 366.057 286.665 363.109 287.924 360.076C288.072 359.719 287.563 359.514 287.326 359.728C285.194 361.647 283.5 364.081 282.14 366.627C282.116 366.507 282.095 366.386 282.071 366.266L281.915 365.502C281.533 363.637 281.067 361.676 279.924 360.164C279.802 360.003 279.561 359.969 279.446 360.164C278.352 362.016 278.23 364.362 278.061 366.469C277.871 368.853 277.847 371.267 277.881 373.658C277.946 378.33 278.275 383.016 278.538 387.68C278.795 392.264 279.3 396.789 279.951 401.328L280.075 402.179C280.393 404.339 280.654 406.526 281.074 408.672L281.192 409.256C281.417 410.32 281.555 411.82 282.002 413.066C270.506 409.859 258.993 406.724 247.458 403.645C239.121 401.419 230.775 399.227 222.433 397.02C221.993 396.227 221.445 395.485 220.761 394.823C218.507 392.639 215.52 391.665 212.781 393.346C212.558 393.483 212.54 393.832 212.781 393.964C213.306 394.251 213.832 394.546 214.348 394.852L209.339 393.495C205.595 392.48 201.806 391.212 197.974 390.504C190.916 387.02 183.324 384.497 175.889 382.005L175.013 381.708C171.206 380.41 167.268 378.956 163.334 378.236C160.455 377.709 157.075 378.345 155.917 381.296C154.451 382.263 153.071 383.399 151.74 384.516C150.778 385.323 149.856 386.181 148.918 387.017L148.745 387.169C147.978 387.834 147.37 388.28 147.182 389.339C147.085 389.887 147.433 390.627 148.107 390.554C150.172 390.333 151.85 387.939 153.25 386.51C154.332 385.405 155.422 384.262 156.41 383.048C156.985 383.362 157.774 383.305 158.14 382.611C160.04 379.013 165.244 381.506 168.123 382.36L172.247 383.581C174.31 384.192 176.371 384.807 178.429 385.432C184.085 387.15 189.713 389.073 195.42 390.651C194.909 391.213 194.98 392.212 195.95 392.592C200.417 394.345 205.318 395.252 209.959 396.455C212.889 397.215 215.818 397.98 218.745 398.75C219.247 399.563 219.608 400.483 219.76 401.555C220.319 405.494 219.241 410.038 218.192 413.848L218.034 414.417C217.171 417.48 215.902 421.234 213.26 423.169C212.615 423.64 211.794 423.968 210.966 424.043C205.795 421.38 200.624 418.717 195.45 416.06C194.492 415.567 193.606 416.234 193.391 417.027C191.567 416.727 189.747 416.255 188.089 415.692C185.303 414.746 183.128 412.941 180.517 411.693C175.464 409.278 170.304 412.244 165.78 414.499L164.737 415.012C162.708 415.997 158.488 417.888 157.514 415.195C156.573 412.59 159.549 409.805 161.472 408.632C163.763 407.234 166.432 406.486 169.022 405.863C170.501 405.507 171.997 405.216 173.503 405.004C175.211 404.764 176.976 404.8 178.62 404.246C179.438 403.971 179.563 402.672 178.62 402.458C176.089 401.881 173.067 402.51 170.425 403.152L169.044 403.493C166.383 404.146 163.695 404.966 161.271 406.27C159.508 407.218 157.647 408.658 156.431 410.421C155.376 409.44 154.062 409.473 152.694 409.837L151.951 410.044C150.724 410.384 149.73 410.618 148.536 410.382C148.377 409.513 148.215 408.645 148.042 407.776C146.341 399.234 144.476 390.724 142.418 382.261C138.868 367.662 134.76 353.223 130.129 338.933L129.664 337.504C128.596 334.235 127.736 330.674 126.014 327.671C124.386 324.832 121.776 323.196 118.676 322.33C115.158 321.347 111.461 320.833 107.872 320.169C107.071 320.021 106.269 319.881 105.467 319.735C106.144 318.512 106.65 317.124 107.105 316.058L107.185 315.874C108.163 313.643 109.042 311.371 109.89 309.088L110.525 307.372C112.057 303.238 113.639 299.173 115.793 295.307C118.06 291.238 121.068 287.912 124.817 285.159C132.462 279.545 141.677 276.682 149.092 270.683C149.396 270.437 149.006 270.017 148.698 270.172C143.691 272.689 138.286 274.4 133.078 276.449L132.051 276.854C127.935 278.487 123.755 280.264 120.192 282.907C116.22 285.854 113.092 289.513 110.741 293.865C108.423 298.155 106.941 302.957 105.306 307.54L104.869 308.76C104.21 310.591 103.528 312.417 102.748 314.198C102.128 315.613 100.972 317.228 100.447 318.843C99.0087 318.594 97.5712 318.344 96.1319 318.103C64.9574 312.896 33.4346 309.837 1.84168 308.942C0.605689 308.907 -0.0336341 310.087 0.148486 311.165C3.18036 329.1 5.8747 347.097 8.83095 365.045C10.1214 372.879 11.4375 380.706 12.7845 388.53C13.4669 392.494 14.2557 396.443 14.902 400.412C15.4237 403.618 15.8025 406.849 16.6982 409.981C17.5016 412.788 18.7345 415.496 20.7593 417.638C22.942 419.947 25.9884 421.065 29.055 421.593C36.8397 422.934 44.8246 423.481 52.6724 424.374L94.455 429.129C93.8444 434.681 93.7988 440.147 94.0789 445.763L94.2386 448.83C94.3691 451.296 94.5252 453.766 94.8792 456.207C95.3233 459.269 96.7233 461.861 98.7856 464.148C100.679 466.248 102.98 468.04 105.218 469.758C107.541 471.541 109.941 473.262 112.672 474.364L113.026 474.505C115.422 475.441 119.917 476.89 123.192 476.36C122.764 478.506 121.935 480.813 122.67 482.936C123.01 483.922 124.299 484.414 125.089 483.575C126.653 481.912 126.775 479.716 127.145 477.547C127.531 475.29 127.863 473.025 128.158 470.755C128.729 466.364 129.174 461.934 129.309 457.506C129.449 452.959 129.395 448.406 129.15 443.864C129.024 441.532 128.868 439.201 128.572 436.884C128.446 435.895 128.317 434.906 128.169 433.92C128.116 433.561 128.056 433.203 127.992 432.846L131.742 433.269C137.493 433.911 143.246 434.491 149.037 434.581C149.722 434.592 150.25 434.279 150.595 433.824C150.962 434.423 151.602 434.851 152.518 434.848C160.605 434.818 168.136 432.172 175.492 429.055C179.2 427.482 182.85 425.781 186.563 424.222C190.029 422.767 193.734 421.729 197.116 420.091L206.004 424.754C206.069 424.983 206.152 425.2 206.241 425.382C206.82 426.564 207.961 427.204 209.126 427.687C210.244 428.152 211.403 428.296 212.531 428.179C219.271 431.712 226.013 435.242 232.76 438.764L239.508 442.283C252.952 449.286 266.343 456.403 279.872 463.242L280.868 463.743C285.541 466.087 290.559 468.463 295.745 470.236C295.837 471.55 295.779 472.827 295.669 474.217L295.642 474.519C295.488 476.162 295.156 478.22 296.473 479.389C297.158 479.997 298.382 480 298.848 479.083C299.693 477.42 298.934 474.799 298.667 472.993C298.571 472.35 298.456 471.69 298.284 471.049C304.229 472.82 310.355 473.678 316.404 472.684C322.295 471.717 326.857 468.005 330.535 463.464C334.416 458.673 337.174 453.089 338.654 447.103C340.338 440.291 340.448 433.257 340.409 426.28C340.367 418.85 340.092 411.384 339.189 404.004C340.178 403.771 341.276 403.57 342.276 403.639C342.771 404.432 343.732 404.766 344.6 404.663C346.489 406.746 341.699 408.875 340.169 409.408C339.637 409.594 339.694 410.457 340.307 410.431L340.693 410.413C343.058 410.287 345.502 409.883 346.892 407.684C348.006 405.922 347.672 403.834 346.343 402.397C345.466 394.099 343.369 386.018 341.417 377.924C339.501 369.978 337.371 362.084 335.113 354.23L334.101 350.714C330.546 338.398 326.83 325.983 321.926 314.157C319.477 308.252 316.656 302.456 312.832 297.307C309.268 292.507 305.059 288.4 300.222 284.892C291.205 278.352 280.624 274.4 270.227 270.635L269.762 270.467C264.374 268.517 259 266.544 253.673 264.432C248.963 262.564 244.45 260.195 239.762 258.299C239.914 258.023 240.061 257.743 240.203 257.46L240.289 257.533C240.304 257.545 240.319 257.556 240.335 257.567C240.807 257.894 241.501 257.733 241.889 257.366C242.986 256.331 242.615 255.181 241.883 254.107L241.787 253.971C240.892 252.715 240.093 251.388 239.266 250.088L238.748 249.274C237.361 247.101 235.903 244.914 234.053 243.118C233.196 242.286 232.258 241.663 231.264 241.199C231.349 241.019 230.604 240.652 230.393 240.837C227.244 239.684 223.621 239.926 220.188 240.243M96.4767 429.359L100.855 429.857C105.671 430.405 110.489 430.935 115.308 431.46L125.775 432.598C125.801 433.195 125.874 433.779 125.887 434.229C125.955 436.553 126.006 438.879 126.054 441.203C126.151 445.863 126.045 450.528 125.738 455.179C125.441 459.685 125.05 464.193 124.441 468.669L124.317 469.564L124.245 470.034C123.748 470.082 123.261 470.318 122.855 470.803C121.97 471.86 118.764 470.832 117.512 470.387C115.453 469.654 113.515 468.416 111.726 467.174C109.979 465.961 108.405 464.548 106.894 463.058L105.657 461.835C104.426 460.612 103.195 459.309 102.441 457.77C101.419 455.684 101.286 453.123 100.987 450.85C100.618 448.055 100.178 445.261 99.7136 442.479M223.564 400.02L224.018 400.139C240.513 404.524 256.984 409.038 273.53 413.229C281.718 415.304 289.945 417.228 298.143 419.262L299.47 419.594C305.938 421.23 312.483 423.198 317.436 427.891C317.619 428.063 317.884 427.798 317.712 427.614C312.374 421.93 304.783 419.524 297.494 417.438C296.146 417.052 294.797 416.675 293.45 416.292C303.362 412.757 313.432 409.681 323.734 407.487C326.386 406.923 329.07 406.508 331.721 405.941C333.569 405.545 335.374 404.973 337.203 404.499L338.642 404.137L338.661 408.685C338.685 415.128 338.674 421.565 338.345 428.007L338.283 429.2C337.9 436.369 337.301 443.687 334.758 450.446C332.692 455.939 329.398 461.114 325.091 465.115C322.911 467.139 320.568 468.715 317.671 469.493C314.982 470.215 312.164 470.3 309.399 470.107C296.138 469.181 284.333 461.975 272.813 456.008C253.971 446.248 235.126 436.493 216.265 426.771C216.775 426.423 217.255 426.021 217.692 425.569C220.221 422.956 221.555 419.379 222.431 415.914C223.364 412.227 223.922 408.275 223.987 404.468M199.564 430.539C199.398 430.449 199.205 430.561 199.197 430.749C199.139 432.191 199.935 433.612 200.53 434.91L200.593 435.049C201.316 436.657 202.107 438.244 202.925 439.805C204.561 442.925 206.261 446.012 208.035 449.055C211.602 455.177 215.566 461.042 220.252 466.372C221.311 467.576 223.051 466.032 222.372 464.736C219.098 458.486 215.28 452.584 211.35 446.734C209.383 443.805 207.417 440.874 205.431 437.958C204.602 436.741 203.762 435.529 202.9 434.335L202.38 433.621M3.93069 312.522C20.4835 313.022 37.017 314.102 53.4911 315.794C68.8121 317.368 84.0769 319.463 99.2557 322.075C102.426 322.62 105.593 323.188 108.755 323.778L110.652 324.135C113.815 324.735 117.679 324.982 120.495 326.672C123.464 328.454 124.267 332.179 125.255 335.25C126.416 338.862 127.548 342.484 128.649 346.115C133.023 360.532 137.018 375.074 140.582 389.711C142.351 396.977 143.921 404.284 145.575 411.576C147.044 418.055 148.666 424.461 150.36 430.875C150.151 430.713 149.895 430.589 149.586 430.523C141.174 428.733 132.588 427.955 124.051 426.966L123.225 426.869C114.393 425.83 105.562 424.799 96.7247 423.805L38.2176 417.223C34.767 416.835 31.0705 416.782 27.7125 415.856C22.0034 414.28 20.6652 407.895 19.7073 402.81L19.6784 402.656C16.7905 387.292 14.4916 371.794 11.7983 356.391M148.998 413.015C151.27 412.865 154.379 410.784 156.102 410.933C155.197 412.451 154.789 414.183 155.31 416.033C156.761 421.18 163.324 418.517 166.485 416.945C169.076 415.655 171.579 414.077 174.448 413.472C177.698 412.789 179.9 414.082 182.646 415.572C184.902 416.796 187.358 417.675 189.884 418.13C191.228 418.373 192.503 418.398 193.777 418.304C193.854 418.366 193.94 418.424 194.038 418.476L194.712 418.83C191.666 418.969 188.563 419.91 185.729 420.77C182.791 421.662 179.907 422.737 177.039 423.837L174.217 424.922C167.256 427.588 160.051 430.121 152.518 430.098C151.977 430.097 151.533 430.247 151.184 430.492M161.707 396.887C159.463 396.612 157.392 396.906 155.598 398.368C153.436 400.13 151.983 403.053 148.874 403.245C147.968 403.301 147.757 404.576 148.658 404.842C150.972 405.527 152.846 404.275 154.422 402.649L155.483 401.541C157.041 399.927 158.478 398.679 161.121 398.776C163.953 398.879 166.789 399.534 169.602 399.866C172.789 400.243 175.974 400.565 179.171 400.842C179.32 400.855 179.345 400.621 179.206 400.586L175.625 399.695M163.873 387.709L163.503 387.672C160.244 387.355 157.264 387.343 154.354 389.097L153.796 389.434C151.172 391.03 148.316 392.91 146.675 395.493C146.407 395.916 146.85 396.413 147.299 396.305C150.453 395.548 152.759 393.233 155.411 391.501C158.387 389.557 161.462 389.878 164.855 390.18C168.141 390.472 171.425 390.874 174.679 391.422C177.736 391.936 180.803 392.748 183.891 393.007L183.89 393.001C184.243 393 184.444 392.47 184.084 392.291C180.95 390.725 177.321 389.984 173.912 389.269M64.8811 355.489C65.1961 353.982 63.343 353.283 62.4841 354.478L62.3014 354.731C60.4458 357.274 57.7622 360.465 57.8988 363.699C56.2677 363.735 54.5766 364.727 53.9411 366.199C53.6472 366.88 53.5477 367.687 53.6125 368.523C52.1299 368.638 50.513 369.612 49.6066 370.56C48.1042 372.132 47.9855 374.353 49.0633 376.189C51.4133 380.193 56.5471 381.649 60.881 381.974L61.0354 381.985C65.5118 382.295 71.962 382.211 75.0313 378.369C77.9921 374.663 74.7198 371.663 71.3643 370.033C72.2378 369.236 72.6901 368.091 72.2648 366.885C71.518 364.764 68.8812 363.945 67.3913 362.471C65.575 360.673 64.3747 358.207 64.8534 355.63M62.421 358.748C62.9146 360.894 64.1274 362.857 65.8164 364.412C66.4623 365.007 67.1689 365.537 67.9196 365.992L68.0099 366.044C68.6761 366.418 70.3137 367.119 70.1876 367.958C70.0579 368.821 67.3899 370.172 66.6628 370.172C66.4974 370.172 66.4037 370.431 66.5726 370.506C67.8905 371.088 69.0415 371.338 70.3302 370.722C71.1912 371.602 72.0276 372.512 72.856 373.413C74.3209 375.009 73.8196 376.695 72.0886 377.883C69.3072 379.792 65.0793 379.746 61.834 379.607C58.5677 379.467 55.0762 378.739 52.5247 376.562L52.4136 376.465C51.027 375.232 49.7604 373.141 51.884 371.953C52.7155 371.487 53.614 371.515 54.4035 371.289C55.1424 372.737 56.3409 373.898 57.8035 374.122C58.9854 374.303 59.7994 372.816 58.7242 372.106L58.4827 371.955C57.1326 371.093 55.9805 369.766 56.011 368.037C56.0319 366.836 57.7075 365.32 58.799 366.448L58.849 366.502C59.7624 367.532 61.3713 366.234 60.7705 365.093L60.7417 365.041M275.457 299.066C275.461 298.808 275.098 298.711 274.972 298.934C272.851 302.666 271.743 307.24 270.613 311.352C269.431 315.658 268.476 320.009 267.618 324.391C265.88 333.265 264.954 342.088 264.891 351.132C264.883 352.423 266.986 352.767 267.191 351.444C268.557 342.646 269.866 333.84 271.242 325.044C271.934 320.621 272.74 316.214 273.511 311.804M254.467 305.565C254.623 305.051 253.874 304.879 253.683 305.349C249.427 315.798 247.986 327.639 250.718 338.663C251.136 340.349 253.605 339.618 253.29 337.953M199.581 296.281C199.603 295.896 199.103 295.835 198.915 296.1C196.899 298.942 196.062 302.748 192.525 304.216C190.759 304.95 188.772 304.822 187.211 306.061C186.168 306.889 185.368 308.197 186.151 309.451C186.404 309.856 187.111 310.059 187.453 309.619C187.954 308.977 188.218 308.209 188.898 307.728C189.856 307.05 191.149 307.008 192.248 306.689C193.669 306.276 194.922 305.555 195.948 304.483M165.899 248.882C165.691 248.776 165.491 248.844 165.358 249.023C165.169 249.28 165.192 249.529 165.424 249.704C165.114 250.339 164.747 251.929 164.695 252.161C164.482 253.099 164.257 254.032 164.02 254.964C163.544 256.844 163.126 258.738 162.649 260.619C162.143 262.612 161.541 264.584 160.87 266.528C160.827 266.654 160.779 266.782 160.73 266.913L160.653 267.11L160.634 267.08C160.498 266.864 160.214 267.015 160.248 267.243C160.279 267.45 160.321 267.657 160.356 267.864L160.286 268.05C159.848 269.231 159.547 270.475 160.352 271.517C160.653 271.907 160.984 272.138 161.397 272.206C162.059 274.389 162.89 276.531 163.779 278.589L164.039 279.189C165.347 282.191 166.742 285.154 168.824 287.709C171.098 290.499 174.225 292.405 176.205 295.462C177.127 296.884 177.768 298.379 178.288 299.985L178.484 300.595C178.853 301.731 179.279 302.832 180.345 303.498C180.685 303.711 181.194 303.643 181.468 303.353C183.652 301.042 181.366 296.725 180.048 294.487C178.217 291.375 175.568 289.384 172.914 287.036C170.054 284.505 168.23 281.12 166.465 277.784C165.384 275.741 164.341 273.654 163.242 271.601C164.39 270.587 164.757 268.571 165.146 267.169L165.181 267.044C165.824 264.8 166.335 262.498 166.658 260.185C166.968 257.962 167.098 255.771 167.015 253.535L166.992 252.966M161.631 259.464C161.884 259.116 161.465 258.722 161.117 258.794C159.001 259.232 156.933 260.513 155.034 261.549L154.832 261.659C153.316 262.476 151.791 263.478 150.995 265.066C150.13 266.793 150.201 268.781 150.319 270.657L150.33 270.833C150.475 273.082 150.498 275.42 150.974 277.629C151.218 278.76 152.241 279.078 153.117 278.811C154.158 282.101 157.083 284.524 159.22 287.12C161.945 290.43 161.432 294.898 161.147 298.883C161.032 300.497 163.039 300.956 164.072 300.095L166.454 298.116C166.85 297.786 167.246 297.455 167.641 297.122C167.98 296.838 168.315 296.551 168.647 296.26L169.144 295.821C169.364 295.624 170.336 294.538 170.62 294.493C171.308 294.384 172.943 296.198 173.503 296.767L173.573 296.838C174.627 297.871 175.578 298.983 176.465 300.162C176.628 300.378 176.946 300.198 176.83 299.948C176.036 298.246 175.112 296.619 174.016 295.096L173.794 294.793C173.065 293.81 172.085 292.073 170.798 291.783C169.225 291.428 167.655 293.006 166.511 293.881L166.439 293.936C165.895 294.344 165.357 294.76 164.82 295.179C164.876 292.211 164.501 289.213 162.97 286.656C161.89 284.852 160.272 283.516 158.887 281.966C157.346 280.241 156.541 278.12 155.146 276.322C154.966 276.091 154.719 275.967 154.45 275.927C154.397 274.482 154.184 273.023 154.02 271.594L153.972 271.166C153.806 269.613 153.413 267.716 154.173 266.262C154.891 264.888 156.539 263.918 157.758 262.986L158.754 262.213M230.287 243.043C230.924 243.411 231.519 243.87 232.059 244.443C233.759 246.247 234.975 248.492 236.158 250.652C236.794 251.815 237.408 252.991 238.051 254.152C238.33 254.657 238.617 255.156 238.907 255.655C239.042 255.885 239.441 256.341 239.638 256.623C239.419 256.931 239.191 257.234 238.96 257.534C238.871 257.648 232.773 264.294 230.647 266.895C227.392 270.88 224.482 275.088 221.994 279.593C219.558 284.004 217.704 288.674 215.447 293.171C214.318 295.422 213.056 297.657 211.448 299.605C211.386 299.681 211.321 299.753 211.257 299.828C210.644 298.17 209.071 296.394 208.299 295.374L208.227 295.278C206.475 292.916 204.626 290.626 202.736 288.374C201.01 286.317 199.24 284.306 197.427 282.327L196.745 281.586C195.482 280.222 193.878 278.179 192.029 277.204C192.227 276.851 192.456 276.501 192.72 276.156C194.452 273.892 196.901 272.248 199.317 270.765L200.884 269.812C206.791 266.211 212.606 262.443 217.734 257.764C220.447 255.288 223.123 252.695 225.403 249.807L226.21 248.786M220.431 241.26C223.197 241.492 226.184 241.437 228.74 242.338C226.468 244.488 224.308 246.808 222.089 248.993C221.891 247.515 221.487 246.056 221.145 244.614" fill="#111111"/>
<path fill-rule="evenodd" clip-rule="evenodd" d="M236.361 180.995C225.588 136.957 205.922 115.471 177.362 116.538C134.523 118.137 134.975 161.91 137.662 157.919C139.418 155.311 151.712 146.202 174.543 130.591L175.954 129.627L236.361 180.995Z" fill="#79FFE1"/>
<path fill-rule="evenodd" clip-rule="evenodd" d="M164.865 241.775C174.433 247.129 185.389 247.337 195.681 243.968C201.853 241.952 207.513 238.835 212.809 235.108C217.417 231.863 221.529 228.265 225.603 224.443C228.958 217.028 231.945 209.626 233.344 201.557C234.597 194.314 234.763 186.794 233.309 179.566C222.557 170.699 211.871 161.759 201.199 152.792C195.764 148.225 190.315 143.683 184.801 139.213C182.001 136.943 179.227 134.639 176.438 132.359C175.977 131.984 175.52 131.609 175.06 131.234C169.3 135.461 163.124 139.085 157.405 143.381C154.411 145.633 151.5 148.031 148.727 150.553C147.273 151.876 145.854 153.24 144.469 154.638C143.202 155.916 141.98 157.748 140.184 158.23C139.938 158.296 139.706 158.31 139.488 158.279C137.086 179.364 135.379 202.133 145.671 221.282C150.16 229.635 156.526 237.104 164.865 241.775ZM227.109 249.524C228.426 248.314 226.463 246.356 225.151 247.561C216.91 255.128 206.137 259.139 195.255 260.996C193.499 261.296 194.248 263.971 195.991 263.673C207.353 261.734 218.519 257.412 227.109 249.524ZM236.997 261.135C238.57 260.289 237.17 257.893 235.6 258.737C229.18 262.189 222.138 263.983 214.995 265.194C213.238 265.492 213.988 268.166 215.731 267.871C223.116 266.619 230.363 264.702 236.997 261.135ZM210.867 144.176C205.54 139.383 199.814 134.822 193.766 130.974C187.646 127.081 180.962 124.752 173.738 124.696C174.243 125.102 174.724 125.554 175.212 125.973C176.576 127.143 177.937 128.319 179.297 129.492C182.018 131.842 184.746 134.187 187.432 136.575C192.721 141.281 198.028 145.963 203.307 150.679C213.453 159.743 223.381 169.005 233.094 178.535C233.042 178.302 232.987 178.07 232.932 177.838C229.716 164.373 220.968 153.264 210.867 144.176ZM169.106 125.283C169.071 125.179 169.047 125.078 169.033 124.981C155.169 126.792 143.59 137.019 139.762 150.484C140.094 150.949 140.277 151.501 140.208 152.087C140.174 152.383 140.139 152.681 140.104 152.976C140.579 152.504 141.067 152.063 141.482 151.643C142.863 150.241 144.279 148.877 145.733 147.548C148.706 144.831 151.794 142.291 155.048 139.921C160.708 135.798 166.835 132.008 173.582 130.03C173.139 129.666 172.695 129.301 172.249 128.941C170.916 127.854 169.68 126.959 169.106 125.283ZM144.251 110.885C152.763 101.56 164.55 94.7302 176.964 92.3565C188.817 90.0869 201.088 91.5826 212.286 95.9934C235.718 105.224 254.207 125.523 262.865 149.044C267.912 162.748 269.566 177.771 268.05 192.277C266.541 206.717 262.203 221.629 254.311 233.914C253.587 235.039 252.795 236.118 251.964 237.163C252.334 241.403 253.747 245.561 255.969 249.177C256.088 249.37 256.214 249.561 256.339 249.751C258.615 251.46 260.975 253.063 263.28 254.718C265.277 256.152 267.253 257.623 269.131 259.211C270.904 260.711 272.962 262.381 274.163 264.405C275.146 266.062 275.548 268.316 274.205 269.897C272.588 271.802 269.847 271.13 267.655 271.13C267.468 271.13 267.281 271.134 267.093 271.137C266.435 271.551 265.757 271.926 265.101 272.275C258.465 275.801 251.805 279.289 245.137 282.759C231.858 289.675 218.635 296.87 205.083 303.237C198.803 306.191 192.081 308.772 185.047 308.762C178.449 308.752 172.485 306.125 167.334 302.13C161.463 297.58 156.554 291.803 151.791 286.139C149.887 283.873 148.021 281.579 146.19 279.254C142.673 278.078 139.183 277.734 136.047 280.004C133.531 281.826 130.214 279.348 130.156 276.613C130.135 275.642 130.176 274.684 130.28 273.74C130.91 267.909 133.756 262.635 136.961 257.742C138.712 255.066 140.557 252.439 142.413 249.836C142.849 249.222 143.279 248.608 143.694 247.983C136.241 236.982 130.329 224.784 126.694 212.037C122.875 198.625 121.577 184.716 122.429 170.817C123.738 149.516 129.567 126.973 144.251 110.885Z" fill="#111111"/>
<path fill-rule="evenodd" clip-rule="evenodd" d="M170.096 226.623C172.428 225.671 174.508 224.084 176.03 222.056C176.558 221.351 176.696 220.606 176.585 219.925C176.46 219.16 176.007 218.466 175.39 218C174.77 217.534 173.995 217.303 173.246 217.421C172.595 217.523 171.948 217.879 171.435 218.619L171.328 218.766C170.423 219.99 169.245 220.995 167.902 221.642C166.608 222.266 165.16 222.557 163.662 222.388C160.81 222.065 158.843 220.522 156.753 218.426C156.494 218.161 156.235 217.888 155.975 217.611C155.81 217.36 155.582 217.198 155.328 217.113C155.047 217.019 154.729 217.025 154.437 217.126C154.156 217.225 153.904 217.411 153.736 217.658C153.576 217.894 153.485 218.184 153.514 218.519C153.705 220.691 154.841 222.629 156.453 224.152C158.244 225.842 160.618 227.012 162.853 227.422C165.315 227.874 167.824 227.55 170.096 226.623V226.623ZM161.691 193.114C159.072 194.706 155.08 198.421 157.898 202.37C161.215 205.852 165.991 201.859 168.345 200.054C170.527 198.655 172.979 202.253 170.954 203.887C153.948 216.483 147.047 193.53 160.366 191.241C161.833 190.988 162.378 192.621 161.691 193.114ZM192.166 178.462C191.877 174.868 186.405 174.052 185.861 177.608C185.374 180.794 185.948 183.72 187.382 186.588C188.753 189.329 192.197 188.05 192.458 185.555C192.807 182.21 192.346 180.697 192.166 178.462ZM150.517 176.871C149.754 175.871 148.653 175.189 147.333 175.574C143.21 176.78 144.425 182.635 145.873 185.485C146.66 187.033 149.203 187.426 150.352 186.063C152.226 183.84 153.123 179.402 150.741 177.213C150.677 177.1 150.605 176.986 150.517 176.871ZM187.44 162.736L186.789 162.622C184.774 162.273 182.269 161.938 180.844 163.558C180.088 164.418 179.828 166.015 180.844 166.837C182.631 168.284 184.607 167.723 186.749 167.846C188.514 167.947 190.21 168.239 191.91 168.726C195.64 169.792 198.679 171.739 201.865 173.877C202.283 174.157 202.709 173.622 202.51 173.231C200.671 169.628 197.107 166.668 193.538 164.864C191.633 163.901 189.548 163.102 187.44 162.736ZM154.275 161.121L153.777 161.224C148.352 162.358 141.304 164.624 138.736 169.954C138.638 170.708 138.741 170.869 138.825 170.975L138.853 171.01C138.923 171.1 138.978 171.224 139.304 171.327C139.395 171.305 139.487 171.282 139.579 171.258C140.757 170.949 141.688 170.524 142.59 170.083L143.568 169.601C144.703 169.044 145.847 168.508 147.06 168.112C149.649 167.268 152.311 166.673 155.015 166.355C155.601 166.286 156.165 166.088 156.611 165.749C157.033 165.427 157.356 164.982 157.503 164.389C157.694 163.623 157.639 163.042 157.228 162.351C156.919 161.831 156.476 161.471 155.969 161.264C155.451 161.054 154.861 161.004 154.275 161.121Z" fill="#111111"/>
</svg>
