<svg width="395" height="532" viewBox="0 0 395 532" fill="none" xmlns="http://www.w3.org/2000/svg">
<path fill-rule="evenodd" clip-rule="evenodd" d="M216.721 234.605L216.142 234.853L214.154 235.715L214.571 236.672C215.744 239.363 217.062 241.953 218.508 244.39L218.78 244.846L219.198 245.537L219.177 245.561C218.997 245.761 218.813 245.968 218.625 246.182L196.743 269.703C187.513 279.616 182.64 284.832 182.124 285.35C179.972 287.513 177.857 287.782 175.921 285.959L175.703 285.752L175.344 285.406L175.099 285.166C173.835 283.917 172.579 282.536 170.774 280.453L150.562 251.772L151.839 248.919C154.182 243.65 155.462 240.569 155.678 239.677L155.775 239.239L155.977 238.297L155.054 238.022C151.726 237.031 148.043 237.291 143.864 238.527L143.622 238.6L142.926 238.815C140.095 239.695 138.492 240.287 136.851 241.164C134.616 242.358 132.967 243.84 131.938 245.772C130.754 247.995 129.848 249.112 128.322 250.016L128.202 250.085L128.054 250.169L127.898 250.253C127.763 250.324 127.613 250.4 127.432 250.489L126.792 250.798C124.769 251.768 123.84 252.389 123.045 253.614C122.166 254.965 122.017 256.231 122.288 258.062L122.312 258.22L122.355 258.479L122.52 259.43L122.559 259.672C122.667 260.352 122.685 260.951 122.608 261.455L122.588 261.569L122.145 263.925L123.024 263.367L120.593 265.349C117.19 268.136 115.162 269.865 113.041 271.815L112.455 272.357L112.34 272.465C108.519 276.03 105.415 279.468 102.818 283.138C100 287.116 97.6132 291.468 95.6853 296.103L95.467 296.633L95.4493 296.703C92.5618 308.024 90.2423 319.491 88.4967 331.07L88.3296 332.191L87.4821 337.937L90.2718 332.843C90.706 332.05 91.9081 331.264 93.4076 330.679L93.549 330.625L93.6517 330.586L93.866 330.51C95.5113 329.937 97.1704 329.883 98.7248 330.365L98.8852 330.417L99.357 330.575L99.7764 330.307C100.549 329.813 101.415 329.395 102.367 329.052L102.607 328.967L103.61 328.623L103.246 327.625C102.971 326.872 103.476 325.392 104.203 324.757C105.336 323.774 106.964 323.498 109.493 323.684L109.836 323.712L110.107 323.736L110.514 323.777L111.798 323.915L111.798 323.921C111.814 324.142 111.824 324.346 111.828 324.538L111.83 324.681L111.83 324.819C111.824 325.297 111.783 325.738 111.704 326.15L111.667 326.325L111.378 327.617L112.701 327.594L113.278 327.585C115.21 327.562 117.24 327.592 119.629 327.671L121.987 327.759L128.002 328.013L133.279 328.199L134.851 328.251L134.926 327.256C135.025 325.942 136.148 325.07 138.136 324.683L138.264 324.659L140.342 324.283L138.635 322.734L138.497 322.604L138.355 322.465C136.982 321.098 136.522 319.846 137.086 318.636C137.747 317.219 139.786 316.804 141.658 317.574L141.787 317.628L141.92 317.688C142.272 317.851 142.621 318.056 143.179 318.415L143.891 318.879L144.15 319.044C144.767 319.433 145.175 319.653 145.691 319.866C147.056 320.431 148.331 320.471 150.423 320.21L150.609 320.186L151.053 320.127L152.186 319.969L152.467 319.932L152.752 319.897C154.889 319.642 156.243 319.78 157.386 320.51C158.117 320.977 158.531 321.575 159.17 322.971L159.473 323.645L159.607 323.934C160.376 325.571 160.959 326.356 162.107 327.038C162.84 327.474 163.534 327.734 164.76 328.091L165.633 328.343L165.943 328.437C166.13 328.495 166.286 328.547 166.45 328.606C167.785 329.081 168.993 329.763 170.128 330.678L170.305 330.821L170.496 330.981C171.601 331.914 172.545 332.924 174.158 334.82L175.333 336.206L175.75 336.693L176.095 337.088C176.132 337.13 176.169 337.171 176.205 337.213L176.534 337.578C179.092 340.387 181.651 342.977 184.257 345.378L184.805 345.879L185.368 346.386L185.832 346.797C187.348 348.133 188.985 349.485 191.528 351.528L194.681 354.054L195.673 354.854C198.651 357.268 200.466 358.825 202.315 360.583L202.774 361.022L202.806 361.211C202.824 361.316 202.843 361.438 202.864 361.574C202.864 361.574 204.669 372.712 203.03 381.847C201.392 390.981 200.811 387.268 199.153 389.51L198.769 390.025C197.86 391.236 197.158 392.092 196.398 392.888L195.5 393.815L194.467 394.653L193.814 395.047C193.343 395.332 192.873 395.556 192.402 395.717C191.752 395.94 190.883 395.5 190.457 394.723L190.417 394.647L190.139 394.089L189.516 394.071C189.369 394.067 189.221 394.045 189.075 394.004C187.6 393.598 186.867 391.841 187.588 390.477L187.628 390.404L188.001 389.74L188.193 389.406C188.468 388.935 188.722 388.537 188.979 388.185L189.076 388.056L190.51 386.169L186.9 386.506L186.605 386.535L186.199 386.578L184.899 386.726C183.546 386.878 182.239 387.016 180.964 387.14L179.879 387.244L177.981 387.417L177.591 387.456L176.748 387.546L174.728 387.764L174.008 387.838L173.608 387.877C173.222 387.913 172.876 387.943 172.529 387.969L172.147 387.996C169.238 388.194 166.968 388.063 164.907 387.482C161.554 386.533 158.184 384.573 154.534 381.675C150.805 378.713 148.107 375.923 146.484 373.029C146.453 372.974 146.449 372.931 146.47 372.878L146.486 372.845L147.102 371.713L145.867 371.349C144.879 371.057 144.041 370.685 143.336 370.21C141.169 368.75 140.443 365.83 142.015 364.304L142.085 364.238L142.18 364.152L143.508 362.161L141.587 361.878C140.945 361.778 140.381 361.666 139.853 361.529C136.344 360.616 134.54 357.817 136.094 355.122L136.146 355.035L136.773 353.997L135.653 353.534C135.413 353.434 135.165 353.341 134.89 353.244L134.721 353.186L134.553 353.129L133.923 352.921C132.592 352.481 131.288 352.147 129.989 351.918C128.962 351.742 127.933 351.628 126.904 351.576L126.519 351.56L126.088 351.545L126.086 351.533L125.834 351.536L124.954 351.506L124.971 351.551C123.665 351.583 122.353 351.711 121.04 351.932L120.73 351.985C120.274 352.065 119.841 352.147 119.378 352.242L117.375 352.667C117.01 352.742 116.692 352.804 116.377 352.861L116.072 352.914L112.845 353.46L115.795 354.879L115.87 354.916L115.946 354.956L116.272 355.136C118.276 356.269 119.462 357.561 119.74 359.155C120.174 361.641 118.76 362.786 115.427 363.173L115.149 363.203L114.855 363.231L114.662 363.246L106.314 363.812L114.218 365.329C116.132 365.696 118.066 366.193 120.019 366.812C120.171 366.86 120.335 366.919 120.512 366.99L120.648 367.045L121.452 367.378L122.223 367.935C123.576 368.939 123.953 369.935 123.278 370.924L123.231 370.99L122.813 371.563L123.193 372.162C124.285 373.883 124.142 376.075 122.837 377.857C121.748 379.343 119.985 380.289 117.581 380.831L117.394 380.872L116.866 380.985L116.096 381.107L115.537 381.183L115.108 381.233L114.819 381.263L114.374 381.305L113.161 381.407C111.437 381.554 110.552 381.673 109.49 381.938C108.063 382.294 106.807 382.873 105.136 383.861L104.941 383.977L104.53 384.226L103.731 384.717L102.959 385.197L102.698 385.357L102.376 385.552C99.9974 386.972 98.4297 387.506 96.7795 387.256C95.7312 387.099 94.8515 386.715 94.0713 386.105L93.9489 386.007L92.7519 385.022L92.787 384.822L92.5267 384.464C92.0279 383.777 89.9031 379.775 89.9016 379.772C88.5303 377.363 87.2087 375.7 85.5384 374.599L85.3944 374.506L85.0664 374.305L84.6915 374.226L84.5025 374.255C83.9527 374.341 83.7897 374.586 83.6345 374.999C83.5948 375.105 83.5631 375.221 83.5321 375.362L83.5031 375.503L83.4736 375.662L83.4279 375.939L83.3799 376.264L83.3256 376.663L83.2671 377.125C83.2213 377.496 83.171 377.928 83.1138 378.437L82.4846 384.237L82.3118 385.777L82.1519 387.151C82.1387 387.262 82.1255 387.373 82.1123 387.483L81.9764 388.596L81.8282 389.759C81.446 392.691 81.0683 395.05 80.6769 396.839L80.6049 397.161L80.5564 397.369L80.4309 397.904C78.1858 407.522 77.0474 415.464 76.991 423.42C76.94 431.972 78.8046 439.606 82.8486 445.898C86.704 451.901 92.331 456.259 98.6718 457.762C102.014 458.551 105.33 458.379 108.002 457.049C108.49 456.807 108.836 456.558 109.468 456.029L109.678 455.852C110.513 455.145 110.882 454.899 111.326 454.795C111.381 454.782 111.434 454.772 111.486 454.765L111.562 454.757L112.507 454.685L112.523 453.737C112.559 451.718 113.522 450.928 113.432 454.079C113.432 454.079 113.258 458.62 113.211 459.193L113.177 459.569L113.165 459.702L113.723 461.65C138.076 470.954 279.26 471.115 301.042 462.014L301.666 461.736L305.518 459.886C305.518 459.886 297.799 458.088 303.076 458.755C308.738 459.47 315.329 456 318.901 450.157L320.203 448.007L320.602 447.34L320.823 446.964C321.354 446.056 321.732 445.36 322.133 444.561C323.748 441.334 325.089 437.861 326.192 434.126C328.244 427.175 329.32 419.645 329.641 411.129C330.221 395.724 328.632 379.465 325.123 362.525C321.72 346.094 316.562 330.123 309.757 315.021C306.355 307.471 302.605 300.251 298.494 293.368L298.052 292.632L297.571 291.837L297.077 291.026L296.581 290.218L296.128 289.488L295.672 288.76L295.212 288.033C291.012 281.431 287.278 276.559 282.962 272.356C279.127 268.621 275.087 264.832 270.841 260.988L270.932 259.379L270.936 259.349C271.026 258.82 272.624 254.295 271.009 250.77L270.825 250.374C269.364 247.28 269.151 248.075 267.753 247.099L267.696 247.059C264.629 244.862 260.722 243.355 256.089 242.351C254.9 242.093 253.782 241.978 252.206 241.915L251.988 241.907L251.703 241.897L250.478 241.86C248.169 241.786 246.438 240.971 245.103 239.286L245.004 239.159L244.904 239.027L244.811 238.898C244.485 238.443 244.173 237.922 243.671 237.029L243.326 236.418L243.161 236.129L242.992 235.839C242.415 234.861 242.006 234.286 241.428 233.657C239.681 231.757 236.971 230.641 234.115 230.455C229.048 230.125 224.06 231.483 216.721 234.605ZM150.231 332.352L150.644 334.384C150.683 334.576 150.704 334.764 150.708 334.948L150.707 335.084L150.678 336.011L151.594 336.147C152.336 336.257 153.071 336.372 153.799 336.491L154.525 336.612L161.369 337.774L155.112 334.629L154.985 334.567L154.951 334.549L154.71 334.434L153.958 334.085L152.107 333.235L150.231 332.352Z" fill="#444444"/>
<path fill-rule="evenodd" clip-rule="evenodd" d="M155.612 227.566C155.224 229.227 155.578 231.1 155.514 232.805C155.452 234.434 155.26 236.054 154.977 237.66C152 236.093 148.481 235.892 145.089 236.396C140.7 237.049 135.622 238.492 132.182 241.425C131.333 242.15 130.63 243.008 130.041 243.954C129.334 245.088 128.882 246.37 127.762 247.183C126.028 248.441 123.878 248.928 122.212 250.322C120.512 251.743 119.457 253.868 119.234 256.06C119.115 257.228 119.308 258.319 119.529 259.457C119.727 260.481 119.63 260.901 119.36 261.887C119.149 262.661 119.553 263.539 120.211 263.966C118.799 264.935 117.407 265.935 116.039 266.974C108.068 273.027 101.327 280.571 96.6543 289.448L96.5414 289.669L96.4106 289.934C95.2719 292.274 92.2925 299.116 91.9223 300.654C91.6576 301.458 91.4013 302.264 91.1629 303.076C90.5336 305.226 90 307.403 89.5576 309.598L89.4392 310.197C89.0802 312.041 88.4624 314.224 88.5619 316.189C87.5271 321.553 86.6103 326.94 85.8277 332.35C85.7253 333.059 86.0074 333.634 86.4452 334.016C85.3986 334.185 84.3586 334.391 83.33 334.6L82.7325 334.726L82.4335 334.792C80.2913 335.275 78.1771 335.979 76.774 337.779C75.2612 339.726 75.2303 342.228 76.7498 344.189C78.0399 345.855 79.9239 346.646 81.8908 347.146C82.2789 347.243 82.6713 347.333 83.0633 347.412C83.3266 347.468 83.5 347.107 83.2506 346.969L82.8332 346.738L82.2637 346.426C80.781 345.608 79.2422 344.685 78.4218 343.21C77.3079 341.208 78.1894 339.354 80.1008 338.338C81.7009 337.486 83.6802 337.268 85.4571 336.976L86.1909 336.855C88.0485 336.559 89.9435 336.366 91.8186 336.578C93.4594 336.766 95.121 337.325 96.4465 338.327L96.5692 338.424L96.6961 338.53C97.8584 339.538 99.5298 341.801 97.3377 342.454C95.6622 342.949 93.6206 342.826 91.8597 342.922L91.6316 342.936C90.1573 343.037 88.6167 343.037 87.1254 343.214C86.5912 343.276 86.0636 343.363 85.5467 343.484C84.0655 343.835 84.5754 345.806 85.8801 345.945C86.1992 345.98 86.5249 345.997 86.8514 346.004C87.7047 346.646 88.8842 346.937 89.8933 347.336C90.8577 347.718 91.8255 348.096 92.8003 348.468C91.9608 348.506 91.1213 348.575 90.2853 348.679C90.0151 348.71 90.0116 349.075 90.2853 349.103C92.2976 349.308 94.3096 349.53 96.3147 349.81C99.4191 350.241 102.503 350.817 105.518 351.695C107.721 352.339 109.897 353.106 112.008 354.002L112.647 354.277L112.91 354.392C114.826 355.222 117.304 356.195 118.405 358.025C118.981 358.979 119.234 360.454 118.422 361.367C117.554 362.35 115.735 362.238 114.52 362.286L114.422 362.29C111.848 362.415 109.271 362.432 106.694 362.342C101.293 362.151 95.8877 361.561 90.5836 360.523C89.6054 360.333 89.1822 361.801 90.1673 362.03C96.4239 363.484 102.749 364.282 109.168 364.319L109.871 364.32C112.372 364.798 114.824 365.512 117.256 366.317L117.742 366.479C119.178 366.964 121.631 367.447 122.478 368.873C123.039 369.82 122.842 370.47 122.286 370.91C121.309 371.684 119.227 371.83 118.214 371.868C114.156 372.021 110.093 372.048 106.031 371.962C104.002 371.916 101.972 371.844 99.9429 371.74C97.9586 371.636 95.8394 371.341 93.8621 371.531C93.0119 371.614 92.7274 372.864 93.6502 373.097C96.0887 373.715 98.8236 373.661 101.343 373.739L101.633 373.749C104.338 373.846 107.047 373.888 109.753 373.881C112.076 373.872 114.398 373.825 116.718 373.739L118.769 373.658L119.132 373.641C120.225 373.582 121.342 373.456 122.311 373.006C123.206 374.505 122.537 376.515 121.381 377.701C120.282 378.833 118.696 379.388 117.177 379.735C117.034 379.767 116.892 379.797 116.75 379.826C113.413 380.505 110.013 380.447 106.891 381.98C104.266 383.271 101.861 385.423 98.9199 385.933C96.2904 386.391 94.379 385.232 92.9776 383.088C92.9009 382.97 92.8246 382.852 92.7517 382.733C91.6489 380.957 90.8546 379 89.6921 377.257C89.0989 376.369 88.4294 375.515 87.6107 374.821C87.2434 374.505 84.6694 373.138 84.2666 372.729C82.5356 370.952 84.0689 367.214 83.618 364.987C83.091 362.394 80.8116 361.481 79.4448 359.472C76.8469 355.648 83.9721 352.066 81.8418 347.884C81.8141 347.833 81.7797 347.795 81.7346 347.77C81.5473 347.669 81.2487 347.795 81.266 348.041C81.5022 351.157 78.5325 353.302 77.4605 356.002C76.2398 359.073 78.1894 360.933 80.1802 362.984C82.7337 365.618 80.9368 368.568 81.5054 371.74C81.5796 372.156 81.6989 372.522 81.854 372.85C81.4176 373.121 81.0811 373.569 81.0072 374.195C80.1316 381.621 79.1905 389.025 77.6538 396.349L77.325 397.905L76.8847 399.981C75.7894 405.172 74.767 410.385 74.5726 415.693C73.9624 420.172 73.7203 424.689 74.0818 429.198C75.178 442.923 82.8482 457.283 96.783 461.496C100.009 462.471 103.43 462.724 106.739 462.041C107.873 461.808 109.462 461.294 110.888 460.517C110.803 461.432 110.736 462.347 110.707 463.259C110.238 463.783 110.025 464.573 110.293 465.25C111.429 464.876 112.462 464.283 113.392 463.473L113.546 463.336C114.098 461.286 114.259 459.044 114.339 456.884L114.36 456.27C114.381 455.673 114.395 455.086 114.416 454.514C114.533 450.95 114.45 447.379 114.267 443.818L114.131 441.197C113.821 435.084 113.569 428.985 113.739 422.854C113.933 415.799 114.537 408.775 115.293 401.758C115.685 398.138 116.129 394.526 116.584 390.913C116.948 388.005 117.558 384.875 117.569 381.877C119.904 381.377 122.196 380.419 123.633 378.458C125.156 376.38 125.381 373.721 124.028 371.59C125.336 369.8 124.264 368.113 122.647 366.975C125.131 365.583 126.515 361.787 126.883 359.146C127.133 357.334 127.212 354.624 126.439 352.587C127.549 352.625 128.659 352.74 129.769 352.931C131.053 353.156 132.312 353.486 133.554 353.895L134.183 354.103C134.5 354.21 134.857 354.335 135.212 354.482C132.967 358.195 135.85 361.561 139.548 362.523C140.252 362.706 140.97 362.835 141.695 362.939C143.329 363.165 144.998 363.234 146.618 363.383C149.719 363.667 152.838 364.074 155.949 364.206C156.633 364.237 157.073 363.918 157.282 363.473C157.288 363.467 157.292 363.463 157.292 363.456C157.365 363.338 157.414 363.213 157.431 363.081C157.42 363.092 157.406 363.099 157.396 363.106C157.545 362.272 157.045 361.259 155.949 361.138C151.457 360.631 146.903 360.607 142.396 360.236L142.108 360.212C140.693 360.09 139.027 359.865 137.907 358.969C136.867 358.136 136.773 357.053 137.189 356.075C137.196 356.099 137.203 356.126 137.207 356.151C137.238 356.345 137.505 356.338 137.592 356.203C137.852 355.808 137.918 355.418 137.852 355.044C138.164 354.683 138.542 354.364 138.951 354.117C140.766 353.014 143.152 352.712 145.217 352.385C147.475 352.028 149.75 351.865 152.029 351.758C156.515 351.546 161.014 351.91 165.426 352.715C165.611 352.747 165.687 352.49 165.506 352.431C163.786 351.861 162.027 351.383 160.248 351.005C160.289 350.997 160.331 350.991 160.372 350.98C160.528 350.942 160.64 350.751 160.587 350.599C160.581 350.574 160.57 350.55 160.56 350.529C161.316 350.182 161.631 349.016 160.716 348.544C157.861 347.069 154.51 346.403 151.377 345.795C148.37 345.216 145.331 344.81 142.289 344.449C137.144 343.845 131.535 343.859 126.585 342.235L126.381 342.166C124.365 341.471 121.959 340.062 121.818 337.682C121.61 334.083 126.956 335.02 129.183 335.107C135.278 335.34 141.366 335.763 147.433 336.415C148.672 336.547 149.91 336.682 151.148 336.821C153.046 337.033 154.947 337.255 156.841 337.491C157.899 337.623 158.981 337.797 160.07 337.963C160.41 338.046 160.743 338.105 161.076 338.137C161.101 338.14 161.122 338.133 161.139 338.123C162.724 338.345 164.316 338.515 165.864 338.466C166.041 338.463 166.152 338.185 165.964 338.102C163.966 337.255 161.742 336.755 159.512 336.363C158.131 335.333 156.463 334.507 155.092 333.709C153.212 332.612 151.058 330.998 148.925 330.342C147.964 329.586 146.875 328.978 145.872 328.566C146.16 328.118 146.264 327.496 146.212 326.973C146.021 325.095 144.519 324.047 142.785 323.679C142.247 323.568 141.626 323.485 140.963 323.454C140.95 323.103 140.794 322.76 140.447 322.503L140.344 322.425L140.272 322.367C139.107 321.421 136.796 318.758 139.58 318.564C141.057 318.46 142.306 319.543 143.482 320.275C145.924 321.798 148.286 321.874 151.075 321.496L152.329 321.316L152.538 321.288C154.554 321.023 156.6 320.987 157.725 323.044C158.933 325.244 159.356 327.25 161.791 328.461C164.119 329.617 166.703 329.846 168.84 331.435C171.13 333.136 172.85 335.523 174.723 337.64C178.855 342.304 183.583 346.424 188.453 350.297L189.32 350.983C193.805 354.529 198.435 358.021 203.457 360.753C203.491 360.77 203.526 360.777 203.557 360.777C203.693 360.763 203.794 360.59 203.672 360.472C197.806 354.77 190.944 350.147 184.919 344.598C182.248 342.138 179.705 339.549 177.259 336.863C175.123 334.507 173.229 331.859 170.737 329.853C169.527 328.877 168.219 328.132 166.755 327.611C165.388 327.122 163.855 326.879 162.596 326.129C160.129 324.665 160.369 321.195 157.902 319.619C155.788 318.267 153.211 318.761 150.866 319.082L150.586 319.119C149.067 319.321 147.495 319.491 146.045 318.89C144.61 318.297 143.454 317.186 142.008 316.596C139.992 315.767 137.134 315.965 136.1 318.182C135.112 320.299 136.461 322.215 138.036 323.62C135.889 324.009 134.005 325.047 133.845 327.164C132.27 327.111 130.699 327.056 129.124 327C123.639 326.81 118.128 326.441 112.639 326.539C112.765 325.98 112.82 325.404 112.827 324.818C112.83 324.491 112.816 324.165 112.792 323.832C112.751 323.263 112.376 322.919 111.821 322.86L110.581 322.728L110.166 322.687C107.844 322.467 105.247 322.421 103.478 323.957C102.527 324.786 101.761 326.695 102.225 327.969C101.143 328.34 100.113 328.815 99.1728 329.416C97.3099 328.791 95.3535 328.86 93.4806 329.513L93.2581 329.592C91.9266 330.081 90.0393 331.007 89.3157 332.329C91.0721 320.419 93.4389 308.612 96.4143 296.946C98.3135 292.288 100.713 287.835 103.623 283.726C110.953 273.37 121.513 266.249 130.997 258.062C131.834 258.984 132.735 259.86 133.578 260.704L133.936 261.064C135.653 262.803 137.444 264.468 139.274 266.087C143.1 269.47 147.127 272.593 151.126 275.766C159.186 282.163 166.473 288.956 172.536 297.307C172.645 297.458 172.947 297.37 172.863 297.17C168.704 287.28 160.083 279.762 152.252 272.785C148.133 269.117 143.919 265.537 139.959 261.695C138.113 259.904 136.324 258.051 134.637 256.109L134.218 255.622C133.114 254.33 130.532 250.386 128.824 253.232C128.467 253.827 128.482 254.588 128.824 255.184C129.309 256.031 129.925 256.839 130.598 257.614C128.205 258.917 125.861 260.292 123.568 261.748C123.699 261.046 123.666 260.271 123.544 259.495L123.504 259.249L123.337 258.287C123.097 256.869 122.974 255.551 123.874 254.167C124.998 252.437 127.119 251.897 128.808 250.898C130.754 249.746 131.771 248.204 132.813 246.247C134.808 242.502 139.317 241 143.192 239.795L143.68 239.644C147.26 238.534 151.134 237.939 154.714 239.006C154.378 240.57 153.938 242.112 153.389 243.613C152.805 245.212 151.469 246.989 151.606 248.715C151.7 249.91 153.133 251.187 154.322 250.274C156.006 248.982 156.342 246.877 156.794 244.872C157.23 242.933 157.509 240.946 157.627 238.962C157.741 237.05 157.652 235.139 157.416 233.24L157.236 231.846L157.192 231.522C156.995 230.112 156.702 228.632 155.91 227.527C155.833 227.421 155.647 227.419 155.612 227.566ZM204.465 219.639C204.44 219.752 204.422 219.863 204.406 219.974C204.29 220.45 204.247 220.907 204.261 221.366C204.254 221.531 204.266 221.697 204.297 221.862C204.359 222.402 204.489 222.956 204.665 223.563C205.04 224.853 205.468 226.127 205.947 227.382C206.894 229.864 208.013 232.233 209.395 234.503C211.891 238.604 215.065 242.008 218.807 244.951C218.096 245.537 217.402 246.146 216.707 246.745C213.345 249.639 210.074 252.665 206.906 255.77C201.28 261.285 195.766 266.903 190.383 272.656C187.727 275.493 185.121 278.367 182.529 281.26L182.444 281.358L182.352 281.467C181.432 282.581 179.592 285.236 178.219 284.81C177.526 284.594 176.796 283.559 176.324 283.066L175.453 282.158C175.164 281.854 174.876 281.549 174.594 281.24C169.531 275.69 164.74 269.927 160.241 263.904C158.046 260.965 155.924 257.971 153.879 254.924C152.828 253.358 151.796 251.778 150.785 250.185C149.808 248.644 149.017 246.988 147.577 245.838C146.519 244.994 145.054 245.768 145.321 247.151C145.74 249.33 147.248 251.173 148.435 253.015C149.627 254.866 150.848 256.698 152.096 258.512C154.497 262.003 157.003 265.42 159.598 268.769C161.833 271.653 164.164 274.463 166.559 277.216L167.214 277.965C169.789 280.903 172.318 284.022 175.164 286.703C177.713 289.104 180.496 288.404 182.818 286.071C185.754 283.121 188.481 279.93 191.306 276.872C196.952 270.762 202.657 264.698 208.421 258.698L210.316 256.724C212.525 254.417 214.726 252.095 216.868 249.731L217.145 249.423C219.589 246.673 222.074 243.228 225.548 241.83C225.799 241.729 225.707 241.372 225.435 241.422C223.211 241.833 221.355 242.954 219.627 244.293C218.075 241.723 216.689 239.013 215.481 236.242L216.256 235.905C221.801 233.508 228.05 231.092 234.003 231.48C236.403 231.636 238.962 232.546 240.619 234.347C242.119 235.979 242.868 238.18 244.244 239.919C245.821 241.91 247.877 242.806 250.401 242.886L251.628 242.924C253.039 242.969 254.393 243.044 255.825 243.354C259.704 244.195 263.793 245.56 267.046 247.891C268.226 248.737 269.445 249.899 270.015 251.18C270.581 252.449 270.744 253.934 270.799 255.304C270.826 255.972 270.626 256.853 270.793 257.492C270.774 257.419 270.765 257.458 270.763 257.534C270.243 257.944 269.888 258.626 269.85 259.306C266.607 257.615 263.25 256.133 259.828 254.798C256.018 253.311 252.089 252.119 248.16 250.99C244.314 249.886 240.289 249.43 236.369 248.643C235.869 248.542 235.696 249.217 236.161 249.396C240.281 250.979 244.268 252.856 248.423 254.345C252.576 255.834 256.698 257.446 260.73 259.237C268.524 262.701 276.053 267.108 282.193 273.088C288.19 278.928 292.816 286.024 297.118 293.157C301.451 300.341 305.318 307.787 308.764 315.435C315.582 330.565 320.695 346.473 324.061 362.723C327.336 378.536 329.167 394.913 328.557 411.075C328.268 418.752 327.331 426.434 325.151 433.817C324.109 437.344 322.806 440.79 321.159 444.081C319.422 447.55 317.082 450.64 315.496 454.167C315.365 454.458 315.315 454.736 315.322 454.995C308.558 460.858 297.97 456.907 290.649 453.407C273.804 445.349 257.271 436.531 241.556 426.411C226.047 416.423 211.349 405.277 196.998 393.707C198.108 392.562 199.086 391.278 199.946 390.115C201.722 387.714 203.058 384.993 203.977 382.154C205.052 378.829 205.386 375.272 205.08 371.799L204.994 370.816C204.701 367.536 204.363 364.208 203.644 361.002C203.637 360.961 203.606 360.943 203.571 360.943C203.537 360.943 203.502 360.964 203.488 361.002C201.549 367.211 201.393 373.884 199.215 380.013C198.337 382.477 196.977 384.858 195.346 386.902C194.642 387.786 193.816 388.553 192.974 389.303C192.918 388.921 192.842 388.543 192.728 388.172L192.637 387.878C192.524 387.521 192.384 387.124 192.19 386.773C192.464 386.693 192.731 386.607 192.994 386.509C193.203 386.433 193.248 386.096 192.994 386.041C192.304 385.881 191.593 385.801 190.868 385.767C190.753 385.749 190.643 385.746 190.532 385.753C189.175 385.711 187.794 385.808 186.487 385.829C184.221 385.864 181.963 385.905 179.702 386.006C175.372 386.193 170.485 387.023 166.224 386.016C162.353 385.1 158.537 382.518 155.433 380.089C152.72 377.965 150.628 375.443 148.377 372.927C148.539 372.952 148.699 372.976 148.859 372.998L150.31 373.197C152.143 373.442 154.318 373.634 155.772 372.753C156.328 372.416 156.168 371.653 155.602 371.444C154.118 370.9 152.276 371.351 150.694 371.275C149.452 371.215 148.196 371.084 146.972 370.827C146.569 370.744 146.171 370.647 145.775 370.532C142.875 369.696 139.468 366.753 141.772 363.539C141.858 363.418 141.762 363.307 141.644 363.286C141.591 363.276 141.536 363.286 141.491 363.324C138.868 365.496 140.232 369.39 142.712 371.06C143.565 371.636 144.529 372.038 145.529 372.333C145.338 372.683 145.303 373.114 145.532 373.523C147.475 376.987 150.763 380.03 153.844 382.477C157.007 384.989 160.657 387.359 164.58 388.47C169.111 389.747 174.088 388.786 178.685 388.38C181.176 388.161 183.659 387.901 186.147 387.613C186.813 387.537 187.503 387.478 188.204 387.412C187.545 388.279 187.021 389.279 186.677 389.879C185.56 391.829 186.591 394.397 188.755 394.994C188.981 395.057 189.214 395.092 189.442 395.098C190.025 396.268 191.413 397.129 192.696 396.688C193.255 396.497 193.793 396.237 194.309 395.924C202.382 403.018 210.881 409.673 219.622 415.913C235.833 427.483 252.824 438.051 270.442 447.341C274.411 449.433 278.41 451.47 282.442 453.427L285.913 455.1C289.755 456.95 293.687 458.79 297.767 459.938C298.563 460.161 299.396 460.342 300.249 460.481C300.26 460.557 300.263 460.63 300.258 460.7C301.025 460.803 301.695 460.818 302.266 460.747L302.396 460.729C307.398 461.079 312.747 459.857 315.965 456.203C316.501 456.58 317.283 456.621 317.973 456.08C321.443 453.356 323.511 449.209 325.327 445.249C327.167 441.233 328.61 437.048 329.67 432.76C331.788 424.196 332.627 415.362 332.672 406.552C332.832 372.606 324.333 338.362 309.572 307.886C305.829 300.156 301.702 292.571 297.121 285.305C292.552 278.059 287.247 271.325 280.453 266.04C278.499 264.521 276.467 263.132 274.371 261.852C275.778 261.155 276.336 259.38 276.435 257.804C276.654 254.303 276.237 250.271 274.188 247.317C271.314 243.173 266.169 240.619 261.398 239.376C258.908 238.728 256.332 238.35 253.763 238.222C252.439 238.156 251.063 238.374 249.754 238.231C248.6 238.105 247.886 237.416 247.222 236.51C245.521 234.187 244.414 231.751 241.974 230.049C239.471 228.302 236.227 227.634 233.211 227.815C229.698 228.026 226.493 229.411 223.399 231.002C220.607 232.438 217.896 234.029 215.255 235.726C214.77 234.591 214.314 233.447 213.89 232.299C213.067 230.074 212.351 227.778 211.771 225.478C211.182 223.146 211.268 220.065 209.49 218.311C207.944 216.787 204.966 217.385 204.465 219.639ZM84.6196 375.27L84.6323 375.273C88.2289 377.405 89.9488 382.733 91.6417 385.062C91.5032 385.843 91.4061 386.637 91.2153 387.377C90.7779 389.074 90.2059 390.757 89.5429 392.374C88.3774 395.23 86.9169 397.951 85.5675 400.72C84.4817 402.947 83.4178 405.215 82.5901 407.559C82.6799 407.649 82.7628 407.755 82.8333 407.888C83.731 409.57 84.4338 409.239 86.0903 408.872L86.0913 408.868C87.0387 405.967 88.4051 403.243 89.6331 400.46L89.9318 399.78L90.2271 399.1C91.2532 396.718 92.1895 394.314 92.7347 391.76C93.0816 390.132 93.2239 388.459 93.2443 386.797C94.1428 387.537 95.222 388.068 96.5815 388.272C99.4911 388.712 102.126 386.889 104.497 385.426L105.031 385.099C106.515 384.196 107.987 383.361 109.698 382.935C111.641 382.449 113.649 382.449 115.623 382.202C115.859 382.171 116.098 382.14 116.338 382.102C115.567 384.653 115.21 387.422 114.752 389.976C114.114 393.558 113.593 397.17 113.094 400.772C112.122 407.755 111.446 414.792 111.103 421.834C110.77 428.652 110.938 435.444 111.184 442.259L111.307 445.583C111.406 448.289 111.487 450.998 111.439 453.705C111.308 453.715 111.176 453.736 111.044 453.768C109.677 454.087 108.744 455.482 107.495 456.103C104.859 457.415 101.674 457.398 98.8675 456.735C92.4846 455.221 87.1771 450.765 83.6807 445.321C79.4829 438.79 77.9427 431.103 77.9916 423.412C78.0494 414.758 79.4505 406.483 81.4009 398.127L81.5262 397.594C83.1677 390.633 84.196 375.336 84.6196 375.27ZM263.355 357.807C263.318 360.135 264.265 362.625 264.785 364.887C265.345 367.324 265.903 369.762 266.469 372.198L266.978 374.38C267.402 376.199 267.82 378.019 268.195 379.849C268.503 381.354 268.632 383.336 269.137 384.995C263.133 382.566 257.12 380.161 251.117 377.74C243.721 374.756 236.291 371.854 228.877 368.918C221.492 365.996 214.148 362.672 206.613 360.173C204.82 359.576 203.606 362.439 205.323 363.234C212.976 366.784 221.072 369.564 228.912 372.673L240.253 377.177C250.649 381.304 261.052 385.411 271.508 389.376C278.629 392.076 285.723 394.856 292.89 397.42C296.307 398.642 299.755 399.797 303.155 401.064C306.003 402.126 309.083 403.702 310.138 406.762C310.193 406.922 310.412 406.856 310.388 406.693C309.961 403.729 307.761 401.876 305.281 400.474C301.99 398.608 298.374 397.251 294.9 395.755L294.427 395.55C287.332 392.454 280.18 389.484 273.006 386.563C273.077 386.39 273.119 386.204 273.122 386.01L273.143 386.015C273.273 384.688 272.665 383.505 272.228 382.271L270.973 378.73C270.137 376.372 269.387 373.985 268.614 371.606C267.807 369.119 266.991 366.634 266.177 364.15C265.487 362.045 265.024 359.536 263.844 357.655C263.702 357.428 263.31 357.556 263.355 357.807ZM125.19 352.573L125.279 353.025C125.384 353.554 125.481 354.086 125.506 354.621C125.575 356.019 125.416 357.417 125.044 358.768C124.68 360.103 124.17 361.395 123.445 362.578C122.758 363.692 121.763 364.567 121.128 365.708C121.062 365.829 121.021 365.951 121.003 366.069C120.76 365.969 120.521 365.878 120.288 365.805C118.353 365.191 116.376 364.677 114.371 364.292L114.689 364.271L114.894 364.255C118.244 363.971 121.405 362.874 120.722 358.962C120.336 356.75 118.6 355.267 116.74 354.215L116.507 354.086C116.407 354.03 116.303 353.975 116.202 353.927C117.885 353.642 119.105 353.292 121.169 352.945C122.509 352.719 123.851 352.594 125.19 352.573ZM278.237 304.376C274.943 311.035 272.465 318.114 270.595 325.297C269.693 328.765 268.926 332.268 268.311 335.799L268.108 336.978L267.993 337.618C267.418 340.765 266.687 344.174 267.532 347.245C267.808 348.248 269.473 348.645 269.939 347.56C271.346 344.284 271.148 340.518 271.555 337.012C271.984 333.334 272.568 329.673 273.297 326.042C274.696 319.065 276.66 312.251 278.849 305.489L279.093 304.738C279.279 304.237 278.47 303.907 278.237 304.376ZM151.62 334.163C152.602 334.625 153.584 335.048 154.451 335.471C154.517 335.506 154.586 335.537 154.656 335.572C153.674 335.405 152.689 335.249 151.704 335.103C151.714 334.784 151.682 334.469 151.62 334.163ZM113.207 330.828C113.355 330.876 113.485 330.953 113.598 331.06L113.654 331.115C113.789 331.241 113.885 331.39 113.941 331.562C114.027 331.728 114.067 331.906 114.06 332.097L114.011 332.466C113.945 332.701 113.826 332.905 113.654 333.078L113.373 333.295C113.184 333.405 112.981 333.467 112.766 333.482L112.673 333.485L112.392 333.485C112.231 333.48 112.08 333.44 111.938 333.365C111.791 333.317 111.66 333.24 111.547 333.134L111.492 333.078C111.356 332.952 111.261 332.803 111.205 332.632C111.13 332.49 111.09 332.338 111.085 332.178L111.085 332.097L111.135 331.728C111.192 331.522 111.291 331.34 111.43 331.182L111.492 331.115L111.772 330.898C111.962 330.788 112.164 330.726 112.38 330.712L112.473 330.709H112.673C112.864 330.701 113.042 330.741 113.207 330.828ZM122.233 330.359C122.97 330.494 123.388 331.388 123.202 332.066C122.996 332.816 122.283 333.15 121.567 333.047L121.495 333.036C120.656 332.881 119.835 332.941 119.036 333.235C118.333 333.495 117.515 332.945 117.329 332.266C117.116 331.491 117.592 330.819 118.298 330.558C119.564 330.091 120.922 330.117 122.233 330.359ZM268.384 281.061C266.706 283.522 265.658 286.793 264.624 289.605L264.521 289.885C263.422 292.84 262.361 295.819 261.373 298.813C259.399 304.791 256.827 311.046 256.352 317.361C256.264 318.526 258.047 318.993 258.564 317.96C260.049 314.991 260.848 311.895 261.726 308.712C262.564 305.675 263.438 302.65 264.311 299.623C265.184 296.599 266.029 293.566 266.889 290.537C267.725 287.592 268.89 284.316 269.081 281.25C269.106 280.851 268.577 280.778 268.384 281.061ZM230.5 261.251C228.259 262.806 226.424 265.082 224.528 267.028C222.605 269.003 220.707 270.996 218.827 273.012C215.685 276.382 212.6 279.806 209.414 283.135C203.064 289.769 195.881 295.873 187.117 298.991C184.997 299.745 185.926 303.15 188.051 302.379C197.015 299.128 204.44 293.117 210.99 286.317C214.382 282.795 217.495 279.032 220.53 275.202C221.95 273.41 223.36 271.612 224.749 269.796L225.581 268.705C227.328 266.399 229.466 264.1 230.745 261.496C230.816 261.349 230.659 261.141 230.5 261.251Z" fill="black"/>
<path fill-rule="evenodd" clip-rule="evenodd" d="M127.663 137.186C127.794 136.433 126.758 135.871 126.358 136.634C123.448 142.18 122.283 148.603 121.252 154.729C120.211 160.919 119.523 167.135 119.485 173.419C119.456 178.253 119.894 183.143 120.716 187.98L120.616 188.324V188.324C120.432 188.957 120.245 189.589 120.057 190.22L119.773 191.167C119.224 192.984 118.704 194.811 118.14 196.624C116.963 200.408 115.723 204.203 114.205 207.866C112.723 211.439 110.922 214.886 108.78 218.107C106.716 221.212 103.44 223.838 101.986 227.286C101.479 228.488 102.228 230.077 103.628 229.885C103.719 229.995 103.858 230.075 104.046 230.092C105.133 230.187 106.152 230.096 107.237 229.994C107.842 229.937 107.841 229.107 107.237 229.05C106.776 229.007 106.327 228.969 105.879 228.943C108.981 227.1 111.193 223.503 112.963 220.558C115.236 216.773 116.954 212.639 118.353 208.458C119.791 204.165 120.809 199.783 121.627 195.333C121.721 194.821 121.81 194.308 121.896 193.795C122.93 198.2 124.261 202.524 125.838 206.68L126.059 207.259C129.696 216.71 134.621 226.251 142.813 232.498C143.185 232.781 143.565 233.05 143.947 233.313L143.481 233.581C143.018 233.847 142.561 234.101 142.114 234.31C140.458 235.085 138.662 235.675 136.884 236.093C133.213 236.958 129.357 236.71 125.611 236.83C124.383 236.87 123.684 238.716 124.94 239.316C129.077 241.291 133.545 240.872 137.815 239.482C139.928 238.794 141.911 237.831 143.746 236.574C144.504 236.054 145.385 235.413 146.128 234.672C154.321 239.267 164.504 239.781 173.622 238.138C178.361 237.283 182.953 235.724 186.993 233.055C190.879 230.489 193.649 227.24 195.627 223.031C195.802 222.658 195.314 222.193 195.015 222.558C188.803 230.122 178.113 233.278 168.708 233.878C163.69 234.199 158.557 233.932 153.732 232.427C149.156 230.999 145.229 228.381 141.95 224.899C135.304 217.841 131.322 208.24 128.462 199.103C125.35 189.163 123.869 178.705 123.563 168.302C123.408 163.032 123.603 157.717 124.429 152.505C125.248 147.336 126.768 142.333 127.663 137.186ZM220.799 92.4084C220.359 92.1842 220.049 92.7676 220.422 93.0546C228.168 99.01 235.105 106.561 240.72 114.554C251.075 129.295 257.716 146.353 260.774 164.078C262.579 174.545 263.051 185.171 262.87 195.778C262.799 199.992 262.559 204.193 262.292 208.395L261.99 213.052C261.85 215.223 261.734 217.374 261.824 219.555L261.849 220.059C261.992 222.596 261.743 225.154 262.378 227.629C262.704 228.899 264.489 229.099 265.136 227.991C265.263 227.774 265.381 227.55 265.496 227.324C267.012 229.802 268.974 232.017 271.152 233.996C270.111 233.774 269.06 233.632 267.981 233.761C266.271 233.967 264.737 234.629 263.651 235.79C262.573 235.303 261.465 234.967 260.191 234.96C259.253 234.956 258.549 236.068 259.084 236.894C260.153 238.543 261.643 239.468 263.337 240.381C264.537 241.029 265.97 240.475 266.413 239.195L266.439 239.117C266.937 237.497 269.59 237.759 270.842 238.009L271.211 238.085C273.541 238.571 275.816 239.193 278.19 238.551C279.721 238.137 280.121 235.827 278.645 235.06C273.982 232.637 270.068 229.384 266.045 226.117C266.933 223.934 267.437 221.494 268.019 219.274C268.838 216.15 269.077 212.788 269.372 209.578C269.934 203.475 270.149 197.306 270.088 191.18C269.884 170.487 266.354 149.73 257.337 130.992C253.387 122.784 248.197 115.188 242.062 108.465C235.964 101.782 228.842 96.5041 220.799 92.4084ZM228.018 193.747C228.257 193.414 227.79 192.974 227.463 193.19C220.373 197.859 215.453 204.948 212.278 212.735C209.136 220.445 207.206 229.889 210.305 237.929C210.799 239.21 213.161 239.685 213.403 237.929C214.484 230.088 214.651 222.235 217.027 214.611C219.383 207.054 223.413 200.134 228.018 193.747ZM233.515 219.204C233.476 219.065 233.251 219.089 233.26 219.238C233.438 222.004 233.558 224.802 233.905 227.552C234.074 228.889 234.297 230.216 234.486 231.55C234.681 232.917 234.652 234.298 235.445 235.465C236.496 237.013 239.288 236.578 239.194 234.447C239.129 232.978 238.456 232.035 237.825 230.745C237.42 229.918 237.067 229.063 236.727 228.204L236.221 226.916C235.217 224.361 234.256 221.85 233.515 219.204ZM246.211 211.879C246.168 211.661 245.818 211.714 245.828 211.93C246.017 215.844 246.458 219.714 247.147 223.571C247.462 225.328 247.828 227.076 248.216 228.82L248.384 229.566C248.798 231.402 249.066 233.56 249.995 235.2C250.923 236.839 253.128 235.649 252.842 233.997C252.508 232.068 251.328 230.128 250.641 228.275C250.008 226.565 249.454 224.825 248.936 223.076C247.847 219.395 246.954 215.645 246.211 211.879ZM222.569 222.744L222.486 222.659C222.164 222.308 221.683 222.542 221.529 222.913C220.898 224.434 221.214 226.226 221.259 227.84L221.267 228.192C221.3 229.827 221.277 231.359 222.017 232.868C222.915 234.701 225.281 233.563 225.464 231.932C225.664 230.153 224.824 228.411 224.282 226.745C223.938 225.686 223.687 224.584 223.163 223.623C223.611 223.7 224.058 223.855 224.468 223.967C224.651 224.017 224.721 223.747 224.545 223.685C223.868 223.444 223.104 223.264 222.569 222.744V222.744ZM128.184 228.14C128.401 227.897 128.131 227.574 127.85 227.705C124.478 229.284 121.325 230.311 117.605 230.647C115.993 230.793 115.983 233.332 117.605 233.184C121.487 232.834 125.556 231.089 128.184 228.14ZM246.806 174.803C243.838 168.109 234.447 162.171 228.15 168.396C228.032 168.512 228.152 168.766 228.323 168.695C232.24 167.068 237.035 169.137 239.746 172.098C241.897 174.446 243.189 177.461 243.446 180.638C243.702 183.819 242.944 187.139 240.837 189.599C239.731 190.889 238.239 192.111 236.482 192.266C234.709 192.423 233.231 191.171 231.554 190.83C230.29 190.574 229.336 191.369 229.212 192.618C228.939 195.375 231.677 197.225 234.05 197.674C236.602 198.157 239.207 197.63 241.407 196.243C248.511 191.764 250.043 182.104 246.806 174.803ZM180.154 109.192C178.863 107.956 176.667 109.185 177.144 110.95C178.156 114.704 180.309 117.878 182.694 120.89C184.989 123.788 187.448 126.573 190.083 129.165C192.7 131.74 195.544 134.123 198.533 136.251L199.434 136.891C201.552 138.388 203.796 139.902 206.167 140.98C206.74 145.925 207.86 150.804 209.555 155.476C211.187 159.974 213.264 164.321 215.781 168.39L216.142 168.972C218.455 172.688 221.235 176.84 225.16 178.877C225.277 178.938 225.395 178.976 225.512 178.998C224.634 179.584 223.892 180.323 223.451 181.383C222.968 182.544 223.978 183.64 224.946 184.023C226.994 184.834 228.991 183.461 230.832 181.997C230.909 182.173 230.983 182.35 231.046 182.529C231.457 183.698 231.579 184.893 232.64 185.669C233.144 186.038 233.766 185.708 234.083 185.29C235.124 183.92 234.046 182.052 233.131 180.932C233.005 180.777 232.874 180.63 232.739 180.489C233.126 180.204 233.503 179.951 233.869 179.757C236.018 178.616 239.204 178.414 240.442 180.94C240.537 181.134 240.835 181.034 240.835 180.833C240.832 177.73 237.661 176.045 234.91 175.816C232.9 175.649 230.955 176.356 229.146 177.178L228.808 177.334C228.135 177.647 227.441 177.943 226.777 178.274C226.885 177.988 226.884 177.652 226.714 177.319C224.633 173.245 221.06 169.932 218.483 166.16C215.927 162.416 213.733 158.411 211.982 154.228C210.283 150.168 208.951 145.981 208.02 141.71C208.326 141.773 208.672 141.499 208.65 141.178C208.598 140.402 208.219 139.702 207.554 139.404C206.821 135.387 206.446 131.302 206.468 127.183C206.47 126.864 206.008 126.875 205.981 127.183C205.657 130.845 205.631 134.542 205.904 138.218C204.172 136.621 202.346 135.103 200.679 133.463C198.17 130.996 195.743 128.464 193.402 125.837C191.014 123.157 188.756 120.379 186.691 117.439L185.611 115.898C183.95 113.534 182.244 111.196 180.154 109.192ZM183.411 82.809C169.164 81.9175 153.949 83.6728 141.152 90.3771C134.124 94.0588 128.691 99.6234 124.81 106.548C122.492 110.684 120.734 115.263 120.068 119.971C119.384 124.808 120.187 129.121 123.268 132.966C124.492 134.493 126.553 132.788 126.251 131.225C124.407 121.667 127.399 112.222 132.704 104.309C140.403 92.8258 153.849 87.7247 166.94 85.4492C173.371 84.3318 179.895 83.8647 186.42 84.092C191.395 84.2655 196.498 84.7302 201.219 86.4081C201.418 86.4789 201.497 86.168 201.305 86.0947C195.674 83.9386 189.388 83.1831 183.411 82.809ZM162.282 104.423C161.548 103.957 160.651 104.435 160.399 105.192C159.51 107.857 161.373 111.379 162.619 113.687C164.03 116.297 165.843 118.738 167.716 121.031C171.463 125.617 176.387 129.443 181.79 131.848C182.121 131.996 182.507 131.595 182.203 131.312C178.022 127.409 174.231 123.224 170.95 118.53C169.337 116.223 167.993 113.79 166.708 111.29C165.559 109.053 164.478 105.819 162.282 104.423ZM138.321 107.564C137.852 105.923 135.183 106.202 135.293 107.975C135.579 112.553 137.733 117.149 140.075 121.029C142.485 125.024 145.538 128.585 149.037 131.66C149.21 131.811 149.446 131.578 149.29 131.407C146.27 128.093 143.832 124.319 142.026 120.212C140.222 116.11 139.541 111.83 138.321 107.564ZM151.589 106.822C151.079 105.396 148.635 105.502 148.785 107.203C149.197 111.88 151.935 116.782 154.471 120.645C157.162 124.744 160.597 128.355 164.436 131.388C164.58 131.501 164.783 131.313 164.643 131.181C161.194 127.924 158.398 124.161 156.184 119.965C155.055 117.824 154.107 115.594 153.358 113.291C152.666 111.16 152.341 108.923 151.589 106.822Z" fill="black"/>
<path fill-rule="evenodd" clip-rule="evenodd" d="M147.823 207.149C150.177 208.075 152.959 208.294 155.389 207.505C157.712 206.75 159.822 205.071 161.099 202.959C162.236 201.079 162.711 198.846 162.039 196.621C162.007 196.515 161.903 196.447 161.802 196.42C161.252 196.921 160.913 197.418 160.573 197.913C160.001 198.747 159.428 199.573 158.64 200.287C157.495 201.324 155.952 202.167 154.42 202.445C152.921 202.718 151.386 202.477 150.044 201.759C149.227 201.323 148.567 200.739 147.913 200.153C147.201 199.515 146.501 198.867 145.52 198.507C144.735 198.218 143.909 198.462 143.275 198.945C142.594 199.464 142.104 200.277 142.131 201.127C142.173 202.443 142.749 203.542 143.585 204.448C144.715 205.673 146.313 206.556 147.823 207.149ZM150.618 174.337C147.998 175.93 144.007 179.645 146.825 183.594C150.142 187.075 154.918 183.083 157.271 181.278C159.454 179.878 161.906 183.477 159.881 185.111C142.875 197.707 135.973 174.754 149.293 172.464C150.76 172.212 151.304 173.845 150.618 174.337ZM178.171 152.267C174.6 152.096 171.454 153.7 168.052 154.429C164.907 155.102 161.81 154.698 158.752 153.841C153.789 152.449 151.737 160.049 156.632 161.531C160.197 162.609 163.951 162.684 167.609 162.128C170.858 161.634 173.582 160.051 176.68 159.13C179.339 158.34 182.466 158.668 185.274 159.04L186.364 159.187C187.984 159.405 189.613 159.624 191.217 159.941C192.609 160.216 193.998 160.72 195.419 160.778C195.58 160.785 195.717 160.575 195.615 160.436C193.965 158.169 190.784 156.381 188.255 155.188L188.083 155.108C184.96 153.652 181.648 152.432 178.171 152.267ZM179.479 168.978L179.479 168.9C179.474 166.687 178.186 161.634 175.001 161.634C173.012 161.634 171.804 165.073 171.595 168.618L171.588 168.762C171.495 170.966 172.1 175.783 175.001 175.783C177.933 175.783 179.448 171.221 179.479 168.978V168.978ZM132.594 168.978L132.593 168.9C132.598 166.687 133.887 161.634 137.071 161.634C139.011 161.634 140.207 164.903 140.46 168.352L140.477 168.618C140.603 170.747 140.038 175.783 137.071 175.783C134.139 175.783 132.624 171.221 132.594 168.978V168.978ZM132.643 149.571L132.415 149.576C128.693 149.705 124.865 151.911 123.872 155.615C123.82 155.808 124.057 155.937 124.198 155.805C127.258 152.939 131.373 155.678 134.437 157.113L135.563 157.633C139.513 159.472 144.006 161.633 148.392 160.263C150.475 159.612 151.798 157.471 151.204 155.308C150.675 153.384 148.353 151.767 146.342 152.462L146.251 152.495C144.617 153.12 142.608 152.487 140.921 151.862L139.535 151.341C137.306 150.495 135.066 149.548 132.643 149.571V149.571Z" fill="black"/>
<path fill-rule="evenodd" clip-rule="evenodd" d="M119.571 179.227C123.783 183.581 130.814 184.83 136.417 182.495C150.805 176.481 143.763 157.724 132.667 152.687C131.28 152.342 129.429 151.522 127.741 151.336C127.588 151.261 127.256 151.477 126.853 151.272C114.618 152.639 111.831 171.64 119.571 179.227M165.978 180.341C170.702 186.609 179.484 188.543 186.659 185.629C200.834 180.045 195.807 163.412 186.108 156.891C165.622 149.19 157.162 168.785 165.978 180.341M196.706 166.454C196.72 166.448 196.733 166.445 196.746 166.438C196.671 166.405 196.596 166.372 196.522 166.339C196.546 166.402 196.573 166.465 196.596 166.529C196.633 166.503 196.665 166.474 196.706 166.454M109.819 159.679C110.976 159.681 112.647 159.871 113.604 160.674C115.965 152.709 124.68 145.337 132.259 150.712C138.227 152.632 142.656 156.891 145.173 162.552C149.711 159.852 156.848 161.005 160.783 164.576C163.361 156.056 169.704 153.073 177.254 152.632C185.495 151.282 193.709 159.288 196.272 165.711C198.403 165.469 201.587 164.79 203.592 166.106C216.603 162.692 239.35 160.811 241.995 162.707C243.881 163.431 244.915 167.882 242.282 168.122C239.988 167.796 242.55 164.86 240.237 164.54C227.914 163.776 215.952 166.259 203.759 167.3C202.671 168.765 199.153 169.255 197.277 168.667C200.232 179.562 193.853 186.975 184.294 189.195C169.493 192.596 156.616 179.351 160.486 165.574C156.003 163.342 150.845 163.438 145.961 164.613C154.123 194.663 105.746 193.315 113.302 161.704C108.273 164.206 107.181 160.184 109.819 159.679" fill="#111111"/>
</svg>
