<svg width="395" height="532" viewBox="0 0 395 532" fill="none" xmlns="http://www.w3.org/2000/svg">
<path fill-rule="evenodd" clip-rule="evenodd" d="M249.388 248.309L249.016 248.165C243.979 246.197 238.738 243.021 233.259 244.194C233.066 244.122 229.501 244.849 227.06 245.31L229.377 247.73L233.467 248.517C219.357 271.812 202.67 283.46 183.405 283.46C164.139 283.46 149.521 271.812 139.548 248.517L138.188 248.14C138.02 248.179 137.841 248.235 137.649 248.309C134.432 249.553 128.151 255.113 125.072 256.671C112.691 262.934 102.672 272.313 96.7503 284.978C93.734 291.429 91.4814 298.203 89.1706 304.93L88.9313 305.626C86.3687 313.066 83.8426 320.52 81.5389 328.044C79.3698 335.129 77.3979 342.278 75.7878 349.512L75.5705 350.499C74.7845 354.109 73.5273 358.163 73.8191 361.883C73.9296 363.291 74.2928 364.497 74.8292 365.591L102.736 375.637L89.4406 466.349C101.619 466.871 113.809 467.006 126.01 466.789C143.087 466.485 160.155 465.742 177.228 465.298C193.77 464.868 210.286 465.051 226.81 465.876L231.006 466.091C247.176 466.899 263.218 467.312 279.381 465.741L280.483 465.632V465.632L280.483 452.363L274.805 378.476L303.578 373.058L331.823 359.334C332.677 358.481 333.361 357.485 333.742 356.29C334.404 354.214 333.915 352.114 333.373 350.076L333.243 349.59C332.195 345.68 331.007 341.807 329.684 337.98C324.238 322.227 316.588 307.155 306.729 293.707C296.952 280.37 285.091 268.584 271.243 259.507C264.376 255.006 257.066 251.218 249.388 248.309Z" fill="#333333"/>
<path fill-rule="evenodd" clip-rule="evenodd" d="M238.583 243.812C236.819 243.735 235.02 244.021 233.26 244.194C233.106 244.209 233.048 244.446 233.221 244.482C236.371 245.14 239.486 246.041 242.58 246.956L243.905 247.348C247.394 248.38 250.78 249.445 254.157 250.822C260.889 253.567 267.281 257.271 273.165 261.526C295.822 277.914 312.219 302.724 322.567 328.412C325.378 335.388 327.759 342.538 329.687 349.808C330.156 351.576 330.598 353.352 331.016 355.133C331.139 355.656 331.674 356.993 331.381 357.528C331.121 358 330.112 358.292 329.644 358.537L328.062 359.358C324.975 360.95 319.834 363.565 319.319 363.82L318.515 364.216C305.364 370.666 291.312 376.135 276.513 376.513L276.397 375.249V375.249C275.737 368.26 274.871 361.233 272.981 354.458C272.88 354.094 272.417 354.217 272.374 354.54C271.321 362.561 271.658 370.643 272.025 378.701C272.676 392.971 273.54 407.234 274.307 421.499C274.692 428.635 275.188 435.766 275.637 442.899C276.086 450.045 276.231 457.363 277.257 464.451C277.486 466.03 279.335 466.89 280.736 466.723C282.286 466.538 283.478 465.173 283.486 463.607C283.504 459.478 282.986 455.301 282.698 451.182C282.424 447.269 282.13 443.358 281.829 439.447C280.729 425.173 279.463 410.916 278.292 396.649C277.877 391.588 277.429 386.532 276.968 381.477C292.645 380.971 307.291 375.162 321.263 368.375C321.466 372.968 321.954 377.554 322.427 382.128C323.747 394.894 324.911 407.655 325.782 420.461C326.222 426.928 326.542 433.404 326.821 439.88C326.958 443.063 327.069 446.247 327.155 449.432C327.184 450.493 327.21 451.555 327.233 452.616L327.28 455.049C327.319 456.59 327.476 458.017 328.772 459.139C330.088 460.278 331.867 460.339 333.17 459.139C334.914 457.532 334.605 455.343 334.554 453.185C334.511 451.365 334.459 449.545 334.399 447.726C334.279 444.086 334.125 440.448 333.938 436.812C333.284 424.098 331.976 411.435 330.268 398.823L329.601 393.954C328.356 384.903 326.988 375.647 324.204 366.928C325.288 366.389 326.369 365.846 327.446 365.3C329.356 364.333 331.331 363.425 333.187 362.357C334.66 361.51 335.931 360.348 336.341 358.634C336.798 356.723 336.099 354.634 335.634 352.77L335.594 352.606C335.138 350.73 334.648 348.861 334.13 347.001C332.031 339.457 329.436 332.06 326.399 324.843C320.318 310.395 312.469 296.67 302.881 284.26C294.251 273.089 284.055 262.958 272.106 255.36C266.264 251.646 260.039 248.596 253.455 246.439C250.378 245.431 247.03 244.555 243.808 244.194C242.07 244 240.329 243.888 238.583 243.812ZM207.323 220.919C205.226 218.666 201.061 220.997 202.068 223.979C204.435 230.996 208.206 237.396 214.091 242.007C219.623 246.341 226.219 249.156 233.323 248.556C233.377 248.551 233.425 248.537 233.467 248.517L232.855 249.348C228.049 255.851 222.978 262.265 216.867 267.581C204.416 278.412 187.463 284.254 171.093 280.099C158.214 276.829 146.867 266.641 143.529 253.656C144.008 253.871 144.576 253.944 145.2 253.808C147.871 253.228 150.514 250.419 152.236 248.405C154.099 246.226 155.554 243.873 156.62 241.213C158.572 236.346 159.197 230.079 156.533 225.364C156.204 224.782 155.445 225.108 155.381 225.676L155.279 226.561C154.766 230.98 154.126 235.255 152.043 239.283C151.024 241.254 149.802 243.178 148.315 244.829C147.519 245.712 146.656 246.556 145.725 247.297C144.817 248.018 143.719 248.54 142.905 249.368L142.756 249.527L142.752 249.498C142.546 247.749 141.32 246.978 140.12 247.027C138.959 247.073 137.595 247.585 137.067 247.829L137.017 247.853C128.916 251.743 121.455 256.814 114.434 262.439C99.9146 274.073 89.0355 289.282 83.7645 307.191C81.1774 315.981 79.6928 325.039 78.1258 334.053L77.1611 339.577C75.6984 347.899 74.0646 356.385 70.7628 364.127C69.9087 366.13 70.5671 368.008 72.6613 368.796C75.2763 369.779 77.9009 370.731 80.5296 371.672C79.2388 377.211 78.4517 382.943 77.4846 388.51C75.4289 400.344 72.9101 412.101 70.7503 423.919C69.6461 429.962 68.6498 436.024 67.5467 442.067C67.0156 444.978 66.4613 447.884 65.9222 450.793C65.6318 452.361 65.3685 453.935 65.0914 455.505L65.0431 455.766C64.8844 456.595 64.6849 457.452 64.9127 458.281C65.1725 459.227 65.9104 459.895 66.5692 460.573C67.1114 461.131 67.895 461.134 68.5593 460.83L68.7778 460.729C69.9643 460.174 70.8937 459.62 71.3147 458.281C71.5811 457.433 71.6772 456.478 71.8513 455.605C72.1854 453.93 72.5021 452.254 72.8011 450.572C73.3992 447.208 73.9834 443.842 74.5537 440.473L75.0863 437.319C76.9146 426.446 78.6508 415.508 79.5285 404.521C79.9179 399.647 80.3305 394.777 80.747 389.906L81.0597 386.252C81.4552 381.628 81.9384 376.887 82.0067 372.2L83.5787 372.759V372.759L91.2488 375.471V375.471C93.1504 376.143 95.5718 377.521 97.6185 377.27C98.6203 377.148 99.3842 376.832 99.9739 376.259C99.2676 386.23 98.3116 396.184 97.0374 406.087C95.8781 415.098 94.5928 424.097 93.0748 433.055C92.3231 437.491 91.5505 441.922 90.7114 446.342C90.292 448.552 89.8591 450.76 89.413 452.965C89.1906 454.065 88.9259 455.166 88.7525 456.275C88.5541 457.545 88.9037 458.327 89.6131 459.372C90.1956 460.23 91.3608 460.67 92.3054 460.078C93.5563 459.293 94.2088 458.613 94.5769 457.182C94.9113 455.884 95.1146 454.527 95.3733 453.212C95.851 450.783 96.3127 448.352 96.7585 445.917C97.6906 440.825 98.5499 435.721 99.3172 430.602C102.021 412.567 103.737 394.381 104.604 376.166C105.031 367.179 105.163 358.184 105.087 349.187C105.049 344.576 104.898 339.951 104.572 335.351C104.242 330.695 103.555 326.132 102.942 321.521C102.92 321.358 102.691 321.349 102.681 321.521C102.391 326.691 101.936 331.855 101.713 337.039C101.5 341.985 101.407 346.939 101.237 351.887C101.015 358.391 100.707 364.899 100.298 371.402C99.559 370.593 98.4448 370.127 97.3298 370.309C95.7147 369.97 93.976 369.122 92.4362 368.607L86.6312 366.668V366.668C83.5796 365.648 80.5279 364.635 77.4655 363.653C80.2035 354.438 82.0791 345.086 83.6807 335.598L84.3949 331.33C85.8088 322.931 87.3332 314.527 89.8941 306.393C92.5864 297.842 96.6152 289.891 101.96 282.691C107.228 275.596 113.638 269.348 120.237 263.504C125.887 258.501 131.931 253.984 137.694 249.118C137.633 249.441 137.62 249.796 137.674 250.186C138.899 259.157 143.577 267.511 150.096 273.724C163.193 286.207 182.58 288.797 199.343 282.944C215.558 277.281 229.894 263.871 234.959 247.277C235.046 246.994 234.665 246.881 234.513 247.089C234.232 247.475 233.949 247.86 233.667 248.245C233.686 248.092 233.606 247.925 233.418 247.852C227.508 245.57 221.705 242.332 217.275 237.752C215.116 235.52 213.231 232.991 211.744 230.263C211.031 228.957 210.391 227.603 209.881 226.205L209.751 225.844C209.132 224.092 208.615 222.306 207.323 220.919Z" fill="black"/>
<path fill-rule="evenodd" clip-rule="evenodd" d="M117.115 151.07C117.509 156.057 119.617 160.544 121.383 165.191C121.19 162.441 121.28 159.58 121.088 156.724C123.141 138.844 147.396 134.147 156.811 120.627C156.455 119.863 156.326 113.037 157.73 114.957C163.177 138.848 195.547 150.834 217.709 150.88C219.385 149.496 222.709 150.958 222.081 153.719C218.767 168.284 218.042 183.521 220.17 198.32C221.173 203.546 221.342 209.835 224.47 214.338C227.789 217.503 223.798 217.757 221.602 217.042C220.99 217.905 220.343 218.744 219.695 219.579C222.85 221.763 227.453 220.572 230.718 219.117C234.351 217.19 236.427 213.455 239.059 210.461C240.496 207.561 242.675 205.895 245.477 204.325C261.064 193.704 260.662 170.407 258.424 153.568C251.904 103.462 196.429 79.2849 151.908 96.6921C127.865 102.856 116.6 127.777 117.115 151.07M262.125 122.702C271.633 113.21 269.719 96.6147 263.742 85.6714C251.766 62.8065 217.749 63.5495 213.675 91.2641C231.023 97.2216 245.66 109.996 254.375 126.127C257.213 125.823 259.956 124.556 262.125 122.702M116.569 130.014C123.39 88.6562 175.474 81.1995 209.413 89.9048C210.038 81.9491 215.038 74.9196 221.277 70.2954C247.778 51.1781 279.152 83.636 272.871 111.61C271.744 120.084 264.987 129.754 255.533 128.304C267.416 150.849 272.06 196.311 245.877 210.365C243.351 212.167 242.932 215.827 240.988 218.174C237.832 221.959 224.348 226.781 217.054 222.917C215.32 225.05 205.476 231.537 206.194 225.178C206.918 223.465 209.155 223.018 210.645 222.171C213.777 220.438 216.497 217.995 218.635 215.126C211.921 196.148 212.432 175.016 216.194 155.475C193.717 154.341 167.269 144.465 157.356 122.777C150.654 138.56 129.871 140.591 124.621 158.237C124.304 167.506 126.287 176.636 124.849 185.909C124.427 194.992 119.638 204.014 122.407 213.037C130.142 232.713 157.989 235.6 176.386 234.777C180.756 234.416 184.383 232.048 187.976 229.801C190.129 228.776 192.692 230.919 191.373 233.206C186.335 240.253 175.975 240.869 168.02 240.615C147.373 239.388 117.535 233.273 116.464 207.715C117.144 197.583 121.11 187.887 121.4 177.653C120.55 176.659 120.503 175.278 120.291 174.021C119.371 169.564 117.361 165.429 116.356 160.986C114.107 150.899 114.497 140.122 116.569 130.014" fill="#111111"/>
<path fill-rule="evenodd" clip-rule="evenodd" d="M148.808 210.178C151.026 210.196 153.518 209.364 155.185 208.712L155.62 208.54C157.062 207.962 158.544 207.298 159.649 206.184C160.002 205.823 160.379 205.413 160.57 204.982C160.682 204.73 160.728 204.469 160.62 204.209C160.22 204.17 159.842 204.119 159.483 204.053C159.312 204.022 159.149 203.99 159.023 203.989C158.561 203.986 158.104 204.045 157.647 204.103C157.58 204.111 157.514 204.119 157.448 204.128C157.092 204.172 156.738 204.219 156.385 204.267C155.357 204.405 154.334 204.542 153.291 204.592C152.538 204.628 151.749 204.586 150.952 204.542C148.886 204.43 146.75 204.276 145.158 205.724C144.742 206.103 144.567 206.58 144.567 207.067C144.567 207.658 144.816 208.26 145.195 208.732C146.055 209.801 147.377 210.166 148.808 210.178ZM136.718 191.535C137.683 192.983 139.29 193.914 141.492 193.813C145.868 193.613 151.092 191.961 154.757 189.572C155.712 188.95 156.331 187.956 156.442 186.891L156.64 184.996L157.707 186.574C157.818 186.738 157.93 186.902 158.042 187.066C158.351 187.518 158.66 187.97 158.951 188.433C160.07 190.21 161.095 192.005 162.026 193.888C162.685 195.221 163.167 196.713 163.65 198.217C164.466 200.757 165.254 203.255 166.996 205.041C167.26 205.311 167.665 205.407 168.036 205.359C168.363 205.317 168.683 205.157 168.84 204.838C170.922 200.601 168.121 195.496 165.849 191.947L165.609 191.576C163.502 188.369 160.061 184.124 156.12 183.547L155.669 184.267L155.013 183.83C153.941 183.114 152.525 183.147 151.285 183.707L150.045 184.267C147.737 185.303 145.46 186.259 142.963 186.783C142.781 186.821 142.599 186.856 142.418 186.89C142.247 186.921 142.074 186.95 141.901 186.977C141.938 186.807 141.978 186.637 142.018 186.468C142.06 186.289 142.103 186.11 142.149 185.931C142.196 185.747 142.246 185.563 142.297 185.381C142.497 184.652 142.723 183.93 142.991 183.223C143.999 180.565 145.609 178.079 147.175 175.708L147.359 175.429C147.584 175.089 147.83 174.735 148.084 174.368C149.306 172.609 150.66 170.699 150.756 168.782C149.135 168.884 147.778 169.892 146.584 170.769C144.945 171.972 143.426 173.348 142.048 174.843C139.376 177.743 136.977 181.45 135.925 185.283C135.323 187.477 135.588 189.839 136.718 191.535V191.535ZM179.478 169.672L179.479 169.594C179.474 167.381 178.185 162.328 175.001 162.328C173.011 162.328 171.804 165.767 171.595 169.312L171.587 169.456C171.495 171.66 172.099 176.477 175.001 176.477C177.933 176.477 179.448 171.915 179.478 169.672V169.672ZM132.593 168.978L132.593 168.9C132.598 166.687 133.886 161.634 137.071 161.634C139.01 161.634 140.207 164.903 140.46 168.352L140.477 168.618C140.603 170.747 140.037 175.783 137.071 175.783C134.139 175.783 132.624 171.221 132.593 168.978V168.978ZM168.753 154.696C169.175 154.745 169.595 154.81 170.015 154.877C171.239 155.072 172.457 155.306 173.667 155.579C175.964 156.098 178.243 156.753 180.479 157.493C182.57 158.186 184.63 158.97 186.688 159.753C186.798 159.794 186.908 159.836 187.018 159.878C187.745 160.155 188.469 160.464 189.196 160.775C190.302 161.248 191.413 161.724 192.547 162.083C189.56 157.952 184.957 154.89 180.528 152.699C178.001 151.449 175.32 150.442 172.624 149.616L171.122 149.164C168.911 148.512 166.493 147.909 164.415 149.21C163.594 149.725 163.07 150.525 162.904 151.39C162.743 152.238 162.927 153.148 163.513 153.907C164.023 154.568 164.659 154.944 165.335 155.073C166.082 155.216 166.873 155.059 167.594 154.675C168.171 154.632 168.341 154.647 168.512 154.666L168.753 154.696ZM135.487 155.116C136.967 154.794 138.432 154.665 139.951 154.711C140.637 154.732 141.302 154.838 141.964 154.945C142.993 155.111 144.018 155.282 145.127 155.081C145.705 154.976 146.198 154.637 146.578 154.195C147.023 153.679 147.317 153.019 147.412 152.391C147.509 151.743 147.412 151.176 147.172 150.675C146.889 150.084 146.412 149.585 145.835 149.149C144.09 147.827 141.096 148.145 139.036 148.412C137.001 148.677 134.976 149.308 133.177 150.311C131.402 151.301 129.859 152.634 128.655 154.264C127.64 155.638 127.162 157.219 126.668 158.829C128.99 156.88 132.545 155.755 135.487 155.116Z" fill="#111111"/>
</svg>
