<svg width="395" height="532" viewBox="0 0 395 532" fill="none" xmlns="http://www.w3.org/2000/svg">
<path fill-rule="evenodd" clip-rule="evenodd" d="M221.852 234.279C219.06 231.364 214.681 229.625 210.535 229.722L210.341 229.728L208.933 229.791L209.874 234.408L209.921 234.627L210.113 235.428L210.368 236.478L210.459 236.863L210.555 237.29C210.57 237.36 210.585 237.428 210.599 237.496L210.641 237.698L211.042 239.66L210.968 239.834L210.989 240.28C211.051 241.891 210.704 242.776 209.94 243.06L209.879 243.082L209.443 243.221L209.087 243.994C208.268 245.76 207.504 247.303 206.72 248.757C204.433 252.995 201.704 257.232 198.558 261.49C195.568 265.535 192.454 269.397 189.216 273.064C187.761 274.713 186.223 276.368 184.586 278.054L183.177 279.497L182.729 279.951L182.428 280.252L182.052 280.62L181.51 281.136L181.117 281.523L180.99 281.644C180.83 281.793 180.706 281.894 180.594 281.965L180.553 281.991L180.429 282.064L173.897 288.937L171.59 290.206L170.494 290.813L170.272 290.371L170.228 290.229L167.8 284.896L166.317 281.629C163.275 274.909 160.907 269.562 158.743 264.472L158.473 263.837L157.675 261.943L157.252 260.932C155.317 256.293 153.888 252.713 152.609 249.235L152.427 248.739L152.158 247.996L151.757 246.875L151.685 246.684C151.337 245.794 152.191 242.56 153.031 240.788L153.079 240.69L153.298 240.25L153.534 239.787C154.09 238.702 154.493 237.498 154.831 236.039C154.886 235.803 154.938 235.566 154.986 235.326L155.057 234.965L155.101 234.728L155.164 234.396L155.253 233.921L153.372 233.606L152.339 233.438L151.889 233.367C151.306 233.277 150.787 233.203 150.298 233.141L150.117 233.118L149.789 233.08L149.778 233.144L149.107 233.211L148.608 233.262C146.153 233.522 144.26 233.808 142.915 234.125L142.783 234.157L142.542 234.218L142.433 234.247C141.21 234.576 140.267 235.288 139.521 236.337C139.01 237.057 138.678 237.747 138.153 239.053L137.964 239.525L137.339 241.071C137.266 241.26 137.153 241.561 136.999 241.974L136.469 243.419L133.809 250.767L131.087 252.2C129.822 252.862 128.897 253.339 128.44 253.565L128.278 253.644L128.162 253.697L127.224 254.069L127.324 254.362L127.211 254.427C116.005 260.875 107.364 270.795 100.636 283.964L100.433 284.365L100.225 284.779C94.8628 295.506 91.0214 307.477 87.2704 323.459L87.0385 324.453L86.8559 325.243L85.878 329.508C82.2038 345.612 79.6788 357.62 77.5893 369.402L77.4536 370.171L77.1053 372.172C74.4813 387.423 72.2841 402.535 70.5262 417.5L70.2344 420.018C69.5008 426.448 68.8381 433.095 68.1191 441.076L68.0229 442.149L67.7062 445.734C67.3692 449.597 67.0612 453.453 66.7824 457.3L66.6453 459.222L66.3639 463.403L66.1985 465.786L66.1785 466.108L66.1115 467.35L66.093 467.641C66.0677 468.015 66.0393 468.33 66.0032 468.621L65.9747 468.835L65.9428 469.043C65.85 469.612 65.6668 470.122 65.3633 470.691L65.2849 470.835L64.7641 471.766L65.7082 472.264C70.6301 474.858 80.3209 475.999 93.615 476.058L94.019 476.06H94.8502C101.31 476.056 108.156 475.807 115.3 475.381L116.916 475.282L118.264 475.196C118.845 475.158 119.41 475.12 119.996 475.079L120.896 475.016L124.652 474.741C141.549 473.122 159.268 473.149 178.792 474.611C229.694 477.397 273.63 476.222 314.925 470.056L316.175 469.867L317.097 469.717L317.646 469.625C322.027 468.877 324.777 467.918 326.923 465.906L327.036 465.799L327.129 465.708L327.17 465.708C329.331 465.699 331.309 464.285 332.043 462.199L332.081 462.087L332.13 461.931L332.163 461.776C332.197 461.627 332.24 461.465 332.292 461.288L332.332 461.152L332.674 460.034L331.524 459.824C331.425 459.806 331.322 459.737 331.222 459.592L331.127 459.455L330.961 459.225L330.561 458.676C330.134 458.078 329.924 457.703 329.82 457.325C329.729 456.991 329.694 456.563 329.704 455.968L329.712 455.677L329.757 454.622C329.76 454.538 329.762 454.464 329.763 454.392L329.765 454.286L329.765 452.801L329.762 451.169C329.759 450.457 329.755 449.762 329.75 449.08L329.74 448.066L329.731 447.249C329.676 442.728 329.543 438.211 329.333 433.702C328.923 424.897 328.219 416.105 327.223 407.346C325.167 389.264 322.017 371.726 317.733 354.779L317.303 353.086C312.67 334.974 308.203 321.011 302.526 308.098C295.306 291.676 286.502 278.159 275.417 267.354C269.323 261.412 262.573 256.398 255.401 252.552C252.102 250.783 248.596 249.213 244.837 247.801L244.298 247.601L243.428 247.283L242.761 247.036L240.611 246.233C240.159 246.063 239.667 245.874 239.086 245.645L238.726 245.503L234.876 243.967L234.237 243.715L233.526 243.438L233.003 243.238C232.149 242.912 231.375 242.627 230.657 242.377L230.233 242.23L229.847 242.1L228.204 241.532L228.236 243.027C228.258 244.021 228.002 244.772 227.433 245.312L227.414 245.329L227.394 245.345L227.377 245.356L227.277 245.354L226.889 245.352C226.849 245.33 226.811 245.304 226.776 245.274C226.224 244.805 225.967 244.175 225.717 242.731L225.651 242.33L225.536 241.577L225.49 241.292C225.324 240.291 225.179 239.737 224.898 239.104C224.491 238.189 223.953 237.299 223.32 236.48L223.172 236.292L222.581 235.581L222.491 235.469C222.283 235.203 222.177 235.016 222.133 234.844L222.122 234.797L222.063 234.499L221.852 234.279Z" fill="#444444"/>
<path fill-rule="evenodd" clip-rule="evenodd" d="M128.552 255.632C128.83 255.477 128.585 255.079 128.305 255.211C114.865 261.518 104.554 272.585 97.2989 285.371C89.7865 298.611 85.5048 313.643 81.8135 328.335L81.6803 328.866C77.744 344.583 74.3972 360.463 71.3841 376.381C68.3324 392.501 65.883 408.721 63.9126 425.008C62.9378 433.061 62.0688 441.128 61.391 449.211C61.0524 453.251 60.7447 457.293 60.4683 461.338C60.3578 462.955 60.2538 464.573 60.1646 466.191L60.1006 467.406C60.0454 468.507 59.9146 469.612 60.1866 470.698C60.4214 471.635 60.9171 472.483 61.3532 473.343C62.2156 475.043 64.5797 474.763 65.509 473.343L65.7789 472.929C66.3952 471.976 66.9072 471.091 67.1006 469.905C67.2876 468.757 67.2945 467.554 67.3784 466.394C67.5328 464.26 67.6643 462.124 67.8141 459.989C68.1288 455.496 68.4823 451.005 68.8736 446.518C69.6475 437.66 70.4776 428.81 71.4971 419.976C73.3086 404.276 75.5818 388.618 78.2616 373.043C80.8799 357.828 84.1899 342.768 87.643 327.727L88.0007 326.171C94.0468 299.909 103.365 269.666 128.552 255.632ZM271.711 358.465C271.612 358.203 271.187 358.142 271.115 358.465C270.21 362.543 270.12 366.743 269.982 370.919C269.846 375.037 269.851 379.174 269.911 383.295C270.133 398.441 270.548 413.574 270.908 428.717C271.087 436.291 271.256 443.867 271.385 451.443C271.434 454.284 271.475 457.125 271.509 459.967L271.551 463.714C271.572 465.371 271.615 467.008 271.817 468.663C271.951 469.752 272.234 470.79 272.835 471.723C273.262 472.386 273.869 472.722 274.462 473.172L274.572 473.258C275.328 473.855 276.124 473.859 276.872 473.258L277.089 473.086C277.804 472.527 278.422 472.09 278.878 471.206C279.513 469.976 279.615 468.64 279.723 467.286C279.886 465.231 279.778 463.146 279.757 461.086C279.714 456.953 279.657 452.821 279.584 448.688C279.318 433.533 278.792 418.374 277.834 403.246C277.382 396.12 276.77 388.972 275.949 381.875L275.793 380.545C275.543 378.456 275.316 376.331 275.06 374.199C278.882 371.51 282.241 368.247 285.106 364.546C285.317 364.273 284.97 363.891 284.715 364.155C281.788 367.187 278.432 369.604 274.716 371.505C274.107 367.042 273.27 362.602 271.711 358.465ZM207.864 223.371C207.812 223.33 207.73 223.312 207.68 223.371C206.858 224.329 207.025 225.794 206.999 227.008L206.996 227.121C206.937 228.896 206.925 230.665 206.931 232.441L206.95 238.095V238.095C206.952 238.872 207.015 239.681 206.975 240.463L206.955 240.766V240.766C206.523 241.208 206.323 241.847 206.469 242.489C206.495 243.312 206.925 243.999 207.553 244.43L206.208 246.339V246.339L204.862 248.247C202.087 252.184 199.282 256.086 196.358 259.915C193.377 263.819 190.196 267.575 186.868 271.187C185.242 272.952 183.589 274.692 181.897 276.394C181.209 277.086 180.504 277.76 179.807 278.442L179.114 279.127C178.704 279.537 178.189 279.942 177.917 280.462C177.757 280.768 177.72 281.523 177.663 281.648C177.15 282.777 178.026 284.577 179.481 284.014L179.415 283.97C179.15 283.786 179.32 283.783 179.925 283.962C180.306 283.961 180.664 283.873 180.998 283.699L181.098 283.645C181.569 283.405 181.989 282.942 182.371 282.572L182.466 282.481C183.341 281.662 184.174 280.792 185.012 279.935C186.762 278.148 188.472 276.322 190.127 274.447C193.429 270.707 196.56 266.815 199.525 262.802C202.545 258.715 205.352 254.419 207.766 249.945C208.682 248.248 209.522 246.517 210.327 244.767C211.895 244.264 212.259 242.596 212.149 240.718C212.728 239.371 213.249 237.996 213.557 236.591C213.599 236.398 213.351 236.217 213.203 236.385C212.702 236.955 212.238 237.561 211.792 238.184C211.523 236.867 211.182 235.655 211.022 234.882L210.327 231.471V231.471C214.242 231.267 218.533 232.876 221.232 235.693C221.377 236.427 221.941 236.952 222.491 237.638C223.12 238.422 223.668 239.301 224.077 240.221C224.985 242.261 224.473 245.266 226.233 246.762C226.417 246.917 226.622 247.026 226.833 247.093C225.998 251.19 226.377 255.706 226.395 259.863L226.396 260.229C226.392 264.881 226.547 269.538 226.727 274.187L226.909 278.787C227.146 284.924 227.3 291.063 226.704 297.165C223.983 294.754 221.169 292.453 218.258 290.261C216.344 288.819 214.392 287.428 212.404 286.09L210.789 285.01C208.853 283.712 206.871 282.376 204.752 281.446C201.98 280.231 199.344 280.649 196.668 281.895C194.004 283.138 191.418 284.58 188.804 285.926C186.146 287.295 183.481 288.652 180.819 290.013C179.055 290.914 176.471 291.728 175.177 293.388C175.095 293.021 174.999 292.655 174.886 292.29C175.015 291.733 174.965 291.132 174.653 290.559C170.307 282.57 166.285 274.389 162.292 266.219C160.27 262.084 158.349 257.9 156.323 253.768L154.355 249.743C154.026 249.072 153.696 248.402 153.364 247.733C152.867 246.732 152.35 245.74 151.848 244.741C151.635 244.319 151.369 243.899 151.163 243.473L151.065 243.26C151.06 243.249 150.583 241.748 150.951 241.891L150.983 241.906C151.171 242.013 151.322 241.776 151.2 241.625C150.679 240.981 149.953 241.552 149.656 242.148C148.837 243.79 150.338 246.367 150.915 247.939L150.947 248.027C152.739 253.1 154.767 258.078 156.846 263.039C160.831 272.55 165.113 281.915 169.385 291.297L169.435 291.458V291.458C168.524 290.759 167.552 290.125 166.719 289.508C164.618 287.951 162.455 286.471 160.296 284.995C156.336 282.289 152.27 279.761 148.136 277.333L147.308 276.849C145.243 275.645 143.197 274.67 140.746 275.031C138.469 275.367 136.352 276.59 134.294 277.584L134.082 277.686L127.725 280.71C128.404 277.999 129.14 275.301 129.908 272.613C131.405 267.37 133.052 262.172 134.839 257.02C136.508 252.206 138.311 247.445 140.219 242.722L140.794 241.304C141.572 239.359 142.345 237.239 144.568 236.64C146.79 236.041 149.339 236.929 151.37 235.662C151.554 235.547 151.531 235.243 151.308 235.186L150.054 234.87C147.702 234.285 144.944 233.696 142.719 234.265C140.298 234.886 138.295 236.918 137.12 239.031C135.814 241.382 134.894 244.013 133.902 246.519L133.745 246.914C132.608 249.751 131.514 252.604 130.467 255.476C128.374 261.216 126.468 267.025 124.743 272.886C123.912 275.711 123.124 278.549 122.366 281.395C122.148 282.213 121.788 283.205 121.494 284.24C121.156 284.57 120.836 284.938 120.536 285.357C120.038 286.053 120.395 286.869 121.014 287.286C121.038 287.998 121.196 288.668 121.574 289.242C123.05 291.484 126.953 290.906 126.794 287.893C126.77 287.432 126.59 286.991 126.319 286.619L126.326 286.559V286.559L126.357 286.449V286.449C127.035 286.124 127.715 285.762 128.432 285.407L135.103 282.11V282.11C137.036 281.154 139.177 279.678 141.326 279.314C143.329 278.975 145.443 280.468 147.164 281.369L147.276 281.427C151.437 283.56 155.567 285.765 159.681 287.987C161.689 289.072 163.671 290.202 165.671 291.3C167.344 292.219 169.149 293.537 171.03 294.055C171.833 294.679 172.787 294.596 173.553 294.123C173.203 296.294 173.224 298.522 173.117 300.741C172.972 303.708 172.95 306.683 172.903 309.654L172.883 310.768C172.757 317.336 172.689 323.905 172.664 330.475C172.575 353.867 172.834 377.267 172.894 400.66C172.925 412.413 173.158 424.176 173.463 435.925C173.592 440.904 173.863 445.876 174.155 450.847L174.316 453.558C174.656 459.279 174.857 465.063 175.916 470.707C176.054 471.443 177.299 471.462 177.421 470.707C178.396 464.659 178.45 458.479 178.637 452.361L178.677 451.138C178.902 444.569 179.009 438.004 178.986 431.431C178.902 408.029 178.294 384.641 177.797 361.246C177.547 349.491 177.379 337.731 176.99 325.98C176.796 320.101 176.576 314.225 176.315 308.347C176.198 305.723 176.086 303.102 175.912 300.481L175.833 299.358C175.779 298.626 175.736 297.902 175.683 297.185C178.049 298.05 180.214 296.449 182.343 295.353C184.797 294.091 187.25 292.826 189.705 291.565L192.162 290.307V290.307L197.079 287.797C199.293 286.667 200.999 285.542 203.36 286.868C211.867 291.642 219.684 297.995 226.769 304.661C228.127 305.94 230.998 305.596 231.342 303.453C232.812 294.3 231.918 285.015 231.167 275.834L230.891 272.425C230.555 268.354 230.19 264.283 229.704 260.229C229.486 258.415 229.269 256.602 229.03 254.792L228.845 253.435C228.545 251.289 228.35 249.156 227.711 247.098C227.912 247.033 228.106 246.926 228.28 246.762C230.201 244.938 229.275 241.774 228.398 239.605C227.532 237.465 226.213 235.596 224.56 233.988C224.199 233.637 223.691 233.411 223.18 233.399C219.173 230.743 214.776 229.417 210.2 230.867C210.072 230.252 209.941 229.639 209.803 229.026L209.662 228.415C209.306 226.896 209.174 224.387 207.864 223.371ZM166.79 463.246C165.546 462.903 164.184 463.264 163.273 464.176C162.362 465.087 162.001 466.449 162.344 467.693C162.516 468.306 162.825 468.837 163.273 469.289C163.692 469.705 164.18 470.002 164.738 470.18L164.868 470.218L165.071 470.303C165.695 470.471 166.319 470.471 166.942 470.303C167.538 470.136 168.055 469.834 168.494 469.398C168.93 468.959 169.231 468.442 169.399 467.845C169.566 467.222 169.566 466.598 169.399 465.974L169.314 465.771V465.771C169.142 465.158 168.833 464.626 168.385 464.176C167.934 463.728 167.402 463.417 166.79 463.246ZM92.9461 339.272C92.7417 339.038 92.4105 339.338 92.5374 339.588C94.4745 343.387 96.6336 347.159 98.7555 350.861C98.5856 351.887 98.417 352.905 98.2231 353.897C97.3964 358.126 96.3838 362.279 95.7237 366.548C93.3509 381.893 92.1191 397.405 91.0621 412.889C90.002 428.427 89.8663 443.973 89.7071 459.542C89.6932 460.892 90.7308 462.46 92.1211 462.714C92.7577 462.83 93.234 462.808 93.8692 462.714C95.3161 462.501 96.2211 460.843 96.2832 459.542C96.6981 450.841 97.2563 442.15 97.9029 433.462C99.049 418.06 99.7494 402.617 100.675 387.198L101.001 381.809C101.351 375.97 101.671 370.127 101.776 364.279C101.845 360.405 101.638 356.532 101.765 352.662C101.883 349.089 102.245 345.205 101.458 341.694C101.428 341.563 101.221 341.53 101.161 341.655C100.342 343.38 99.8233 345.254 99.4237 347.166C97.3138 344.497 95.1652 341.822 92.9461 339.272ZM231.148 244.899C230.852 244.877 230.864 245.322 231.148 245.355C235.289 245.835 239.289 247.521 243.198 248.953L243.533 249.076C247.483 250.509 251.334 252.176 255.04 254.163C262.285 258.049 268.939 263.059 274.822 268.794C298.308 291.688 309.012 324.703 316.855 355.728C321.212 372.965 324.311 390.494 326.32 408.158C327.313 416.893 328.015 425.662 328.424 434.444C328.634 438.945 328.766 443.45 328.821 447.956C328.85 450.264 328.858 452.572 328.855 454.88C328.854 455.938 328.665 457.269 328.948 458.296C329.21 459.247 329.95 460.085 330.497 460.878C331.145 461.818 332.31 461.768 332.968 460.878L333.21 460.553C333.911 459.623 334.597 458.733 334.697 457.518C334.804 456.214 334.729 454.87 334.734 453.561C334.745 450.923 334.712 448.285 334.659 445.648C334.558 440.593 334.359 435.54 334.063 430.493C333.462 420.251 332.473 410.029 331.057 399.867C328.54 381.804 324.767 363.913 319.825 346.359C315.163 329.799 309.64 313.288 301.771 297.948C294.466 283.706 284.882 270.457 272.235 260.503C266.354 255.874 259.952 252.017 253.05 249.112C249.569 247.647 245.913 246.45 242.196 245.768C238.519 245.094 234.859 245.188 231.148 244.899ZM166.077 433.975C165.42 433.97 164.688 434.114 164.125 434.478L163.372 435.06V435.06C163.168 435.322 162.965 435.585 162.763 435.848C162.292 436.462 162.23 437.455 162.328 438.186C162.35 438.674 162.495 439.128 162.763 439.549L163.336 440.291V440.291C163.887 440.741 164.346 441.061 165.013 441.278C165.362 441.39 165.698 441.414 166.032 441.397L166.144 441.39L166.077 441.399L166.194 441.386V441.386C166.303 441.376 166.412 441.364 166.522 441.349C166.597 441.34 166.671 441.335 166.746 441.324C166.818 441.318 166.887 441.315 166.96 441.322C167.808 441.402 168.66 440.921 169.262 440.368C169.804 439.87 170.291 438.814 170.215 438.066L170.183 437.753C170.126 437.225 170.079 437.018 169.855 436.488C169.638 435.972 169.335 435.517 168.921 435.132C168.131 434.396 167.162 433.982 166.077 433.975ZM168.701 395.356C167.576 394.129 165.643 394.039 164.248 394.781C163.908 394.962 163.596 395.252 163.296 395.495C162.541 396.106 162.244 397.207 162.203 398.136C162.161 399.054 162.645 400.144 163.296 400.777L163.454 400.93V400.93C163.843 401.309 164.4 401.638 164.944 401.737C165.821 401.899 166.558 401.894 167.375 401.549C168.077 401.253 168.682 400.777 169.093 400.13L169.16 400.021C169.188 399.976 169.215 399.93 169.24 399.883L169.276 399.811C170.058 398.307 169.848 396.605 168.701 395.356ZM168.118 356.534C167.611 356.374 167.104 356.352 166.596 356.466C166.252 356.466 165.931 356.553 165.633 356.726C165.31 356.816 165.029 356.98 164.791 357.217C164.504 357.387 164.275 357.615 164.106 357.902C163.768 358.271 163.541 358.704 163.422 359.201L163.286 360.216L163.422 361.231L163.808 362.143V362.143C163.913 362.282 164.02 362.42 164.127 362.557C164.297 362.845 164.526 363.074 164.814 363.244C165.001 363.43 165.215 363.569 165.455 363.666C166.305 364.275 167.437 364.474 168.444 364.196C169.042 364.029 169.562 363.726 170.002 363.289C170.439 362.848 170.742 362.328 170.909 361.73L170.978 361.253C171.067 360.612 171.081 360.257 170.9 359.443C170.82 359.085 170.59 358.58 170.469 358.367C169.953 357.46 169.11 356.837 168.118 356.534ZM124.051 328.604C122.594 328.593 121.137 328.596 119.68 328.612L118.587 328.627C116.757 328.656 115.19 328.467 113.751 329.737C112.707 330.659 113.167 332.205 114.158 332.9C115.66 333.951 117.543 333.422 119.27 333.306C121.09 333.184 122.912 333.083 124.735 333.001C128.264 332.843 131.794 332.742 135.326 332.727C138.851 332.712 142.381 332.745 145.906 332.802C149.492 332.86 153.226 333.195 156.792 332.823C157.282 332.772 157.392 332.128 156.909 331.96C153.548 330.797 149.768 330.42 146.246 329.976C142.614 329.517 138.982 329.192 135.326 328.981C131.572 328.766 127.812 328.63 124.051 328.604ZM168.125 317.182L168.005 317.184C167.363 317.186 166.763 317.337 166.203 317.637L166.084 317.703L165.314 318.298C164.843 318.774 164.516 319.333 164.336 319.978L164.2 320.99V320.99C164.18 321.514 164.289 322.003 164.527 322.457C164.681 322.929 164.943 323.337 165.314 323.682C165.659 324.053 166.067 324.315 166.539 324.469C166.957 324.689 167.406 324.799 167.885 324.799L168.005 324.797C168.691 324.794 169.332 324.621 169.925 324.277L170.695 323.682V323.682C171.167 323.207 171.493 322.647 171.674 322.002L171.81 320.99V320.99C171.829 320.466 171.72 319.977 171.482 319.524C171.328 319.052 171.066 318.643 170.695 318.298C170.351 317.927 169.943 317.665 169.471 317.512C169.052 317.291 168.604 317.181 168.125 317.182V317.182ZM156.844 227.762C156.025 226.574 154.539 227.63 154.752 228.585C154.695 231.267 154.558 233.871 153.948 236.498C153.669 237.701 153.303 238.905 152.739 240.007L152.502 240.471C151.771 241.915 151.204 243.276 152.188 244.86C152.652 245.607 153.49 246.168 154.398 246.129C158.427 245.955 158.981 240.344 159.226 237.212C159.478 233.987 158.693 230.442 156.844 227.762Z" fill="black"/>
<path fill-rule="evenodd" clip-rule="evenodd" d="M253.754 146.944C242.386 140.222 227.889 141.962 221.059 152.374C219.88 154.172 219.066 156.149 218.491 158.439L218.398 158.819L218.306 159.22C218.008 160.543 217.813 161.789 217.548 163.906L217.255 166.309L217.171 166.964C216.886 169.138 216.637 170.512 216.248 171.912L216.171 172.184L215.722 173.735L217.417 174.363C220.666 175.539 221.347 175.644 223.221 174.662C224.685 173.895 225.45 172.862 226.467 170.769L226.614 170.463L226.938 169.78L227.114 169.42C227.777 168.094 228.308 166.679 229.057 166.166C230.075 165.468 233.285 165.19 235.517 165.465L235.633 165.48L235.729 165.5L235.895 165.538C239.648 166.427 243.069 169.465 245.326 172.674C247.143 175.259 248.187 178.515 248.315 181.898L248.322 182.124L248.366 183.85L252.005 183.773L251.969 183.101L252.024 183.22C253.17 185.643 256.05 187.256 258.459 185.652L258.545 185.594L258.633 185.531C260.667 184.03 260.912 180.991 259.242 179.146L259.165 179.063L259.09 178.986L259.105 178.979L259.123 178.973L259.133 178.972C259.702 179.077 260.202 179.369 260.878 179.992L261.051 180.155L261.401 180.534L261.762 180.92L261.917 181.08C262.016 181.18 262.107 181.269 262.193 181.347C262.308 181.452 262.415 181.541 262.531 181.621C262.639 181.696 262.75 181.761 262.884 181.82C263.216 181.964 263.57 182.032 264.023 181.92C264.645 181.768 264.996 181.391 265.208 180.947C265.291 180.774 265.338 180.615 265.371 180.448C265.406 180.273 265.423 180.094 265.432 179.888C265.438 179.753 265.44 179.606 265.439 179.445L265.435 179.194L265.426 178.92L265.417 178.702L265.376 177.893C265.229 175.235 264.532 172.626 263.339 170.162L263.218 169.916L263.173 169.827L263.298 169.995C264.111 171.069 264.897 171.814 265.877 172.306L266.012 172.372L266.144 172.432C267.504 173.031 268.874 172.798 269.702 171.688C270.274 170.92 270.443 169.908 270.326 168.845C270.098 166.781 269.284 164.891 267.69 162.134L267.466 161.75L266.591 160.262C263.219 154.573 258.885 149.977 253.754 146.944Z" fill="#E8E1E1"/>
<path fill-rule="evenodd" clip-rule="evenodd" d="M185.837 81.9993C179.604 81.5582 173.258 82.6115 167.323 84.4955C157.857 87.4994 149.163 92.8007 142.021 99.7021C134.66 106.815 129.215 115.584 125.905 125.269C121.913 136.949 121.316 149.421 120.192 161.614C119.624 167.774 118.689 173.841 117.717 179.942L117.563 180.905C116.613 186.849 116.078 192.861 117.391 198.795C119.572 208.659 126.112 217.031 133.875 223.218C149.822 235.927 174.646 243.675 193.214 231.98C196.086 230.171 193.364 225.544 190.56 227.429C188.586 228.757 186.496 229.92 184.253 230.724C174.886 234.08 164.597 232.884 155.339 229.762C146.215 226.686 137.46 221.488 130.728 214.551C123.656 207.265 119.737 198.266 120.304 188.026C120.641 181.933 122.026 175.953 122.794 169.909C123.475 164.557 123.883 159.176 124.354 153.802L124.526 151.869C125.524 140.92 126.956 129.67 131.926 119.731C136.105 111.37 142.226 103.931 149.585 98.1866C157.29 92.1722 166.493 87.9658 176.149 86.3969C187.504 84.5521 198.374 87.9068 207.846 94.152C216.246 99.6906 223.469 107.092 229.007 115.49C231.692 119.562 233.98 123.911 235.956 128.371C237.817 132.573 239.101 136.976 240.598 141.307C239.366 141.271 238.114 141.318 236.842 141.459C230.319 142.184 224.241 145.573 220.372 150.917C215.644 157.447 216.922 165.463 215.075 172.889C214.932 173.465 215.175 174.03 215.668 174.349C218.468 176.163 222.215 176.223 224.925 174.18C227.278 172.407 228.382 169.202 227.43 166.401C227.305 166.036 226.775 166.1 226.76 166.492C226.581 171.258 222.17 174.929 217.846 172.661C219.701 166.257 218.725 159.105 222.518 153.321C229.233 143.083 243.128 142.66 252.887 148.431C258.023 151.468 262.089 156.034 265.116 161.142L265.988 162.624C267.149 164.606 268.377 166.847 268.618 169.028C268.757 170.287 268.294 171.47 266.853 170.836C265.687 170.323 264.785 169.126 264.092 168.097C262.912 166.342 260.198 167.858 261.174 169.727L261.207 169.788C262.626 172.309 263.5 175.087 263.661 177.982L263.701 178.783C263.728 179.368 263.747 180.198 263.624 180.228C263.476 180.265 262.449 179.076 262.278 178.911C261.454 178.118 260.606 177.47 259.459 177.259C257.951 176.982 256.43 178.851 257.739 180.077L257.794 180.127C258.962 181.145 258.91 183.174 257.62 184.126C255.799 185.47 253.557 183.277 253.293 181.472L253.284 181.405C253.05 179.454 250.348 179.385 250.201 181.405C249.882 185.788 255.087 189.462 259.048 187.25C260.614 186.376 261.609 184.776 261.921 183.061C262.421 183.326 262.961 183.51 263.531 183.56C265.387 183.725 266.706 182.417 267.007 180.661C267.356 178.615 267.149 176.425 266.611 174.3C267.619 174.544 268.68 174.451 269.745 173.834C272.97 171.969 272.044 167.82 270.826 165.018C265.629 153.062 254.86 142.212 241.519 141.351C241.446 139.242 241.161 137.247 240.694 135.135C236.131 114.473 221.348 95.3403 202.103 86.3979C196.961 84.0083 191.507 82.4008 185.837 81.9993ZM236.306 164.536L236.123 164.495C234.044 164.046 228.572 163.518 229.232 167.026C229.263 167.19 229.502 167.17 229.544 167.026C230.19 164.82 234.578 166.584 235.86 167.115C237.626 167.846 239.368 168.926 240.81 170.18C243.967 172.927 246.084 176.799 246.406 181.003C246.725 185.174 245.518 189.679 242.517 192.697C241.045 194.175 239.167 195.179 237.058 195.253C235.163 195.319 233.069 193.84 231.32 194.706C230.975 194.877 230.702 195.346 230.733 195.732C230.792 196.462 231.118 197.031 231.603 197.472C228.676 202.821 226.279 208.482 222.545 213.346C220.671 215.787 218.547 218.047 216.142 219.97C214.999 220.884 213.756 221.687 212.475 222.393C210.973 223.22 209.674 223.738 208.602 225.14C207.688 226.336 208.602 228.647 210.109 228.853C213.657 229.338 217.104 226.462 219.709 224.308C222.311 222.156 224.56 219.501 226.419 216.684C229.988 211.275 232.429 204.894 233.405 198.438C234.539 198.798 235.815 198.908 236.774 198.91C239.328 198.916 241.767 197.995 243.774 196.439C251.122 190.742 251.939 179.044 246.753 171.668C244.272 168.138 240.502 165.53 236.306 164.536ZM236.26 178.103C234.556 177.953 232.853 178.223 231.252 178.805L230.592 179.045C229.197 179.556 227.713 180.157 226.706 181.205C225.167 182.807 226.699 185.582 228.891 184.968C231.315 184.29 233.284 182.244 235.707 181.385C237.873 180.618 240.326 180.727 242.248 182.048C242.501 182.222 242.835 181.878 242.669 181.625C241.199 179.381 238.878 178.333 236.26 178.103Z" fill="black"/>
<path fill-rule="evenodd" clip-rule="evenodd" d="M159.022 210.623C161.354 209.671 163.435 208.084 164.956 206.056C165.485 205.351 165.622 204.606 165.511 203.925C165.386 203.16 164.933 202.466 164.316 202C163.696 201.534 162.922 201.303 162.173 201.421C161.522 201.523 160.874 201.879 160.361 202.619L160.254 202.766C159.35 203.99 158.171 204.995 156.828 205.642C155.534 206.266 154.087 206.557 152.589 206.388C149.736 206.065 147.77 204.522 145.68 202.426C145.421 202.161 145.161 201.888 144.901 201.611C144.736 201.36 144.508 201.198 144.255 201.113C143.973 201.019 143.655 201.025 143.363 201.126C143.082 201.225 142.831 201.411 142.662 201.658C142.502 201.894 142.411 202.184 142.44 202.519C142.632 204.691 143.767 206.629 145.379 208.152C147.17 209.842 149.544 211.012 151.779 211.422C154.241 211.874 156.75 211.55 159.022 210.623V210.623ZM150.617 177.114C147.998 178.706 144.007 182.421 146.825 186.37C150.142 189.852 154.918 185.859 157.271 184.054C159.453 182.655 161.905 186.253 159.88 187.887C142.874 200.483 135.973 177.53 149.293 175.241C150.759 174.988 151.304 176.621 150.617 177.114ZM181.093 162.462C180.803 158.868 175.332 158.052 174.787 161.608C174.3 164.794 174.874 167.72 176.308 170.588C177.679 173.329 181.124 172.05 181.384 169.555C181.733 166.21 181.273 164.697 181.093 162.462ZM139.443 160.871C138.68 159.871 137.579 159.189 136.259 159.574C132.136 160.78 133.351 166.635 134.799 169.485C135.586 171.033 138.129 171.425 139.279 170.063C141.152 167.84 142.049 163.402 139.667 161.213C139.603 161.1 139.531 160.986 139.443 160.871ZM176.366 146.736L175.715 146.622C173.7 146.273 171.195 145.938 169.77 147.558C169.014 148.418 168.754 150.015 169.77 150.837C171.557 152.284 173.533 151.723 175.675 151.846C177.44 151.947 179.136 152.24 180.836 152.726C184.566 153.792 187.605 155.739 190.791 157.877C191.209 158.157 191.636 157.622 191.436 157.231C189.597 153.628 186.034 150.668 182.464 148.864C180.559 147.901 178.474 147.102 176.366 146.736ZM143.201 145.121L142.703 145.224C137.278 146.358 130.231 148.624 127.662 153.954C127.564 154.708 127.667 154.869 127.752 154.975L127.78 155.01C127.849 155.1 127.904 155.224 128.231 155.327C128.321 155.305 128.413 155.282 128.505 155.258C129.683 154.949 130.614 154.524 131.516 154.083L132.494 153.601C133.629 153.044 134.773 152.508 135.986 152.112C138.575 151.268 141.237 150.673 143.941 150.355C144.527 150.286 145.092 150.088 145.537 149.749C145.959 149.427 146.282 148.982 146.429 148.389C146.62 147.623 146.565 147.042 146.154 146.351C145.845 145.831 145.403 145.471 144.895 145.264C144.377 145.054 143.787 145.004 143.201 145.121Z" fill="black"/>
<path fill-rule="evenodd" clip-rule="evenodd" d="M137.244 191.153C142.11 190.332 147.165 191.545 151.856 192.838C159.309 187.943 168.965 192.884 174.303 199C176.129 200.505 179.965 202.504 177.944 205.375C178.71 207.404 178.915 208.36 177.33 205.987C168.356 207.02 158.728 205.068 149.847 203.226C146.823 204.244 144.153 206.622 140.829 205.807C137.686 206.476 134.283 207.1 131.446 205.083C129.285 204.995 124.479 208.876 124.556 204.363C125.224 200.037 133.799 192.838 137.244 191.153Z" fill="#E8E1E1"/>
<path fill-rule="evenodd" clip-rule="evenodd" d="M133.596 205.042C138.878 205.627 144.235 204.768 148.659 201.699C149.12 201.379 149.575 201.382 149.947 201.57C150.398 201.52 150.86 201.7 151.128 202.216C152.238 204.356 155.92 203.879 157.944 203.923C164.563 204.051 171.414 203.685 177.785 205.687C171.692 193.772 163.266 188.629 150.227 193.306C151.404 194.255 145.529 192.034 145.014 191.992C135.992 189.731 128.55 197.3 124.914 204.801C127.664 204.146 130.747 204.727 133.596 205.042M120.995 207.07C124.973 198.106 132.816 188.251 143.756 189.8C146.002 190.131 148.365 191.665 150.627 191.389C157.174 188.969 162.579 187.74 169.136 191.652C171.918 191.86 187.575 211.251 180.135 209.668C171.002 204.421 155.123 209.363 149.452 204.671C138.319 211.982 129.266 204.04 122.991 208.61C121.9 209.611 120.37 208.364 120.995 207.07" fill="black"/>
<path fill-rule="evenodd" clip-rule="evenodd" d="M121.367 180.22C123.703 183.359 128.033 184.359 132.027 184.013C140.64 183.184 143.351 173.397 143.634 165.791C137.858 167.416 144.122 155.904 124.377 154.638C117.417 154.057 119.336 158.263 116.261 161.335C116.324 167.784 117.397 174.791 121.367 180.22M162.395 172.81C167.481 196.635 195.329 190.968 198.254 169.491C195.553 167.584 196.264 162.875 192.908 161.168C187.59 157.769 180.941 157.914 174.901 157.994C167.181 158.524 164.981 161.724 161.015 165.214C161.206 167.546 161.756 170.309 162.395 172.81M110.336 150.692C110.621 150.644 110.907 150.6 111.193 150.558C111.416 150.431 111.678 150.333 111.982 150.275C112.678 150.098 113.369 149.979 114.058 149.915C123.956 147.687 146.853 150.851 147.798 159.3C150.95 160.353 153.678 159.41 157.331 159.504C160.111 147.876 208.185 149.518 210.497 156.528C210.506 156.525 210.515 156.523 210.524 156.52C212.745 155.833 216.02 155.998 218.563 155.889C223.992 155.776 229.428 156.26 234.74 157.405C244.687 158.987 258.263 160.838 251.345 173.265C251.343 173.267 251.342 173.269 251.341 173.271L251.34 173.27C250.147 174.493 248.124 173.508 248.049 171.853C250.375 165.966 245.121 165.259 241.079 163.568C231.022 159.953 220.782 159.452 210.38 160.57C209.597 161.492 208.41 162.295 207.155 162.716C200.2 163.871 203.865 169.032 199.469 169.783C200.276 187.773 178.442 197.594 165.791 185.767C160.74 180.827 159.536 173.508 158.365 166.912C157.746 166.772 157.352 166.434 157.122 165.985C155.633 164.498 154.697 163.124 151.753 162.716C148.808 162.308 146.541 163.127 146.234 163.378C146.157 163.534 146.074 163.69 145.977 163.846C145.843 164.079 145.66 164.265 145.452 164.411C148.36 182.326 134.457 193.656 120.422 184.364C114.324 178.625 113.035 169.839 112.78 161.997C111.954 161.498 111.43 160.531 111.716 159.315C112.111 157.638 111.186 156.187 109.713 155.458C107.799 154.512 108.138 151.056 110.336 150.692" fill="black"/>
</svg>
