<svg width="395" height="532" viewBox="0 0 395 532" fill="none" xmlns="http://www.w3.org/2000/svg">
<path fill-rule="evenodd" clip-rule="evenodd" d="M157.125 223.728C157.086 223.698 157.048 223.689 157.007 223.71C156.219 224.088 156.056 224.845 155.786 225.633C155.39 226.785 154.932 227.909 154.509 229.051C153.666 231.341 152.861 233.628 151.921 235.881C150.957 238.199 149.958 240.475 148.813 242.714C148.261 243.796 147.668 244.858 147.065 245.913C146.648 246.646 146.26 247.652 145.712 248.339C145.67 248.12 145.611 247.912 145.542 247.718C145.614 247.753 145.684 247.791 145.75 247.832C145.889 247.919 146.055 247.746 145.972 247.61C145.674 247.117 145.285 246.784 144.841 246.559C143.613 245.195 116.545 251.704 109.145 259.014C95.7437 272.253 86.6977 288.623 80.7484 306.037C77.4633 315.646 74.4384 325.349 71.3128 335.01C68.0104 345.227 64.5622 355.398 61.2528 365.608C60.5278 367.853 62.1097 369.894 64.1078 370.633C67.83 372.007 71.58 373.302 75.3611 374.499C73.526 381.547 72.2425 388.745 71.3198 395.963C69.4153 410.847 69.176 426.033 66.175 440.761C65.4859 444.142 64.6142 447.474 63.6932 450.798L63.4799 451.564C62.9318 453.515 62.4319 455.482 61.7593 457.391C61.18 459.033 60.4307 460.688 60.0248 462.381C59.5496 464.373 60.2503 466.549 62.1132 467.573C63.6083 468.395 65.7486 468.055 66.6505 466.511C66.8344 466.195 66.9454 465.852 66.9905 465.505C67.1258 465.217 67.2507 464.922 67.3617 464.62C67.4051 464.504 67.4432 464.383 67.4796 464.262L67.5872 463.901C67.8508 463.041 68.0936 462.173 68.3365 461.306C68.7319 459.914 69.1299 458.527 69.5698 457.147L69.7934 456.458C70.8827 453.14 71.8575 449.795 72.7074 446.408C75.7489 434.263 76.3941 421.688 77.2291 409.242L77.2725 408.598C78.0287 397.445 78.4797 386.315 77.5535 375.186L77.6801 375.227V375.227L77.8067 375.266C79.0101 375.634 80.2177 375.995 81.4283 376.345C81.4665 376.359 81.5012 376.373 81.5393 376.383C82.3141 376.623 83.1105 376.851 83.9205 377.063L84.4082 377.189L84.7516 377.282L85.1131 377.385C86.2603 377.718 87.43 378.101 88.6195 378.063C90.5899 378.379 92.5949 378.57 94.5653 378.577C93.9582 388.505 93.2575 398.427 92.4215 408.338C91.582 418.301 90.4684 428.227 89.3133 438.152C88.7444 443.055 88.1338 447.948 87.4608 452.835C87.1209 455.312 86.7671 457.776 86.3161 460.233C85.8512 462.746 85.0291 465.432 85.5252 467.972C85.5356 467.969 85.546 467.965 85.5564 467.965C85.7229 468.701 86.1669 469.36 86.9405 469.815C88.3593 470.644 90.3436 470.158 91.1588 468.708C91.2281 468.586 91.2941 468.461 91.3565 468.333C92.1922 468.69 93.1083 468.829 94.2323 468.84L109.475 468.992V468.992C116.402 469.062 123.33 469.135 130.261 469.235C152.021 469.556 173.782 469.926 195.542 470.19L203.702 470.283C215.941 470.412 228.186 470.665 240.425 470.662C246.547 470.662 252.663 470.641 258.786 470.492C261.752 470.419 264.711 470.304 267.673 470.183L268.196 470.159C270.562 470.042 273.072 469.823 275.385 470.353C276.023 471.595 277.654 471.852 278.507 470.582C280.457 467.676 280.989 463.621 281.35 460.069L281.476 458.79C281.875 454.809 282.226 450.829 282.486 446.841C283.409 432.714 283.745 418.572 283.322 404.417C283.107 397.202 282.444 390.029 281.66 382.856C281.414 380.617 281.157 378.382 280.88 376.151L280.875 375.358C280.875 375.104 280.876 374.862 280.883 374.634L280.952 372.481C281.01 370.687 281.063 368.891 281.085 367.095L281.095 366.018L281.105 364.012C282.819 363.849 284.647 363.28 286.125 363.005C288.522 362.558 290.912 362.075 293.295 361.565C298.068 360.538 302.79 359.323 307.48 357.98L308.477 357.694C312.805 356.446 317.192 355.116 321.286 353.25C322.889 352.518 324.488 351.692 325.893 350.609C325.976 351.748 326.105 352.882 326.181 354.01C326.333 356.242 326.514 358.466 326.663 360.698L326.806 362.821C327.04 366.358 327.251 369.892 327.347 373.441C327.77 388.918 327.843 404.462 327.024 419.929C326.618 427.671 326.039 435.414 325.203 443.125C324.793 446.918 324.36 450.721 323.826 454.5C323.274 458.384 322.278 462.243 321.973 466.154C321.682 469.926 327.447 470.474 328.394 467.025C329.528 462.889 329.817 458.427 330.415 454.174L330.482 453.702C331.145 449.184 331.676 444.648 332.134 440.105C333.715 424.437 334.125 408.689 333.296 392.961C332.902 385.429 331.967 377.925 330.836 370.473L330.704 369.613C330.19 366.275 329.707 362.937 329.124 359.614L328.901 358.369C328.377 355.513 327.974 352.407 327.125 349.551L327.377 349.318C327.849 348.878 328.361 348.368 328.734 347.819C330.018 347.646 331.11 346.723 330.975 345.046C330.534 339.539 328.522 333.938 326.729 328.739C324.929 323.513 322.84 318.384 320.475 313.387C312.152 295.823 300.167 279.877 285.511 267.103C277.737 260.326 269.217 254.315 259.802 250.036C255.161 247.923 250.36 246.288 245.33 245.407C242.839 244.969 240.324 244.629 237.792 244.556C235.737 243.343 233.298 243.854 231.309 245.184L231.201 245.257H231.197L230.687 245.358V245.358C230.562 245.382 230.566 245.58 230.687 245.608C230.694 245.608 230.705 245.611 230.712 245.615C230.386 245.872 230.077 246.146 229.789 246.441C228.838 247.412 228.842 248.585 229.331 249.533C226.421 252.233 224.582 255.7 222.657 259.194C220.593 262.935 217.89 266.17 214.602 268.897C202.547 278.899 184.817 283.323 169.713 278.6C158.606 275.13 149.118 265.736 146.496 254.426C147.117 254.648 147.79 254.683 148.428 254.454C151.425 253.385 152.568 250.108 153.715 247.368L153.77 247.235C154.891 244.581 155.831 241.884 156.573 239.101C157.322 236.29 157.763 233.323 157.947 230.422C158.018 229.275 157.986 228.128 157.927 226.98L157.874 226.032C157.834 225.173 157.847 224.294 157.125 223.728ZM205.895 215.992C205.853 215.888 205.69 215.833 205.627 215.957C202.974 221.434 204.715 228.936 207.223 234.159C209.849 239.622 213.804 243.765 218.49 247.35C219.136 247.843 219.798 248.329 220.471 248.804C224.381 251.566 227.864 244.119 223.35 242.696C218.646 240.305 214.824 236.044 212.167 231.567C210.73 229.148 209.457 226.629 208.482 223.984C207.511 221.347 206.928 218.602 205.895 215.992Z" fill="#111111"/>
<path fill-rule="evenodd" clip-rule="evenodd" d="M249.075 50.9695C246.085 50.0325 244.177 51.3814 242.815 53.4712C242.515 53.4126 242.225 53.4164 241.902 53.4945C241.822 53.5139 241.628 53.5871 241.482 53.6447C241.368 53.6923 241.266 53.7499 241.168 53.811L241.11 53.7801V53.7801C240.885 53.5347 240.65 53.3109 240.395 53.1304C239.823 52.7251 239.234 52.6071 238.675 52.6904L238.416 52.595V52.595C236.203 51.8218 233.803 52.1806 232.302 54.0921C232.012 54.4613 231.777 54.8725 231.577 55.3063C231.127 55.4542 230.705 55.6679 230.341 55.931C230.085 55.8106 229.815 55.7092 229.526 55.6346C227.893 55.2147 226.178 55.611 224.847 56.6146C224.199 57.1029 223.722 57.7144 223.361 58.4126C222.949 58.5094 222.543 58.6836 222.162 58.9175C221.834 58.7541 221.501 58.6007 221.16 58.4955C219.914 58.1117 218.577 57.9705 217.279 58.0673C214.483 58.2752 211.78 61.4765 213.648 64.2255L213.706 64.3087C213.943 64.6401 214.15 64.9826 214.341 65.3307C213.672 65.6225 213.027 66.013 212.432 66.5023C209.519 68.8951 209.257 72.584 209.802 76.0639L209.825 76.2088H209.818C208.271 76.356 206.935 77.9762 207.849 79.5001L207.893 79.5715C209.131 81.4882 210.192 83.6054 211.374 85.6223C214.645 86.8047 217.8 88.2608 220.77 90.0251C222.621 91.6499 224.382 93.3678 225.932 95.2789C226.706 96.2332 227.416 97.2434 228.07 98.2907C227.547 98.5423 226.901 98.5295 226.356 98.0228C221.503 93.5145 215.64 90.3507 209.397 88.2303C208.947 88.0772 208.653 87.7892 208.487 87.4484C205.716 86.6568 202.895 86.0429 200.047 85.6085C199.262 84.8585 198.44 84.1416 197.658 83.3947C196.66 82.4418 195.41 82.4557 194.476 83.0543C194.012 82.8423 193.538 82.6552 193.056 82.487L192.757 82.3849C192.633 82.3439 192.514 82.2964 192.391 82.2589C189.049 81.2347 185.993 81.615 182.705 82.4565L182.284 82.5664C180.752 82.974 179.787 82.9088 178.303 82.5337L178.136 82.4907C176.559 82.0785 174.873 81.7731 173.261 82.2072C171.575 82.6616 170.456 83.6721 169.307 84.893L169.192 85.0157C168.656 85.5906 168.347 85.6533 167.645 85.6393L166.893 85.617C164.057 85.539 161.279 85.6589 159.154 87.8583C158.369 88.6716 157.526 89.8228 157.021 90.8734L156.947 91.0301C156.924 91.0812 156.903 91.1238 156.884 91.162C156.579 91.1127 156.105 90.9194 155.879 90.8754C152.788 90.2743 150.209 91.2005 148.223 93.6426C147.789 94.177 147.133 95.2265 146.679 95.8032C146.519 95.9386 146.369 96.0836 146.227 96.236C145.482 96.7131 144.426 96.683 143.59 96.8502C141.312 97.3048 138.878 98.1731 137.72 100.346C137.236 101.253 137.057 102.245 136.853 103.236C136.087 103.74 135.488 104.467 135.022 105.254C134.455 106.209 134.214 107.378 133.562 108.28C133.089 108.936 132.365 109.285 131.676 109.686L131.413 109.841C129.373 111.059 127.775 112.41 127.104 114.797L127.045 115.009C126.936 115.375 126.554 116.418 126.887 116.261C126.6 116.42 126.113 116.476 125.851 116.563C124.436 117.032 123.205 117.791 122.451 119.123C121.877 120.137 121.773 121.194 121.609 122.312L121.539 122.763C121.521 122.872 121.5 122.999 121.478 123.122L121.455 123.243L121.451 123.246C121.195 123.357 120.943 123.477 120.696 123.607C119.522 124.299 118.72 125.501 118.72 126.892C118.72 127.568 118.931 128.094 119.237 128.563C118.989 128.94 118.798 129.34 118.653 129.787C118.368 130.659 118.348 131.613 118.444 132.515C118.559 133.598 118.836 134.584 119.162 135.618C119.288 136.017 119.339 136.575 119.528 136.956C119.179 137.402 118.971 137.948 119.035 138.487C119.128 139.257 119.479 140.158 120.175 140.59C120.515 142.273 121.247 143.993 121.968 145.369C122.052 145.528 122.152 145.671 122.263 145.789C122.162 151.282 122.564 156.814 122.592 162.3C122.623 168.273 122.498 174.249 122.29 180.214C121.941 190.101 120.691 200.325 123.602 209.966C125.984 217.857 130.754 224.631 137.151 229.767C143.701 235.021 151.596 238.061 159.981 238.537C164.246 238.776 168.583 238.29 172.709 237.183L173.15 237.063C177.142 235.964 181.766 234.284 184.704 231.342C186.255 229.788 184.687 226.495 182.412 227.4C180.159 228.299 178.137 229.628 175.901 230.565C173.903 231.401 171.819 232.043 169.708 232.515C165.474 233.47 160.985 233.678 156.682 233.085C141.146 230.954 129.041 218.02 126.652 202.685C125.991 198.438 126.003 194.121 126.048 189.83L126.097 185.127C126.135 181.194 126.149 177.258 126.005 173.326C125.821 168.266 125.465 163.21 124.987 158.171L124.738 155.549C124.443 152.481 124.11 149.39 123.537 146.365C124.006 146.389 127.713 140.033 129.77 136.481C130.52 135.884 131.154 135.143 131.399 134.183C131.45 133.983 131.476 133.781 131.492 133.579C131.939 132.875 132.41 132.19 132.907 131.525L133.015 131.476C133.099 131.438 133.164 131.406 133.202 131.385C134.287 130.768 135.193 129.834 135.813 128.751C136.022 128.386 136.193 128.005 136.332 127.615C137.217 126.745 138.142 125.915 139.114 125.137C139.21 125.06 139.308 124.989 139.404 124.914C140.642 124.451 141.728 123.753 142.52 122.749C142.851 122.543 143.185 122.342 143.521 122.145C144.529 122.135 145.548 121.9 146.54 121.491C148.354 120.744 149.802 119.268 151.625 118.584C153.552 117.862 155.582 119.504 157.63 119.208C158.152 119.132 158.671 118.973 159.152 118.742C160.305 119.966 161.529 121.121 162.878 122.131C164.836 123.597 166.839 124.267 169.108 124.93C170.233 126 171.492 127.037 173.011 127.189C176.526 130.006 180.285 132.382 184.24 134.588C184.876 134.942 185.509 135.102 186.109 135.106C187.35 135.887 188.704 136.488 190.134 136.904C190.583 137.034 191.045 137.061 191.499 137.005L192.741 138.019V138.019C193.605 138.724 194.526 139.061 195.408 139.083C195.944 139.495 196.5 139.885 197.073 140.259C197.686 140.662 198.481 140.828 199.28 140.78C200.5 141.976 202.082 142.102 203.407 141.551C203.59 141.658 203.777 141.759 203.987 141.859C204.273 141.994 204.572 142.109 204.876 142.201C206.258 143.694 208.28 144.477 210.307 144.272C211.821 145.202 213.582 145.685 215.304 145.577C215.567 146.9 215.785 148.227 215.968 149.56L215.987 150.535C215.989 150.694 215.989 150.817 215.987 150.898L215.986 150.93C215.818 155.209 215.726 159.489 215.559 163.769L215.544 164.106C215.354 167.845 214.437 174.661 219.918 174.513C221.961 174.458 223.988 172.95 225.578 171.71L225.803 171.535C225.924 171.44 226.049 171.342 226.175 171.243C227.364 171.088 228.536 170.798 229.736 170.754C231.218 170.702 232.776 170.855 234.219 171.191C236.767 171.785 239.232 172.948 240.893 175.054C241.039 175.238 241.174 175.432 241.302 175.626C241.419 176.026 241.62 176.393 241.887 176.713C243.458 180.256 242.551 184.938 240.814 188.179C238.743 192.039 235.468 194.708 231.348 196.053L231.142 196.119C228.327 197 227.251 198.708 225.721 201.081C224.288 203.309 222.643 205.384 220.878 207.356C217.461 211.169 212.667 214.317 210.68 219.144C210.278 220.116 211.428 221.032 212.317 220.783C215.803 219.801 218.247 217.312 220.781 214.838C222.535 213.124 224.221 211.342 225.804 209.47C226.136 209.623 226.501 209.727 226.881 209.773C228.56 209.979 230.292 209.893 231.761 208.986C232.439 209.048 233.145 208.812 233.669 208.331C234.15 207.888 234.564 207.409 234.915 206.9C235.447 206.946 235.97 206.961 236.469 206.878C236.709 206.855 236.942 206.792 237.156 206.688C237.552 206.53 237.929 206.288 238.274 205.916C238.974 205.163 239.242 204.099 239.113 203.088C239.252 203.059 239.389 203.023 239.525 202.977C240.457 202.661 241.174 202.033 241.632 201.179C242.452 200.718 243.191 200.092 243.75 199.428C244.431 198.62 244.944 197.709 245.246 196.703C245.558 196.557 245.861 196.389 246.151 196.192C248.23 194.782 249.42 192.135 248.604 189.687L248.576 189.61C248.535 189.5 248.459 189.312 248.368 189.1C248.381 188.928 248.395 188.755 248.404 188.583L248.433 188.061V188.061L248.849 187.884V187.884C250.926 187.056 252.33 185.938 252.58 183.595C252.632 183.111 252.444 182.617 252.148 182.204L252.149 182.074V182.074C252.284 182.004 252.413 181.932 252.526 181.86C253.658 181.135 254.354 179.836 254.276 178.492C254.205 177.267 253.528 176.291 252.767 175.388L252.55 175.134C252.532 175.114 252.511 175.091 252.49 175.066L252.993 174.908C253.319 174.804 253.618 174.7 253.833 174.579C254.665 174.112 255.371 173.48 255.806 172.677C255.869 172.577 255.934 172.479 255.992 172.373C256.554 171.345 256.627 170.029 256.265 168.926C256.222 168.795 256.166 168.673 256.11 168.551C257.64 168.011 258.818 166.893 258.96 164.834C259.015 164.024 258.838 163.217 258.454 162.526C258.539 162.061 258.557 161.578 258.502 161.101C259.04 160.591 259.458 159.977 259.645 159.228C259.998 157.812 259.351 156.465 258.39 155.23C258.746 154.254 258.764 153.152 258.358 152.169C258.514 151.678 258.603 151.159 258.608 150.627C258.619 149.447 258.256 148.462 257.671 147.624C258.494 146.615 258.884 145.275 258.398 144.019C258.053 143.127 257.657 142.31 257.202 141.553C257.441 140.978 257.58 140.334 257.58 139.612C257.58 138.314 257.095 137.286 256.352 136.444C256.674 134.907 256.019 133.036 254.591 132.359C254.053 132.103 253.332 131.837 252.538 131.629C252.24 130.696 251.929 129.766 251.6 128.843C251.083 127.39 250.526 125.957 249.936 124.541C250.276 124.839 250.632 125.117 251 125.369C252.165 126.854 253.709 128.14 255.007 128.909C257.58 130.435 260.522 129.53 261.792 126.977C262.986 127.87 264.418 128.399 265.947 128.218C267.679 128.013 269.264 126.888 269.697 125.133C269.759 124.879 269.797 124.605 269.801 124.329C270.795 125.038 271.834 125.691 272.975 126.064C274.428 126.541 275.911 125.398 276.103 123.976C276.178 123.412 276.073 122.913 275.849 122.492L275.991 122.436C276.015 122.427 276.038 122.416 276.061 122.405C276.823 122.048 277.415 121.392 277.696 120.635C279.346 121.275 281.235 120.525 281.758 118.706C282.381 116.544 282.419 114.355 281.931 112.248C283.679 110.975 284.818 108.834 285.012 106.595C285.153 104.988 284.771 103.505 284.097 102.134C285.75 101.514 286.319 99.3416 285.533 97.7764C286.577 97.1775 287.257 95.9077 287.272 94.6716C287.739 93.9636 287.888 93.052 287.501 92.0303C286.991 90.6842 285.953 89.558 284.764 88.6748C285.282 87.7698 285.667 86.7828 285.907 85.7629C286.892 85.4738 287.687 84.6749 287.849 83.4753C288.052 81.9712 287.064 80.6962 285.735 80.3596C285.588 79.9015 285.408 79.4535 285.185 79.0232C285.843 77.4615 285.746 75.4869 284.898 73.7795C284.146 72.2699 282.924 71.3468 281.453 70.7083C281.827 69.4243 281.332 68.1437 280.086 67.1894C278.565 66.023 276.896 65.1315 275.143 64.5016C275.298 62.4115 274.427 60.271 272.367 59.5422C271.816 59.3475 271.243 59.2757 270.66 59.2781C270.237 58.356 269.531 57.6065 268.61 56.9429C267.216 55.9393 264.611 56.5524 263.838 58.1263L263.801 58.2072C263.761 58.2964 263.719 58.3779 263.678 58.4643C263.522 57.7002 263.158 56.9783 262.573 56.3866C261.11 54.9072 259.565 54.8795 258.078 55.5121C257.805 54.834 257.475 54.1892 257.073 53.5996C255.616 51.4605 253.207 51.1881 251.444 52.3465C250.737 51.7236 249.948 51.2433 249.075 50.9695ZM238.653 179.604C235.718 178.451 232.156 178.792 229.255 179.898L229.043 179.981C226.48 180.997 222.318 183.256 221.816 186.145C221.557 187.641 222.976 188.935 224.416 188.148C225.669 187.464 226.372 186.086 227.369 185.087C228.355 184.098 229.46 183.303 230.664 182.605C233.177 181.151 235.819 180.586 238.653 180.166C238.972 180.121 238.885 179.694 238.653 179.604Z" fill="#111111"/>
<path fill-rule="evenodd" clip-rule="evenodd" d="M182.398 195.656C178.61 193.374 164.448 195.047 153.324 195.656C144.49 196.14 138.18 195.181 136.161 196.541C131.598 199.613 133.815 214.468 141.676 216.499C149.538 218.531 178.682 221.368 183.707 216.499C188.732 211.63 189.196 199.751 182.398 195.656Z" fill="white"/>
<path fill-rule="evenodd" clip-rule="evenodd" d="M177.491 191.727C171.545 191.005 165.78 192.826 159.967 193.744C156.898 194.229 153.825 194.59 150.719 194.725C150.094 194.752 149.469 194.768 148.844 194.781C148.786 194.23 148.477 193.725 147.81 193.422C146.442 192.802 145.347 192.522 143.845 192.582C142.47 192.636 141.091 192.777 139.737 193.025C137.278 193.476 134.809 194.499 133.011 196.277C128.849 200.391 129.482 206.998 132.698 211.478C139.342 220.736 151.468 221.166 161.853 221.045L162.812 221.032C172.268 220.897 185.797 222.308 190.093 211.545C191.673 207.587 191.453 202.999 189.519 199.203C187.212 194.676 182.355 192.318 177.491 191.727ZM147.953 207.142L148.038 207.145C152.398 207.313 156.757 207.431 161.119 207.508C160.989 208.629 160.855 209.75 160.703 210.868C160.584 211.748 160.456 212.627 160.322 213.505C160.266 213.877 160.059 214.454 160.117 214.822L160.139 214.968V214.968C159.915 215.069 159.711 215.233 159.56 215.469C159.508 215.551 159.469 215.634 159.431 215.716C156.045 215.743 152.4 215.677 148.948 215.061L148.941 214.986V214.986C148.878 214.545 148.694 214.248 148.451 214.044C148.208 212.637 148.23 211.138 148.136 209.742C148.078 208.875 148.015 208.008 147.953 207.142ZM164.451 207.568C167.593 207.621 170.737 207.663 173.879 207.624L175.305 207.602V207.602C175.004 209.219 174.676 210.83 174.404 212.457C174.12 214.153 175.612 215.231 176.903 215.188C176.758 215.211 176.614 215.236 176.469 215.256C172.433 215.827 168.244 215.676 164.149 215.671C164.369 214.385 164.28 212.933 164.313 211.86L164.319 211.693C164.382 210.318 164.426 208.943 164.451 207.568ZM185.796 207.271C185.687 208.112 185.475 208.934 185.157 209.7C183.816 212.936 180.741 214.446 177.487 215.082C178.052 214.887 178.5 214.419 178.613 213.616C178.895 211.62 178.996 209.592 179.004 207.566C181.272 207.544 183.555 207.496 185.796 207.271ZM136.128 206.58C137.742 206.961 139.618 206.787 141.202 206.859C142.686 206.926 144.171 206.985 145.655 207.045C145.585 208.059 145.517 209.072 145.443 210.085C145.347 211.394 145.338 212.777 145.088 214.081C142.101 213.061 139.425 211.426 137.417 208.811C136.917 208.16 136.469 207.395 136.128 206.58ZM178.173 197.036C180.861 197.673 183.404 199.017 184.771 201.478C185.583 202.938 185.94 204.668 185.871 206.373C183.6 206.108 181.289 206.008 178.99 205.925C178.982 205.511 178.972 205.097 178.96 204.684L178.924 203.626C178.862 201.607 178.83 199.073 178.173 197.036ZM164.263 197.282L165.446 197.149C168.732 196.775 172.016 196.382 175.303 196.607C175.778 196.64 176.261 196.692 176.745 196.763C176.164 198.859 176.213 201.322 175.97 203.398C175.877 204.2 175.758 204.996 175.627 205.789L175.057 205.763V205.763C171.531 205.571 168.001 205.454 164.472 205.314C164.472 204.651 164.469 203.988 164.458 203.324L164.445 202.661C164.405 200.966 164.514 199.057 164.263 197.282ZM147.761 197.013C151.203 197.569 154.76 197.687 158.141 197.691C159.491 197.693 160.841 197.61 162.19 197.49C162.102 198.209 162.056 198.936 161.99 199.644C161.857 201.076 161.705 202.506 161.539 203.934L161.392 205.184V205.184C157.054 204.987 152.717 204.774 148.38 204.554L147.768 204.521V204.521L147.597 202.119C147.48 200.518 147.351 198.917 147.17 197.322L147.306 197.273V197.273C147.466 197.208 147.618 197.117 147.761 197.013ZM146.267 197.609C146.077 199.874 145.972 202.148 145.833 204.416L142.974 204.263C142.497 204.237 142.021 204.211 141.544 204.183C139.692 204.077 137.311 203.515 135.48 204.039C135.34 202.373 135.816 200.75 137.319 199.632C139.957 197.666 143.316 198.366 146.267 197.609ZM156.034 177.366C151.777 174.927 141.096 172.434 140.419 180.098C140.108 183.625 142.729 186.547 145.79 187.851L145.905 187.9C148.775 189.08 153.863 190.414 156.347 187.853C158.415 185.723 155.673 181.902 153.104 183.648C151.783 184.545 149.004 183.884 147.531 183.457L147.439 183.43C145.849 182.963 143.729 181.467 144.387 179.508C144.968 177.776 147.444 177.46 148.994 177.403C151.308 177.32 153.56 177.858 155.853 178.033C156.217 178.061 156.329 177.534 156.034 177.366ZM138.4 165.042C132.622 164.771 129.028 171.082 130.356 176.253C130.586 177.146 131.583 178.021 132.546 177.921L132.789 177.899C132.912 177.887 133.036 177.871 133.15 177.84C134.064 177.587 134.884 176.635 134.818 175.649L134.8 175.361C134.665 172.919 134.93 170.104 137.832 169.513C140.293 169.011 141.667 171.381 141.696 173.562C141.702 173.949 142.137 174.22 142.479 174.011C144.258 172.928 144.566 170.774 143.887 168.918C143.026 166.567 140.87 165.157 138.4 165.042ZM181.277 166.395C177.072 164.992 172.536 167.234 170.5 170.953C169.786 171.16 169.073 171.71 169.172 172.554C169.315 173.767 169.531 174.532 170.372 175.452C171.687 176.891 174.15 176.155 174.697 174.384L174.72 174.303C175.341 172.013 177.861 170.502 180.156 171.304C182.838 172.24 182.76 175.074 184.641 176.724C184.862 176.918 185.127 176.949 185.392 176.821C187.39 175.855 187.031 172.948 186.318 171.285C185.384 169.101 183.569 167.16 181.277 166.395ZM187.003 153.622C183.596 150.144 174.712 146.779 172.381 153.201C171.937 154.424 172.882 156.074 174.155 156.327C176.24 156.743 178.09 155.837 180.161 156C181.837 156.132 183.586 156.692 184.926 157.731C188.639 160.609 189.455 165.476 192.042 169.139C192.168 169.317 192.413 169.242 192.436 169.032C193.025 163.699 190.735 157.431 187.003 153.622ZM142.568 150.198C140.307 149.399 137.746 149.468 135.473 150.176C133.184 150.891 131.082 152.247 129.463 154.019C128.728 154.823 128.048 155.711 127.503 156.656C127.213 157.157 126.908 158.191 126.579 158.807C124.798 159.836 124.037 162.18 125.631 163.848L125.703 163.921L125.917 164.133C126.774 164.981 128.066 165.349 129.236 165.01C131.855 164.252 132.173 162.189 133.079 159.999C133.678 158.553 134.704 157.273 135.948 156.333C138.887 154.112 143.706 153.404 147.245 154.451C147.433 154.507 147.655 154.267 147.52 154.093C146.85 153.224 146.463 152.511 145.566 151.81C144.654 151.098 143.66 150.584 142.568 150.198Z" fill="#111111"/>
<path fill-rule="evenodd" clip-rule="evenodd" d="M119.571 179.227C123.783 183.581 130.814 184.83 136.417 182.495C150.805 176.481 143.763 157.724 132.667 152.687C131.28 152.342 129.429 151.522 127.741 151.336C127.588 151.261 127.256 151.477 126.853 151.272C114.618 152.639 111.831 171.64 119.571 179.227M165.978 180.341C170.702 186.609 179.484 188.543 186.659 185.629C200.834 180.045 195.807 163.412 186.108 156.891C165.622 149.19 157.162 168.785 165.978 180.341M196.706 166.454C196.72 166.448 196.733 166.445 196.746 166.438C196.671 166.405 196.596 166.372 196.522 166.339C196.546 166.402 196.573 166.465 196.596 166.529C196.633 166.503 196.665 166.474 196.706 166.454M109.819 159.679C110.976 159.681 112.647 159.871 113.604 160.674C115.965 152.709 124.68 145.337 132.259 150.712C138.227 152.632 142.656 156.891 145.173 162.552C149.711 159.852 156.848 161.005 160.783 164.576C163.361 156.056 169.704 153.073 177.254 152.632C185.495 151.282 193.709 159.288 196.272 165.711C198.403 165.469 201.587 164.79 203.592 166.106C216.603 162.692 239.35 160.811 241.995 162.707C243.881 163.431 244.915 167.882 242.282 168.122C239.988 167.796 242.55 164.86 240.237 164.54C227.914 163.776 215.952 166.259 203.759 167.3C202.671 168.765 199.153 169.255 197.277 168.667C200.232 179.562 193.853 186.975 184.294 189.195C169.493 192.596 156.616 179.351 160.486 165.574C156.003 163.342 150.845 163.438 145.961 164.613C154.123 194.663 105.746 193.315 113.302 161.704C108.273 164.206 107.181 160.184 109.819 159.679" fill="#111111"/>
</svg>
