<svg width="395" height="532" viewBox="0 0 395 532" fill="none" xmlns="http://www.w3.org/2000/svg">
<rect width="79.4392" height="97.863" transform="matrix(-1 0 0 1 183.161 318.575)" fill="#79FFE1"/>
<path fill-rule="evenodd" clip-rule="evenodd" d="M220.159 237.665L216.715 239.779L196.714 249.67C192.836 250.756 190.898 252.058 190.898 253.575V269.025C190.898 271.092 187.259 275.778 179.981 283.082L173.258 276.377L173.408 275.499C174.048 271.716 174.368 269.186 174.368 267.908C174.368 266.533 167.79 261.315 154.635 252.254L148.879 246.834L149.493 244.967C145.944 245.135 142.096 247.321 141.24 250.062C139.812 251.8 139.748 256.682 138.764 259.018C95.9427 265.836 89.4416 299.234 84.2874 337.15C77.4688 375.625 61.9899 414.017 68.7097 453.608C67.8341 454.875 67.1438 456.107 66.5055 457.57C64.976 460.174 66.946 463.859 70.031 463.716C74.0241 463.366 77.9777 462.887 81.9895 462.737C93.1109 462.351 104.242 462.397 115.368 462.538L116.885 462.558C172.955 463.256 229.022 464.632 285.094 464.997C287.128 465 288.124 463.175 287.853 461.375C287.306 457.75 286.798 454.123 286.268 450.497C299.531 454.001 313.63 454.883 326.855 450.865C327.78 449.923 324.7 450.434 324.211 450.29C336.382 441.97 332.747 424.443 331.669 411.818C324.965 368.561 322.602 320.699 296.699 283.786C285.493 268.722 269.065 256.795 250.187 254.111L249.663 254.04L249.136 253.971C243.754 253.286 237.838 252.971 233.166 250.062C227.881 245.842 225.549 238.138 220.159 237.665ZM172.233 328.346C174.195 328.346 178.213 331.394 184.286 337.489L184.821 337.737C192.163 341.148 197.027 344.108 199.413 346.615L199.498 346.706C201.908 349.292 206.681 356.17 213.816 367.34L224.149 373.453H228.059L230.842 393.652L224.149 408.074L208.988 402.965L184.286 396.452L170.111 382.065L162.115 379.38C163.085 382.184 163.437 384.973 162.231 387.757C160.147 391.86 153.876 393.953 149.707 395.348C141.07 398.664 126.02 395.223 121.001 387.757C118.325 383.774 115.223 373.728 113.627 370.612L113.17 364.191C112.345 352.342 111.732 340.08 114.304 338.293C126.338 329.93 157.424 334.132 158.136 334.6C159.703 335.631 160.378 335.723 161.225 337.061L161.664 337.12L159.197 333.773L160.07 333.307C166.303 330 170.358 328.346 172.233 328.346ZM162.231 339.28C163.346 344.089 160.253 347.568 158.791 352.214L162.528 345.057L162.528 339.373C162.431 339.349 162.332 339.319 162.231 339.28Z" fill="#111111"/>
<path fill-rule="evenodd" clip-rule="evenodd" d="M221.811 236.918C220.98 236.182 219.751 237.107 220.278 238.101C221.465 240.336 222.682 242.453 224.274 244.428C225.239 245.626 226.274 246.759 227.322 247.879C224.632 250.206 222.326 253.096 220.147 255.804C217.362 259.268 214.729 262.879 211.602 266.048C208.519 269.174 205.109 271.359 200.987 272.816L200.154 273.105C196.013 274.56 191.587 276.524 189.252 280.446C188.792 281.22 189.719 282.176 190.498 281.693C194.554 279.18 199.32 278.675 203.736 277.015C208.001 275.411 211.719 272.943 215.004 269.793C218.283 266.648 221.037 263.07 223.909 259.568C226.75 256.105 229.808 253.147 233.168 250.217C238.352 253.707 244.27 255.225 250.288 256.716L250.945 256.879C256.97 258.371 262.962 260.104 268.615 262.703C273.598 264.993 278.5 267.729 282.559 271.457C286.868 275.413 290.222 280.466 293.292 285.407C300.158 296.462 304.986 308.574 309.236 320.832C313.656 333.583 317.353 346.589 320.338 359.749C321.856 366.444 323.088 373.185 324.102 379.974C324.589 383.244 325.023 386.521 325.403 389.805C325.81 393.312 325.903 396.919 326.978 400.291C327.439 401.736 328.528 402.336 329.617 402.285L329.839 405.054C330.132 408.745 330.406 412.438 330.498 416.153C330.651 422.329 330.582 428.488 330.138 434.651L330.075 435.492C329.726 439.99 328.946 445.044 325.565 448.338C322.063 451.749 316.679 452.822 311.959 452.883C300.967 453.027 290.386 447.831 280.659 443.273C270.641 438.578 260.897 433.368 251.387 427.717C246.543 424.839 241.752 421.865 237.022 418.805C234.701 417.302 232.397 415.775 230.109 414.222C228.799 413.333 227.557 412.358 226.224 411.57C226.877 410.961 227.169 410.004 226.621 409.168C230.477 405.82 232.082 399.845 232.27 395.011C232.421 391.108 231.847 387.217 231.394 383.351C231.165 381.402 230.883 379.456 230.59 377.516C230.474 376.749 230.386 375.929 230.25 375.12C240.662 380.843 251.365 385.941 262.351 390.469C267.983 392.79 273.687 394.877 279.469 396.79L280.641 397.176C286.12 398.97 291.73 400.665 297.394 401.69C297.697 401.745 297.943 401.298 297.619 401.155C292.1 398.719 286.389 396.664 280.786 394.42L279.865 394.045V394.045C279.971 394.039 280.081 394.024 280.195 393.997C283.481 393.203 286.741 391.981 289.964 390.951C292.955 389.996 296.315 389.396 299.111 387.954C299.326 387.843 299.205 387.544 298.996 387.529C295.854 387.311 292.443 388.228 289.362 388.766L288.204 388.969C286.266 389.311 284.284 389.679 282.355 390.158C282.285 389.512 281.924 388.863 281.41 388.482C275.757 384.294 276.331 375.834 275.726 369.596L275.278 364.965C274.489 356.86 273.655 348.756 272.387 340.712C272.32 340.282 271.655 340.406 271.652 340.811C271.587 350.783 272.34 360.709 272.717 370.665L272.775 372.299C272.984 378.442 273.147 384.821 277.015 389.548C276.474 389.232 275.743 389.232 275.305 389.753C274.766 390.394 274.455 391.114 274.465 391.82C270.97 390.355 267.49 388.85 264.028 387.316C252.895 382.382 241.995 376.86 231.384 370.886C230.242 370.243 229.157 370.748 228.592 371.596L228.51 371.584C228.497 371.582 228.483 371.581 228.469 371.58L228.388 371.577C228.385 371.577 228.382 371.577 228.379 371.577C226.885 370.756 224.85 371.341 223.568 372.539C223.531 372.575 223.498 372.614 223.465 372.652C221.842 371.923 220.327 370.939 218.952 369.692C216.138 367.141 213.754 363.986 211.676 360.822C207.85 354.996 204.599 348.516 199.43 343.72C195.23 339.823 190.023 337.397 184.561 335.874C184.584 335.714 184.523 335.544 184.412 335.431C184.132 335.143 183.931 335.044 183.569 335.218C183.54 335.233 183.523 335.252 183.511 335.273L182.978 334.362C182.687 333.867 182.388 333.369 182.285 333.239C181.664 332.457 181.026 331.682 180.378 330.923C179.28 329.638 178.028 328.37 176.578 327.479C173.404 325.528 170.067 326.632 166.804 327.698C164.832 328.343 162.867 329.008 160.899 329.662L160.695 329.728C159.228 330.2 157.51 330.613 156.854 332.168C156.594 332.784 156.554 333.423 156.675 334.043C142.735 330.496 127.253 332.126 113.65 336.289C113.128 336.448 112.606 336.878 112.496 337.442C110.938 345.438 110.244 353.638 110.949 361.771C111.557 368.79 113.112 375.67 116.042 382.096L116.209 382.459C118.962 388.415 123.326 395.757 129.991 397.624C134.015 398.751 138.466 398.086 142.571 397.88C146.56 397.679 150.637 397.65 154.588 397.022C158.107 396.464 161.191 394.886 163.365 392.023C165.241 389.554 166.229 386.569 167.039 383.601C167.409 383.719 167.777 383.844 168.139 383.986C169.668 384.583 170.963 385.547 172.134 386.682C174.608 389.077 176.526 391.987 179.113 394.274C181.456 396.343 184.125 397.953 186.988 399.19C192.92 401.755 199.284 402.779 205.559 404.138L205.997 404.234C210.721 405.271 215.543 406.544 219.712 409.004C219.794 409.729 220.124 410.41 220.652 410.856C219.917 411.547 219.606 412.642 220.252 413.668C222.057 416.534 225.166 418.165 227.958 419.998L228.14 420.117C230.886 421.939 233.655 423.724 236.448 425.472C242.125 429.028 247.921 432.388 253.798 435.6C263.251 440.766 272.907 445.64 282.739 450.06C282.148 452.964 282.364 455.959 281.921 458.883L281.853 459.3C281.663 460.385 281.919 461.292 282.666 462.001L282.745 462.074L282.744 462.064L282.814 462.128L282.837 462.148L282.829 462.142C282.916 462.221 283.004 462.294 283.095 462.357L283.21 462.431V462.431C283.93 462.869 284.856 462.864 285.593 462.478L285.677 462.431L285.819 462.35C286.792 461.79 287.463 460.402 287.059 459.3C286.067 456.59 285.692 453.698 284.776 450.971L285.503 451.296V451.296L286.461 451.714C296.825 456.197 308.338 459.973 319.631 456.916C324.621 455.565 329.285 452.708 331.781 448.05C334.238 443.467 334.585 438.146 334.716 433.048C334.877 426.756 334.54 420.368 333.71 414.13C333.153 409.943 332.48 405.676 331.441 401.532C331.976 401.061 332.368 400.384 332.472 399.547C332.962 395.589 332.104 391.474 331.579 387.537C331.066 383.692 330.499 379.855 329.858 376.03C328.564 368.306 327.06 360.598 325.309 352.964C322.193 339.377 318.079 326.032 313.125 313.006L312.691 311.871C308.114 299.965 302.814 288.312 295.434 277.853C291.904 272.848 288.172 268.311 283.183 264.705C278.51 261.327 273.238 258.894 267.798 257.035C262.352 255.174 256.755 253.927 251.059 253.151C245.273 252.364 239.167 251.88 233.77 249.507C234.453 248.282 233.867 246.629 232.718 245.87C228.852 243.315 225.276 239.99 221.811 236.918ZM98.0362 348.045C97.8742 347.799 97.4895 347.955 97.5606 348.246C99.4411 355.953 101.206 363.676 102.359 371.53C104.44 385.706 104.057 400.068 103.887 414.349L103.879 415.087C103.791 422.78 103.67 430.473 103.416 438.162C103.287 442.048 103.033 445.972 103.171 449.86C103.247 451.969 103.809 453.965 104.008 456.048C104.182 457.871 104.027 459.721 103.94 461.546C103.881 462.759 105.671 462.707 105.793 461.546L105.949 460.043C106.151 458.142 106.401 456.252 107.024 454.433C107.773 452.244 108.132 450.094 108.392 447.796C108.79 444.275 108.967 440.718 109.121 437.172L109.226 434.719C109.867 419.899 109.845 405.01 108.806 390.206L108.73 389.149C107.702 375.155 105.918 360.035 98.0362 348.045ZM138.122 259.848C138.613 259.646 138.441 258.903 137.897 259.033L136.908 259.269C129.659 261.005 122.543 262.887 115.777 266.119C109.008 269.353 103.276 274.18 98.7223 280.117C89.8695 291.656 86.1906 305.679 83.2864 319.69C80.0589 335.258 77.1203 350.883 73.8647 366.446L73.2602 369.345C70.2477 383.841 67.4035 398.344 65.3078 413.011L65.1573 414.075C63.0439 429.158 61.7727 444.762 64.0788 459.884C64.5349 462.876 69.5115 462.131 69.3169 459.175C68.7549 450.63 68.3525 442.13 68.7414 433.566C69.1306 425 69.9337 416.472 71.1308 407.981C72.1383 400.836 73.6401 393.779 74.9691 386.69L75.1774 385.571C76.2902 379.542 77.4375 373.518 78.5822 367.495L80.2929 358.476C82.8568 344.972 85.4709 331.456 88.4247 318.037L88.5999 317.247C91.4906 304.337 95.7522 290.813 104.423 280.561C113.222 270.157 125.818 264.917 138.122 259.848ZM170.094 396.786C169.883 396.315 169.142 396.366 168.915 396.786C168.023 398.432 167.924 400.533 167.755 402.391L167.738 402.582C167.523 404.849 167.334 407.124 167.217 409.398C166.997 413.715 166.892 418.026 166.905 422.349C166.919 426.778 167.008 431.202 167.247 435.625L167.312 436.81C167.529 440.654 167.895 444.941 169.721 448.301C170.384 449.523 172.189 449.164 172.573 447.929C173.833 443.884 173.186 439.088 172.863 434.945L172.612 431.712C172.364 428.479 172.127 425.245 171.939 422.008C171.682 417.58 171.47 413.147 171.265 408.717C171.199 407.278 171.127 405.838 171.051 404.399L170.935 402.241C170.835 400.436 170.843 398.455 170.094 396.786ZM311.679 402.519L311.122 401.98C309.41 400.305 307.248 397.725 304.718 397.885C303.709 397.949 303.067 398.786 303.276 399.779C303.723 401.902 305.887 403.003 307.445 404.299C309.151 405.718 310.76 407.235 312.365 408.766C313.79 410.124 315.159 411.521 316.496 412.961L316.996 413.503C317.475 414.026 320.888 417.114 320.519 417.915L320.499 417.951C320.396 418.104 320.567 418.315 320.737 418.261C322.211 417.796 322.119 416.532 321.562 415.252C320.491 412.792 318.617 410.517 316.98 408.416C315.347 406.321 313.58 404.369 311.679 402.519V402.519ZM164.754 340.833C165.894 338.139 170.092 338.195 172.475 338.356C178.476 338.762 184.969 340.281 190.309 343.087C195.845 345.996 199.574 350.658 202.911 355.812L203.067 356.054C206.319 361.111 209.451 367.098 214.544 370.575C217.137 372.347 220.166 373.964 223.313 374.665C223.529 375.045 223.879 375.346 224.338 375.455L224.552 375.504C225.448 375.702 226.84 375.921 228.043 375.79C228.035 376.379 228.041 376.963 228.026 377.52C227.984 379.118 227.966 380.723 227.966 382.322C227.965 385.673 228.145 389.03 228.006 392.38C227.882 395.344 227.463 398.44 226.041 401.089C224.998 403.032 223.621 404.318 221.959 405.546C217.871 403.053 213.248 401.534 208.555 400.392C202.881 399.01 197.071 398.088 191.525 396.215C188.856 395.313 186.29 394.133 183.965 392.53C181.498 390.828 179.613 388.525 177.674 386.272L177.371 385.922C175.392 383.652 173.233 381.479 170.436 380.248C168.027 379.187 164.853 378.999 162.747 377.358C161.646 376.499 161.553 375.253 161.438 373.978C162.786 374.171 164.214 373.861 165.558 373.704L166.255 373.622C167.526 373.471 168.768 373.305 170.019 372.981C170.252 372.921 170.252 372.571 170.019 372.511C168.54 372.129 167.075 371.966 165.558 371.788L165.202 371.744C163.83 371.564 162.389 371.292 161.043 371.594C160.802 370.675 160.453 369.798 159.964 368.919C159.277 367.685 157.978 366.285 157.803 364.844C157.75 364.413 157.851 363.905 158.054 363.524L158.124 363.395C158.209 363.241 158.31 363.087 158.458 362.992C158.474 363.011 158.509 363.033 158.584 363.056C159.619 363.382 160.523 362.875 161.002 362.094C163.037 362.347 165.259 362.262 167.167 362.346L169.097 362.439C171.159 362.534 173.315 362.575 175.252 362.159C175.523 362.101 175.605 361.65 175.334 361.534C172.952 360.515 170.062 360.19 167.512 359.798C166.087 359.579 164.653 359.413 163.224 359.22C162.273 359.092 161.263 358.88 160.278 358.829C157.807 355.752 159.138 350.897 162.577 349.572C163.83 350.123 164.956 349.803 166.325 349.685C167.691 349.568 169.06 349.488 170.432 349.494C173.18 349.506 176.093 350.23 178.815 349.918C179.257 349.867 179.669 349.278 179.229 348.919C177.145 347.218 174.159 346.663 171.515 346.301L170.966 346.227C170.08 346.111 169.002 345.941 167.883 345.84C167.63 345.347 167.177 344.974 166.495 344.881C166.292 344.853 166.089 344.837 165.885 344.82L165.889 344.8V344.8C164.226 344.72 164.298 341.911 164.754 340.833ZM278.56 393.382C278.59 393.428 278.622 393.471 278.656 393.512L278.709 393.574L278.435 393.463L278.56 393.382V393.382ZM135.746 334.812C142.743 334.06 149.75 334.219 156.768 334.421C157.329 336.257 159.283 337.823 161.176 337.882C159.693 340.139 159.54 343.194 160.58 345.588C158.372 346.467 156.471 348.046 155.316 350.295C153.715 353.413 153.925 356.882 155.507 359.763C154.157 360.986 153.36 362.972 153.44 364.844C153.529 366.931 154.772 368.714 155.806 370.442C156.922 372.311 156.96 373.957 157.303 376.05C157.805 379.114 159.87 380.972 162.528 382.132L162.387 382.688C161.701 385.356 160.849 388.171 158.891 390.122C156.372 392.632 152.464 392.609 149.135 392.768L148.975 392.776C145.927 392.928 142.881 393.107 139.834 393.279L137.549 393.407C134.041 393.6 130.672 393.624 127.809 391.304C123.134 387.517 119.929 381.25 117.9 375.702C113.642 364.057 113.591 351.277 115.546 339.149C122.1 337.036 128.901 335.548 135.746 334.812ZM193.934 354.132L193.883 354.136C192.442 354.3 191.452 355.467 191.1 356.852C190.588 358.864 190.839 360.683 189.607 362.499C188.34 364.367 187.561 365.862 187.377 368.17C187.301 369.119 187.336 370.066 187.124 370.996L186.971 371.647C186.809 372.341 186.675 373.01 186.756 373.755C186.83 374.435 187.161 374.965 187.843 375.183C190.064 375.893 191.779 374.256 192.353 372.185C192.849 370.397 192.187 368.265 192.886 366.586C193.273 365.655 193.988 364.876 194.392 363.939C194.792 363.01 194.993 362.039 195.057 361.029C195.179 359.119 193.49 356.824 194.432 355.093C194.633 354.724 194.406 354.121 193.934 354.132ZM223.439 334.421C221.934 334.116 220.228 333.415 218.745 333.997C217.982 334.297 217.605 335.227 218.25 335.874C219.368 336.995 220.994 337.058 222.5 337.322L222.633 337.346C224.414 337.676 226.198 337.989 227.985 338.285C231.347 338.842 234.717 339.334 238.098 339.753C241.571 340.183 245.054 340.566 248.542 340.854L249.892 340.964C252.838 341.2 255.904 341.378 258.795 340.927C259.215 340.861 259.147 340.249 258.795 340.142C255.628 339.183 252.154 338.926 248.88 338.52C245.399 338.088 241.924 337.632 238.458 337.09C234.998 336.55 231.542 335.97 228.099 335.328C226.543 335.039 224.99 334.737 223.439 334.421ZM169.165 331.343C170.485 330.875 171.937 330.183 173.367 330.414C175.834 330.814 178.029 333.218 179.981 334.801L179.001 334.611C173.985 333.646 167.343 332.607 163.132 335.798C163.121 335.779 163.113 335.761 163.101 335.742C162.761 335.226 162.367 334.823 161.937 334.381C161.896 334.343 161.857 334.303 161.818 334.262L161.586 334.015L162.116 333.831C163.252 333.429 164.598 332.911 164.811 332.835L164.825 332.83C166.274 332.339 167.724 331.854 169.165 331.343ZM210.377 226.166C210.583 223.51 206.451 223.532 206.247 226.166C205.8 231.917 207.094 237.612 209.878 242.654C209.899 242.691 209.921 242.723 209.943 242.758C208.201 243.664 206.44 244.534 204.64 245.311C202.337 246.306 199.99 247.212 197.602 247.98C195.441 248.675 192.78 248.95 190.963 250.397C187.133 253.448 188.572 259.78 189.309 263.885L189.424 264.532C189.791 266.644 190.056 268.811 189.166 270.838C188.215 273.003 186.293 274.61 184.579 276.159L184.232 276.473C182.713 277.857 180.977 279.539 179.863 281.416C178.846 279.313 177.46 277.593 175.994 275.658C174.948 274.277 175.692 273.821 176.444 272.472C177.167 271.174 177.52 269.789 177.294 268.308C176.876 265.572 174.691 263.595 172.515 262.11C169.945 260.358 167.078 259.059 164.422 257.428C158.963 254.078 153.648 250.248 148.859 245.993C148.727 245.876 148.498 246.03 148.604 246.19C152.387 251.947 156.822 256.921 162.274 261.143C164.484 262.855 166.806 264.275 169.144 265.767L169.816 266.199C170.755 266.807 171.925 267.62 172.35 268.656C172.777 269.697 171.866 270.483 171.376 271.346C169.82 274.086 170.571 276.642 172.416 278.965L172.502 279.072C174.335 281.333 175.725 283.435 176.39 286.323C177.818 292.527 175.829 298.989 173.746 304.813L173.664 305.043C172.538 308.182 171.341 311.298 170.362 314.488L170.093 315.37C169.206 318.305 168.48 321.199 169.475 324.216C169.813 325.242 171.212 325.485 171.793 324.519C173.843 321.113 174.354 317.015 175.639 313.27C176.891 309.621 178.329 306.037 179.539 302.373C181.096 297.655 182.139 292.577 181.573 287.628C181.589 287.599 181.608 287.572 181.622 287.542L182.018 286.674C183.099 284.325 184.144 282.273 186.11 280.4C188.161 278.447 190.387 276.718 192 274.353C195.506 269.217 193.338 263.503 192.914 257.886L192.866 257.198C192.789 256.032 192.747 254.447 193.508 253.64C194.365 252.731 196.373 252.499 197.51 252.097C200.447 251.058 203.341 249.846 206.097 248.391C208.721 247.007 211.263 245.477 213.629 243.685L214.829 242.782C216.721 241.354 218.684 239.794 219.952 237.849C220.099 237.625 219.85 237.264 219.585 237.371C217.467 238.231 215.533 239.598 213.552 240.788C213.521 240.715 213.485 240.642 213.445 240.568C210.993 236.131 209.985 231.214 210.377 226.166ZM142.738 256.572C141.894 254.257 138.049 254.436 138.203 257.186C138.32 259.298 139.217 261.205 140.037 263.123L140.124 263.329C140.97 265.328 141.948 267.204 143.118 269.036C145.353 272.537 147.971 275.787 150.767 278.853C153.302 281.634 156.63 283.334 160.464 283.051C162.079 282.932 163.71 282.521 165.126 281.714C166.807 280.755 168.633 277.875 170.779 278.572C170.986 278.64 171.18 278.336 171 278.192C168.524 276.197 165.713 279.29 163.342 280.035C159.769 281.158 156.103 279.917 153.803 277.027C151.402 274.011 149.193 270.633 147.175 267.348C146.15 265.68 145.215 263.949 144.407 262.165C143.593 260.365 143.407 258.408 142.738 256.572ZM148.497 242.329C148.601 242.009 148.204 241.705 147.923 241.887C146.296 242.947 144.886 244.348 143.385 245.575C141.72 246.937 140.042 248.271 138.338 249.584C135.855 251.5 138.735 255.025 140.921 252.933C143.913 250.071 147.189 246.329 148.497 242.329ZM157.431 231.127C156.77 228.576 152.86 229.628 153.43 232.148L153.448 232.225C154.528 236.388 152.991 240.627 149.709 243.326L149.589 243.424C147.513 245.086 150.454 247.991 152.509 246.345C156.996 242.753 158.863 236.65 157.431 231.127Z" fill="#111111"/>
<path fill-rule="evenodd" clip-rule="evenodd" d="M184.175 67.3101C183.204 66.2072 181.709 66.5855 180.801 67.4576C180.21 67.6321 179.638 67.8917 179.097 68.2353C177.875 68.0781 176.594 68.0781 175.395 68.1221C175.105 67.9587 174.793 67.8133 174.454 67.6883C172.031 66.8003 169.885 67.2514 168.115 68.4404C167.262 67.6318 166.187 67.1244 164.812 67.2011C163.585 67.2698 162.71 67.8487 161.961 68.6111C161.213 67.5308 160.005 66.76 158.5 66.6528C156.397 66.5029 154.374 67.3486 152.698 68.658C151.722 67.535 150.39 66.8895 148.907 66.8832C147.93 66.7056 146.9 66.7757 145.969 67.0574C144.618 67.4666 143.431 68.2332 142.486 69.2281C140.991 67.7928 139.161 66.76 137.051 66.9106C134.32 67.1085 132.056 69.1216 131.003 71.5994C129.155 72.3417 127.448 73.4005 126.022 74.9101C125.946 74.9896 125.873 75.0728 125.797 75.1565C125.029 75.4407 124.305 75.8436 123.668 76.3742C121.65 78.0577 121.2 80.4938 121.868 82.8811C121.775 83.2631 121.695 83.6518 121.622 84.0401C119.732 84.3282 118.015 85.4217 117.039 87.202C115.703 89.6451 115.966 92.8652 117.413 95.1976C118.035 96.2008 118.825 97.0462 119.711 97.7854C118.709 100.069 119.19 102.794 120.807 104.641C121.201 105.277 121.684 105.852 122.228 106.372C121.628 108.733 122.696 111.169 124.828 112.43L125.011 112.888C125.042 112.964 125.073 113.04 125.105 113.115C125.128 113.212 125.157 113.306 125.186 113.401C125.237 114.239 125.512 115.061 126.058 115.835C127.177 117.423 128.563 118.458 129.298 120.311L129.372 120.506C129.688 121.383 130.708 122.001 131.578 121.731C126.75 131.67 124.219 142.73 122.481 153.568C121.614 158.975 120.946 164.401 120.403 169.848L119.871 175.272C119.404 180.093 118.987 184.93 118.985 189.767C118.978 200.709 122.1 211.234 128.802 219.942C135.14 228.173 144.109 234.138 154.241 236.488C164.702 238.91 176.974 237.956 186.355 232.41C189.121 230.78 186.698 226.858 183.883 228.17C178.556 230.655 173.142 232.501 167.236 232.914C161.48 233.319 155.709 232.598 150.25 230.71C141.219 227.583 133.534 221.035 128.594 212.88C126.161 208.861 124.399 204.499 123.46 199.89C122.293 194.145 122.469 188.208 122.898 182.39L122.927 181.994C123.775 170.784 124.894 159.506 126.701 148.408C128.298 138.594 130.754 128.979 133.942 119.577C135.191 118.475 136.588 117.563 138.083 116.87C149.032 116.412 159.999 116.546 170.933 117.303C180.258 117.953 189.538 119.053 198.748 120.656L199.734 120.829C201.773 121.193 204.037 121.402 205.958 122.224C207.606 122.932 208.274 124.293 208.69 125.965C209.735 130.195 209.894 134.825 210.071 139.163C210.244 143.403 209.853 147.679 210.192 151.906C210.479 155.442 211.383 159.062 213.996 161.619C215.364 162.959 217.046 163.691 218.624 164.708C219.646 165.364 220.078 166.04 219.947 167.255C219.663 169.913 217.527 173.262 219.926 175.539C220.348 175.938 221.079 175.99 221.494 175.539C222.484 174.46 223.852 173.637 225.025 172.766C225.517 172.405 225.108 171.704 224.551 171.954C223.817 172.284 223.069 172.672 222.304 173.013C223.993 171.617 226.396 170.933 228.397 170.527C229.404 170.326 230.463 170.267 231.512 170.361C232.288 170.732 233.08 171.076 233.873 171.412C234.88 171.836 235.898 172.221 236.923 172.586C240.478 175.49 242.174 180.213 241.433 184.832C241.028 187.383 239.855 190.156 237.643 191.645C235.022 193.408 231.512 192.651 228.681 193.959C226.029 195.184 224.416 197.659 223.208 200.22L222.704 201.286C221.583 203.647 220.43 205.945 218.898 208.094C217.126 210.582 214.955 212.817 212.587 214.736C211.439 215.665 210.214 216.501 208.949 217.262L208.603 217.467C207.322 218.22 206.405 218.938 206.318 220.531C206.291 221.087 206.64 221.593 207.09 221.881C209.029 223.113 210.957 221.572 212.57 220.497C214.311 219.338 215.976 218.033 217.517 216.61C220.445 213.91 222.979 210.704 224.928 207.223C226.413 204.572 227.258 200.841 229.605 198.787C231.038 197.533 233.063 197.523 234.853 197.294C236.518 197.079 238.093 196.732 239.574 195.91C245.601 192.554 247.304 184.43 245.875 178.152C245.632 177.093 245.293 176.063 244.874 175.07C247.117 175.445 249.637 173.12 248.727 170.774C248.658 170.597 248.578 170.431 248.502 170.26C249.98 169.285 251.147 167.807 251.7 165.874C251.984 164.874 252.026 163.864 251.877 162.889C252.594 162.407 253.186 161.744 253.566 160.929C254.757 160.377 255.813 159.551 256.443 158.371C257.315 156.743 257.204 155.244 256.54 153.894C256.633 153.725 256.723 153.551 256.81 153.374C259.25 151.823 260.953 149.15 260.76 146.187C260.697 145.205 260.455 144.32 260.081 143.522C260.112 143.421 260.143 143.317 260.171 143.216C262.213 142.175 263.903 140.464 264.505 138.181C265.107 135.883 264.398 133.593 262.979 131.83C265.055 130.307 266.305 128.179 265.547 124.962C265.239 123.654 264.619 122.464 263.782 121.461C263.785 121.43 263.792 121.398 263.799 121.367L263.993 121.216C266.557 119.187 268.031 116.602 266.457 113.423C265.751 111.994 264.744 110.998 263.56 110.342L263.501 110.154V110.154C264.349 108.332 264.637 106.309 264.052 104.182C263.574 102.43 262.442 101.034 260.995 100.108C261.092 99.3234 261.078 98.4874 260.922 97.5813C260.663 96.0513 259.905 94.7152 258.797 93.7678C258.755 93.5662 258.703 93.3687 258.645 93.1706C258.271 91.9598 257.571 90.6445 256.761 89.669C256.093 88.8604 255.346 88.5654 254.432 88.5342C254.487 87.7884 254.449 87.0316 254.297 86.2646C253.829 83.8982 252.327 81.6734 250.101 80.6635C249.187 80.2506 248.225 80.1294 247.297 80.2297C246.508 78.564 244.968 77.3567 243.074 77.0964C242.337 76.9923 241.651 76.9989 241.021 77.0929C240.665 76.926 240.294 76.7771 239.907 76.6414C239.65 76.5512 239.391 76.4679 239.131 76.385C238.255 75.2953 237.103 74.4239 235.756 73.9002C234.202 73.2929 232.62 73.355 231.218 73.8652L230.771 73.7715V73.7715C230.072 72.5569 228.957 71.6164 227.244 71.1896C225.299 70.7072 223.301 71.3804 221.771 72.6058C221.764 72.6058 221.757 72.6058 221.747 72.602C220.947 70.8078 219.58 69.5585 217.285 69.6453C215.855 69.7008 214.564 70.4125 213.567 71.4259C213.013 71.3561 212.459 71.2937 211.902 71.2315C211.313 70.5406 210.659 69.8955 209.936 69.3159C208.752 68.3647 207.211 68.4414 206.339 69.7806C206.149 70.0721 205.972 70.3671 205.796 70.6621L204.996 70.6065V70.6065C204.054 69.3329 202.77 68.4723 201.012 68.4032C199.399 68.3369 198.249 69.1285 197.373 70.2352C196.66 70.2179 195.944 70.2043 195.227 70.1936C194.393 69.2253 193.41 68.3717 192.288 67.6637C191.43 67.1223 190.163 67.3066 189.467 68.0284C188.997 68.5191 188.559 69.0314 188.153 69.5616C187.104 68.3831 185.688 67.6068 184.175 67.3101ZM235.123 177.51C233.506 176.587 231.332 177.586 229.768 178.371C227.86 179.325 225.967 180.765 224.8 182.57C223.211 185.027 226.946 187.012 228.618 184.808C229.646 183.451 230.467 182.084 231.713 180.897C232.852 179.807 234.503 179.079 235.157 177.642C235.182 177.593 235.175 177.538 235.123 177.51ZM233.987 117.872L233.957 117.786C233.497 116.525 235.503 115.981 235.959 117.232C236.65 119.127 235.854 121.187 233.987 122.005C233.469 122.232 232.878 122.154 232.566 121.632C232.304 121.193 232.425 120.432 232.938 120.208C233.989 119.747 234.341 118.934 233.987 117.872V117.872ZM251.272 114.347C250.267 113.458 251.741 111.99 252.74 112.875C253.673 113.7 254.365 114.821 254.185 116.11C254.002 117.424 253.013 118.352 251.932 119.007C250.785 119.702 249.74 117.902 250.884 117.209L251.012 117.13C251.492 116.832 252.054 116.421 252.135 115.833C252.221 115.208 251.694 114.721 251.272 114.347ZM245.571 98.6707L245.5 98.6183C244.421 97.8465 245.457 96.0398 246.549 96.8203C247.549 97.5362 248.351 98.4663 248.436 99.7489C248.518 100.995 247.885 102.076 247.058 102.953C246.137 103.929 244.67 102.454 245.589 101.481C246.484 100.532 246.659 99.497 245.571 98.6707V98.6707Z" fill="#111111"/>
<path fill-rule="evenodd" clip-rule="evenodd" d="M151.96 203.83C151.428 202.904 150.203 202.047 149.081 202.178C144.059 202.768 144.067 208.859 146.007 212.416C147.726 215.569 151.285 217.42 154.847 217.15C158.589 216.866 161.777 214.665 163.181 211.163C164.109 208.847 164.537 204.57 162.069 203.014C162.023 202.985 161.947 202.992 161.911 203.034C160.727 204.411 160.681 206.479 159.645 208.013C158.681 209.439 157.184 210.617 155.43 210.799C154.12 210.935 152.795 210.462 152.283 209.286C152.005 208.649 152.037 208.304 152.141 207.866L152.236 207.485C152.564 206.152 152.711 205.137 151.96 203.83ZM150.617 177.114C147.998 178.707 144.006 182.421 146.824 186.37C150.141 189.852 154.917 185.86 157.271 184.054C159.453 182.655 161.905 186.254 159.88 187.888C142.874 200.483 135.973 177.53 149.292 175.241C150.759 174.989 151.304 176.621 150.617 177.114ZM178.28 166.191C176.672 163.778 173.002 164.133 172.116 166.997C171.636 168.548 172.299 169.943 172.265 171.492C172.236 172.8 172.321 174.259 172.723 175.526C173.637 178.416 176.235 180.457 179.309 180.373C182.373 180.288 185.071 178.348 186.354 175.616C187.642 172.874 187.37 170.035 186.429 167.246C186.384 167.112 186.209 167.048 186.103 167.16C184.992 168.342 184.178 169.589 183.337 170.912L182.474 172.268C181.815 173.289 180.857 174.593 179.626 174.511L179.441 174.493C179.099 174.463 179.151 174.531 178.888 174.065C178.765 173.849 178.788 173.448 178.729 173.193L178.708 173.107V173.107L178.719 173.061C178.745 172.937 178.771 172.705 178.792 172.302L178.797 172.212C178.886 170.326 179.419 167.901 178.28 166.191ZM137.522 167.798C137.811 164.711 133.473 164.026 132.031 166.31C131.279 167.501 131.06 168.997 130.894 170.414L130.816 171.087C130.645 172.543 130.577 174.057 131.209 175.415C132.204 177.554 134.368 178.684 136.702 178.505C138.93 178.334 140.964 177.041 142.036 175.079C142.992 173.328 143.942 169.909 142.781 168.082C142.711 167.972 142.571 167.957 142.475 168.043C141.378 169.017 141.199 170.794 140.547 172.063C139.874 173.372 138.854 174.647 137.308 174.846C135.829 175.036 135.264 174.228 135.641 172.817C136.128 170.996 137.339 169.757 137.522 167.798ZM177.108 147.841L176.399 147.569C173.968 146.651 170.632 145.589 168.656 147.566C167.437 148.785 167.205 150.581 168.075 152.069C169.129 153.871 171.02 153.916 172.846 154.181C174.923 154.483 177.035 155.057 178.969 155.875C181.147 156.797 183.168 157.947 185.149 159.23C187.031 160.45 188.906 162.444 191.16 162.82C191.251 162.835 191.356 162.795 191.38 162.695C191.891 160.491 190.47 158.322 189.201 156.603C187.665 154.522 185.805 152.813 183.726 151.281C181.719 149.803 179.426 148.734 177.108 147.841ZM132.96 155.676L132.743 155.638C131.269 155.393 129.934 155.449 128.823 156.617C127.975 157.508 127.648 158.662 128.052 159.84C128.425 160.927 129.259 162.03 130.47 162.258C134.556 163.027 139.082 162.9 143.188 162.318C145.067 162.051 146.963 161.725 148.793 161.211L149.635 160.967C151.163 160.53 152.912 160.074 154.021 158.95C154.42 158.546 154.19 157.968 153.713 157.781C151.777 157.022 149.123 157.426 147.058 157.366C144.656 157.298 142.25 157.118 139.86 156.869C137.524 156.627 135.263 156.099 132.96 155.676Z" fill="#111111"/>
<path fill-rule="evenodd" clip-rule="evenodd" d="M181.522 212.797C178.714 206.215 172.584 201.378 165.526 199.609C160.344 198.314 154.905 198.355 149.621 198.869C146.853 199.137 143.884 199.356 141.276 200.384C139.048 201.263 137.233 202.923 135.868 204.873C134.243 207.182 133.138 209.826 132.362 212.536C132.252 212.921 132.148 213.309 132.052 213.699C132.389 215.744 133.105 217.484 134.998 218.769C136.846 220.025 139.05 220.538 141.247 220.72C141.462 220.617 141.67 220.511 141.861 220.401C145.285 218.441 147.695 213.807 152.016 214.434C155.873 214.994 158.411 219.848 160.705 222.695C168.067 223.553 175.423 221.34 181.413 217.129C181.717 215.688 181.735 214.234 181.522 212.797M127.048 207.804C127.637 206.151 128.379 204.55 129.258 203.041C132.164 198.053 136.627 194.078 141.924 191.806C154.454 186.439 170.667 190.223 180.787 199.025C184.243 202.035 187.739 206.457 188.796 211.213C189.111 211.276 189.409 211.44 189.654 211.672C196.966 207.067 204.495 202.636 210.386 196.253C214.665 191.615 217.641 186.127 219.463 180.095C219.612 179.599 220.412 179.672 220.388 180.221C220.381 180.349 220.374 180.478 220.367 180.606C220.443 180.37 220.804 180.491 220.831 180.721C221.812 188.047 223.038 195.815 221.909 203.18C221.233 207.575 219.238 210.792 216.57 214.266C213.712 217.99 210.476 221.454 207.168 224.775C205.068 226.884 202.875 229.315 200.305 230.861C197.315 232.657 193.924 234.023 190.733 235.409C187.487 236.823 184.192 238.129 180.835 239.262C174.125 241.534 167.189 243.104 160.132 243.792C154.482 244.341 148.024 244.939 142.61 242.812C138.459 241.183 135.109 238.237 132.452 234.693C129.559 230.834 127.272 226.437 126.008 221.801C124.695 216.985 126.771 208.581 127.048 207.804" fill="#111111"/>
</svg>
