<svg width="395" height="532" viewBox="0 0 395 532" fill="none" xmlns="http://www.w3.org/2000/svg">
<rect width="79.4392" height="97.863" transform="matrix(-1 0 0 1 183.235 318.576)" fill="#79FFE1"/>
<path fill-rule="evenodd" clip-rule="evenodd" d="M220.233 237.665L216.789 239.779L196.788 249.67C192.91 250.756 190.972 252.058 190.972 253.575V269.025C190.972 271.092 187.333 275.778 180.055 283.082L173.332 276.377L173.482 275.499C174.122 271.716 174.442 269.186 174.442 267.908C174.442 266.533 167.864 261.315 154.709 252.254L148.953 246.834L149.567 244.967C146.018 245.135 142.17 247.321 141.314 250.062C139.887 251.8 139.822 256.682 138.838 259.018C96.0168 265.836 89.5157 299.234 84.3615 337.15C77.5429 375.625 62.064 414.017 68.7838 453.608C67.9082 454.875 67.2179 456.107 66.5796 457.57C65.0501 460.174 67.0201 463.859 70.1051 463.716C74.0982 463.366 78.0518 462.887 82.0636 462.737C93.185 462.351 104.317 462.397 115.442 462.538L116.959 462.558C173.029 463.256 229.096 464.632 285.168 464.997C287.202 465 288.198 463.175 287.927 461.375C287.38 457.75 286.872 454.123 286.342 450.497C299.605 454.001 313.704 454.883 326.929 450.865C327.855 449.923 324.774 450.434 324.285 450.29C336.456 441.97 332.821 424.443 331.743 411.818C325.039 368.561 322.676 320.699 296.773 283.786C285.568 268.722 269.139 256.795 250.261 254.111L249.737 254.04L249.21 253.971C243.828 253.286 237.913 252.971 233.24 250.062C227.955 245.842 225.623 238.138 220.233 237.665ZM172.307 328.346C174.269 328.346 178.287 331.394 184.36 337.489L184.895 337.737C192.237 341.148 197.101 344.108 199.487 346.615L199.572 346.706C201.982 349.292 206.755 356.17 213.89 367.34L224.223 373.453H228.133L230.916 393.652L224.223 408.074L209.063 402.965L184.36 396.452L170.185 382.065L162.189 379.38C163.16 382.184 163.511 384.973 162.306 387.757C160.221 391.86 153.95 393.953 149.781 395.348C141.144 398.664 126.094 395.223 121.075 387.757C118.399 383.774 115.297 373.728 113.701 370.612L113.244 364.191C112.419 352.342 111.806 340.08 114.378 338.293C126.412 329.93 157.498 334.132 158.21 334.6C159.777 335.631 160.452 335.723 161.299 337.061L161.738 337.12L159.271 333.773L160.144 333.307C166.377 330 170.432 328.346 172.307 328.346ZM162.306 339.28C163.42 344.089 160.327 347.568 158.865 352.214L162.602 345.057L162.602 339.373C162.505 339.349 162.406 339.319 162.306 339.28Z" fill="#111111"/>
<path fill-rule="evenodd" clip-rule="evenodd" d="M221.885 236.918C221.054 236.182 219.824 237.107 220.352 238.101C221.539 240.336 222.756 242.453 224.348 244.428C225.313 245.626 226.347 246.759 227.395 247.879C224.706 250.206 222.399 253.096 220.221 255.804C217.436 259.268 214.803 262.879 211.676 266.048C208.593 269.174 205.183 271.359 201.061 272.816L200.228 273.105C196.087 274.56 191.661 276.524 189.326 280.446C188.866 281.22 189.793 282.176 190.572 281.693C194.628 279.18 199.394 278.675 203.81 277.015C208.075 275.411 211.793 272.943 215.078 269.793C218.357 266.648 221.111 263.07 223.983 259.568C226.824 256.105 229.882 253.147 233.242 250.217C238.426 253.707 244.344 255.225 250.362 256.716L251.019 256.879C257.044 258.371 263.036 260.104 268.689 262.703C273.672 264.993 278.574 267.729 282.633 271.457C286.942 275.413 290.296 280.466 293.366 285.407C300.232 296.462 305.06 308.574 309.309 320.832C313.73 333.583 317.427 346.589 320.411 359.749C321.929 366.444 323.162 373.185 324.176 379.974C324.663 383.244 325.097 386.521 325.477 389.805C325.883 393.312 325.977 396.919 327.052 400.291C327.513 401.736 328.602 402.336 329.691 402.285L329.913 405.054C330.206 408.745 330.48 412.438 330.572 416.153C330.725 422.329 330.656 428.488 330.212 434.651L330.149 435.492C329.8 439.99 329.02 445.044 325.639 448.338C322.137 451.749 316.752 452.822 312.033 452.883C301.041 453.027 290.46 447.831 280.733 443.273C270.715 438.578 260.971 433.368 251.461 427.717C246.617 424.839 241.826 421.865 237.096 418.805C234.775 417.302 232.47 415.775 230.183 414.222C228.873 413.333 227.631 412.358 226.297 411.57C226.951 410.961 227.243 410.004 226.695 409.168C230.551 405.82 232.156 399.845 232.344 395.011C232.495 391.108 231.921 387.217 231.468 383.351C231.239 381.402 230.957 379.456 230.664 377.516C230.548 376.749 230.46 375.929 230.324 375.12C240.736 380.843 251.439 385.941 262.425 390.469C268.057 392.79 273.76 394.877 279.543 396.79L280.715 397.176C286.194 398.97 291.804 400.665 297.468 401.69C297.771 401.745 298.017 401.298 297.693 401.155C292.173 398.719 286.462 396.664 280.86 394.42L279.939 394.045V394.045C280.045 394.039 280.154 394.024 280.269 393.997C283.555 393.203 286.815 391.981 290.038 390.951C293.028 389.996 296.389 389.396 299.185 387.954C299.4 387.843 299.279 387.544 299.07 387.529C295.927 387.311 292.516 388.228 289.436 388.766L288.278 388.969C286.34 389.311 284.358 389.679 282.428 390.158C282.359 389.512 281.998 388.863 281.484 388.482C275.83 384.294 276.405 375.834 275.8 369.596L275.352 364.965C274.563 356.86 273.729 348.756 272.461 340.712C272.393 340.282 271.729 340.406 271.726 340.811C271.661 350.783 272.413 360.709 272.791 370.665L272.849 372.299C273.057 378.442 273.221 384.821 277.089 389.548C276.548 389.232 275.817 389.232 275.378 389.753C274.84 390.394 274.529 391.114 274.539 391.82C271.044 390.355 267.564 388.85 264.102 387.316C252.969 382.382 242.069 376.86 231.458 370.886C230.316 370.243 229.23 370.748 228.666 371.596L228.584 371.584C228.571 371.582 228.557 371.581 228.543 371.58L228.462 371.577C228.459 371.577 228.455 371.577 228.453 371.577C226.959 370.756 224.924 371.341 223.642 372.539C223.604 372.575 223.572 372.614 223.539 372.652C221.916 371.923 220.401 370.939 219.025 369.692C216.211 367.141 213.828 363.986 211.75 360.822C207.923 354.996 204.673 348.516 199.504 343.72C195.304 339.823 190.097 337.397 184.635 335.874C184.657 335.714 184.596 335.544 184.486 335.431C184.205 335.143 184.005 335.044 183.643 335.218C183.614 335.233 183.597 335.252 183.585 335.273L183.052 334.362C182.761 333.867 182.462 333.369 182.359 333.239C181.738 332.457 181.1 331.682 180.452 330.923C179.353 329.638 178.101 328.37 176.652 327.479C173.478 325.528 170.141 326.632 166.878 327.698C164.906 328.343 162.941 329.008 160.972 329.662L160.769 329.728C159.302 330.2 157.584 330.613 156.928 332.168C156.668 332.784 156.628 333.423 156.749 334.043C142.809 330.496 127.327 332.126 113.724 336.289C113.202 336.448 112.68 336.878 112.57 337.442C111.012 345.438 110.318 353.638 111.023 361.771C111.631 368.79 113.186 375.67 116.116 382.096L116.283 382.459C119.036 388.415 123.4 395.757 130.065 397.624C134.089 398.751 138.54 398.086 142.645 397.88C146.634 397.679 150.711 397.65 154.662 397.022C158.181 396.464 161.264 394.886 163.439 392.023C165.315 389.554 166.303 386.569 167.112 383.601C167.483 383.719 167.851 383.844 168.213 383.986C169.742 384.583 171.037 385.547 172.208 386.682C174.681 389.077 176.6 391.987 179.187 394.274C181.529 396.343 184.198 397.953 187.061 399.19C192.994 401.755 199.358 402.779 205.633 404.138L206.071 404.234C210.795 405.271 215.617 406.544 219.786 409.004C219.868 409.729 220.198 410.41 220.726 410.856C219.991 411.547 219.679 412.642 220.326 413.668C222.131 416.534 225.24 418.165 228.032 419.998L228.213 420.117C230.959 421.939 233.729 423.724 236.522 425.472C242.199 429.028 247.994 432.388 253.872 435.6C263.325 440.766 272.981 445.64 282.812 450.06C282.222 452.964 282.438 455.959 281.994 458.883L281.926 459.3C281.737 460.385 281.993 461.292 282.74 462.001L282.819 462.074L282.818 462.064L282.888 462.128L282.911 462.148L282.903 462.142C282.989 462.221 283.078 462.294 283.169 462.357L283.284 462.431V462.431C284.004 462.869 284.93 462.864 285.667 462.478L285.751 462.431L285.892 462.35C286.866 461.79 287.537 460.402 287.133 459.3C286.141 456.59 285.766 453.698 284.849 450.971L285.576 451.296V451.296L286.535 451.714C296.899 456.197 308.412 459.973 319.705 456.916C324.695 455.565 329.359 452.708 331.855 448.05C334.312 443.467 334.659 438.146 334.79 433.048C334.951 426.756 334.613 420.368 333.784 414.13C333.227 409.943 332.554 405.676 331.515 401.532C332.049 401.061 332.442 400.384 332.546 399.547C333.036 395.589 332.178 391.474 331.653 387.537C331.14 383.692 330.573 379.855 329.932 376.03C328.638 368.306 327.134 360.598 325.383 352.964C322.267 339.377 318.153 326.032 313.199 313.006L312.765 311.871C308.188 299.965 302.888 288.312 295.508 277.853C291.977 272.848 288.245 268.311 283.257 264.705C278.584 261.327 273.312 258.894 267.872 257.035C262.426 255.174 256.829 253.927 251.132 253.151C245.347 252.364 239.241 251.88 233.844 249.507C234.527 248.282 233.941 246.629 232.792 245.87C228.926 243.315 225.35 239.99 221.885 236.918ZM98.11 348.045C97.948 347.799 97.5633 347.955 97.6345 348.246C99.515 355.953 101.28 363.676 102.433 371.53C104.514 385.706 104.131 400.068 103.961 414.349L103.952 415.087C103.865 422.78 103.744 430.473 103.489 438.162C103.361 442.048 103.107 445.972 103.245 449.86C103.32 451.969 103.882 453.965 104.082 456.048C104.256 457.871 104.101 459.721 104.014 461.546C103.955 462.759 105.745 462.707 105.867 461.546L106.023 460.043C106.225 458.142 106.475 456.252 107.098 454.433C107.847 452.244 108.206 450.094 108.466 447.796C108.864 444.275 109.041 440.718 109.194 437.172L109.3 434.719C109.941 419.899 109.918 405.01 108.88 390.206L108.804 389.149C107.776 375.155 105.992 360.035 98.11 348.045ZM138.196 259.848C138.687 259.646 138.515 258.903 137.971 259.033L136.982 259.269C129.733 261.005 122.617 262.887 115.851 266.119C109.082 269.353 103.35 274.18 98.7961 280.117C89.9433 291.656 86.2645 305.679 83.3603 319.69C80.1328 335.258 77.1942 350.883 73.9386 366.446L73.334 369.345C70.3216 383.841 67.4774 398.344 65.3817 413.011L65.2311 414.075C63.1178 429.158 61.8466 444.762 64.1526 459.884C64.6088 462.876 69.5854 462.131 69.3908 459.175C68.8288 450.63 68.4264 442.13 68.8153 433.566C69.2045 425 70.0075 416.472 71.2047 407.981C72.2121 400.836 73.7139 393.779 75.0429 386.69L75.2512 385.571C76.3641 379.542 77.5113 373.518 78.6561 367.495L80.3667 358.476C82.9306 344.972 85.5447 331.456 88.4985 318.037L88.6738 317.247C91.5644 304.337 95.826 290.813 104.497 280.561C113.296 270.157 125.892 264.917 138.196 259.848ZM170.168 396.786C169.956 396.315 169.216 396.366 168.989 396.786C168.097 398.432 167.998 400.533 167.829 402.391L167.812 402.582C167.597 404.849 167.407 407.124 167.291 409.398C167.071 413.715 166.965 418.026 166.979 422.349C166.993 426.778 167.082 431.202 167.321 435.625L167.385 436.81C167.603 440.654 167.969 444.941 169.794 448.301C170.458 449.523 172.263 449.164 172.647 447.929C173.906 443.884 173.26 439.088 172.937 434.945L172.686 431.712C172.438 428.479 172.201 425.245 172.013 422.008C171.756 417.58 171.543 413.147 171.339 408.717C171.273 407.278 171.201 405.838 171.125 404.399L171.008 402.241C170.909 400.436 170.917 398.455 170.168 396.786ZM311.753 402.519L311.195 401.98C309.484 400.305 307.322 397.725 304.792 397.885C303.783 397.949 303.14 398.786 303.35 399.779C303.796 401.902 305.961 403.003 307.519 404.299C309.225 405.718 310.834 407.235 312.439 408.766C313.864 410.124 315.233 411.521 316.57 412.961L317.07 413.503C317.549 414.026 320.962 417.114 320.593 417.915L320.573 417.951C320.47 418.104 320.641 418.315 320.811 418.261C322.285 417.796 322.193 416.532 321.636 415.252C320.565 412.792 318.691 410.517 317.054 408.416C315.421 406.321 313.654 404.369 311.753 402.519V402.519ZM164.828 340.833C165.968 338.139 170.165 338.195 172.549 338.356C178.55 338.762 185.043 340.281 190.383 343.087C195.919 345.996 199.648 350.658 202.985 355.812L203.141 356.054C206.393 361.111 209.525 367.098 214.617 370.575C217.211 372.347 220.24 373.964 223.387 374.665C223.603 375.045 223.953 375.346 224.412 375.455L224.625 375.504C225.522 375.702 226.914 375.921 228.117 375.79C228.109 376.379 228.115 376.963 228.1 377.52C228.058 379.118 228.04 380.723 228.04 382.322C228.039 385.673 228.219 389.03 228.079 392.38C227.956 395.344 227.537 398.44 226.115 401.089C225.072 403.032 223.695 404.318 222.033 405.546C217.945 403.053 213.321 401.534 208.629 400.392C202.955 399.01 197.145 398.088 191.599 396.215C188.93 395.313 186.364 394.133 184.039 392.53C181.572 390.828 179.687 388.525 177.748 386.272L177.445 385.922C175.466 383.652 173.306 381.479 170.51 380.248C168.101 379.187 164.927 378.999 162.821 377.358C161.72 376.499 161.627 375.253 161.511 373.978C162.86 374.171 164.288 373.861 165.632 373.704L166.329 373.622C167.6 373.471 168.842 373.305 170.093 372.981C170.325 372.921 170.325 372.571 170.093 372.511C168.614 372.129 167.148 371.966 165.632 371.788L165.276 371.744C163.904 371.564 162.463 371.292 161.117 371.594C160.876 370.675 160.527 369.798 160.038 368.919C159.351 367.685 158.052 366.285 157.877 364.844C157.824 364.413 157.925 363.905 158.127 363.524L158.197 363.395C158.283 363.241 158.384 363.087 158.532 362.992C158.548 363.011 158.583 363.033 158.658 363.056C159.693 363.382 160.597 362.875 161.076 362.094C163.111 362.347 165.332 362.262 167.241 362.346L169.171 362.439C171.233 362.534 173.389 362.575 175.326 362.159C175.597 362.101 175.679 361.65 175.408 361.534C173.026 360.515 170.136 360.19 167.586 359.798C166.161 359.579 164.726 359.413 163.298 359.22C162.347 359.092 161.337 358.88 160.352 358.829C157.881 355.752 159.212 350.897 162.651 349.572C163.904 350.123 165.03 349.803 166.399 349.685C167.765 349.568 169.134 349.488 170.506 349.494C173.254 349.506 176.167 350.23 178.889 349.918C179.331 349.867 179.743 349.278 179.302 348.919C177.219 347.218 174.233 346.663 171.588 346.301L171.04 346.227C170.154 346.111 169.076 345.941 167.957 345.84C167.704 345.347 167.25 344.974 166.569 344.881C166.366 344.853 166.163 344.837 165.959 344.82L165.962 344.8V344.8C164.3 344.72 164.372 341.911 164.828 340.833ZM278.634 393.382C278.663 393.428 278.696 393.471 278.73 393.512L278.782 393.574L278.509 393.463L278.634 393.382V393.382ZM135.82 334.812C142.817 334.06 149.824 334.219 156.842 334.421C157.403 336.257 159.357 337.823 161.25 337.882C159.767 340.139 159.614 343.194 160.654 345.588C158.446 346.467 156.545 348.046 155.39 350.295C153.789 353.413 153.999 356.882 155.581 359.763C154.23 360.986 153.434 362.972 153.513 364.844C153.603 366.931 154.846 368.714 155.88 370.442C156.996 372.311 157.034 373.957 157.377 376.05C157.879 379.114 159.944 380.972 162.602 382.132L162.46 382.688C161.775 385.356 160.923 388.171 158.965 390.122C156.445 392.632 152.537 392.609 149.209 392.768L149.048 392.776C146.001 392.928 142.954 393.107 139.908 393.279L137.623 393.407C134.115 393.6 130.746 393.624 127.883 391.304C123.207 387.517 120.003 381.25 117.974 375.702C113.716 364.057 113.665 351.277 115.619 339.149C122.174 337.036 128.975 335.548 135.82 334.812ZM194.008 354.132L193.956 354.136C192.516 354.3 191.526 355.467 191.174 356.852C190.662 358.864 190.913 360.683 189.681 362.499C188.414 364.367 187.635 365.862 187.45 368.17C187.375 369.119 187.409 370.066 187.198 370.996L187.045 371.647C186.882 372.341 186.749 373.01 186.83 373.755C186.904 374.435 187.235 374.965 187.917 375.183C190.138 375.893 191.853 374.256 192.427 372.185C192.922 370.397 192.26 368.265 192.96 366.586C193.347 365.655 194.062 364.876 194.466 363.939C194.866 363.01 195.067 362.039 195.131 361.029C195.252 359.119 193.564 356.824 194.506 355.093C194.707 354.724 194.479 354.121 194.008 354.132ZM223.512 334.421C222.008 334.116 220.302 333.415 218.819 333.997C218.056 334.297 217.679 335.227 218.324 335.874C219.442 336.995 221.067 337.058 222.574 337.322L222.707 337.346C224.488 337.676 226.272 337.989 228.059 338.285C231.421 338.842 234.791 339.334 238.172 339.753C241.645 340.183 245.128 340.566 248.616 340.854L249.966 340.964C252.912 341.2 255.978 341.378 258.868 340.927C259.288 340.861 259.221 340.249 258.868 340.142C255.702 339.183 252.228 338.926 248.954 338.52C245.473 338.088 241.998 337.632 238.532 337.09C235.072 336.55 231.616 335.97 228.173 335.328C226.617 335.039 225.063 334.737 223.512 334.421ZM169.239 331.343C170.559 330.875 172.011 330.183 173.441 330.414C175.908 330.814 178.103 333.218 180.055 334.801L179.075 334.611C174.059 333.646 167.417 332.607 163.206 335.798C163.195 335.779 163.187 335.761 163.175 335.742C162.835 335.226 162.441 334.823 162.011 334.381C161.97 334.343 161.931 334.303 161.891 334.262L161.66 334.015L162.19 333.831C163.326 333.429 164.672 332.911 164.884 332.835L164.899 332.83C166.348 332.339 167.798 331.854 169.239 331.343ZM210.451 226.166C210.657 223.51 206.525 223.532 206.321 226.166C205.874 231.917 207.168 237.612 209.952 242.654C209.972 242.691 209.995 242.723 210.016 242.758C208.275 243.664 206.514 244.534 204.713 245.311C202.41 246.306 200.064 247.212 197.676 247.98C195.515 248.675 192.853 248.95 191.037 250.397C187.207 253.448 188.646 259.78 189.383 263.885L189.498 264.532C189.865 266.644 190.13 268.811 189.24 270.838C188.289 273.003 186.367 274.61 184.652 276.159L184.306 276.473C182.787 277.857 181.051 279.539 179.937 281.416C178.92 279.313 177.533 277.593 176.067 275.658C175.022 274.277 175.766 273.821 176.517 272.472C177.241 271.174 177.594 269.789 177.368 268.308C176.95 265.572 174.765 263.595 172.589 262.11C170.019 260.358 167.152 259.059 164.495 257.428C159.037 254.078 153.722 250.248 148.933 245.993C148.801 245.876 148.572 246.03 148.678 246.19C152.46 251.947 156.896 256.921 162.348 261.143C164.558 262.855 166.88 264.275 169.218 265.767L169.89 266.199C170.829 266.807 171.999 267.62 172.424 268.656C172.851 269.697 171.94 270.483 171.45 271.346C169.893 274.086 170.644 276.642 172.49 278.965L172.576 279.072C174.409 281.333 175.799 283.435 176.464 286.323C177.892 292.527 175.903 298.989 173.82 304.813L173.738 305.043C172.612 308.182 171.415 311.298 170.436 314.488L170.167 315.37C169.28 318.305 168.554 321.199 169.549 324.216C169.887 325.242 171.286 325.485 171.867 324.519C173.917 321.113 174.428 317.015 175.713 313.27C176.965 309.621 178.403 306.037 179.612 302.373C181.17 297.655 182.212 292.577 181.647 287.628C181.663 287.599 181.682 287.572 181.696 287.542L182.092 286.674C183.173 284.325 184.217 282.273 186.184 280.4C188.235 278.447 190.461 276.718 192.074 274.353C195.58 269.217 193.412 263.503 192.988 257.886L192.94 257.198C192.863 256.032 192.821 254.447 193.582 253.64C194.439 252.731 196.447 252.499 197.584 252.097C200.521 251.058 203.415 249.846 206.171 248.391C208.795 247.007 211.337 245.477 213.703 243.685L214.903 242.782C216.795 241.354 218.758 239.794 220.026 237.849C220.173 237.625 219.924 237.264 219.659 237.371C217.541 238.231 215.607 239.598 213.626 240.788C213.595 240.715 213.559 240.642 213.518 240.568C211.067 236.131 210.059 231.214 210.451 226.166ZM142.812 256.572C141.968 254.257 138.123 254.436 138.276 257.186C138.394 259.298 139.291 261.205 140.11 263.123L140.198 263.329C141.044 265.328 142.022 267.204 143.192 269.036C145.427 272.537 148.045 275.787 150.841 278.853C153.376 281.634 156.704 283.334 160.538 283.051C162.153 282.932 163.784 282.521 165.2 281.714C166.881 280.755 168.707 277.875 170.852 278.572C171.06 278.64 171.253 278.336 171.074 278.192C168.598 276.197 165.787 279.29 163.416 280.035C159.843 281.158 156.177 279.917 153.877 277.027C151.476 274.011 149.266 270.633 147.249 267.348C146.224 265.68 145.289 263.949 144.481 262.165C143.666 260.365 143.481 258.408 142.812 256.572ZM148.571 242.329C148.675 242.009 148.278 241.705 147.997 241.887C146.37 242.947 144.96 244.348 143.459 245.575C141.793 246.937 140.116 248.271 138.412 249.584C135.929 251.5 138.809 255.025 140.995 252.933C143.987 250.071 147.263 246.329 148.571 242.329ZM157.505 231.127C156.844 228.576 152.934 229.628 153.504 232.148L153.522 232.225C154.602 236.388 153.064 240.627 149.783 243.326L149.662 243.424C147.587 245.086 150.528 247.991 152.583 246.345C157.07 242.753 158.937 236.65 157.505 231.127Z" fill="#111111"/>
<path fill-rule="evenodd" clip-rule="evenodd" d="M184.249 67.3101C183.278 66.2072 181.783 66.5855 180.875 67.4576C180.284 67.6321 179.712 67.8917 179.171 68.2353C177.949 68.0781 176.668 68.0781 175.469 68.1221C175.179 67.9587 174.867 67.8133 174.528 67.6883C172.105 66.8003 169.959 67.2514 168.189 68.4404C167.336 67.6318 166.261 67.1244 164.886 67.2011C163.659 67.2698 162.784 67.8487 162.035 68.6111C161.287 67.5308 160.079 66.76 158.574 66.6528C156.471 66.5029 154.448 67.3486 152.772 68.658C151.796 67.535 150.464 66.8895 148.981 66.8832C148.004 66.7056 146.974 66.7757 146.043 67.0574C144.692 67.4666 143.505 68.2332 142.56 69.2281C141.065 67.7928 139.235 66.76 137.125 66.9106C134.394 67.1085 132.13 69.1216 131.077 71.5994C129.229 72.3417 127.522 73.4005 126.096 74.9101C126.02 74.9896 125.947 75.0728 125.871 75.1565C125.103 75.4407 124.379 75.8436 123.742 76.3742C121.724 78.0577 121.274 80.4938 121.942 82.8811C121.849 83.2631 121.769 83.6518 121.696 84.0401C119.806 84.3282 118.089 85.4217 117.113 87.202C115.777 89.6451 116.04 92.8652 117.487 95.1976C118.109 96.2008 118.899 97.0462 119.785 97.7854C118.783 100.069 119.264 102.794 120.881 104.641C121.275 105.277 121.758 105.852 122.302 106.372C121.702 108.733 122.77 111.169 124.902 112.43L125.085 112.888C125.115 112.964 125.147 113.04 125.179 113.115C125.202 113.212 125.231 113.306 125.26 113.401C125.311 114.239 125.586 115.061 126.132 115.835C127.251 117.423 128.637 118.458 129.372 120.311L129.446 120.506C129.762 121.383 130.782 122.001 131.652 121.731C126.824 131.67 124.293 142.73 122.555 153.568C121.688 158.975 121.02 164.401 120.477 169.848L119.945 175.272C119.478 180.093 119.061 184.93 119.059 189.767C119.052 200.709 122.174 211.234 128.876 219.942C135.214 228.173 144.183 234.138 154.315 236.488C164.776 238.91 177.048 237.956 186.429 232.41C189.195 230.78 186.772 226.858 183.957 228.17C178.63 230.655 173.216 232.501 167.31 232.914C161.554 233.319 155.783 232.598 150.324 230.71C141.293 227.583 133.608 221.035 128.668 212.88C126.234 208.861 124.473 204.499 123.534 199.89C122.367 194.145 122.543 188.208 122.972 182.39L123.001 181.994C123.849 170.784 124.968 159.506 126.775 148.408C128.372 138.594 130.828 128.979 134.016 119.577C135.265 118.475 136.662 117.563 138.157 116.87C149.106 116.412 160.073 116.546 171.007 117.303C180.332 117.953 189.612 119.053 198.822 120.656L199.808 120.829C201.847 121.193 204.111 121.402 206.032 122.224C207.68 122.932 208.348 124.293 208.764 125.965C209.809 130.195 209.968 134.825 210.145 139.163C210.318 143.403 209.927 147.679 210.266 151.906C210.553 155.442 211.457 159.062 214.07 161.619C215.438 162.959 217.12 163.691 218.698 164.708C219.72 165.364 220.152 166.04 220.021 167.255C219.737 169.913 217.601 173.262 220 175.539C220.422 175.938 221.153 175.99 221.568 175.539C222.558 174.46 223.926 173.637 225.099 172.766C225.591 172.405 225.182 171.704 224.625 171.954C223.891 172.284 223.143 172.672 222.378 173.013C224.067 171.617 226.47 170.933 228.471 170.527C229.478 170.326 230.537 170.267 231.586 170.361C232.362 170.732 233.154 171.076 233.947 171.412C234.954 171.836 235.972 172.221 236.997 172.586C240.552 175.49 242.248 180.213 241.507 184.832C241.102 187.383 239.929 190.156 237.717 191.645C235.096 193.408 231.586 192.651 228.755 193.959C226.103 195.184 224.49 197.659 223.282 200.22L222.778 201.286C221.657 203.647 220.504 205.945 218.972 208.094C217.2 210.582 215.029 212.817 212.661 214.736C211.513 215.665 210.288 216.501 209.023 217.262L208.677 217.467C207.396 218.22 206.479 218.938 206.392 220.531C206.365 221.087 206.714 221.593 207.164 221.881C209.103 223.113 211.031 221.572 212.644 220.497C214.385 219.338 216.05 218.033 217.591 216.61C220.519 213.91 223.053 210.704 225.002 207.223C226.487 204.572 227.332 200.841 229.679 198.787C231.112 197.533 233.137 197.523 234.927 197.294C236.592 197.079 238.167 196.732 239.648 195.91C245.675 192.554 247.378 184.43 245.949 178.152C245.706 177.093 245.367 176.063 244.948 175.07C247.191 175.445 249.711 173.12 248.801 170.774C248.732 170.597 248.652 170.431 248.576 170.26C250.054 169.285 251.221 167.807 251.774 165.874C252.058 164.874 252.1 163.864 251.951 162.889C252.668 162.407 253.259 161.744 253.64 160.929C254.831 160.377 255.887 159.551 256.517 158.371C257.389 156.743 257.278 155.244 256.614 153.894C256.707 153.725 256.797 153.551 256.884 153.374C259.324 151.823 261.027 149.15 260.834 146.187C260.771 145.205 260.529 144.32 260.155 143.522C260.186 143.421 260.217 143.317 260.245 143.216C262.287 142.175 263.977 140.464 264.579 138.181C265.181 135.883 264.472 133.593 263.052 131.83C265.129 130.307 266.379 128.179 265.621 124.962C265.313 123.654 264.693 122.464 263.856 121.461C263.859 121.43 263.866 121.398 263.873 121.367L264.067 121.216C266.631 119.187 268.105 116.602 266.531 113.423C265.825 111.994 264.818 110.998 263.634 110.342L263.575 110.154V110.154C264.423 108.332 264.711 106.309 264.126 104.182C263.648 102.43 262.516 101.034 261.069 100.108C261.166 99.3234 261.152 98.4874 260.996 97.5813C260.737 96.0513 259.979 94.7152 258.871 93.7678C258.829 93.5662 258.777 93.3687 258.719 93.1706C258.345 91.9598 257.645 90.6445 256.835 89.669C256.167 88.8604 255.42 88.5654 254.506 88.5342C254.561 87.7884 254.523 87.0316 254.371 86.2646C253.903 83.8982 252.401 81.6734 250.175 80.6635C249.261 80.2506 248.299 80.1294 247.371 80.2297C246.582 78.564 245.042 77.3567 243.148 77.0964C242.411 76.9923 241.725 76.9989 241.095 77.0929C240.739 76.926 240.368 76.7771 239.981 76.6414C239.724 76.5512 239.465 76.4679 239.205 76.385C238.329 75.2953 237.177 74.4239 235.83 73.9002C234.276 73.2929 232.694 73.355 231.292 73.8652L230.845 73.7715V73.7715C230.146 72.5569 229.031 71.6164 227.318 71.1896C225.372 70.7072 223.375 71.3804 221.845 72.6058C221.838 72.6058 221.831 72.6058 221.821 72.602C221.021 70.8078 219.654 69.5585 217.359 69.6453C215.929 69.7008 214.638 70.4125 213.641 71.4259C213.087 71.3561 212.533 71.2937 211.976 71.2315C211.387 70.5406 210.733 69.8955 210.01 69.3159C208.826 68.3647 207.285 68.4414 206.413 69.7806C206.223 70.0721 206.046 70.3671 205.87 70.6621L205.07 70.6065V70.6065C204.128 69.3329 202.844 68.4723 201.086 68.4032C199.472 68.3369 198.323 69.1285 197.447 70.2352C196.734 70.2179 196.018 70.2043 195.301 70.1936C194.467 69.2253 193.484 68.3717 192.362 67.6637C191.504 67.1223 190.237 67.3066 189.541 68.0284C189.071 68.5191 188.633 69.0314 188.227 69.5616C187.178 68.3831 185.762 67.6068 184.249 67.3101ZM235.197 177.51C233.58 176.587 231.406 177.586 229.841 178.371C227.934 179.325 226.041 180.765 224.874 182.57C223.285 185.027 227.02 187.012 228.692 184.808C229.72 183.451 230.541 182.084 231.787 180.897C232.926 179.807 234.577 179.079 235.231 177.642C235.255 177.593 235.249 177.538 235.197 177.51ZM234.061 117.872L234.031 117.786C233.571 116.525 235.577 115.981 236.033 117.232C236.724 119.127 235.928 121.187 234.061 122.005C233.543 122.232 232.952 122.154 232.64 121.632C232.378 121.193 232.499 120.432 233.012 120.208C234.063 119.747 234.415 118.934 234.061 117.872V117.872ZM251.346 114.347C250.341 113.458 251.815 111.99 252.814 112.875C253.747 113.7 254.439 114.821 254.259 116.11C254.076 117.424 253.087 118.352 252.006 119.007C250.859 119.702 249.814 117.902 250.958 117.209L251.086 117.13C251.566 116.832 252.128 116.421 252.209 115.833C252.295 115.208 251.768 114.721 251.346 114.347ZM245.645 98.6707L245.574 98.6183C244.495 97.8465 245.531 96.0398 246.622 96.8203C247.623 97.5362 248.425 98.4663 248.51 99.7489C248.592 100.995 247.959 102.076 247.132 102.953C246.211 103.929 244.744 102.454 245.663 101.481C246.558 100.532 246.733 99.497 245.645 98.6707V98.6707Z" fill="#111111"/>
<path fill-rule="evenodd" clip-rule="evenodd" d="M152.034 203.83C151.502 202.904 150.277 202.047 149.156 202.178C144.133 202.767 144.142 208.859 146.081 212.416C147.801 215.569 151.359 217.42 154.921 217.15C158.663 216.866 161.852 214.665 163.255 211.163C164.183 208.846 164.612 204.57 162.143 203.013C162.097 202.984 162.022 202.992 161.985 203.034C160.802 204.411 160.755 206.479 159.719 208.012C158.755 209.439 157.258 210.617 155.504 210.798C154.194 210.935 152.869 210.462 152.357 209.285C152.08 208.649 152.111 208.304 152.215 207.866L152.31 207.485C152.638 206.152 152.785 205.137 152.034 203.83ZM150.692 177.114C148.072 178.706 144.081 182.421 146.899 186.37C150.216 189.852 154.992 185.859 157.345 184.054C159.527 182.654 161.979 186.253 159.954 187.887C142.948 200.483 136.047 177.53 149.367 175.241C150.833 174.988 151.378 176.621 150.692 177.114ZM178.354 166.191C176.746 163.778 173.076 164.133 172.19 166.997C171.711 168.548 172.373 169.942 172.339 171.491C172.31 172.8 172.396 174.258 172.797 175.526C173.711 178.416 176.309 180.457 179.383 180.372C182.447 180.288 185.146 178.348 186.429 175.616C187.716 172.873 187.444 170.035 186.504 167.246C186.459 167.112 186.283 167.047 186.177 167.16C185.066 168.341 184.253 169.589 183.411 170.912L182.548 172.267C181.889 173.288 180.931 174.593 179.7 174.511L179.515 174.493C179.173 174.463 179.226 174.531 178.962 174.065C178.84 173.849 178.862 173.448 178.803 173.193L178.782 173.107V173.107L178.794 173.06C178.82 172.937 178.845 172.705 178.866 172.301L178.871 172.212C178.96 170.325 179.493 167.901 178.354 166.191ZM137.597 167.797C137.885 164.711 133.547 164.026 132.105 166.309C131.353 167.5 131.134 168.996 130.968 170.414L130.89 171.087C130.719 172.542 130.652 174.057 131.283 175.415C132.278 177.554 134.442 178.684 136.776 178.505C139.005 178.334 141.038 177.041 142.11 175.079C143.066 173.327 144.016 169.908 142.855 168.082C142.785 167.971 142.645 167.957 142.549 168.042C141.452 169.017 141.273 170.793 140.621 172.062C139.949 173.371 138.928 174.647 137.382 174.846C135.903 175.036 135.338 174.228 135.715 172.817C136.202 170.996 137.413 169.757 137.597 167.797ZM177.182 147.841L176.473 147.569C174.043 146.651 170.706 145.589 168.73 147.566C167.511 148.785 167.279 150.581 168.149 152.069C169.203 153.871 171.094 153.915 172.92 154.181C174.997 154.483 177.109 155.057 179.043 155.875C181.221 156.797 183.242 157.947 185.223 159.23C187.105 160.45 188.981 162.444 191.234 162.82C191.326 162.835 191.43 162.795 191.454 162.694C191.966 160.491 190.544 158.322 189.275 156.603C187.739 154.521 185.879 152.813 183.8 151.281C181.793 149.802 179.5 148.734 177.182 147.841ZM133.034 155.676L132.817 155.638C131.343 155.392 130.008 155.449 128.897 156.617C128.049 157.507 127.723 158.662 128.127 159.84C128.5 160.926 129.334 162.03 130.544 162.258C134.63 163.027 139.156 162.9 143.262 162.318C145.141 162.051 147.037 161.725 148.867 161.211L149.709 160.966C151.237 160.53 152.986 160.074 154.096 158.95C154.495 158.546 154.265 157.968 153.787 157.781C151.851 157.022 149.197 157.425 147.132 157.366C144.73 157.297 142.324 157.117 139.934 156.869C137.598 156.626 135.338 156.098 133.034 155.676Z" fill="#111111"/>
<path fill-rule="evenodd" clip-rule="evenodd" d="M181.596 212.797C178.788 206.215 172.658 201.377 165.6 199.609C160.418 198.313 154.979 198.355 149.695 198.869C146.927 199.136 143.958 199.356 141.35 200.384C139.122 201.262 137.307 202.923 135.942 204.872C134.317 207.182 133.212 209.826 132.436 212.536C132.326 212.921 132.222 213.309 132.126 213.699C132.463 215.744 133.179 217.484 135.072 218.769C136.92 220.024 139.124 220.538 141.321 220.72C141.536 220.617 141.744 220.51 141.935 220.401C145.359 218.44 147.769 213.807 152.09 214.434C155.947 214.994 158.486 219.848 160.779 222.695C168.141 223.553 175.497 221.34 181.487 217.129C181.791 215.687 181.809 214.234 181.596 212.797M127.122 207.804C127.711 206.151 128.453 204.55 129.332 203.041C132.239 198.053 136.701 194.078 141.998 191.806C154.528 186.439 170.741 190.222 180.861 199.025C184.318 202.034 187.813 206.456 188.87 211.213C189.185 211.276 189.483 211.44 189.729 211.671C197.04 207.066 204.569 202.636 210.46 196.253C214.739 191.615 217.715 186.126 219.537 180.095C219.686 179.599 220.486 179.671 220.462 180.221C220.455 180.349 220.448 180.477 220.441 180.606C220.517 180.37 220.878 180.491 220.905 180.72C221.886 188.047 223.112 195.815 221.983 203.18C221.307 207.575 219.312 210.792 216.644 214.266C213.786 217.99 210.55 221.453 207.242 224.775C205.143 226.883 202.95 229.315 200.379 230.861C197.389 232.657 193.998 234.023 190.807 235.409C187.561 236.823 184.266 238.129 180.909 239.261C174.199 241.533 167.263 243.104 160.206 243.791C154.556 244.34 148.098 244.938 142.684 242.812C138.533 241.182 135.183 238.237 132.526 234.693C129.633 230.833 127.347 226.437 126.082 221.801C124.769 216.985 126.845 208.58 127.122 207.804" fill="#111111"/>
</svg>
