<svg width="395" height="532" viewBox="0 0 395 532" fill="none" xmlns="http://www.w3.org/2000/svg">
<path fill-rule="evenodd" clip-rule="evenodd" d="M157.124 223.728C157.086 223.698 157.048 223.689 157.006 223.71C156.219 224.088 156.056 224.845 155.785 225.633C155.39 226.785 154.932 227.909 154.509 229.051C153.665 231.341 152.861 233.628 151.921 235.881C150.956 238.199 149.957 240.475 148.813 242.714C148.261 243.796 147.668 244.858 147.064 245.913C146.648 246.646 146.26 247.652 145.711 248.339C145.67 248.12 145.611 247.912 145.541 247.718C145.614 247.753 145.684 247.791 145.75 247.832C145.888 247.919 146.055 247.746 145.972 247.61C145.673 247.117 145.285 246.784 144.841 246.559C143.613 245.195 116.545 251.704 109.145 259.014C95.7434 272.253 86.6974 288.623 80.7482 306.037C77.4631 315.646 74.4381 325.349 71.3126 335.01C68.0101 345.227 64.562 355.398 61.2526 365.608C60.5276 367.853 62.1094 369.894 64.1076 370.633C67.8298 372.007 71.5797 373.302 75.3609 374.499C73.5258 381.547 72.2423 388.745 71.3195 395.963C69.4151 410.847 69.1757 426.033 66.1747 440.761C65.4857 444.142 64.6139 447.474 63.693 450.798L63.4797 451.564C62.9316 453.515 62.4317 455.482 61.7591 457.391C61.1798 459.033 60.4305 460.688 60.0246 462.381C59.5493 464.373 60.2501 466.549 62.1129 467.573C63.608 468.395 65.7484 468.055 66.6503 466.511C66.8342 466.195 66.9452 465.852 66.9903 465.505C67.1256 465.217 67.2504 464.922 67.3615 464.62C67.4048 464.504 67.443 464.383 67.4794 464.262L67.5869 463.901C67.8506 463.041 68.0934 462.173 68.3362 461.306C68.7317 459.914 69.1297 458.527 69.5696 457.147L69.7932 456.458C70.8824 453.14 71.8572 449.795 72.7071 446.408C75.7486 434.263 76.3939 421.688 77.2289 409.242L77.2723 408.598C78.0285 397.445 78.4795 386.315 77.5532 375.186L77.6799 375.227V375.227L77.8065 375.266C79.0099 375.634 80.2174 375.995 81.4281 376.345C81.4662 376.359 81.5009 376.373 81.5391 376.383C82.3138 376.623 83.1102 376.851 83.9203 377.063L84.4079 377.189L84.7513 377.282L85.1129 377.385C86.2601 377.718 87.4297 378.101 88.6192 378.063C90.5896 378.379 92.5947 378.57 94.565 378.577C93.958 388.505 93.2573 398.427 92.4212 408.338C91.5817 418.301 90.4682 428.227 89.313 438.152C88.7441 443.055 88.1336 447.948 87.4606 452.835C87.1206 455.312 86.7668 457.776 86.3158 460.233C85.851 462.746 85.0289 465.432 85.5249 467.972C85.5353 467.969 85.5457 467.965 85.5561 467.965C85.7227 468.701 86.1667 469.36 86.9403 469.815C88.3591 470.644 90.3433 470.158 91.1585 468.708C91.2279 468.586 91.2938 468.461 91.3563 468.333C92.1919 468.69 93.1081 468.829 94.232 468.84L109.475 468.992V468.992C116.402 469.062 123.33 469.135 130.261 469.235C152.021 469.556 173.781 469.926 195.542 470.19L203.702 470.283C215.941 470.412 228.186 470.665 240.424 470.662C246.547 470.662 252.663 470.641 258.786 470.492C261.752 470.419 264.711 470.304 267.673 470.183L268.196 470.159C270.561 470.042 273.072 469.823 275.385 470.353C276.023 471.595 277.653 471.852 278.507 470.582C280.457 467.676 280.989 463.621 281.349 460.069L281.476 458.79C281.875 454.809 282.225 450.829 282.486 446.841C283.408 432.714 283.745 418.572 283.322 404.417C283.107 397.202 282.444 390.029 281.66 382.856C281.414 380.617 281.157 378.382 280.88 376.151L280.875 375.358C280.874 375.104 280.876 374.862 280.883 374.634L280.952 372.481C281.01 370.687 281.063 368.891 281.085 367.095L281.095 366.018L281.105 364.012C282.819 363.849 284.647 363.28 286.125 363.005C288.521 362.558 290.912 362.075 293.295 361.565C298.068 360.538 302.789 359.323 307.48 357.98L308.477 357.694C312.805 356.446 317.192 355.116 321.286 353.25C322.889 352.518 324.488 351.692 325.893 350.609C325.976 351.748 326.104 352.882 326.181 354.01C326.333 356.242 326.514 358.466 326.663 360.698L326.806 362.821C327.04 366.358 327.251 369.892 327.346 373.441C327.769 388.918 327.842 404.462 327.024 419.929C326.618 427.671 326.038 435.414 325.202 443.125C324.793 446.918 324.359 450.721 323.825 454.5C323.274 458.384 322.278 462.243 321.973 466.154C321.681 469.926 327.447 470.474 328.394 467.025C329.528 462.889 329.817 458.427 330.414 454.174L330.482 453.702C331.145 449.184 331.676 444.648 332.133 440.105C333.714 424.437 334.125 408.689 333.296 392.961C332.901 385.429 331.967 377.925 330.836 370.473L330.704 369.613C330.189 366.275 329.707 362.937 329.124 359.614L328.9 358.369C328.377 355.513 327.974 352.407 327.124 349.551L327.377 349.318C327.849 348.878 328.361 348.368 328.734 347.819C330.017 347.646 331.11 346.723 330.975 345.046C330.534 339.539 328.522 333.938 326.729 328.739C324.928 323.513 322.84 318.384 320.474 313.387C312.152 295.823 300.167 279.877 285.511 267.103C277.737 260.326 269.217 254.315 259.802 250.036C255.161 247.923 250.36 246.288 245.33 245.407C242.839 244.969 240.324 244.629 237.792 244.556C235.737 243.343 233.298 243.854 231.309 245.184L231.201 245.257H231.197L230.687 245.358V245.358C230.562 245.382 230.566 245.58 230.687 245.608C230.694 245.608 230.704 245.611 230.711 245.615C230.385 245.872 230.077 246.146 229.789 246.441C228.838 247.412 228.842 248.585 229.331 249.533C226.42 252.233 224.582 255.7 222.656 259.194C220.592 262.935 217.89 266.17 214.602 268.897C202.547 278.899 184.817 283.323 169.713 278.6C158.606 275.13 149.118 265.736 146.495 254.426C147.116 254.648 147.789 254.683 148.428 254.454C151.425 253.385 152.568 250.108 153.714 247.368L153.77 247.235C154.89 244.581 155.83 241.884 156.573 239.101C157.322 236.29 157.763 233.323 157.946 230.422C158.017 229.275 157.986 228.128 157.927 226.98L157.874 226.032C157.834 225.173 157.846 224.294 157.124 223.728ZM205.894 215.992C205.853 215.888 205.69 215.833 205.627 215.957C202.974 221.434 204.715 228.936 207.223 234.159C209.849 239.622 213.804 243.765 218.49 247.35C219.135 247.843 219.798 248.329 220.471 248.804C224.381 251.566 227.864 244.119 223.35 242.696C218.646 240.305 214.823 236.044 212.166 231.567C210.73 229.148 209.457 226.629 208.482 223.984C207.511 221.347 206.928 218.602 205.894 215.992Z" fill="#111111"/>
<path fill-rule="evenodd" clip-rule="evenodd" d="M249.075 50.9695C246.085 50.0325 244.177 51.3814 242.815 53.4712C242.515 53.4126 242.225 53.4164 241.901 53.4945C241.821 53.5139 241.628 53.5871 241.481 53.6447C241.368 53.6923 241.266 53.7499 241.168 53.811L241.109 53.7801V53.7801C240.885 53.5347 240.649 53.3109 240.395 53.1304C239.823 52.7251 239.234 52.6071 238.675 52.6904L238.416 52.595V52.595C236.202 51.8218 233.803 52.1806 232.302 54.0921C232.012 54.4613 231.777 54.8725 231.577 55.3063C231.127 55.4542 230.704 55.6679 230.34 55.931C230.085 55.8106 229.815 55.7092 229.526 55.6346C227.893 55.2147 226.178 55.611 224.847 56.6146C224.199 57.1029 223.722 57.7144 223.361 58.4126C222.949 58.5094 222.542 58.6836 222.161 58.9175C221.834 58.7541 221.501 58.6007 221.16 58.4955C219.914 58.1117 218.576 57.9705 217.279 58.0673C214.483 58.2752 211.779 61.4765 213.648 64.2255L213.706 64.3087C213.943 64.6401 214.149 64.9826 214.34 65.3307C213.671 65.6225 213.027 66.013 212.431 66.5023C209.519 68.8951 209.257 72.584 209.802 76.0639L209.825 76.2088H209.818C208.27 76.356 206.934 77.9762 207.849 79.5001L207.893 79.5715C209.131 81.4882 210.191 83.6054 211.373 85.6223C214.645 86.8047 217.8 88.2608 220.77 90.0251C222.62 91.6499 224.382 93.3678 225.932 95.2789C226.705 96.2332 227.416 97.2434 228.069 98.2907C227.547 98.5423 226.901 98.5295 226.355 98.0228C221.503 93.5145 215.64 90.3507 209.397 88.2303C208.947 88.0772 208.652 87.7892 208.487 87.4484C205.715 86.6568 202.895 86.0429 200.047 85.6085C199.262 84.8585 198.439 84.1416 197.658 83.3947C196.66 82.4418 195.41 82.4557 194.476 83.0543C194.012 82.8423 193.537 82.6552 193.056 82.487L192.757 82.3849C192.632 82.3439 192.513 82.2964 192.391 82.2589C189.049 81.2347 185.992 81.615 182.705 82.4565L182.284 82.5664C180.751 82.974 179.787 82.9088 178.303 82.5337L178.136 82.4907C176.559 82.0785 174.873 81.7731 173.261 82.2072C171.574 82.6616 170.456 83.6721 169.307 84.893L169.192 85.0157C168.656 85.5906 168.346 85.6533 167.645 85.6393L166.893 85.617C164.056 85.539 161.279 85.6589 159.154 87.8583C158.369 88.6716 157.526 89.8228 157.02 90.8734L156.947 91.0301C156.924 91.0812 156.903 91.1238 156.883 91.162C156.579 91.1127 156.105 90.9194 155.879 90.8754C152.788 90.2743 150.208 91.2005 148.223 93.6426C147.789 94.177 147.133 95.2265 146.678 95.8032C146.519 95.9386 146.369 96.0836 146.227 96.236C145.481 96.7131 144.425 96.683 143.59 96.8502C141.312 97.3048 138.878 98.1731 137.72 100.346C137.236 101.253 137.057 102.245 136.853 103.236C136.087 103.74 135.487 104.467 135.021 105.254C134.455 106.209 134.214 107.378 133.562 108.28C133.088 108.936 132.365 109.285 131.676 109.686L131.413 109.841C129.373 111.059 127.775 112.41 127.103 114.797L127.045 115.009C126.936 115.375 126.554 116.418 126.887 116.261C126.6 116.42 126.112 116.476 125.851 116.563C124.435 117.032 123.205 117.791 122.451 119.123C121.877 120.137 121.773 121.194 121.609 122.312L121.539 122.763C121.521 122.872 121.499 122.999 121.477 123.122L121.455 123.243L121.451 123.246C121.195 123.357 120.943 123.477 120.695 123.607C119.522 124.299 118.72 125.501 118.72 126.892C118.72 127.568 118.931 128.094 119.237 128.563C118.989 128.94 118.797 129.34 118.652 129.787C118.368 130.659 118.348 131.613 118.444 132.515C118.558 133.598 118.836 134.584 119.162 135.618C119.288 136.017 119.339 136.575 119.528 136.956C119.179 137.402 118.97 137.948 119.035 138.487C119.128 139.257 119.478 140.158 120.174 140.59C120.515 142.273 121.247 143.993 121.968 145.369C122.051 145.528 122.152 145.671 122.262 145.789C122.162 151.282 122.564 156.814 122.591 162.3C122.622 168.273 122.498 174.249 122.29 180.214C121.941 190.101 120.691 200.325 123.602 209.966C125.984 217.857 130.754 224.631 137.151 229.767C143.7 235.021 151.596 238.061 159.981 238.537C164.245 238.776 168.583 238.29 172.709 237.183L173.15 237.063C177.142 235.964 181.766 234.284 184.704 231.342C186.254 229.788 184.686 226.495 182.412 227.4C180.158 228.299 178.136 229.628 175.901 230.565C173.903 231.401 171.819 232.043 169.708 232.515C165.474 233.47 160.984 233.678 156.682 233.085C141.146 230.954 129.04 218.02 126.652 202.685C125.991 198.438 126.003 194.121 126.048 189.83L126.097 185.127C126.135 181.194 126.149 177.258 126.004 173.326C125.821 168.266 125.464 163.21 124.987 158.171L124.738 155.549C124.442 152.481 124.11 149.39 123.536 146.365C124.006 146.389 127.712 140.033 129.769 136.481C130.52 135.884 131.154 135.143 131.399 134.183C131.45 133.983 131.476 133.781 131.492 133.579C131.938 132.875 132.41 132.19 132.907 131.525L133.015 131.476C133.099 131.438 133.164 131.406 133.202 131.385C134.286 130.768 135.192 129.834 135.812 128.751C136.021 128.386 136.193 128.005 136.332 127.615C137.216 126.745 138.142 125.915 139.114 125.137C139.209 125.06 139.308 124.989 139.404 124.914C140.642 124.451 141.728 123.753 142.52 122.749C142.851 122.543 143.184 122.342 143.52 122.145C144.529 122.135 145.548 121.9 146.54 121.491C148.354 120.744 149.802 119.268 151.624 118.584C153.552 117.862 155.582 119.504 157.629 119.208C158.152 119.132 158.67 118.973 159.152 118.742C160.305 119.966 161.529 121.121 162.878 122.131C164.836 123.597 166.838 124.267 169.108 124.93C170.233 126 171.492 127.037 173.011 127.189C176.525 130.006 180.284 132.382 184.24 134.588C184.876 134.942 185.508 135.102 186.109 135.106C187.349 135.887 188.703 136.488 190.134 136.904C190.582 137.034 191.045 137.061 191.499 137.005L192.74 138.019V138.019C193.604 138.724 194.526 139.061 195.408 139.083C195.944 139.495 196.5 139.885 197.072 140.259C197.685 140.662 198.481 140.828 199.28 140.78C200.5 141.976 202.082 142.102 203.407 141.551C203.589 141.658 203.777 141.759 203.987 141.859C204.273 141.994 204.571 142.109 204.876 142.201C206.257 143.694 208.28 144.477 210.307 144.272C211.82 145.202 213.582 145.685 215.304 145.577C215.567 146.9 215.784 148.227 215.968 149.56L215.987 150.535C215.989 150.694 215.989 150.817 215.987 150.898L215.986 150.93C215.818 155.209 215.725 159.489 215.559 163.769L215.544 164.106C215.354 167.845 214.437 174.661 219.918 174.513C221.961 174.458 223.988 172.95 225.578 171.71L225.802 171.535C225.924 171.44 226.049 171.342 226.175 171.243C227.363 171.088 228.536 170.798 229.736 170.754C231.218 170.702 232.775 170.855 234.219 171.191C236.767 171.785 239.231 172.948 240.893 175.054C241.038 175.238 241.173 175.432 241.301 175.626C241.419 176.026 241.62 176.393 241.886 176.713C243.458 180.256 242.551 184.938 240.813 188.179C238.743 192.039 235.467 194.708 231.348 196.053L231.142 196.119C228.327 197 227.251 198.708 225.721 201.081C224.287 203.309 222.643 205.384 220.878 207.356C217.461 211.169 212.666 214.317 210.68 219.144C210.278 220.116 211.427 221.032 212.317 220.783C215.803 219.801 218.247 217.312 220.781 214.838C222.534 213.124 224.221 211.342 225.803 209.47C226.135 209.623 226.5 209.727 226.881 209.773C228.56 209.979 230.291 209.893 231.761 208.986C232.439 209.048 233.144 208.812 233.669 208.331C234.149 207.888 234.564 207.409 234.914 206.9C235.447 206.946 235.969 206.961 236.468 206.878C236.709 206.855 236.942 206.792 237.155 206.688C237.552 206.53 237.928 206.288 238.274 205.916C238.974 205.163 239.242 204.099 239.113 203.088C239.251 203.059 239.389 203.023 239.525 202.977C240.456 202.661 241.174 202.033 241.632 201.179C242.452 200.718 243.19 200.092 243.75 199.428C244.43 198.62 244.944 197.709 245.246 196.703C245.558 196.557 245.861 196.389 246.151 196.192C248.23 194.782 249.42 192.135 248.603 189.687L248.576 189.61C248.534 189.5 248.459 189.312 248.367 189.1C248.38 188.928 248.394 188.755 248.404 188.583L248.432 188.061V188.061L248.849 187.884V187.884C250.926 187.056 252.33 185.938 252.579 183.595C252.631 183.111 252.444 182.617 252.148 182.204L252.149 182.074V182.074C252.284 182.004 252.413 181.932 252.526 181.86C253.658 181.135 254.354 179.836 254.276 178.492C254.204 177.267 253.528 176.291 252.767 175.388L252.549 175.134C252.531 175.114 252.511 175.091 252.489 175.066L252.993 174.908C253.319 174.804 253.618 174.7 253.833 174.579C254.665 174.112 255.371 173.48 255.806 172.677C255.869 172.577 255.933 172.479 255.992 172.373C256.553 171.345 256.627 170.029 256.264 168.926C256.221 168.795 256.166 168.673 256.109 168.551C257.639 168.011 258.817 166.893 258.959 164.834C259.015 164.024 258.838 163.217 258.454 162.526C258.539 162.061 258.556 161.578 258.501 161.101C259.04 160.591 259.458 159.977 259.645 159.228C259.998 157.812 259.351 156.465 258.389 155.23C258.745 154.254 258.764 153.152 258.357 152.169C258.514 151.678 258.603 151.159 258.608 150.627C258.618 149.447 258.256 148.462 257.671 147.624C258.493 146.615 258.884 145.275 258.398 144.019C258.052 143.127 257.657 142.31 257.201 141.553C257.441 140.978 257.58 140.334 257.58 139.612C257.58 138.314 257.094 137.286 256.352 136.444C256.674 134.907 256.019 133.036 254.591 132.359C254.052 132.103 253.332 131.837 252.538 131.629C252.24 130.696 251.928 129.766 251.6 128.843C251.082 127.39 250.526 125.957 249.936 124.541C250.275 124.839 250.632 125.117 251 125.369C252.165 126.854 253.709 128.14 255.007 128.909C257.579 130.435 260.522 129.53 261.792 126.977C262.986 127.87 264.418 128.399 265.946 128.218C267.679 128.013 269.264 126.888 269.696 125.133C269.759 124.879 269.797 124.605 269.8 124.329C270.794 125.038 271.834 125.691 272.975 126.064C274.428 126.541 275.911 125.398 276.102 123.976C276.178 123.412 276.073 122.913 275.849 122.492L275.991 122.436C276.014 122.427 276.038 122.416 276.061 122.405C276.823 122.048 277.415 121.392 277.696 120.635C279.346 121.275 281.234 120.525 281.758 118.706C282.381 116.544 282.418 114.355 281.931 112.248C283.679 110.975 284.818 108.834 285.012 106.595C285.153 104.988 284.771 103.505 284.097 102.134C285.75 101.514 286.318 99.3416 285.533 97.7764C286.576 97.1775 287.257 95.9077 287.272 94.6716C287.738 93.9636 287.888 93.052 287.501 92.0303C286.991 90.6842 285.952 89.558 284.763 88.6748C285.282 87.7698 285.667 86.7828 285.906 85.7629C286.892 85.4738 287.687 84.6749 287.849 83.4753C288.052 81.9712 287.064 80.6962 285.735 80.3596C285.587 79.9015 285.407 79.4535 285.185 79.0232C285.842 77.4615 285.745 75.4869 284.897 73.7795C284.146 72.2699 282.924 71.3468 281.453 70.7083C281.827 69.4243 281.332 68.1437 280.086 67.1894C278.564 66.023 276.896 65.1315 275.142 64.5016C275.298 62.4115 274.427 60.271 272.367 59.5422C271.816 59.3475 271.243 59.2757 270.66 59.2781C270.237 58.356 269.531 57.6065 268.61 56.9429C267.216 55.9393 264.611 56.5524 263.838 58.1263L263.8 58.2072C263.761 58.2964 263.718 58.3779 263.678 58.4643C263.522 57.7002 263.158 56.9783 262.573 56.3866C261.109 54.9072 259.564 54.8795 258.078 55.5121C257.805 54.834 257.475 54.1892 257.073 53.5996C255.615 51.4605 253.207 51.1881 251.444 52.3465C250.737 51.7236 249.948 51.2433 249.075 50.9695ZM238.653 179.604C235.718 178.451 232.156 178.792 229.255 179.898L229.042 179.981C226.48 180.997 222.318 183.256 221.816 186.145C221.556 187.641 222.975 188.935 224.416 188.148C225.669 187.464 226.371 186.086 227.368 185.087C228.355 184.098 229.459 183.303 230.664 182.605C233.177 181.151 235.818 180.586 238.653 180.166C238.972 180.121 238.885 179.694 238.653 179.604Z" fill="#111111"/>
<path fill-rule="evenodd" clip-rule="evenodd" d="M182.398 195.656C178.609 193.374 164.448 195.047 153.323 195.656C144.49 196.14 138.18 195.181 136.161 196.541C131.598 199.613 133.814 214.468 141.676 216.499C149.538 218.531 178.682 221.368 183.707 216.499C188.732 211.63 189.196 199.751 182.398 195.656Z" fill="white"/>
<path fill-rule="evenodd" clip-rule="evenodd" d="M177.49 191.727C171.544 191.005 165.78 192.826 159.966 193.744C156.897 194.229 153.824 194.591 150.718 194.725C150.093 194.752 149.468 194.768 148.843 194.781C148.785 194.231 148.477 193.725 147.809 193.422C146.441 192.802 145.346 192.522 143.845 192.582C142.47 192.636 141.09 192.778 139.736 193.026C137.278 193.477 134.808 194.5 133.01 196.277C128.848 200.391 129.482 206.998 132.697 211.478C139.341 220.736 151.467 221.166 161.852 221.045L162.811 221.033C172.267 220.897 185.796 222.308 190.092 211.545C191.672 207.587 191.452 203 189.518 199.204C187.211 194.676 182.354 192.318 177.49 191.727ZM147.953 207.142L148.037 207.145C152.397 207.313 156.756 207.432 161.118 207.509C160.988 208.629 160.855 209.75 160.702 210.869C160.583 211.749 160.455 212.628 160.322 213.506C160.265 213.877 160.058 214.454 160.117 214.823L160.138 214.968V214.968C159.914 215.07 159.711 215.233 159.559 215.47C159.507 215.552 159.469 215.634 159.431 215.717C156.044 215.743 152.399 215.677 148.947 215.062L148.94 214.987V214.987C148.877 214.545 148.694 214.248 148.45 214.045C148.207 212.638 148.23 211.138 148.136 209.742C148.077 208.875 148.014 208.009 147.953 207.142ZM164.45 207.568C167.593 207.622 170.736 207.663 173.878 207.624L175.304 207.602V207.602C175.003 209.219 174.675 210.83 174.403 212.457C174.119 214.153 175.611 215.231 176.903 215.188C176.758 215.212 176.613 215.236 176.468 215.257C172.433 215.828 168.243 215.676 164.148 215.672C164.368 214.385 164.279 212.934 164.312 211.86L164.318 211.694C164.381 210.318 164.425 208.943 164.45 207.568ZM185.795 207.271C185.686 208.112 185.474 208.935 185.157 209.701C183.815 212.936 180.74 214.446 177.486 215.082C178.051 214.887 178.499 214.419 178.612 213.616C178.894 211.621 178.996 209.592 179.003 207.566C181.271 207.545 183.554 207.496 185.795 207.271ZM136.127 206.581C137.742 206.962 139.618 206.787 141.202 206.859C142.686 206.926 144.17 206.985 145.654 207.045C145.584 208.059 145.516 209.072 145.442 210.085C145.346 211.394 145.337 212.777 145.087 214.081C142.1 213.061 139.424 211.426 137.417 208.811C136.916 208.16 136.468 207.395 136.127 206.581ZM178.173 197.036C180.86 197.673 183.404 199.018 184.771 201.478C185.582 202.938 185.939 204.668 185.87 206.373C183.599 206.109 181.288 206.008 178.989 205.925C178.981 205.511 178.971 205.097 178.959 204.684L178.924 203.626C178.861 201.608 178.829 199.073 178.173 197.036ZM164.262 197.283L165.445 197.15C168.731 196.775 172.016 196.382 175.302 196.607C175.778 196.64 176.26 196.692 176.744 196.763C176.164 198.86 176.212 201.322 175.97 203.398C175.876 204.201 175.758 204.997 175.626 205.789L175.056 205.763V205.763C171.53 205.572 168 205.454 164.471 205.314C164.472 204.651 164.468 203.988 164.457 203.324L164.444 202.661C164.404 200.966 164.514 199.057 164.262 197.283ZM147.761 197.014C151.202 197.569 154.759 197.687 158.14 197.692C159.491 197.693 160.84 197.61 162.189 197.491C162.101 198.209 162.056 198.936 161.989 199.645C161.856 201.076 161.704 202.506 161.538 203.934L161.391 205.184V205.184C157.053 204.987 152.716 204.775 148.379 204.554L147.767 204.521V204.521L147.596 202.12C147.479 200.518 147.351 198.917 147.169 197.323L147.305 197.274V197.274C147.465 197.208 147.617 197.117 147.761 197.014ZM146.266 197.61C146.076 199.874 145.971 202.148 145.832 204.416L142.973 204.264C142.496 204.238 142.02 204.211 141.544 204.184C139.691 204.077 137.311 203.516 135.479 204.039C135.339 202.373 135.815 200.751 137.318 199.632C139.956 197.666 143.315 198.366 146.266 197.61ZM156.033 177.366C151.776 174.927 141.095 172.434 140.419 180.099C140.107 183.625 142.728 186.548 145.789 187.852L145.904 187.9C148.775 189.08 153.862 190.414 156.347 187.854C158.414 185.723 155.672 181.902 153.103 183.648C151.783 184.545 149.003 183.884 147.53 183.457L147.438 183.43C145.848 182.963 143.729 181.467 144.386 179.509C144.968 177.776 147.443 177.46 148.993 177.404C151.308 177.321 153.56 177.858 155.853 178.033C156.216 178.061 156.328 177.535 156.033 177.366ZM138.399 165.042C132.621 164.771 129.027 171.082 130.355 176.254C130.585 177.146 131.583 178.022 132.546 177.921L132.788 177.899C132.912 177.887 133.035 177.872 133.149 177.84C134.064 177.587 134.883 176.635 134.817 175.649L134.799 175.362C134.664 172.919 134.929 170.104 137.831 169.513C140.292 169.011 141.666 171.381 141.695 173.562C141.701 173.95 142.136 174.22 142.478 174.012C144.258 172.929 144.566 170.774 143.886 168.918C143.025 166.567 140.869 165.158 138.399 165.042ZM181.276 166.396C177.072 164.992 172.535 167.234 170.499 170.953C169.785 171.16 169.072 171.711 169.171 172.554C169.314 173.767 169.53 174.532 170.371 175.452C171.686 176.891 174.149 176.155 174.696 174.384L174.719 174.304C175.34 172.014 177.86 170.503 180.155 171.304C182.837 172.241 182.759 175.074 184.64 176.724C184.861 176.918 185.126 176.949 185.391 176.821C187.389 175.855 187.03 172.949 186.318 171.285C185.384 169.102 183.568 167.16 181.276 166.396ZM187.003 153.622C183.595 150.144 174.711 146.779 172.38 153.201C171.936 154.425 172.881 156.074 174.154 156.328C176.239 156.743 178.089 155.837 180.16 156C181.836 156.132 183.585 156.692 184.925 157.731C188.638 160.609 189.455 165.476 192.041 169.139C192.167 169.317 192.412 169.242 192.435 169.032C193.024 163.7 190.735 157.431 187.003 153.622ZM142.567 150.198C140.306 149.4 137.745 149.468 135.473 150.177C133.183 150.891 131.081 152.247 129.462 154.019C128.727 154.823 128.047 155.711 127.502 156.656C127.212 157.157 126.908 158.191 126.579 158.807C124.797 159.836 124.036 162.18 125.631 163.848L125.703 163.921L125.916 164.133C126.773 164.982 128.066 165.35 129.236 165.01C131.854 164.253 132.172 162.189 133.079 160C133.677 158.553 134.703 157.273 135.947 156.333C138.886 154.112 143.705 153.405 147.244 154.451C147.433 154.507 147.654 154.267 147.52 154.093C146.849 153.224 146.463 152.511 145.565 151.81C144.654 151.098 143.659 150.584 142.567 150.198Z" fill="#111111"/>
<path fill-rule="evenodd" clip-rule="evenodd" d="M119.571 179.228C123.783 183.581 130.814 184.83 136.417 182.496C150.805 176.482 143.763 157.725 132.667 152.688C131.28 152.342 129.429 151.522 127.741 151.336C127.588 151.261 127.256 151.478 126.853 151.273C114.618 152.639 111.831 171.64 119.571 179.228M165.978 180.342C170.702 186.61 179.484 188.543 186.659 185.63C200.834 180.045 195.807 163.412 186.108 156.892C165.622 149.191 157.162 168.785 165.978 180.342M196.706 166.454C196.72 166.448 196.733 166.445 196.746 166.439C196.671 166.406 196.596 166.373 196.522 166.339C196.546 166.403 196.573 166.466 196.596 166.529C196.633 166.504 196.665 166.474 196.706 166.454M109.819 159.679C110.976 159.682 112.647 159.872 113.604 160.675C115.965 152.709 124.68 145.337 132.259 150.713C138.227 152.633 142.656 156.891 145.173 162.553C149.711 159.852 156.848 161.005 160.783 164.577C163.361 156.057 169.704 153.073 177.254 152.633C185.495 151.283 193.709 159.289 196.272 165.712C198.403 165.469 201.587 164.791 203.592 166.106C216.603 162.693 239.35 160.811 241.995 162.708C243.881 163.431 244.915 167.882 242.282 168.122C239.988 167.796 242.55 164.861 240.237 164.541C227.914 163.776 215.952 166.259 203.759 167.301C202.671 168.766 199.153 169.256 197.277 168.667C200.232 179.563 193.853 186.975 184.294 189.195C169.493 192.597 156.616 179.351 160.486 165.574C156.003 163.343 150.845 163.438 145.961 164.614C154.123 194.663 105.746 193.315 113.302 161.704C108.273 164.206 107.181 160.184 109.819 159.679" fill="#111111"/>
</svg>
